<?xml version="1.0" standalone="no"?>
<!DOCTYPE svg PUBLIC "-//W3C//DTD SVG 1.1//EN" "http://www.w3.org/Graphics/SVG/1.1/DTD/svg11.dtd" >
<svg>
<metadata>
Created by FontForge 20090914 at Wed Oct 31 19:59:58 2018
 By www-data
Copyright &#194;&#169; 1995-2002 Microsoft Corporation. All rights reserved.
</metadata>
<defs>
<font id="GoudyStout" horiz-adv-x="1689" >
  <font-face 
    font-family="Goudy Stout"
    font-weight="400"
    font-stretch="normal"
    units-per-em="2048"
    panose-1="2 2 9 4 7 3 11 2 4 1"
    ascent="1638"
    descent="-410"
    x-height="1518"
    cap-height="1524"
    bbox="-19 -715 4617 2087"
    underline-thickness="160"
    underline-position="-192"
    unicode-range="U+0020-U+F002"
  />
<missing-glyph horiz-adv-x="1024" 
d="M128 0v1638h768v-1638h-768zM256 128h512v1382h-512v-1382z" />
    <glyph glyph-name=".notdef" horiz-adv-x="1024" 
d="M128 0v1638h768v-1638h-768zM256 128h512v1382h-512v-1382z" />
    <glyph glyph-name="space" unicode=" " horiz-adv-x="1024" 
 />
    <glyph glyph-name="exclam" unicode="!" horiz-adv-x="1118" 
d="M342 155c0 58 21 107.5 63 148.5s92 61.5 150 61.5s108 -20.5 150 -61.5s63 -90.5 63 -148.5s-21 -107.5 -63 -148.5s-92 -61.5 -150 -61.5s-108 20.5 -150 61.5s-63 90.5 -63 148.5zM545 482c53.333 0 93 20.666 119 61.999c9.33301 15.333 26.333 60.333 51 135
c95.333 290.667 143 468 143 532c0 222.667 -96.333 334 -289 334c-115.333 0 -198 -24.333 -248 -73s-75 -130.667 -75 -246c0 -125.333 45.667 -307.666 137 -546.999c27.333 -71.333 45 -114 53 -128c28 -46 64.333 -69 109 -69z" />
    <glyph glyph-name="quotedbl" unicode="&#x22;" horiz-adv-x="1036" 
d="M308 1543c43.333 0 75.999 -14.334 97.999 -43.001c16 -21.333 24 -44.666 24 -69.999c0 -66.667 -8 -152.667 -24 -258c-24.667 -159.333 -58.334 -239 -101.001 -239c-37.333 0 -68.666 77.667 -93.999 233c-21.333 130 -30 214.667 -26 254
c4 41.333 20.333 73.333 49 96c22.667 18 47.334 27 74.001 27zM697.999 1543c43.333 0 75.999 -14.334 97.999 -43.001c16 -21.333 24 -44.666 24 -69.999c0 -66.667 -8 -152.667 -24 -258c-24.667 -159.333 -58.334 -239 -101.001 -239
c-37.333 0 -68.666 77.667 -93.999 233c-21.333 130 -30 214.667 -26 254c4 41.333 20.333 73.333 49 96c22.667 18 47.334 27 74.001 27z" />
    <glyph glyph-name="numbersign" unicode="#" horiz-adv-x="1929" 
d="M779 905l-61 -346h484l63 346h-486zM883 1487l-68 -380.998h486l69 381h61l-67 -381h173c16 0 39.167 1.33301 69.5 4s53.166 4 68.499 4c33.333 0 50 -12 50 -36c0 -13.333 -4.66699 -29.333 -14 -48l-22 -45c-15.333 -38.667 -30.333 -62 -45 -70
c-11.333 -6.66699 -40 -10 -86 -10h-230l-61 -346h262c16 0 39.167 1.5 69.5 4.5s53.166 4.5 68.499 4.5c33.333 0 50 -12 50 -36c0 -13.333 -4.66699 -29.333 -14 -48l-22 -45c-15.333 -38.667 -30.333 -62.334 -45 -71.001c-12 -6.66699 -40.667 -10 -86 -10h-318
l-72 -407h-68l73 407h-482l-73 -407h-73l74 407h-146c-12 0 -29.5 -1 -52.5 -3s-40.5 -3 -52.5 -3c-35.333 0 -54.666 0.333008 -57.999 1c-24 4 -36 15.667 -36 35c0 7.33301 11.667 38.666 35 93.999c21.333 51.333 67.333 77 138 77h209l63 346h-238
c-12 0 -29.667 -1 -53 -3s-41 -3 -53 -3c-35.333 0 -54.666 0.333008 -57.999 1c-24 4 -36 15.667 -36 35c0 14 13.333 47.667 40 101c22.667 46.667 67 70 133 70h302l69 381h66z" />
    <glyph glyph-name="dollar" unicode="$" 
d="M931 -41c0.666992 -17.333 4.00098 -61.332 10.001 -131.999c4 -54 6 -98 6 -132c0 -41.333 -33 -62 -99 -62c-39.333 0 -64.333 10.667 -75 32c-7.33301 14 -11 42.667 -11 86c0 26.667 0.333008 62.334 1 107.001c0.666992 54 1 90 1 108
c-110 2.66699 -228 24.667 -354 66c-165.333 54.667 -248 122.667 -248 204c0 30.667 8.33301 66.667 25 108c20.667 49.333 43.667 74 69 74c16.667 0 34.334 -18 53.001 -54c24 -46.667 37.667 -72 41 -76c29.333 -31.333 94.666 -63.333 195.999 -96
c92 -30.667 164.667 -47.334 218 -50.001v271c-172.667 27.333 -317 79.666 -433 156.999c-148 98.667 -222 224.667 -222 378c0 348 218.333 541.667 655 581c-0.666992 7.33301 -2.33398 23.666 -5.00098 48.999c-2 20.667 -3 37.334 -3 50.001c0 60 26.667 90 80 90
c68.667 0 103 -24 103 -72c0 -12.667 -1.33301 -31.167 -4 -55.5s-4 -42.5 -4 -54.5l56 1c78.667 1.33301 173.667 -16.667 285 -54c135.333 -46 203 -100 203 -162c0 -30.667 -15 -71.667 -45 -123c-32 -56 -62 -84 -90 -84c-20.667 0 -45 18 -73 54
c-38 48.667 -59.333 75 -64 79c-71.333 58 -162 100 -272 126v-318c203.333 -54 345.333 -107.333 426 -160c135.333 -88.667 203 -215.667 203 -381c0 -154.667 -67.667 -286 -203 -394c-122.667 -97.333 -264.667 -151 -426 -161zM764.001 1101v276.999
c-48.667 0.666992 -97.667 -6.66602 -147 -21.999c-66.667 -20.667 -100 -50 -100 -88c0 -76 82.333 -131.667 247 -167zM1113 231c0 45.333 -20.334 79.665 -61.001 102.998c-18.667 10.667 -59 24.334 -121 41.001v-229c32.667 0.666992 68.334 7.33398 107.001 20.001
c50 17.333 75 39 75 65z" />
    <glyph glyph-name="percent" unicode="%" horiz-adv-x="1397" 
d="M686 1231c0 -88 -29.667 -163 -89 -225s-131 -93 -215 -93s-155.667 31 -215 93s-89 137 -89 225c0 87.333 29.667 162 89 224s131 93 215 93s155.667 -31 215 -93s89 -136.667 89 -224zM487 1231c0 58 -10 107.5 -30 148.5s-44 61.5 -72 61.5s-52 -20.5 -72 -61.5
s-30 -90.5 -30 -148.5s10 -107.5 30 -148.5s44 -61.5 72 -61.5s52 20.5 72 61.5s30 90.5 30 148.5zM1289 268c0 -87.333 -29.667 -162 -89 -224s-131 -93 -215 -93s-155.667 31 -215 93s-89 136.667 -89 224c0 88 29.667 163 89 225s131 93 215 93s155.667 -31 215 -93
s89 -137 89 -225zM1091 268c0 58 -10.167 107.5 -30.5 148.5s-44.5 61.5 -72.5 61.5s-52 -20.5 -72 -61.5s-30 -90.5 -30 -148.5s10 -107.5 30 -148.5s44 -61.5 72 -61.5s52.167 20.5 72.5 61.5s30.5 90.5 30.5 148.5zM243 -51l-71 41l910 1556l71 -41z" />
    <glyph glyph-name="ampersand" unicode="&#x26;" horiz-adv-x="2720" 
d="M2535 1181c0 -142.667 -67.332 -227.669 -201.999 -255.002c-117.333 -24 -176 -48 -176 -72c0 -21.333 5.5 -49.666 16.5 -84.999s16.5 -64 16.5 -86c0 -254 -119.667 -444.667 -359 -572c-189.333 -100.667 -423 -151 -701 -151c-211.333 0 -407.333 54.667 -588 164
c-210 127.333 -315 289.666 -315 486.999c0 120 49.333 221.333 148 304c68.667 58 151.334 100.667 248.001 128c-28 15.333 -54.333 45.833 -79 91.5s-37 85.167 -37 118.5c0 96 45 173.667 135 233c79.333 52 169.333 78 270 78c74 0 137.333 -15 190 -45
c56.667 -31.333 85 -72.333 85 -123c0 -50 -2 -83.333 -6 -100c-8.66699 -41.333 -29.334 -62 -62.001 -62c-14.667 0 -24.334 12 -29.001 36c-6 32 -14.333 54 -25 66c-21.333 24 -59 36 -113 36c-78 0 -117.333 -46.333 -118 -139c0 -38.667 18 -71.667 54 -99
c34 -26 70.667 -39 110 -39c13.333 0 33.333 0.833008 60 2.5s46.667 2.5 60 2.5c55.333 0 83 -22 83 -66c0 -19.333 -15.667 -44.333 -47 -75c-45.333 -44.667 -74 -75.334 -86 -92.001c-31.333 -43.333 -47 -90.666 -47 -141.999c0 -159.333 48.667 -284 146 -374
c92.667 -86 217.667 -129 375 -129c116 0 212.333 31 289 93c82.667 66.667 124 156.667 124 270c0 88 -18.333 160 -55 216c-43.333 66.667 -106.666 100 -189.999 100c-40.667 0 -80.334 -8 -119.001 -24c-50 -20 -75 -47 -75 -81c0 -22.667 16.667 -38.667 50 -48
s50 -25.333 50 -48c0 -31.333 -15.667 -55.333 -47 -72c-25.333 -13.333 -55 -20 -89 -20c-52.667 0 -99.334 31 -140.001 93c-36.667 56 -55 112 -55 168c0 111.333 35.833 202.833 107.5 274.5s162.834 107.5 273.501 107.5c54 0 138.667 -11 254 -33s204 -33 266 -33
c101.333 0 152 30 152 90c0 8.66699 -7 25.334 -21 50.001s-21 41 -21 49c0 8.66699 7.66699 19.834 23 33.501s27.333 20.5 36 20.5c60.667 0 107 -27.333 139 -82c27.333 -45.333 41 -100.333 41 -165z" />
    <glyph glyph-name="quotesingle" unicode="'" horiz-adv-x="1036" 
d="M498 1543c43.333 0 75.999 -14.334 97.999 -43.001c16 -21.333 24 -44.666 24 -69.999c0 -66.667 -8 -152.667 -24 -258c-24.667 -159.333 -58.334 -239 -101.001 -239c-37.333 0 -68.666 77.667 -93.999 233c-21.333 130 -30 214.667 -26 254
c4 41.333 20.333 73.333 49 96c22.667 18 47.334 27 74.001 27z" />
    <glyph glyph-name="parenleft" unicode="(" horiz-adv-x="1599" 
d="M1066 1700c-240 0 -440.667 -107.668 -602 -323.001c-156.667 -209.333 -235 -461.333 -235 -756c0 -289.333 67.333 -533 202 -731c145.333 -214 339 -321 581 -321c156.667 0 235 25 235 75c0 32.667 -14.333 53.334 -43 62.001c-11.333 3.33301 -34.333 5 -69 5
c-88 0 -156.333 110 -205 330c-40 177.333 -60 376 -60 596c0 180.667 21.333 370 64 568c50.667 232.667 110.667 349 180 349c56.667 0 91.667 2 105 6c28.667 8.66699 43 30.667 43 66c0 26 -27.667 46 -83 60c-37.333 9.33301 -75 14 -113 14z" />
    <glyph glyph-name="parenright" unicode=")" horiz-adv-x="1599" 
d="M425 1700c240 0 440.667 -107.668 602 -323.001c156.667 -209.333 235 -461.333 235 -756c0 -289.333 -67.333 -533 -202 -731c-145.333 -214 -339 -321 -581 -321c-156.667 0 -235 25 -235 75c0 32.667 14.333 53.334 43 62.001c11.333 3.33301 34.333 5 69 5
c88 0 156.333 110 205 330c40 177.333 60 376 60 596c0 180.667 -21.333 370 -64 568c-50.667 232.667 -110.667 349 -180 349c-56.667 0 -91.667 2 -105 6c-28.667 8.66699 -43 30.667 -43 66c0 26 27.667 46 83 60c37.333 9.33301 75 14 113 14z" />
    <glyph glyph-name="asterisk" unicode="*" horiz-adv-x="1453" 
d="M700 1749l218 -211l-237 -218l-234 224zM745 1272l205 205l185 -173l-198 -189zM681 1234l224 -218l-212 -234l-227 234zM632 1285l-211 -186l-186 179l192 193z" />
    <glyph glyph-name="plus" unicode="+" horiz-adv-x="1690" 
d="M942 491c0 -16 1.33105 -39.167 3.99805 -69.5s4 -53.166 4 -68.499c0 -33.333 -11.667 -50 -35 -50c-13.333 0 -29.333 4.66699 -48 14l-46 22c-38.667 15.333 -62 30.333 -70 45c-6.66699 11.333 -10 40 -10 86v189h-181c-12 0 -29.667 -1 -53 -3s-41 -3 -53 -3
c-35.333 0 -54.666 0.333008 -57.999 1c-24 4 -36 15.667 -36 35c0 5.33301 12 36.333 36 93c22.667 53.333 68.334 80 137.001 80l208 -1v158c0 12 -1 29.5 -3 52.5s-3 40.5 -3 52.5c0 35.333 0.333008 54.666 1 57.999c4 24 15.667 36 35 36
c6.66699 0 37.334 -11.5 92.001 -34.5s81.667 -69.167 81 -138.5l-1 -185h199c16 0 39.167 1.33301 69.5 4s53.166 4 68.499 4c33.333 0 50 -11.667 50 -35c0 -13.333 -4.33301 -29.333 -13 -48l-22 -46c-15.333 -38.667 -30.333 -62 -45 -70
c-11.333 -6.66699 -40 -10 -86 -10h-221c0 -8.66699 -0.333008 -36.667 -1 -84v-84z" />
    <glyph glyph-name="comma" unicode="," horiz-adv-x="846" 
d="M690 10c0 -74.667 -29 -150.333 -87 -227c-63.333 -82.667 -133 -124 -209 -124c-54 0 -81 28.333 -81 85c0 21.333 21.333 43.333 64 66s64 57.667 64 105c0 24 -11 36 -33 36c-10 0 -22 -1 -36 -3s-26 -3 -36 -3c-50 0 -91.333 19.667 -124 59
c-30.667 36 -46 78.333 -46 127c0 60.667 26.333 114 79 160c50 43.333 104.667 65 164 65c187.333 0 281 -115.333 281 -346z" />
    <glyph glyph-name="hyphen" unicode="-" horiz-adv-x="1008" 
d="M232 566c-17.333 0 -32.333 37.668 -45 113.001c-10 58.667 -15 105.667 -15 141c0 26.667 30.333 51 91 73c310 112.667 485.333 169 526 169c20.667 0 36.667 -34.667 48 -104c8 -48 12 -93.667 12 -137c0 -28 -2.33301 -47 -7 -57
c-6 -12.667 -101.333 -48.834 -286 -108.501s-292.667 -89.5 -324 -89.5z" />
    <glyph glyph-name="period" unicode="." horiz-adv-x="846" 
d="M196 155c0 58 20.833 107.5 62.5 148.5s91.834 61.5 150.501 61.5s108.834 -20.5 150.501 -61.5s62.5 -90.5 62.5 -148.5s-20.833 -107.5 -62.5 -148.5s-91.834 -61.5 -150.501 -61.5s-108.834 20.5 -150.501 61.5s-62.5 90.5 -62.5 148.5z" />
    <glyph glyph-name="slash" unicode="/" horiz-adv-x="1397" 
d="M238 -51l-71 41l910 1556l71 -41z" />
    <glyph glyph-name="zero" unicode="0" 
d="M1624 752c0 -238.667 -70.334 -432.001 -211.001 -580.001c-143.333 -151.333 -333.666 -227 -570.999 -227c-224 0 -404.333 75.333 -541 226c-131.333 146 -197 332 -197 558c0 228.667 64.333 418.334 193 569.001c136 158.667 316.667 238 542 238
c247.333 0 440 -68.833 578 -206.5s207 -330.167 207 -577.5zM864.999 1356c-64 0 -110.667 -82.667 -140 -248c-18 -103.333 -27 -215 -27 -335c0 -126 10.333 -249.667 31 -371c32.667 -188.667 83 -283 151 -283c112 0 168 163.667 168 491c0 193.333 -6 336.333 -18 429
c-26 211.333 -81 317 -165 317z" />
    <glyph glyph-name="one" unicode="1" 
d="M1597 43c-1.33301 -40 -27.002 -59.666 -77.002 -58.999l-629 16c-96.667 2 -218 0.333008 -364 -5c-176.667 -6.66699 -297.667 -10.334 -363 -11.001c-15.333 0 -28.666 3.66699 -39.999 11c-13.333 8 -20 19.333 -20 34c0.666992 26 12.334 43 35.001 51
c6.66699 2.66699 33.334 7.33398 80.001 14.001c35.333 2.66699 86.666 7.66699 153.999 15c86.667 12.667 130.334 42 131.001 88c1.33301 68 -2 158 -10 270c-8.66699 118.667 -13 210 -13 274c0 40 4.33301 172 13 396c2 52.667 -0.333008 84.667 -7 96
c-9.33301 17.333 -35.666 25.333 -78.999 24c-5.33301 0 -24.333 -2.33301 -57 -7s-52 -7 -58 -7c-70 0 -105 17 -105 51c0 15.333 10.667 30.333 32 45c18 12.667 31.333 19 40 19c6 0 103.333 17.333 292 52c207.333 38 332.666 60.333 375.999 67
c53.333 8.66699 143.333 25 270 49c86.667 16.667 140.667 24.667 162 24c48 -2 72 -16.333 72 -43c0 -43.333 -36.333 -70 -109 -80c-38.667 -5.33301 -65.334 -12.666 -80.001 -21.999c-22.667 -14.667 -34.334 -39.334 -35.001 -74.001
c10.667 -118.667 20.334 -308.334 29.001 -569.001c-8 -113.333 -17 -283.333 -27 -510c-0.666992 -47.333 7 -79.833 23 -97.5s46.667 -26.834 92 -27.501c6 0 30.667 -3.83301 74 -11.5s68 -11.5 74 -11.5c84 -1.33301 125.333 -21.666 124 -60.999z" />
    <glyph glyph-name="two" unicode="2" 
d="M770 1542c205.333 0 360.666 -31.3291 465.999 -93.9961c129.333 -76.667 194 -204.334 194 -383.001c0 -148 -53.667 -275.333 -161 -382c-70 -70 -186.667 -147.333 -350 -232h464c42.667 0 83.334 20.333 122.001 61c3.33301 3.33301 19.666 25.333 48.999 66
c18 25.333 34 38.666 48 39.999c16 1.33301 27.833 -4.33398 35.5 -17.001s10.834 -30 9.50098 -52c-1.33301 -18.667 -26.666 -90.334 -75.999 -215.001c-18 -44.667 -59.667 -110 -125 -196c-70 -92 -117.667 -138 -143 -138h-1158c-18 0 -35.333 5 -52 15
c-20 12 -30 27.333 -30 46c0 20 9 36.333 27 49c10 7.33301 38 22 84 44c16 7.33301 92.667 63.666 230 168.999c94.667 72.667 175.667 174.334 243 305.001c70 134.667 105 262.667 105 384c0 80.667 -24.667 143 -74 187c-40.667 36 -90 54 -148 54
c-78.667 0 -139 -28 -181 -84c-46.667 -62 -86.667 -93 -120 -93c-48.667 0 -70 23.333 -64 70c19.333 154.667 110.666 265.667 273.999 333c100.667 42 211 63 331 63z" />
    <glyph glyph-name="three" unicode="3" 
d="M682 -49c-66 0 -152.333 11.668 -259 35.001c-115.333 25.333 -197.666 53 -246.999 83c-34 20.667 -51 40 -51 58c0 25.333 2.5 40.166 7.5 44.499s19.5 6.5 43.5 6.5c28.667 0 52.334 -5 71.001 -15l58 -32c40.667 -19.333 100.334 -29 179.001 -29
c71.333 0 133.333 34.333 186 103s78 149 76 241c-2.66699 114.667 -54 187.334 -154 218.001c-58.667 18 -101.667 27 -129 27c-36.667 0 -55 24.333 -55 73c0 7.33301 27.667 23 83 47c67.333 30 118.666 62.667 153.999 98c56 54.667 84.667 122.334 86 203.001
c0.666992 62.667 -23 109.667 -71 141c-44.667 28 -106.334 41.667 -185.001 41c-36.667 -0.666992 -76.5 -17 -119.5 -49s-74.833 -48 -95.5 -48c-31.333 0 -47 17.667 -47 53c0 27.333 28 63.666 84 108.999c41.333 34 82 62 122 84c48 26 111.667 49.667 191 71
s145.333 32 198 32c159.333 0 288.666 -28 387.999 -84c106.667 -60.667 160 -145 160 -253c0 -136.667 -69 -254.667 -207 -354c94 -2 178.667 -35 254 -99c79.333 -68 119 -148.667 119 -242c0 -198.667 -95.333 -347.334 -286 -446.001c-150 -78 -334.667 -117 -554 -117
z" />
    <glyph glyph-name="four" unicode="4" 
d="M84 547c0 -96.667 0.332031 -150.671 0.999023 -162.004c2 -28.667 18.333 -43.667 49 -45h525c16.667 -2 25.667 -17.667 27 -47c3.33301 -89.333 8 -176.666 14 -261.999c4 -58.667 24.667 -88 62 -88s124.666 12.667 261.999 38c148 28 228.667 50 242 66
c8 9.33301 18.667 97.333 32 264c1.33301 19.333 8.33301 29 21 29c5.33301 0 19.833 -0.666992 43.5 -2s42.834 -2 57.501 -2c26.667 0 68 71 124 213c54 136 81 225.333 81 268c0 27.333 -12 41 -36 41c-14 0 -34.333 -13 -61 -39
c-73.333 -70.667 -138.666 -106.667 -195.999 -108c-18 -0.666992 -27 7.33301 -27 24c0 14.667 0.666992 42.334 2 83.001c0.666992 38 1 57.667 1 59c0 66.667 -4.5 158.5 -13.5 275.5s-13.5 208.833 -13.5 275.5c0 17.333 -7.66699 39 -23 65
c-17.333 30 -34.666 45 -51.999 45c-30 0 -52.667 -8.66699 -68 -26c-31.333 -35.333 -49 -54.666 -53 -57.999l-497 -375c-226.667 -174 -381.334 -301.667 -464.001 -383c-15.333 -15.333 -24.333 -24.666 -27 -27.999c-6.66699 -10 -10.667 -22.333 -12 -37
c-0.666992 -9.33301 -1 -37.333 -1 -84zM724.999 1016c8 0 11.333 -5.66602 10 -16.999c-6 -48 -14.333 -135.333 -25 -262c-0.666992 -18 -10 -26.667 -28 -26c-58 -0.666992 -146 1.33301 -264 6c-24.667 2 -37 5.33301 -37 10c0 5.33301 9.66699 17.666 29 36.999
c43.333 43.333 132.666 118.333 267.999 225c22.667 18 38.334 27 47.001 27z" />
    <glyph glyph-name="five" unicode="5" 
d="M280 730c1.33301 -36.667 23.999 -55.001 67.999 -55.001c20 0 49.5 7.66699 88.5 23s75.167 23 108.5 23c69.333 0 126 -26.667 170 -80c41.333 -49.333 62 -107.666 62 -174.999c0 -95.333 -20.333 -183 -61 -263c-46.667 -92.667 -106.334 -138 -179.001 -136
c-66 2 -132.667 22.667 -200 62s-103.666 59 -108.999 59c-39.333 0 -59 -22.667 -59 -68c0 -59.333 60.333 -104.666 181 -135.999c84.667 -22 170 -33 256 -33c212.667 0 393.334 39 542.001 117c190.667 100.667 286 252 286 454c0 163.333 -58.333 289.666 -175 378.999
c-110 84.667 -258.667 127 -446 127c-75.333 0 -155.5 -14.667 -240.5 -44s-130.5 -44 -136.5 -44s-9 5.66699 -9 17c0 8 5.66699 35.667 17 83c9.33301 38.667 16.5 61 21.5 67s18.5 9 40.5 9l678 -4c40.667 0 69.667 21 87 63c10 24.667 35.333 94.667 76 210
c42.667 120.667 64 184.667 64 192c0 25.333 -13 38 -39 38c-16 0 -34.333 -9.66699 -55 -29l-46 -46c-34.667 -30 -138.667 -45 -312 -45c-62 0 -143.167 2.16699 -243.5 6.5s-181.5 6.5 -243.5 6.5c-34 0 -56.667 -14.333 -68 -43c-16 -40.667 -33 -124 -51 -250l-36 -265
c-8.66699 -60 -18 -112.667 -28 -158c-6.66699 -27.333 -9.66699 -48 -9 -62z" />
    <glyph glyph-name="six" unicode="6" 
d="M820 887c62.667 0 116.333 -97.332 161 -291.999c34 -149.333 51.333 -274 52 -374c0.666992 -67.333 -25 -101.333 -77 -102c-63.333 -0.666992 -119.333 96.666 -168 291.999c-38.667 155.333 -58 279 -58 371c0 26 8 49.333 24 70c18 23.333 40 35 66 35z
M1545 571.001c0 146.667 -52.499 270.502 -157.499 371.502s-233.833 151.5 -386.5 151.5c0.666992 0 -53 -10.333 -161 -31c-4 -0.666992 -20.333 -5.33398 -49 -14.001c-25.333 -7.33301 -41.333 -11 -48 -11s-10 6.33301 -10 19c0 92.667 42 177 126 253
c76 69.333 164.333 114 265 134c70.667 14 112 23 124 27c31.333 11.333 47.666 28 48.999 50c2 27.333 -26 41 -84 41c-299.333 0 -549 -90.667 -749 -272c-206.667 -186.667 -310 -426.334 -310 -719.001c0 -179.333 73 -330 219 -452c134 -112 286 -168 456 -168
c203.333 0 371.333 53.667 504 161c141.333 114 212 267 212 459z" />
    <glyph glyph-name="seven" unicode="7" 
d="M1544 1450c0 31.333 -21.333 49.999 -64 55.999h-102c-51.333 0 -148.5 -1.5 -291.5 -4.5s-240.167 -4.5 -291.5 -4.5c-31.333 0 -78.333 1.83301 -141 5.5s-109.667 5.5 -141 5.5c-70 0 -112.667 -5.66699 -128 -17c-24.667 -18 -79.334 -158 -164.001 -420
c-4.66699 -14 -13.334 -34.667 -26.001 -62c-10 -22.667 -15 -36 -15 -40c0 -38.667 11.667 -58 35 -58c38 0 75 44.333 111 133c7.33301 17.333 27.666 34 60.999 50c38.667 18.667 101.334 28.667 188.001 30c-105.333 -2 -39.666 -3 197.001 -3
c191.333 0 295.333 -1.66699 312 -5c25.333 -5.33301 38 -17.666 38 -36.999c0 -10.667 -54.667 -77.667 -164 -201c-135.333 -152 -237 -276.667 -305 -374c-109.333 -156 -164 -279.667 -164 -371c0 -68.667 49.667 -126 149 -172
c50.667 -22.667 130.334 -46.667 239.001 -72c75.333 -17.333 134 -26 176 -26c46.667 0 69 19 67 57c-2.66699 50 -4 167 -4 351c0 110 37 253.667 111 431c18 42.667 86.667 188.667 206 438c74 154 111 257.333 111 310z" />
    <glyph glyph-name="eight" unicode="8" 
d="M842 228c0 -36 -6.99902 -66.6689 -20.999 -92.002c-18 -31.333 -43.333 -46.666 -76 -45.999c-86.667 2.66699 -158.667 30.667 -216 84c-66 62.667 -99 150.334 -99 263.001c0 42 9.33301 77 28 105c4.66699 6 22 24.333 52 55
c69.333 -46.667 137.666 -104 204.999 -172c84.667 -85.333 127 -151 127 -197zM426.001 713.998c-148.667 -95.333 -223.001 -202.331 -223.001 -320.998c0 -150.667 60.667 -264.667 182 -342c100.667 -64 231.334 -98 392.001 -102
c181.333 -4.66699 334.333 34.333 459 117c137.333 90 206 213.667 206 371c0 120 -39 228 -117 324c-16 19.333 -74.667 73.333 -176 162c125.333 61.333 188 151.666 188 270.999c0 122 -60.333 213.667 -181 275c-94 48.667 -207.667 73 -341 73
c-160 0 -293 -41 -399 -123c-112 -86.667 -168 -191.334 -168 -314.001c0 -73.333 20.667 -152 62 -236c38 -77.333 76.667 -129 116 -155zM883 1405c61.333 0 114.169 -22.167 158.502 -66.5s67.5 -98.5 69.5 -162.5c1.33301 -40.667 -2.33398 -72 -11.001 -94
c-6.66699 -18 -23.667 -43.333 -51 -76c-84.667 55.333 -141.334 95.333 -170.001 120c-66 58 -99 114 -99 168c0 74 34.333 111 103 111z" />
    <glyph glyph-name="nine" unicode="9" 
d="M865 607c-60 1.33301 -109.333 99.667 -148 295c-30 149.333 -44.333 274 -43 374c0.666992 67.333 25.667 101 75 101c60 0 111.667 -98.333 155 -295c34 -156 50.333 -280 49 -372c-0.666992 -26 -9 -49.333 -25 -70c-17.333 -22.667 -38.333 -33.667 -63 -33z
M180 934.001c-2.66699 -146.667 45.1689 -271.168 143.502 -373.501s220.166 -154.833 365.499 -157.5c0.666992 0 52 9.33301 154 28c3.33301 0.666992 19 5 47 13c24 6.66699 39.333 10 46 10c6 0 9 -6 9 -18c-1.33301 -92.667 -42 -176 -122 -250
c-72.667 -66.667 -157 -109 -253 -127c-68 -12.667 -107.667 -21 -119 -25c-29.333 -10.667 -45 -27 -47 -49c-2 -27.333 24.333 -41.333 79 -42c285.333 -4.66699 524 81 716 257c198.667 181.333 300.667 418.333 306 711c3.33301 179.333 -63.334 331.333 -200.001 456
c-126.667 114.667 -270.667 173.334 -432 176.001c-193.333 3.33301 -354.333 -47.667 -483 -153c-136.667 -112 -206.667 -264 -210 -456z" />
    <glyph glyph-name="colon" unicode=":" horiz-adv-x="846" 
d="M196 1036c0 58 20.833 107.5 62.5 148.5s91.834 61.5 150.501 61.5s108.834 -20.5 150.501 -61.5s62.5 -90.5 62.5 -148.5s-20.833 -107.667 -62.5 -149s-91.834 -62 -150.501 -62s-108.834 20.667 -150.501 62s-62.5 91 -62.5 149zM196 155
c0 58 20.833 107.5 62.5 148.5s91.834 61.5 150.501 61.5s108.834 -20.5 150.501 -61.5s62.5 -90.5 62.5 -148.5s-20.833 -107.5 -62.5 -148.5s-91.834 -61.5 -150.501 -61.5s-108.834 20.5 -150.501 61.5s-62.5 90.5 -62.5 148.5z" />
    <glyph glyph-name="semicolon" unicode=";" horiz-adv-x="846" 
d="M196 1036c0 58 20.833 107.5 62.5 148.5s91.834 61.5 150.501 61.5s108.834 -20.5 150.501 -61.5s62.5 -90.5 62.5 -148.5s-20.833 -107.667 -62.5 -149s-91.834 -62 -150.501 -62s-108.834 20.667 -150.501 62s-62.5 91 -62.5 149zM690 10
c0 -74.667 -29 -150.333 -87 -227c-63.333 -82.667 -133 -124 -209 -124c-54 0 -81 28.333 -81 85c0 21.333 21.333 43.333 64 66s64 57.667 64 105c0 24 -11 36 -33 36c-10 0 -22 -1 -36 -3s-26 -3 -36 -3c-50 0 -91.333 19.667 -124 59c-30.667 36 -46 78.333 -46 127
c0 60.667 26.333 114 79 160c50 43.333 104.667 65 164 65c187.333 0 281 -115.333 281 -346z" />
    <glyph glyph-name="less" unicode="&#x3c;" horiz-adv-x="1690" 
d="M1034 1124c0 -16 -25.167 -42.833 -75.5 -80.5s-171.166 -123.5 -362.499 -257.5l371 -346c22 -17.333 36 -36.666 42 -57.999c3.33301 -12 5 -35.667 5 -71c0 -75.333 0.333008 -109.666 1 -102.999c-4 -38 -20 -56.667 -48 -56c-16 0.666992 -83 54.667 -201 162
c-210 192.667 -317 290.667 -321 294c-8.66699 8 -38.667 30.667 -90 68c-27.333 20 -40.333 35.667 -39 47c2 15.333 27.667 39.666 77 72.999c93.333 64 144.666 99.667 153.999 107c284 217.333 439 326 465 326c14.667 0 22.667 -9.33301 24 -28
c-1.33301 21.333 -2 -4.33398 -2 -77.001z" />
    <glyph glyph-name="equal" unicode="=" horiz-adv-x="1690" 
d="M1076 864c46 0 74.668 3.33301 86.001 10c14.667 8 29.667 31.333 45 70l22 45c8.66699 18.667 13 34.667 13 48c0 24 -16.667 36 -50 36c-15.333 0 -38 -1.33301 -68 -4s-53 -4 -69 -4h-610c-69.333 0 -115 -26 -137 -78c-24 -56.667 -36 -87.667 -36 -93
c0 -19.333 12 -31 36 -35c3.33301 -0.666992 22.666 -1 57.999 -1c12 0 29.667 1 53 3s41 3 53 3h604zM1076 454c45.333 0 74.001 3.33203 86.001 9.99902c14.667 8.66699 29.667 32.334 45 71.001l22 45c8.66699 18.667 13 34.667 13 48c0 24 -16.667 36 -50 36
c-15.333 0 -38 -1.5 -68 -4.5s-53 -4.5 -69 -4.5h-610c-70 0 -115.667 -25.667 -137 -77c-24 -56.667 -36 -88 -36 -94c0 -19.333 12 -31 36 -35c3.33301 -0.666992 22.666 -1 57.999 -1c12 0 29.667 1 53 3s41 3 53 3h604z" />
    <glyph glyph-name="greater" unicode="&#x3e;" horiz-adv-x="1690" 
d="M1280 657c-2 -15.333 -27.6689 -39.666 -77.002 -72.999c-93.333 -64 -144.666 -99.667 -153.999 -107c-282.667 -216.667 -437.667 -325 -465 -325c-14.667 0 -23 9 -25 27c1.33301 -12.667 2 13 2 77c0 15.333 25.333 42 76 80s171.334 124 362.001 258l-370 346
c-22 17.333 -36 36.666 -42 57.999c-3.33301 12 -5 35.667 -5 71c0 76 -0.333008 110.667 -1 104c4 38 20 56.667 48 56c16 -0.666992 83 -55 201 -163l321 -294c8.66699 -8 38.667 -30.667 90 -68c27.333 -20 40.333 -35.667 39 -47z" />
    <glyph glyph-name="question" unicode="?" horiz-adv-x="1118" 
d="M328 155c0 58 21 107.5 63 148.5s92 61.5 150 61.5s107.833 -20.5 149.5 -61.5s62.5 -90.5 62.5 -148.5s-20.833 -107.5 -62.5 -148.5s-91.5 -61.5 -149.5 -61.5s-108 20.5 -150 61.5s-63 90.5 -63 148.5zM560 1546c277.333 0 416.002 -104.668 416.002 -314.001
c0 -122 -29.333 -222 -88 -300c-21.333 -28.667 -56.333 -64 -105 -106c-52.667 -45.333 -88.667 -79.666 -108 -102.999c-22 -26.667 -40 -75.667 -54 -147c-10 -48 -36.333 -72 -79 -72c-42 0 -77.833 17.667 -107.5 53s-44.5 74.333 -44.5 117
c0 52 16.5 128.167 49.5 228.5s49.5 180.5 49.5 240.5c0 40 -10.667 67 -32 81c-16.667 11.333 -45 17 -85 17c-10.667 0 -27.334 -7.83301 -50.001 -23.5s-45.667 -23.5 -69 -23.5c-34 0 -51 24.333 -51 73c0 79.333 41 147 123 203c73.333 50.667 151.666 76 234.999 76z
" />
    <glyph glyph-name="at" unicode="@" horiz-adv-x="2123" 
d="M1174 -453c-322.667 0 -583.331 75.335 -781.998 226.002c-221.333 167.333 -332 407 -332 719c0 305.333 108 556.333 324 753c210 190.667 469.333 286 778 286c237.333 0 448 -71.333 632 -214c198.667 -154 298 -346.333 298 -577
c0 -192.667 -64 -363.334 -192 -512.001c-134.667 -156 -296.667 -234 -486 -234c-100 0 -170.667 35 -212 105c-92 -69.333 -188 -104 -288 -104c-116.667 0 -211.334 50.333 -284.001 151c-65.333 91.333 -98 197.333 -98 318c0 154.667 50.333 300 151 436
c109.333 148 238.666 222 387.999 222c58 0 102.667 -7.33301 134 -22c34 -16 67.667 -47 101 -93c6 41.333 16.333 69 31 83s43 21 85 21c87.333 0 131 -34 131 -102c0 -7.33301 -0.666992 -15.333 -2 -24l-93 -562c-17.333 -104.667 -26 -163.334 -26 -176.001
c0 -30.667 16.667 -46 50 -46c30.667 0 73 19 127 57c72 50.667 127 122.667 165 216c34 83.333 51 173.333 51 270c0 184.667 -67 332.667 -201 444c-125.333 104.667 -282.333 157 -471 157c-240 0 -439 -80.5 -597 -241.5s-237 -361.5 -237 -601.5
c0 -247.333 83 -437.333 249 -570c152 -121.333 354.667 -182 608 -182c236 0 433.333 67.667 592 203c23.333 26.667 59.333 65.334 108 116.001c29.333 29.333 65.333 44 108 44c22.667 0 42.167 -8.83301 58.5 -26.5s24.5 -37.834 24.5 -60.501
c0 -30 -17 -69.333 -51 -118c-27.333 -40 -56 -74 -86 -102c-92.667 -84.667 -210.667 -150 -354 -196c-130.667 -42 -264.667 -63 -402 -63zM1141 938.002c-88.667 0 -167.666 -74.001 -236.999 -222.001c-59.333 -125.333 -89 -238 -89 -338
c0 -128.667 51.667 -193 155 -193c69.333 0 134.666 83 195.999 249c52.667 140.667 79 254.334 79 341.001c0 40.667 -7.33301 75.667 -22 105c-18 38.667 -45.333 58 -82 58z" />
    <glyph glyph-name="A" unicode="A" horiz-adv-x="2665" 
d="M2498 55c0 -53.333 -28.333 -79.999 -85 -79.999c-67.333 0 -168 4.16699 -302 12.5s-234.667 12.5 -302 12.5c-71.333 0 -178.666 -2.83301 -321.999 -8.5s-250.666 -8.5 -321.999 -8.5c-70 0 -105 16.667 -105 50c0 28 22 47.333 66 58l122 24
c44 12.667 66.333 36.334 67 71.001c0.666992 66.667 -40.333 109.667 -123 129c-38.667 9.33301 -111 13.666 -217 12.999l-202 -2c-63.333 -0.666992 -95 -40 -95 -118c0 -18.667 2.83301 -47 8.5 -85s8.5 -66.333 8.5 -85c0 -32 -27.333 -48 -82 -48
c-32.667 0 -105.334 32.667 -218.001 98c-116 67.333 -174 113.666 -174 138.999c0 43.333 19.333 65 58 65c25.333 0 49.666 -6.66699 72.999 -20c12 -6.66699 29.333 -19.667 52 -39c17.333 -14 29.333 -21 36 -21c44 0 84.667 46.667 122 140
c73.333 181.333 192.666 399.666 357.999 654.999c44.667 68.667 126.334 173 245.001 313c140 164.667 226.667 247 260 247c42 0 123.333 -83 244 -249c98.667 -135.333 169 -243 211 -323c56.667 -109.333 121.667 -259.666 195 -450.999l67 -219
c33.333 -104 65 -166.667 95 -188c9.33301 -6.66699 59 -14.667 149 -24c74.667 -8 112 -27.333 112 -58zM1147 598.001c-85.333 127.333 -141.333 191 -168 191c-25.333 0 -64.333 -44.333 -117 -133c-51.333 -86 -77 -144 -77 -174c0 -20 40.333 -31 121 -33
c48.667 1.33301 97.667 2.33301 147 3l49 -4c31.333 -2 56 -2 74 0c24.667 3.33301 36.667 10.333 36 21c-2 24.667 -23.667 67.667 -65 129z" />
    <glyph glyph-name="B" unicode="B" horiz-adv-x="2383" 
d="M2155 424c0 -132 -67.9971 -239.336 -203.997 -322.003c-118 -71.333 -247.333 -107 -388 -107h-168c-54.667 0 -126.334 1.33301 -215.001 4c-96.667 2.66699 -168.334 4 -215.001 4c-58.667 0 -146.667 -1 -264 -3s-205.333 -3 -264 -3c-126 0 -189 26.333 -189 79
c0 49.333 22.667 74 68 74c24 0 60.333 -1.83301 109 -5.5s85 -5.5 109 -5.5c36 0 54 27.667 54 83v555c0 56.667 3.5 141.334 10.5 254.001s10.5 197.334 10.5 254.001c0 22.667 -7.33301 44.5 -22 65.5s-31.334 31.5 -50.001 31.5c-30 0 -71.667 -1.33301 -125 -4
s-95 -4 -125 -4c-37.333 0 -55 20 -53 60c2 40.667 124.333 66.334 367 77.001c73.333 3.33301 225.333 5 456 5c234 0 428.333 -21 583 -63c254 -68.667 381 -188 381 -358c0 -95.333 -47.333 -189 -142 -281c184 -120 276 -250 276 -390zM1725 1046
c0 70.667 -27.667 138.002 -83 202.002c-57.333 66.667 -121 100 -191 100c-36 0 -54 -28 -54 -84c0 -72.667 5 -149.334 15 -230.001c14 -116.667 34.333 -178.334 61 -185.001c8 -2 22.333 -3 43 -3c84 0 139.833 12.5 167.5 37.5s41.5 79.167 41.5 162.5zM1816 415.999
c0 78.667 -27.667 150 -83 214c-57.333 66 -125 99 -203 99c-50.667 0 -82.667 -15.667 -96 -47c-6.66699 -16 -10 -53.333 -10 -112c0 -25.333 -0.833008 -63.5 -2.5 -114.5s-2.5 -89.167 -2.5 -114.5c0 -136.667 26.333 -205 79 -205c212 0 318 93.333 318 280z" />
    <glyph glyph-name="C" unicode="C" horiz-adv-x="2020" 
d="M1740 473c0 -54 -13.6641 -111.334 -40.9971 -172.001c-102 -227.333 -299.333 -342.666 -592 -345.999c-563.333 -6.66699 -845 274.333 -845 843c0 234.667 88.333 418.667 265 552c160 120.667 361 181 603 181c80 0 175.333 -14 286 -42
c89.333 -22.667 137.333 -34 144 -34c35.333 0 58.333 19.333 69 58s30.667 58 60 58c40.667 0 61 -44.333 61 -133c0 -65.333 -13.667 -168 -41 -308c-32.667 -166 -65.334 -249 -98.001 -249c-35.333 0 -53 13.667 -53 41c0 6.66699 1.83301 16.667 5.5 30
s5.5 23.333 5.5 30c0 82 -23.333 163 -70 243c-54 92 -118.667 138 -194 138c-50 0 -89 -55.667 -117 -167c-20.667 -81.333 -31 -158.333 -31 -231c0 -534 56.667 -801 170 -801c65.333 0 123.666 33 174.999 99c23.333 29.333 58.333 90.333 105 183
c33.333 66 60.666 99 81.999 99c34 0 51 -24 51 -72z" />
    <glyph glyph-name="D" unicode="D" horiz-adv-x="2343" 
d="M2091 747c-4 -246.667 -96.6641 -439.331 -277.997 -577.998c-162.667 -124 -359.667 -182.333 -591 -175c-346.667 11.333 -615.667 12.666 -807 3.99902c-36 -1.33301 -70 2 -102 10c-44.667 11.333 -66.334 30.333 -65.001 57c1.33301 20.667 12.666 37.667 33.999 51
c16.667 10.667 31 16 43 16c6 0 41 -2.33301 105 -7s99 -7 105 -7c14 0 29.333 4.33301 46 13c20.667 11.333 31 24.666 31 39.999c0 9.33301 -4.33301 97.666 -13 264.999c-9.33301 172.667 -14 299 -14 379c0 30 0.666992 54.667 2 74c10 164 13 286 9 366
c-2.66699 50.667 -23.334 77.334 -62.001 80.001c-37.333 2 -79.333 0.666992 -126 -4c-52 -5.33301 -85 -8 -99 -8c-10 0 -22 4.33301 -36 13s-21 18 -21 28c0.666992 38.667 24 66.667 70 84c36 13.333 97.333 26.333 184 39c72.667 10 117.667 15 135 15l512 13
c634 -11.333 946.667 -267.333 938 -768zM1793 748.003c0 152.667 -25.002 284.998 -75.002 396.998c-61.333 139.333 -150 210 -266 212c-32 0.666992 -48.667 -40.333 -50 -123c-1.33301 -80.667 1.33398 -165.167 8.00098 -253.5s9 -174.166 7 -257.499
c-5.33301 -240 -7.66602 -382.667 -6.99902 -428c2 -95.333 21 -143.333 57 -144c94.667 -1.33301 174.667 67.334 240 206.001c57.333 122 86 252.333 86 391z" />
    <glyph glyph-name="E" unicode="E" horiz-adv-x="2423" 
d="M2159 531c0 -79.333 -7.66406 -161.664 -22.9971 -246.997l-52 -244c-7.33301 -36.667 -63 -55 -167 -55c-56.667 0 -165.834 2 -327.501 6s-270.834 6 -327.501 6c-338.667 0 -613 -5 -823 -15l-224 -10c-15.333 0 -29.666 7.33301 -42.999 22
c-12 12.667 -17.667 25 -17 37c0.666992 27.333 15 45.333 43 54c13.333 4.66699 39.333 7.66699 78 9c26.667 0 71.667 1 135 3c97.333 3.33301 144.333 51.666 141 144.999c-1.33301 30.667 -6.66602 116 -15.999 256c-8 111.333 -12 215.666 -12 312.999
c0 1.33301 2.5 70.666 7.5 207.999s7.5 215.333 7.5 234c0 50 -26.667 89.667 -80 119c-18 10 -84.667 21.333 -200 34c-93.333 11.333 -140 31.666 -140 60.999c0 38 18.333 57 55 57c-15.333 0 64.667 -3.33301 240 -10c178 -6.66699 366.333 -10 565 -10
c278.667 0 488.167 3.5 628.5 10.5s266.166 10.5 377.499 10.5c47.333 0 77 -30.667 89 -92c3.33301 -18 5 -66 5 -144c0 -59.333 -11 -137.333 -33 -234c-9.33301 -40.667 -29.333 -62.667 -60 -66c-14 -1.33301 -27.167 3.5 -39.5 14.5s-18.833 26.167 -19.5 45.5
c-0.666992 25.333 -4.66699 46.333 -12 63c-38 87.333 -111 152.333 -219 195c-84 34 -176.333 51 -277 51c-12 0 -22.667 -5.16699 -32 -15.5s-14 -20.5 -14 -30.5c0 -39.333 1 -83 3 -131c4 -96 6 -168 6 -216c0 -42.667 23 -64 69 -64c5.33301 0 29.833 2.66699 73.5 8
s68.167 8 73.5 8c64.667 0 123 -8.66699 175 -26c38.667 -12.667 58.667 -56.667 60 -132c1.33301 -48 -12.334 -131 -41.001 -249c-12 -50.667 -31 -76 -57 -76c-27.333 0 -41.666 11.667 -42.999 35c-0.666992 6.66699 -0.333984 17.334 0.999023 32.001
c0.666992 17.333 1 29.333 1 36c0 48.667 -24.333 100.334 -73 155.001c-55.333 62 -119 93 -191 93c-10 0 -23 -9 -39 -27c-0.666992 -76.667 -5.83398 -193.834 -15.501 -351.501s-14.5 -233.5 -14.5 -227.5c0 -32 14.333 -48 43 -48c103.333 0 233.333 53 390 159
c106 72 182.333 137 229 195c13.333 16.667 23.833 40.334 31.5 71.001s24.167 46 49.5 46c18 0 32.333 -10 43 -30c8 -14.667 12 -28.334 12 -41.001z" />
    <glyph glyph-name="F" unicode="F" horiz-adv-x="2463" 
d="M2229 1314c1.33301 -17.333 -2.33398 -90.001 -11 -218.001c-6 -66 -29.667 -100.667 -71 -104c-38 -3.33301 -57.333 19 -58 67c-2 126.667 -86 207 -252 241c-85.333 17.333 -135.333 27.333 -150 30c-68 12.667 -123.667 19.334 -167 20.001
c-25.333 0.666992 -38.333 -10.666 -39 -33.999c-2.66699 -162.667 5.33301 -294 24 -394c3.33301 -18 42.666 -27.667 117.999 -29c82 0.666992 170.333 1.33398 265 2.00098c41.333 -0.666992 66.333 -14 75 -40c2 -8 3 -38.667 3 -92
c-0.666992 -124.667 -9.33398 -217.334 -26.001 -278.001c-14 -52 -37.667 -77.667 -71 -77c-28 0.666992 -43.667 17.667 -47 51c0 29.333 -3.33301 66 -10 110c-32.667 71.333 -65.334 119.666 -98.001 144.999c-40 30.667 -109 54.667 -207 72
c-8.66699 -225.333 -18.667 -417.666 -30 -576.999c-2 -25.333 10 -46 36 -62c22 -13.333 47 -20.333 75 -21c114.667 -2 195.334 -6.33301 242.001 -13c58 -8.66699 86.667 -36.334 86 -83.001c-0.666992 -33.333 -39.334 -49.333 -116.001 -48
c-146.667 3.33301 -355 7.66602 -625 12.999c-42 0.666992 -268.667 -5.33301 -680 -18c-10 0 -43.667 -1.66699 -101 -5c-53.333 -3.33301 -83 -5 -89 -5c-22 0.666992 -40.333 6.66699 -55 18c-11.333 10 -17 19.333 -17 28c0.666992 28.667 9.33398 49 26.001 61
c14.667 10 41.334 17.333 80.001 22c52 5.33301 125.667 14.333 221 27c60 9.33301 90.333 35.666 91 78.999c-8 165.333 -14.333 362.333 -19 591c10.667 204.667 16 341 16 409c0 78.667 -4 124.667 -12 138c-15.333 25.333 -51 42.333 -107 51l-154 14
c-57.333 5.33301 -92.333 10 -105 14c-30 8.66699 -45 25.334 -45 50.001c0 18 8.66699 32.667 26 44c13.333 8.66699 25.333 13 36 13l345 -14c228 -8 404.667 -12 530 -12c38.667 0 72.334 0.333008 101.001 1l821 23c64.667 -1.33301 107 -22.666 127 -63.999
c13.333 -27.333 19.333 -76 18 -146z" />
    <glyph glyph-name="G" unicode="G" horiz-adv-x="2504" 
d="M2311 740c0.666992 -37.333 -40.1621 -60.335 -122.496 -69.002c-82.333 -8.66699 -123.166 -31.334 -122.5 -68.001c0.666992 -22 2.66699 -55 6 -99s5.33301 -77 6 -99c1.33301 -73.333 -0.666992 -127.333 -6 -162c-11.333 -76 -117 -145.333 -317 -208
c-164 -51.333 -299.333 -78 -406 -80c-300.667 -5.33301 -545.667 48.334 -735 161.001c-230 136 -347.333 345.333 -352 628c-8.66699 513.333 340.333 775.333 1047 786c99.333 1.33301 206.333 -14 321 -46s169 -48 163 -48c20 0.666992 45.833 18.834 77.5 54.501
s60.5 53.834 86.5 54.501c20 0.666992 37.333 -3.33301 52 -12c17.333 -10 25.666 -24.333 24.999 -43c-0.666992 -12 -15.334 -59.333 -44.001 -142l-156 -430c-22 -64 -45.333 -96.333 -70 -97c-26 -0.666992 -42.333 10 -49 32c-3.33301 23.333 -9.33301 57.333 -18 102
c-14.667 58 -39 121.333 -73 190c-38.667 78.667 -76 134.334 -112 167.001c-49.333 44.667 -107.333 66.334 -174 65.001c-53.333 -0.666992 -93 -87.334 -119 -260.001c-18 -118.667 -26 -229.667 -24 -333c2 -116.667 19.667 -245.334 53 -386.001
c46 -192.667 105 -288.334 177 -287.001c51.333 0.666992 88.666 32.667 111.999 96c16.667 44.667 24.334 98 23.001 160c-0.666992 53.333 -8.66699 102 -24 146c-20.667 62.667 -50.667 95 -90 97c-66.667 3.33301 -100.334 5.33301 -101.001 6
c-40.667 8 -61.334 30 -62.001 66c0 13.333 6.16699 25.5 18.5 36.5s25.166 16.5 38.499 16.5c128.667 2 340.334 19 635.001 51c55.333 8.66699 137 17.667 245 27c23.333 0.666992 44.166 -5.66602 62.5 -18.999c18.333 -13.333 27.833 -31.333 28.5 -54z" />
    <glyph glyph-name="H" unicode="H" horiz-adv-x="3156" 
d="M1566 27c0 -28 -20.3379 -41.667 -61.0049 -41c-76 0.666992 -188.333 3 -337 7s-261 6.33301 -337 7c-58.667 0.666992 -156.167 -2.16602 -292.5 -8.49902s-233.833 -9.16602 -292.5 -8.49902c-34 0 -51 11 -51 33c0 38.667 25 62 75 70l196 32
c76.667 22 115.334 58 116.001 108c0.666992 63.333 -3.16602 157.833 -11.499 283.5s-12.166 220.167 -11.499 283.5c0.666992 54.667 4.5 136.167 11.5 244.5s10.833 189.833 11.5 244.5c0 33.333 -5.66699 55.333 -17 66c-8 7.33301 -31 16 -69 26l-181 27
c-36 5.33301 -58 10 -66 14c-18.667 9.33301 -28 27.666 -28 54.999c0 38 26.333 56.667 79 56c50 -0.666992 119.333 -3.16699 208 -7.5s158.334 -6.83301 209.001 -7.5c84.667 -0.666992 210 1.16602 376 5.49902s291 6.16602 375 5.49902
c17.333 0 32.166 -8.33301 44.499 -25s18.5 -34 18.5 -52c0 -23.333 -23.333 -44 -70 -62c-49.333 -19.333 -77 -40.666 -83 -63.999c-7.33301 -29.333 -11.333 -87.333 -12 -174c-0.666992 -94.667 -0.333984 -150.667 0.999023 -168c4 -47.333 9 -78.333 15 -93
c12 -28 35.333 -42 70 -42h184c54 -0.666992 81 14.666 81 45.999c0 25.333 -1 63.333 -3 114s-3 88.667 -3 114c0 18 1.5 45 4.5 81s4.5 63 4.5 81c0.666992 44.667 -14 75.334 -44 92.001l-84 26c-30 10 -44.667 28.667 -44 56c0.666992 30 9.33398 49.667 26.001 59
c12.667 7.33301 38.334 11 77.001 11c28 0 109 -1.66699 243 -5c138.667 -4 218.667 -6 240.001 -6c81.333 -0.666992 194.166 0.333008 338.5 3c144.333 2.66699 256.833 3.66699 337.5 3c62 -0.666992 93 -18 93 -52c-0.666992 -45.333 -33 -74 -97 -86l-178 -22
c-64 -14.667 -96.333 -47.667 -97 -99c-0.666992 -50.667 2.83301 -128.167 10.5 -232.5s11.167 -181.833 10.5 -232.5c-0.666992 -58 -3.33398 -149.333 -8 -274c-4.66699 -116 -7 -207 -7 -273c0 -39.333 17.167 -68.166 51.5 -86.499s104.166 -34.5 209.5 -48.5
c72.667 -10 108.667 -34.333 108 -73c0 -23.333 -13.333 -38 -40 -44c-9.33301 -2 -33.666 -2.66699 -73 -2c-68 0.666992 -166.5 2 -295.5 4s-227.5 3.33301 -295.5 4c-54.667 0.666992 -136 -2 -244 -8s-189.333 -8.66699 -244 -8c-82.667 0.666992 -124 16.667 -124 48
c0 28 22.167 48.167 66.5 60.5s66.5 31.5 66.5 57.5c0 31.333 -1.33301 70.666 -4 117.999c-2.66699 55.333 -4.33398 95 -5.00098 119c2.66699 49.333 4.66699 117 6 203c-1.33301 52.667 -22.333 80 -63 82h-172c-55.333 0 -84.666 -18 -87.999 -54
c-2.66699 -26 -4.66699 -76.333 -6 -151c-2 -47.333 -4.33301 -118.333 -7 -213c-0.666992 -59.333 15 -102.333 47 -129c10.667 -10 40 -24.333 88 -43c31.333 -12.667 47 -31 47 -55z" />
    <glyph glyph-name="I" unicode="I" horiz-adv-x="2071" 
d="M1851 43c-1.33301 -40 -27.668 -59.6699 -79.001 -59.0029l-662 16c-98 2 -232.333 0.333008 -403 -5c-206.667 -6.66699 -340.667 -10.334 -402 -11.001c-12 0 -23.333 2.33301 -34 7c-16.667 8 -25 20.667 -25 38c0.666992 26 12.334 43.333 35.001 52
c7.33301 2.66699 34.333 7.33398 81 14.001c34.667 2 85.667 6.66699 153 14c88 12.667 132.333 42.334 133 89.001c1.33301 69.333 -1.33398 167.333 -8.00098 294c-7.33301 136.667 -11 236.334 -11 299.001c0 66.667 4.66699 220.667 14 462
c2 56.667 -10.333 96.334 -37 119.001c-24 20.667 -65 31.667 -123 33c-37.333 1.33301 -81 2.66602 -131 3.99902c-40.667 0.666992 -67.5 6.33398 -80.5 17.001s-18.833 29.667 -17.5 57c1.33301 28.667 32 42.334 92 41.001l357 -10c230 -6 348.667 -9 356 -9
c342.667 12 568 17 676 15c55.333 -0.666992 82.666 -16.334 81.999 -47.001c-0.666992 -28 -18 -46 -52 -54c-6.66699 -2 -44 -6 -112 -12c-74 -6.66699 -123.667 -16.334 -149 -29.001c-29.333 -15.333 -44.333 -41.666 -45 -78.999c0 -8 4.33301 -66.667 13 -176
c9.33301 -112.667 14 -209 14 -289c0 -69.333 -3.66699 -166 -11 -290c-7.33301 -136 -11.666 -233 -12.999 -291c-0.666992 -48 6.83301 -80.667 22.5 -98s46.167 -26.333 91.5 -27c6 0 31 -3.66699 75 -11s69 -11 75 -11c84.667 -1.33301 126.334 -22.333 125.001 -63z
" />
    <glyph glyph-name="J" unicode="J" horiz-adv-x="2343" 
d="M2065 1483c0 -45.333 -36.998 -79 -110.998 -101c-24.667 -7.33301 -79.667 -16.666 -165 -27.999c-30.667 -4 -52 -10.333 -64 -19c-16.667 -12.667 -25 -35 -25 -67c0 -37.333 3.33301 -83.333 10 -138c10 -77.333 15.667 -123 17 -137
c16 -183.333 24 -380.333 24 -591c0 -270 -88.667 -472 -266 -606c-154.667 -116.667 -365 -175 -631 -175c-136.667 0 -266.334 46.667 -389.001 140c-134 102 -201 221.667 -201 359c0 63.333 29.5 123.666 88.5 180.999s118.833 86 179.5 86c68 0 129 -16.667 183 -50
c61.333 -37.333 92 -86 92 -146c0 -34.667 -7.66699 -52 -23 -52s-36 5.66699 -62 17s-42 17 -48 17c-26.667 0 -49.167 -13.167 -67.5 -39.5s-27.5 -54.5 -27.5 -84.5c0 -63.333 22.333 -122.333 67 -177c46.667 -57.333 99.334 -86 158.001 -86c52.667 0 91.667 29 117 87
c19.333 44 29 97.667 29 161c0 11.333 -7.33301 113.666 -22 306.999c-16 214.667 -25 401.334 -27 560.001c-0.666992 36 -0.666992 83.333 0 142c0.666992 74 1 121.333 1 142c0 76 -0.333008 116.333 -1 121c-5.33301 36.667 -48.333 55 -129 55
c-26.667 0 -66.334 2 -119.001 6s-92.334 6 -119.001 6c-80 0 -120 29.333 -120 88c0 21.333 10 39 30 53c17.333 12 36 18 56 18c38 0 95.167 -3.83301 171.5 -11.5s132.5 -11.5 168.5 -11.5l478 -3c155.333 -1.33301 315.333 4.66699 480 18c82.667 6.66699 147 10 193 10
c49.333 0 74 -17 74 -51z" />
    <glyph glyph-name="K" unicode="K" horiz-adv-x="3040" 
d="M2855 79c0 -18 -6.33496 -35 -19.002 -51c-14.667 -18.667 -33 -28 -55 -28h-982c-49.333 -0 -101 39.333 -155 118c-70.667 103.333 -164.667 214 -282 332c-21.333 -41.333 -32 -110.333 -32 -207c0 -57.333 12.667 -94 38 -110c16.667 -10 64.334 -20.333 143.001 -31
c57.333 -7.33301 86 -28.333 86 -63c0 -36.667 -19.667 -55 -59 -55c-7.33301 0 -114.333 2.33301 -321 7c-210 4.66699 -316.667 7 -320 7c-114.667 1.33301 -218.667 -0.333984 -312 -5.00098c-105.333 -6 -206 -9 -302 -9c-49.333 0 -74 14.333 -74 43
c0 35.333 22.333 56.333 67 63c74.667 10.667 126.667 19.667 156 27c50.667 12.667 82 23.334 94 32.001c16.667 12.667 25 36.667 25 72c0 12.667 -6.16699 62.667 -18.5 150s-18.5 189.666 -18.5 306.999l1 635c-7.33301 45.333 -40 68 -98 68c-2 0 -59 5.33301 -171 16
c-53.333 5.33301 -80 34 -80 86c0 31.333 30.667 47 92 47c6 0 72.833 -3 200.5 -9s194.5 -9 200.5 -9l458 -3c6 0 78.667 5 218 15s212 15 218 15c10 0 21.833 -4 35.5 -12s20.167 -16.667 19.5 -26c-1.33301 -26 -6.66602 -44.333 -15.999 -55
c-14.667 -17.333 -47 -32.333 -97 -45l-126 -24c-43.333 -12 -65 -34.333 -65 -67l13 -115c8.66699 -76.667 13 -159 13 -247v-270c0 -21.333 10.667 -32 32 -32c20 0 101.333 63 244 189c130 114.667 226.833 205.334 290.5 272.001s101.167 106.667 112.5 120
c46.667 57.333 69.334 104.333 68 141c-1.33301 34 -24.666 51.333 -70 52c-31.333 0 -62.333 0.333008 -93 1c-30.667 4.66699 -46 19.667 -46 45c0 37.333 54.333 56 163 56c20 0 40.833 -0.666992 62.5 -2s31.834 -2 30.5 -2c180 3.33301 318 10.333 414 21
c88 10 133.667 15 137 15c42.667 0 64 -19.667 64 -59c0 -24.667 -33.667 -45 -101 -61l-93 -18c-52.667 -14.667 -107 -41 -163 -79c-51.333 -34.667 -125.333 -103 -222 -205c-88.667 -94 -133 -144.667 -133 -152l172 -244l208 -291c85.333 -114 149.666 -188 193 -222
c54.667 -42.667 120 -71.667 196 -87c39.333 -8 59 -27 59 -57z" />
    <glyph glyph-name="L" unicode="L" horiz-adv-x="2423" 
d="M2254 532c0 -13.333 -9.33398 -80.333 -28.001 -201c-20.667 -135.333 -38.667 -235 -54 -299c-2.66699 -10.667 -11.667 -19.667 -27 -27s-28.333 -11 -39 -11c-81.333 0 -203.166 0.5 -365.499 1.5s-284.166 1.5 -365.499 1.5c-271.333 0 -497 -1.66699 -677 -5
c-38 -0.666992 -100.667 -3.33398 -188 -8.00098c-78.667 -4.66699 -140.667 -7 -186 -7c-18 0 -37.333 4.33301 -58 13c-26 10.667 -39 24.334 -39 41.001c0 34 12 56 36 66c0.666992 0 22.334 3.33301 65.001 10c32.667 0.666992 89.667 5.33398 171 14.001
c89.333 14.667 133 50 131 106c-4.66699 80 -10.667 217.667 -18 413c-2 74 0 185.667 6 335c6 166.667 9 278.667 9 336c0 23.333 -12 44.333 -36 63c-19.333 15.333 -35.333 23 -48 23c-106.667 0 -179 3 -217 9c-19.333 2.66699 -39 5.66699 -59 9
c-18 8 -27 28.667 -27 62c0 12.667 9 24 27 34c20.667 11.333 47 17 79 17c61.333 0 184.333 -4.66699 369 -14c167.333 -8.66699 278.333 -12 333 -10c250 10 415.333 15 496 15c5.33301 0 47.666 0.833008 126.999 2.5s121.666 2.5 126.999 2.5c45.333 0 68 -17 68 -51
c0 -48 -47.667 -72 -143 -72c-4.66699 0 -35 -3.83301 -91 -11.5s-87 -11.5 -93 -11.5c-60 0 -88.333 -18.667 -85 -56c11.333 -134.667 17 -325 17 -571c0 -85.333 -5 -197.5 -15 -336.5s-15 -210.5 -15 -214.5c0 -28.667 14.333 -44.334 43 -47.001
c9.33301 -0.666992 19 -1 29 -1c72 0 141.333 16.667 208 50c61.333 30.667 146.333 87 255 169l77 57c20 18 38 48 54 90c23.333 61.333 45.666 92 67 92c53.333 0 80 -26 80 -78z" />
    <glyph glyph-name="M" unicode="M" horiz-adv-x="3453" 
d="M3293 29c0 -30 -33 -44.9932 -99 -44.9932c-62.667 0 -157.167 2.66699 -283.5 8s-221.166 8 -284.499 8c-40.667 0 -79 -0.666992 -115 -2c-168 -2.66699 -420.667 -8.66699 -758 -18c-13.333 -0.666992 -27 2.66602 -41 9.99902c-16.667 8 -25 18.333 -25 31
c0 32 15.667 53.333 47 64c10 3.33301 39.333 8 88 14c10 1.33301 61.667 6.66602 155 15.999c18.667 2 37.667 9.33301 57 22c24.667 16 37 35.333 37 58c0 41.333 -14 155.333 -42 342c-10.667 70 -19.667 105 -27 105c-13.333 0 -104.333 -112.333 -273 -337
s-264.334 -337 -287.001 -337c-27.333 0 -137.333 106.833 -330 320.5s-301.334 320.5 -326.001 320.5c-24 0 -36 -15.667 -36 -47c0 -114 29.333 -212 88 -294c62.667 -88 148 -141.667 256 -161c56.667 -10 85 -33 85 -69c0 -34 -30.667 -51 -92 -51
c-44 0 -110.167 2.16699 -198.5 6.5s-154.5 6.5 -198.5 6.5c-40.667 0 -104.834 -5.66699 -192.501 -17s-151.5 -17 -191.5 -17c-58 0 -87 18 -87 54c0 30 28.667 51.667 86 65c52.667 9.33301 116.667 24.666 192 45.999c36.667 20.667 65 148 85 382
c13.333 159.333 20 305.666 20 438.999c0 284.667 -60.333 427 -181 427c-17.333 0 -42.166 1.16699 -74.499 3.5s-57.166 3.5 -74.499 3.5c-14 0 -30.667 6.66699 -50 20s-29 26.666 -29 39.999c0 48 33.333 74 100 78c51.333 3.33301 121.666 3 210.999 -1
c110.667 -5.33301 182 -8 214 -8c29.333 0 73.333 1 132 3s102.667 3 132 3c20.667 0 36.334 -0.333008 47.001 -1c59.333 -4 153 -76 281 -216c82.667 -90.667 188 -220 316 -388c105.333 -138.667 160 -208 164 -208c16.667 0 56 41 118 123l108 151l314 407
c65.333 84.667 129.666 127 193 127c28.667 0 71.667 -0.833008 129 -2.5s100.333 -2.5 129 -2.5c45.333 0 113.166 2.83301 203.5 8.5c90.333 5.66699 158.166 8.5 203.5 8.5c14 0 29 -4.66699 45 -14c18.667 -10.667 28 -22.334 28 -35.001
c0 -45.333 -21.667 -71.333 -65 -78l-204 -10c-80 -7.33301 -118 -42 -114 -104c25.333 -409.333 38 -635 38 -677c0 -38.667 -3.33301 -105.667 -10 -201c-5.33301 -80.667 -6.66602 -147.334 -4 -200.001c2 -39.333 39.667 -68 113 -86c8 -2 76 -12.333 204 -31
c29.333 -4 47.666 -8.66699 55 -14c12.667 -8 19 -24.333 19 -49z" />
    <glyph glyph-name="N" unicode="N" horiz-adv-x="2385" 
d="M2213 1476c0 -40.667 -27.6709 -67.002 -83.0039 -79.002l-154 -21c-55.333 -10.667 -83 -34 -83 -70c0 -24.667 2 -60.167 6 -106.5s6 -81.833 6 -106.5c0 -148 -10.333 -494.333 -31 -1039c-1.33301 -26.667 -10.666 -52.334 -27.999 -77.001
c-18.667 -27.333 -40.667 -41 -66 -41c-49.333 0 -223.833 119.833 -523.5 359.5s-454.167 359.5 -463.5 359.5c-16.667 0 -25 -15.333 -25 -46c0 -83.333 18 -166.666 54 -249.999c40.667 -94 93.334 -159 158.001 -195c1.33301 -0.666992 48.333 -14.667 141 -42
c65.333 -19.333 98 -42.666 98 -69.999c0 -15.333 -8.16699 -29.166 -24.5 -41.499s-32.166 -18.5 -47.499 -18.5c-44.667 0 -111.334 1 -200.001 3s-155.334 3 -200.001 3c-42 0 -105.167 -2.16699 -189.5 -6.5s-147.5 -6.5 -189.5 -6.5c-53.333 0 -80 15 -80 45
c0 38 35.667 64.333 107 79c98 19.333 148.667 30 152 32c25.333 14.667 42.333 50 51 106c19.333 129.333 29 286.333 29 471c0 205.333 -14.333 388 -43 548c-3.33301 18 -16.833 38.167 -40.5 60.5s-44.5 34.166 -62.5 35.499c10.667 -0.666992 -44.333 -1 -165 -1
c-19.333 0 -39.666 4.33301 -60.999 13c-26.667 10.667 -40 24 -40 40c0 62 47.333 93 142 93c70.667 0 176.5 0.5 317.5 1.5s246.833 1.5 317.5 1.5c15.333 0 29.333 -1.33301 42 -4c42.667 -9.33301 161.334 -94.333 356.001 -255c191.333 -158.667 290 -238 296 -238
c17.333 0 26 15.333 26 46c0 50 -20 104.333 -60 163c-36 53.333 -77.333 95.333 -124 126c-20.667 13.333 -49.667 23.666 -87 30.999c-43.333 8 -72.666 15.333 -87.999 22c-26 11.333 -39 30.333 -39 57c0 32 24.667 47.667 74 47c152.667 -1.33301 239 -2 259 -2
c66 0 152 4.33301 258 13l259 22c13.333 0.666992 24.833 -6.16602 34.5 -20.499s14.5 -28.166 14.5 -41.499z" />
    <glyph glyph-name="O" unicode="O" horiz-adv-x="2534" 
d="M2253 738c0 -288 -119.999 -498.667 -359.999 -632c-188.667 -105.333 -439.334 -158 -752.001 -158c-268 0 -488.333 69.333 -661 208c-187.333 150.667 -281 356.667 -281 618c0 265.333 108 464.333 324 597c179.333 110 410 165 692 165
c292 0 529.333 -58.333 712 -175c217.333 -139.333 326 -347 326 -623zM1248 1383c-64.667 0 -114.333 -82.001 -149 -246.001c-24 -113.333 -36 -222.666 -36 -327.999c0 -141.333 10.333 -278.333 31 -411c32 -205.333 81.333 -308 148 -308c128 0 192 206.333 192 619
c0 449.333 -62 674 -186 674z" />
    <glyph glyph-name="P" unicode="P" horiz-adv-x="2270" 
d="M1398 385c0 -26.667 -0.834961 -62.332 -2.50195 -106.999s-2.5 -80.334 -2.5 -107.001c0 -26 32 -44 96 -54l172 -18c49.333 -6.66699 81 -12.667 95 -18c26.667 -10 40 -28 40 -54c0 -31.333 -22.333 -47 -67 -47c-20 0 -159 5.33301 -417 16
c-64.667 2.66699 -153.334 4 -266.001 4c-47.333 0 -118.5 -0.5 -213.5 -1.5s-166.167 -1.5 -213.5 -1.5c-40 0 -101.5 -4.33301 -184.5 -13s-144.5 -13 -184.5 -13c-41.333 0 -62 19.667 -62 59c0 26.667 40.667 48.667 122 66c52.667 8 105.334 16.5 158.001 25.5
s80 14.167 82 15.5c16 9.33301 24 34.333 24 75c0 36.667 -1.66699 91.667 -5 165s-5 128.333 -5 165c0 80.667 1.16699 201.167 3.5 361.5s3.5 280.833 3.5 361.5c0 80 -43.333 120 -130 120c-12.667 0 -32.5 -0.833008 -59.5 -2.5s-46.833 -2.5 -59.5 -2.5
c-68 0 -102 22.667 -102 68c0 40.667 39 61 117 61c40.667 0 100.834 -1 180.501 -3s139.834 -3 180.501 -3c38.667 0 96.667 0.5 174 1.5s135.333 1.5 174 1.5c27.333 0 187 -4 479 -12c142 -4 262.667 -49.333 362 -136c104 -92 156 -207.667 156 -347
c0 -148 -60.333 -262.333 -181 -343c-104 -68.667 -232.667 -103 -386 -103c-26.667 0 -54 2 -82 6c2.66699 -47.333 4 -109.333 4 -186zM1730 991.002c0 89.333 -25.3311 172.003 -75.998 248.003c-56.667 85.333 -127.334 127.333 -212.001 126
c-36 -0.666992 -57.833 -4 -65.5 -10s-11.5 -22 -11.5 -48c0 -29.333 3.33301 -73 10 -131s10 -101.667 10 -131c0 -26.667 2 -67.334 6 -122.001s6 -95.334 6 -122.001v-56c-0.666992 -24.667 -1 -40.334 -1 -47.001c28 -8 57.333 -12 88 -12
c81.333 0 143.666 30.667 186.999 92c39.333 54.667 59 125.667 59 213z" />
    <glyph glyph-name="Q" unicode="Q" horiz-adv-x="1974" 
d="M1884 56c-6 -118.667 -50.668 -211.669 -134.001 -279.002c-73.333 -59.333 -158.666 -87.666 -255.999 -84.999c-168 4.66699 -338.667 40.667 -512 108c-104 40.667 -227.333 102 -370 184c-113.333 66 -182 99.333 -206 100
c-42.667 1.33301 -82.667 -6.66699 -120 -24c-48.667 -23.333 -73.667 -58 -75 -104c0 -5.33301 4.5 -21.166 13.5 -47.499s13.5 -42.166 13.5 -47.499c-0.666992 -28 -2.33398 -46.667 -5.00098 -56c-5.33301 -22.667 -18 -34.334 -38 -35.001
c-32.667 -0.666992 -59 24 -79 74c-15.333 37.333 -22.666 66.666 -21.999 87.999c5.33301 198.667 104.666 295.334 297.999 290.001c20.667 -0.666992 78.334 -16.667 173.001 -48s166.334 -47.666 215.001 -48.999c70.667 -2 145.334 24.667 224.001 80
c75.333 52.667 122.333 108.667 141 168c-47.333 -17.333 -112.666 -25 -195.999 -23c-198 5.33301 -362.667 59.666 -494 162.999c-148 116.667 -219.333 273 -214 469c5.33301 199.333 102.333 350 291 452c142.667 76.667 296.667 113 462 109
c189.333 -4.66699 344.666 -67 465.999 -187c123.333 -122 182.666 -276 177.999 -462c-4.66699 -188.667 -65.334 -358 -182.001 -508c-127.333 -163.333 -304.333 -279.666 -531 -348.999c4 -5.33301 35 -17.333 93 -36c60.667 -20 101.667 -30.333 123 -31
c9.33301 0 42 -3 98 -9c86.667 -2 161.334 5.33301 224.001 22c127.333 33.333 192 100.333 194 201c0.666992 34.667 -18.333 64.5 -57 89.5s-57.667 46.5 -57 64.5c0.666992 26.667 13.667 41.667 39 45c-5.33301 -0.666992 8 -1.33398 40 -2.00098
c89.333 -2.66699 158.666 -43 207.999 -121c39.333 -63.333 57.333 -131.333 54 -204zM1345 935.998c-1.33301 110 -18.999 207.332 -52.999 291.999c-36 90 -80 135.667 -132 137c-49.333 1.33301 -82.333 -69 -99 -211c-4 -36.667 -7.66699 -114 -11 -232
c-1.33301 -44 8.66699 -110 30 -198c28 -119.333 64.333 -179.666 109 -180.999c43.333 -1.33301 81 41.334 113 128.001c29.333 81.333 43.666 169.666 42.999 264.999z" />
    <glyph glyph-name="R" unicode="R" horiz-adv-x="2826" 
d="M2702 28c0.666992 -13.333 -14.0039 -24.999 -44.0039 -34.999c-23.333 -7.33301 -42.666 -11 -58 -11c-48.667 0.666992 -121.667 3.83398 -219 9.50098s-170.333 8.83398 -219 9.50098c-4.66699 0 -34.334 -1.33301 -89.001 -4c-60 -3.33301 -103.333 -5.33301 -130 -6
c-43.333 -0.666992 -73.666 31 -90.999 95l-44 201c-25.333 97.333 -59 175.666 -101 234.999c-57.333 80 -133.333 132.667 -228 158c6.66699 -128 9.33398 -212 8.00098 -252c-1.33301 -39.333 -6.66602 -84.666 -15.999 -135.999l-20 -98
c-6 -34.667 11.667 -52.334 53 -53.001l134 -20c44.667 -6.66699 75.334 -14 92.001 -22c26.667 -13.333 40.334 -35.333 41.001 -66c0 -18.667 -9.66699 -33.667 -29 -45c-16 -8.66699 -32.333 -13 -49 -13c-51.333 5.33301 -298.666 14 -741.999 26
c-72 1.33301 -137.333 2 -196 2c-140 0 -243.667 -3.83301 -311 -11.5l-101 -11.5c-16.667 0 -32.667 5.66699 -48 17s-23 25 -23 41c0.666992 35.333 28.667 57.666 84 66.999c73.333 12 135.333 24 186 36c42 10 70.667 22.333 86 37c20 18 30.333 48 31 90
c1.33301 66.667 -1 143 -7 229l-12 186c-1.33301 31.333 -2 63 -2 95c0 82 5.33301 176.333 16 283c10 104.667 15 164.667 15 180c-0.666992 53.333 -6 89 -16 107c-14 26.667 -44 40 -90 40c-4 0 -29.667 -1 -77 -3c-44.667 -2 -70 -3 -76 -3
c-48 1.33301 -75 3.33301 -81 6c-18 6.66699 -26.667 26 -26 58c0.666992 38 44.667 57 132 57c22 0 48 -1.66699 78 -5c65.333 -1.33301 163.666 0 294.999 4s229 5.33301 293 4c248 -4.66699 389.333 -8.33398 424 -11.001c177.333 -15.333 312.333 -52.333 405 -111
c119.333 -76.667 177.666 -192.667 175 -348c-0.666992 -53.333 -28 -106 -82 -158c-19.333 -19.333 -58 -49.333 -116 -90c226.667 -166 408.667 -356.333 546 -571c16 -24.667 81.667 -57.667 197 -99c32 -11.333 49.333 -41.333 52 -90zM1825 993.001
c2.66699 139.333 -76.668 251.666 -238.001 336.999c-35.333 18.667 -68.666 28 -99.999 28s-47.333 -18.667 -48 -56c11.333 -103.333 21 -250 29 -440c45.333 -14 123.333 -22 234 -24c80 -1.33301 121 50.334 123 155.001z" />
    <glyph glyph-name="S" unicode="S" horiz-adv-x="1972" 
d="M1753 545c-2.66699 -166 -75.6699 -307.669 -219.003 -425.002c-136.667 -111.333 -289 -165.666 -457 -162.999c-104 2 -231 23 -381 63c-28.667 13.333 -66.334 27 -113.001 41c-17.333 0 -29.833 -3.5 -37.5 -10.5s-11.167 -18.833 -10.5 -35.5c2 -64.667 4 -90 6 -76
c-4 -30.667 -29 -45.667 -75 -45c-20.667 0.666992 -39.334 24.334 -56.001 71.001c-115.333 328.667 -172.666 503 -171.999 523c0.666992 38.667 19.334 58 56.001 58c18.667 0 49.667 -27 93 -81l115 -162c110.667 -118.667 281.334 -180 512.001 -184
c60.667 -1.33301 121 3 181 13c88 14.667 132.333 37.667 133 69c0.666992 38 -63.666 75.333 -192.999 112c-90 24.667 -164 40 -222 46c-187.333 18.667 -337.5 83.167 -450.5 193.5s-168.167 245.833 -165.5 406.5c6.66699 395.333 299.334 588 878.001 578
c82 -16 196.667 -32.667 344 -50c39.333 -0.666992 68.666 25 87.999 77c12 34 41 51 87 51c11.333 0 25.333 -4.66699 42 -14s25.334 -20 26.001 -32c0.666992 -13.333 -6 -41 -20 -83c-5.33301 -15.333 -39 -105 -101 -269c-42 -110.667 -63.333 -181 -64 -211
c-0.666992 -19.333 14.666 -52.333 45.999 -99c41.333 -62 70 -110.667 86 -146c30.667 -69.333 45.334 -141.333 44.001 -216zM1409 1087l1.00098 46.9961c1.33301 68.667 -61.667 129.334 -189 182.001c-98.667 40.667 -177.334 61.667 -236.001 63
c-48.667 0.666992 -101.667 -4.66602 -159 -15.999c-78 -15.333 -117.333 -36.666 -118 -63.999c-0.666992 -21.333 22.666 -41 69.999 -59c32.667 -12.667 62.334 -20.667 89.001 -24c51.333 -9.33301 151.333 -35 300 -77c140 -40 211 -60 213 -60
c7.33301 2.66699 17 5.33398 29 8.00098z" />
    <glyph glyph-name="T" unicode="T" horiz-adv-x="2690" 
d="M2527 1020c0 -23.333 -10.168 -43.833 -30.501 -61.5s-41.5 -26.167 -63.5 -25.5c-29.333 0.666992 -51 26.334 -65 77.001c-10 36.667 -22.667 64.334 -38 83.001c-10 12.667 -36.333 37 -79 73c-56.667 48.667 -122.667 89.167 -198 121.5s-141.333 49.166 -198 50.499
c-43.333 1.33301 -65.666 -23.667 -66.999 -75c10 -114 19 -283 27 -507c-1.33301 -70.667 -8.33301 -179.667 -21 -327c-10 -124.667 -14 -198 -12 -220c4.66699 -50 56 -76.333 154 -79c34 -0.666992 105.667 -12 215 -34c57.333 -11.333 86 -40.666 86 -87.999
c0 -30.667 -34.333 -46 -103 -46c-6.66699 0 -46.334 2 -119 6c-75.333 4.66699 -115.333 7 -120 7c-14.667 0.666992 -88.667 4.66699 -222 12c-120 7.33301 -194.333 10.666 -223 9.99902c-114.667 -2.66699 -289.667 -10.667 -525 -24
c-211.333 -12.667 -327.333 -18.667 -348 -18c-42.667 1.33301 -63.667 20.666 -63 57.999c0.666992 33.333 32.334 56.333 95.001 69c55.333 4.66699 133.666 13.667 234.999 27c67.333 12.667 101.333 37 102 73c0.666992 44 -3.66602 127.333 -12.999 250
c-10 129.333 -15 215.333 -15 258c0 94 4.66699 190.333 14 289c10 113.333 15.667 189 17 227c2 84 -20.333 126.667 -67 128c-94.667 2.66699 -202.334 -24 -323.001 -80c-70 -32 -123.333 -70.333 -160 -115c-23.333 -28 -41 -71.667 -53 -131
c-8.66699 -43.333 -34.334 -64.666 -77.001 -63.999c-53.333 0.666992 -78.666 51 -75.999 151l5 209c2.66699 91.333 20.167 149.166 52.5 173.499s111.833 36.5 238.5 36.5c-14 0 112.667 -2.66699 380 -8c226 -4.66699 439.333 -5.33398 640 -2.00098
c123.333 2 309 6.33301 557 13c222.667 5.33301 335 8 337 8c53.333 -0.666992 85.666 -25.667 97 -75c2.66699 -11.333 11.334 -108.666 26 -291.999z" />
    <glyph glyph-name="U" unicode="U" horiz-adv-x="2652" 
d="M2660 1508c2.66699 -42.667 -16.668 -72.002 -58.002 -88.002l-114 -27c-55.333 -16 -93.666 -40.667 -115 -74c-14.667 -24 -27.334 -68.667 -38 -134c-6 -37.333 -9 -119.333 -9 -246c0 -259.333 -63.333 -481 -190 -665
c-143.333 -208.667 -338.666 -313 -585.999 -313c-287.333 0 -519.333 64.333 -696 193c-197.333 143.333 -302.666 354.333 -315.999 633c-1.33301 28 -2 56.667 -2 86c0 42.667 2.66699 106.334 8 191.001s8 148 8 190c0 49.333 -26.333 82.666 -79 99.999
c-20 6.66699 -73.333 14 -160 22c-60 6 -99 13.667 -117 23c-20 11.333 -30 33.333 -30 66c0 37.333 32.667 56 98 56c68.667 0 172.167 -2.33301 310.5 -7s242.166 -7 311.499 -7c23.333 0 106 0.666992 248 2c100.667 0.666992 183.334 0.333984 248.001 -0.999023
c24.667 -0.666992 59.667 0 105 2c48.667 2 83.334 3 104.001 3c58.667 0 88 -15.667 88 -47c0 -28 -16.667 -50.333 -50 -67c-26.667 -12.667 -56 -19.334 -88 -20.001c-96.667 -1.33301 -145 -36.333 -145 -105c0 -42 2.83301 -104.833 8.5 -188.5s8.5 -146.5 8.5 -188.5
c0 -27.333 0.833008 -68.666 2.5 -123.999s2.5 -96.666 2.5 -123.999c0 -96 27 -183 81 -261c60 -86.667 135 -130 225 -130c125.333 0 224.666 63.667 297.999 191c62 106.667 93 228 93 364c0 108 -12 213.667 -36 317c-34.667 147.333 -86 227 -154 239l-110 12
c-48.667 8.66699 -73 27.667 -73 57c0 52 31.333 78 94 78l398 -1c42.667 0 105.167 4.16699 187.5 12.5s144.166 12.5 185.5 12.5c14.667 0 32.334 -10.667 53 -32z" />
    <glyph glyph-name="V" unicode="V" horiz-adv-x="2499" 
d="M2302 1479c-0.666992 -26 -3.00098 -41.334 -7.00098 -46.001c-8.66699 -11.333 -34 -19.666 -76 -24.999c-48.667 -6 -86 -25 -112 -57c-14.667 -18.667 -31 -53.334 -49 -104.001c-34.667 -96.667 -62.334 -169.667 -83.001 -219
c-100 -241.333 -240.667 -487.333 -422 -738c-184 -253.333 -314.667 -379.333 -392 -378c-29.333 0.666992 -106.333 99 -231 295c-92.667 146 -167.667 271.667 -225 377c-172.667 318.667 -284.334 571.667 -335.001 759c-4.66699 18 -43.667 32.667 -117 44
c-69.333 10 -103.666 34.333 -102.999 73c0 15.333 6.33301 29 19 41c10.667 10.667 20.334 16 29.001 16c108 -2 232 -6.66699 372 -14l742 3c42 0.666992 90 0.666992 144 0c40.667 -2.66699 61.667 -16.667 63 -42c2 -42.667 -51 -70.667 -159 -84
c-52.667 -6.66699 -77 -25.667 -73 -57c11.333 -90.667 58 -212.667 140 -366c77.333 -143.333 127.333 -215.333 150 -216c14.667 0 35.334 15.833 62.001 47.5s51 70.5 73 116.5c62 128.667 94 245 96 349c0.666992 50.667 -5.66602 84.667 -18.999 102
c-8.66699 10 -28.334 18.667 -59.001 26c-27.333 6 -45.333 12 -54 18c-14.667 10.667 -22.667 27.667 -24 51c-1.33301 22.667 24.667 38.667 78 48c16.667 2.66699 81.334 4.33398 194.001 5.00098c39.333 0 101.666 3.33301 186.999 10c83.333 6.66699 125.333 10 126 10
c26.667 -0.666992 43 -2.33398 49 -5.00098c11.333 -5.33301 16.666 -18.666 16 -39.999z" />
    <glyph glyph-name="W" unicode="W" horiz-adv-x="3511" 
d="M3335 1493c0 -15.333 -20.667 -36.665 -62 -63.998c-48.667 -33.333 -77 -55.333 -85 -66c-25.333 -35.333 -51.333 -89 -78 -161c-36.667 -98.667 -58.334 -155.334 -65 -170.001c-60.667 -132 -187.334 -335.667 -380.001 -611c-223.333 -320.667 -371 -481 -443 -481
c-26.667 0 -109 106.667 -247 320c-146.667 227.333 -230 348.666 -250 363.999l-309 -376c-176 -211.333 -290 -317 -342 -317c-21.333 0 -104.333 128 -249 384c-100.667 178 -204 399.667 -310 665l-61 191c-29.333 94 -52.666 150.333 -69.999 169s-59 39.667 -125 63
c-51.333 18.667 -77 42.667 -77 72c0 37.333 20 56 60 56c43.333 0 105.333 -3.66699 186 -11c86 -7.33301 148.333 -11.333 187 -12l287 -5c22.667 -0.666992 54 1 94 5c44.667 3.33301 76.334 5.33301 95.001 6c32.667 0.666992 82.667 8.33398 150 23.001
c65.333 14.667 114.666 22 147.999 22c16.667 0 31.667 -5.83301 45 -17.5s20 -25.5 20 -41.5c0 -32 -30.333 -59 -91 -81l-137 -36c14 -50.667 40 -76 78 -76c8 0 59.667 6.33301 155 19c195.333 26 350 50 464 72c106 20.667 250.667 58.334 434 113.001l117 43
c50.667 18.667 90 28 118 28c26 0 39 -23.333 39 -70c0 -36 -22.333 -64.333 -67 -85c-0.666992 -0.666992 -42 -14.667 -124 -42c-44.667 -14.667 -67 -32.334 -67 -53.001c0 -54.667 38 -166.334 114 -335.001c80.667 -177.333 141 -266 181 -266s91.333 72.333 154 217
c58 134 87 227.333 87 280c0 42.667 -8.33301 71 -25 85c-14.667 12 -43.334 18 -86 18c-5.33301 0 -13.166 -1 -23.5 -3c-10.333 -2 -18.166 -3 -23.5 -3c-57.333 0 -86 21 -86 63c0 30 50.333 54.667 151 74l193 29c14 3.33301 60.333 18 139 44
c71.333 23.333 111 35 119 35c45.333 0 68 -25.667 68 -77zM1660 832.001c0 8 -15.668 54.667 -47.001 140c-32 88 -49.333 146.667 -52 176c-25.333 18 -75.666 27 -150.999 27c-54 0 -87.333 -8 -100 -24l117 -247c67.333 -131.333 114 -197 140 -197
c16 0 35.5 16.667 58.5 50s34.5 58.333 34.5 75z" />
    <glyph glyph-name="X" unicode="X" horiz-adv-x="2605" 
d="M2457 50c0 -43.333 -26.3379 -65.0039 -79.0049 -65.0039c-46.667 0 -113 2 -199 6c-94 4 -160.667 6.33301 -200 7c-104 1.33301 -242.333 2 -415 2c-52 0 -129.833 -1.66699 -233.5 -5s-181.5 -5 -233.5 -5c-50 0 -75 18.333 -75 55c0 32.667 21.667 52.334 65 59.001
c56.667 8.66699 94 22.334 112 41.001c1.33301 1.33301 2 2.66602 2 3.99902c0 28.667 -25 78.667 -75 150c-52 74 -91.333 111 -118 111c-31.333 0 -77 -32.333 -137 -97s-90 -112.667 -90 -144c0 -38 45 -59.667 135 -65c32 -2 48 -19.333 48 -52
c0 -42.667 -35 -64 -105 -64c-12 0 -27.333 0.666992 -46 2s-30.667 2 -36 2c-30.667 0 -77 -0.833008 -139 -2.5s-108.333 -2.5 -139 -2.5c-27.333 0 -68.166 -2 -122.499 -6s-95.166 -6 -122.499 -6c-53.333 0 -80 20.667 -80 62c0 21.333 13.333 40 40 56
c16.667 10 44 19.667 82 29c40.667 9.33301 69.334 18.333 86.001 27c42 22 138.333 90 289 204c159.333 120 239 188.667 239 206c0 8.66699 -48.667 92.667 -146 252c-82 134.667 -175 299.334 -279 494.001c-29.333 54.667 -75.333 90 -138 106
c-81.333 20.667 -122 40.334 -122 59.001c0 40 19 60 57 60c40.667 0 94 -1.33301 160 -4c79.333 -3.33301 132.666 -5.33301 159.999 -6c265.333 -5.33301 474 -8 626 -8c28.667 0 72.334 2.5 131.001 7.5s102.334 7.5 131.001 7.5c43.333 0 65 -16 65 -48
c0 -23.333 -22.167 -44.333 -66.5 -63s-66.5 -36 -66.5 -52s22.5 -55.833 67.5 -119.5s74.5 -95.5 88.5 -95.5c25.333 0 60.666 29 105.999 87c44.667 56 67 96.667 67 122c0 32.667 -22.333 51.667 -67 57c-28.667 3.33301 -47.667 7.33301 -57 12
c-18.667 8.66699 -28 25.667 -28 51c0 24 36.667 36 110 36h158c39.333 0 87.333 2.33301 144 7c67.333 5.33301 115.333 8.33301 144 9c16.667 0.666992 49 4 97 10c44.667 5.33301 76.667 8 96 8c16.667 0 31.334 -6.16699 44 -18.5c12.667 -12.333 19 -26.833 19 -43.5
c0 -31.333 -19.333 -53.666 -58 -66.999c-5.33301 -2 -37.666 -8.33301 -97 -19c-45.333 -8.66699 -89.666 -27 -132.999 -55c-45.333 -30 -126.666 -90.667 -243.999 -182c-134 -104.667 -202 -165 -204 -181l153 -249c34.667 -54 84.667 -142.667 150 -266
c62 -117.333 112.667 -205.333 152 -264c10.667 -15.333 70.334 -36 179 -62c98.667 -24 148 -54.333 148 -91z" />
    <glyph glyph-name="Y" unicode="Y" horiz-adv-x="2705" 
d="M2418 1469c0 -22 -23.665 -42.665 -70.998 -61.998l-99 -40c-28 -18.667 -65.667 -63.667 -113 -135l-223 -325c-88 -130 -157.333 -241.333 -208 -334c-2 -22 -5.66699 -75.333 -11 -160c-3.33301 -55.333 -5 -106 -5 -152c0 -28.667 1.33301 -48.667 4 -60
c8 -32.667 45.333 -56 112 -70l179 -32c62 -17.333 93 -47 93 -89c0 -12 -10.333 -22.333 -31 -31c-16.667 -7.33301 -32 -11 -46 -11c-22 0 -51.667 1.66699 -89 5c-44 4 -73.333 6.33301 -88 7c-262 12 -466 18 -612 18c-118 0 -239.667 -5 -365 -15
c-133.333 -10.667 -206.333 -16 -219 -16c-48 0 -72 22.333 -72 67c0 34 31.667 56.667 95 68l178 28c63.333 16.667 95 48.334 95 95.001c0 25.333 -0.5 64.166 -1.5 116.499s-1.5 91.166 -1.5 116.499c0 54 -0.666992 91.667 -2 113c-0.666992 11.333 -53 118 -157 320
c-98.667 193.333 -160.334 311 -185.001 353c-37.333 64.667 -76.333 103 -117 115c-42 7.33301 -83.667 15 -125 23c-52.667 13.333 -79 40 -79 80c0 12.667 8.83301 25.167 26.5 37.5s32.834 18.5 45.501 18.5c44.667 0 111.834 -2.66699 201.501 -8
s156.834 -8 201.501 -8c48.667 0 121.5 0.5 218.5 1.5s169.833 1.5 218.5 1.5c37.333 0 93.166 2 167.499 6s130.166 6 167.499 6c63.333 0 95 -19.667 95 -59c0 -34 -42.667 -61 -128 -81c-34 -8 -51 -16 -51 -24c0 -2.66699 7.66699 -21.334 23 -56.001
c122 -276.667 195.667 -415 221 -415c46.667 0 94.667 62.333 144 187c44 110 66 194.333 66 253c0 41.333 -31.833 65.333 -95.5 72s-95.5 26.667 -95.5 60c0 40.667 34 61 102 61c25.333 0 63.166 -1.33301 113.499 -4s88.166 -4 113.499 -4
c79.333 0 144.666 1.33301 196 4c89.333 4.66699 133.333 7 132 7c54 0 81 -16.333 81 -49z" />
    <glyph glyph-name="Z" unicode="Z" horiz-adv-x="2559" 
d="M2380 514c2 -42.667 -35.665 -204.665 -112.998 -485.998c-7.33301 -26 -34.666 -38.667 -82 -38c-4.66699 0 -42.834 1.16699 -114.501 3.5s-110.834 3.5 -117.501 3.5c-156 0 -432 -2 -828 -6c-354.667 -4 -630.667 -5.33301 -828 -4c-54.667 0 -82 17.667 -82 53
c0 20 66.333 109 199 267l385 504l315 401c42.667 55.333 63.667 93 63 113c-0.666992 22.667 -42.667 34.667 -126 36c-76 1.33301 -158.667 -9.33398 -248 -32.001c-96.667 -24 -177 -56.833 -241 -98.5s-98.333 -83.167 -103 -124.5c-6 -49.333 -12.667 -80.333 -20 -93
c-10.667 -19.333 -32.334 -28 -65.001 -26c-50.667 3.33301 -76 159.666 -76 468.999c0 24 15 40.667 45 50c24.667 7.33301 71 12.333 139 15c47.333 2 99 3 155 3c94.667 0 225 -3.66699 391 -11c189.333 -7.33301 315.333 -11.666 378 -12.999
c99.333 -2 239.333 3.33301 420 16c196.667 13.333 336.334 20 419.001 20c38 0 62.667 -7 74 -21c4.66699 -5.33301 8 -19 10 -41c4 -37.333 -57.333 -137.333 -184 -300l-712 -915c-17.333 -22 -26 -42 -26 -60c0 -23.333 52.333 -36 157 -38
c55.333 -0.666992 133.666 16 234.999 50c90 29.333 144.667 52 164 68c72.667 58.667 111.667 90.334 117.001 95.001c48 41.333 82 78 102 110l48 79c20 29.333 40.333 43.666 61 42.999c56.667 -0.666992 86.334 -31.334 89 -92.001z" />
    <glyph glyph-name="bracketleft" unicode="[" horiz-adv-x="1405" 
d="M763 1655c84.667 0 258.669 26.3311 522.002 78.998c-21.333 -74 -82 -131.333 -182 -172c-92.667 -37.333 -205.667 -56 -339 -56s-237.666 5.66699 -312.999 17c91.333 -340 137 -624.667 137 -854s-35.667 -517.666 -107 -864.999c91.333 26.667 190 40 296 40
c21.333 0 42.666 -0.666992 63.999 -2c95.333 -6 189.666 -25.667 282.999 -59c128.667 -46 189.334 -103.667 182.001 -173c-50.667 14.667 -100.334 27 -149.001 37c-117.333 25.333 -220.333 38.333 -309 39c-182 2 -376.667 -18.333 -584 -61
c33.333 110.667 62.333 265.334 87 464.001c23.333 186.667 34 340 32 460c-44 -26.667 -84.333 -40 -121 -40c-122 0 -183 53.333 -183 160c0 78 19.667 131 59 159c26.667 18.667 68 28 124 28c42 0 82.333 -12 121 -36c-10.667 112 -27 260.333 -49 445
c-10.667 67.333 -38.334 210 -83.001 428l196 -26c74.667 -8 180 -12 316 -12z" />
    <glyph glyph-name="backslash" unicode="\" horiz-adv-x="1397" 
d="M930 -111l-622 1689l77 28l622 -1689z" />
    <glyph glyph-name="bracketright" unicode="]" horiz-adv-x="1405" 
d="M622 1655c-84.667 0 -258.669 26.3311 -522.002 78.998c21.333 -74 82 -131.333 182 -172c92.667 -37.333 205.667 -56 339 -56s237.666 5.66699 312.999 17c-91.333 -340 -137 -624.667 -137 -854s35.667 -517.666 107 -864.999c-91.333 26.667 -190 40 -296 40
c-21.333 0 -42.666 -0.666992 -63.999 -2c-95.333 -6 -189.666 -25.667 -282.999 -59c-128.667 -46 -189.334 -103.667 -182.001 -173c50.667 14.667 100.334 27 149.001 37c117.333 25.333 220.333 38.333 309 39c182 2 376.667 -18.333 584 -61
c-33.333 110.667 -62.333 265.334 -87 464.001c-23.333 186.667 -34 340 -32 460c44 -26.667 84.333 -40 121 -40c122 0 183 53.333 183 160c0 78 -19.667 131 -59 159c-26.667 18.667 -68 28 -124 28c-42 0 -82.333 -12 -121 -36c10.667 112 27 260.333 49 445
c10.667 67.333 38.334 210 83.001 428l-196 -26c-74.667 -8 -180 -12 -316 -12z" />
    <glyph glyph-name="asciicircum" unicode="^" horiz-adv-x="1190" 
d="M147 786l411 718h82l404 -718h-159l-295 512l-290 -512h-153z" />
    <glyph glyph-name="underscore" unicode="_" horiz-adv-x="1024" 
d="M-19 -311h1062v-131h-1062v131z" />
    <glyph glyph-name="grave" unicode="`" 
d="M1046 1661c0 33.333 -20.334 110.334 -61.001 231.001c-44 130 -77.333 195 -100 195c-161.333 0 -242 -17.667 -242 -53c0 -46.667 47.333 -122.834 142 -228.501s163.334 -158.5 206.001 -158.5c4 0 9.5 -0.5 16.5 -1.5s12.5 -1.5 16.5 -1.5c14.667 0 22 5.66699 22 17
z" />
    <glyph glyph-name="a" unicode="a" horiz-adv-x="2665" 
d="M2498 55c0 -53.333 -28.333 -79.999 -85 -79.999c-67.333 0 -168 4.16699 -302 12.5s-234.667 12.5 -302 12.5c-71.333 0 -178.666 -2.83301 -321.999 -8.5s-250.666 -8.5 -321.999 -8.5c-70 0 -105 16.667 -105 50c0 28 22 47.333 66 58l122 24
c44 12.667 66.333 36.334 67 71.001c0.666992 66.667 -40.333 109.667 -123 129c-38.667 9.33301 -111 13.666 -217 12.999l-202 -2c-63.333 -0.666992 -95 -40 -95 -118c0 -18.667 2.83301 -47 8.5 -85s8.5 -66.333 8.5 -85c0 -32 -27.333 -48 -82 -48
c-32.667 0 -105.334 32.667 -218.001 98c-116 67.333 -174 113.666 -174 138.999c0 43.333 19.333 65 58 65c25.333 0 49.666 -6.66699 72.999 -20c12 -6.66699 29.333 -19.667 52 -39c17.333 -14 29.333 -21 36 -21c44 0 84.667 46.667 122 140
c73.333 181.333 192.666 399.666 357.999 654.999c44.667 68.667 126.334 173 245.001 313c140 164.667 226.667 247 260 247c42 0 123.333 -83 244 -249c98.667 -135.333 169 -243 211 -323c56.667 -109.333 121.667 -259.666 195 -450.999l67 -219
c33.333 -104 65 -166.667 95 -188c9.33301 -6.66699 59 -14.667 149 -24c74.667 -8 112 -27.333 112 -58zM1147 598.001c-85.333 127.333 -141.333 191 -168 191c-25.333 0 -64.333 -44.333 -117 -133c-51.333 -86 -77 -144 -77 -174c0 -20 40.333 -31 121 -33
c48.667 1.33301 97.667 2.33301 147 3l49 -4c31.333 -2 56 -2 74 0c24.667 3.33301 36.667 10.333 36 21c-2 24.667 -23.667 67.667 -65 129z" />
    <glyph glyph-name="b" unicode="b" horiz-adv-x="2383" 
d="M2155 424c0 -132 -67.9971 -239.336 -203.997 -322.003c-118 -71.333 -247.333 -107 -388 -107h-168c-54.667 0 -126.334 1.33301 -215.001 4c-96.667 2.66699 -168.334 4 -215.001 4c-58.667 0 -146.667 -1 -264 -3s-205.333 -3 -264 -3c-126 0 -189 26.333 -189 79
c0 49.333 22.667 74 68 74c24 0 60.333 -1.83301 109 -5.5s85 -5.5 109 -5.5c36 0 54 27.667 54 83v555c0 56.667 3.5 141.334 10.5 254.001s10.5 197.334 10.5 254.001c0 22.667 -7.33301 44.5 -22 65.5s-31.334 31.5 -50.001 31.5c-30 0 -71.667 -1.33301 -125 -4
s-95 -4 -125 -4c-37.333 0 -55 20 -53 60c2 40.667 124.333 66.334 367 77.001c73.333 3.33301 225.333 5 456 5c234 0 428.333 -21 583 -63c254 -68.667 381 -188 381 -358c0 -95.333 -47.333 -189 -142 -281c184 -120 276 -250 276 -390zM1725 1046
c0 70.667 -27.667 138.002 -83 202.002c-57.333 66.667 -121 100 -191 100c-36 0 -54 -28 -54 -84c0 -72.667 5 -149.334 15 -230.001c14 -116.667 34.333 -178.334 61 -185.001c8 -2 22.333 -3 43 -3c84 0 139.833 12.5 167.5 37.5s41.5 79.167 41.5 162.5zM1816 415.999
c0 78.667 -27.667 150 -83 214c-57.333 66 -125 99 -203 99c-50.667 0 -82.667 -15.667 -96 -47c-6.66699 -16 -10 -53.333 -10 -112c0 -25.333 -0.833008 -63.5 -2.5 -114.5s-2.5 -89.167 -2.5 -114.5c0 -136.667 26.333 -205 79 -205c212 0 318 93.333 318 280z" />
    <glyph glyph-name="c" unicode="c" horiz-adv-x="2020" 
d="M1740 473c0 -54 -13.6641 -111.334 -40.9971 -172.001c-102 -227.333 -299.333 -342.666 -592 -345.999c-563.333 -6.66699 -845 274.333 -845 843c0 234.667 88.333 418.667 265 552c160 120.667 361 181 603 181c80 0 175.333 -14 286 -42
c89.333 -22.667 137.333 -34 144 -34c35.333 0 58.333 19.333 69 58s30.667 58 60 58c40.667 0 61 -44.333 61 -133c0 -65.333 -13.667 -168 -41 -308c-32.667 -166 -65.334 -249 -98.001 -249c-35.333 0 -53 13.667 -53 41c0 6.66699 1.83301 16.667 5.5 30
s5.5 23.333 5.5 30c0 82 -23.333 163 -70 243c-54 92 -118.667 138 -194 138c-50 0 -89 -55.667 -117 -167c-20.667 -81.333 -31 -158.333 -31 -231c0 -534 56.667 -801 170 -801c65.333 0 123.666 33 174.999 99c23.333 29.333 58.333 90.333 105 183
c33.333 66 60.666 99 81.999 99c34 0 51 -24 51 -72z" />
    <glyph glyph-name="d" unicode="d" horiz-adv-x="2343" 
d="M2091 747c-4 -246.667 -96.6641 -439.331 -277.997 -577.998c-162.667 -124 -359.667 -182.333 -591 -175c-346.667 11.333 -615.667 12.666 -807 3.99902c-36 -1.33301 -70 2 -102 10c-44.667 11.333 -66.334 30.333 -65.001 57c1.33301 20.667 12.666 37.667 33.999 51
c16.667 10.667 31 16 43 16c6 0 41 -2.33301 105 -7s99 -7 105 -7c14 0 29.333 4.33301 46 13c20.667 11.333 31 24.666 31 39.999c0 9.33301 -4.33301 97.666 -13 264.999c-9.33301 172.667 -14 299 -14 379c0 30 0.666992 54.667 2 74c10 164 13 286 9 366
c-2.66699 50.667 -23.334 77.334 -62.001 80.001c-37.333 2 -79.333 0.666992 -126 -4c-52 -5.33301 -85 -8 -99 -8c-10 0 -22 4.33301 -36 13s-21 18 -21 28c0.666992 38.667 24 66.667 70 84c36 13.333 97.333 26.333 184 39c72.667 10 117.667 15 135 15l512 13
c634 -11.333 946.667 -267.333 938 -768zM1793 748.003c0 152.667 -25.002 284.998 -75.002 396.998c-61.333 139.333 -150 210 -266 212c-32 0.666992 -48.667 -40.333 -50 -123c-1.33301 -80.667 1.33398 -165.167 8.00098 -253.5s9 -174.166 7 -257.499
c-5.33301 -240 -7.66602 -382.667 -6.99902 -428c2 -95.333 21 -143.333 57 -144c94.667 -1.33301 174.667 67.334 240 206.001c57.333 122 86 252.333 86 391z" />
    <glyph glyph-name="e" unicode="e" horiz-adv-x="2423" 
d="M2159 531c0 -79.333 -7.66406 -161.664 -22.9971 -246.997l-52 -244c-7.33301 -36.667 -63 -55 -167 -55c-56.667 0 -165.834 2 -327.501 6s-270.834 6 -327.501 6c-338.667 0 -613 -5 -823 -15l-224 -10c-15.333 0 -29.666 7.33301 -42.999 22
c-12 12.667 -17.667 25 -17 37c0.666992 27.333 15 45.333 43 54c13.333 4.66699 39.333 7.66699 78 9c26.667 0 71.667 1 135 3c97.333 3.33301 144.333 51.666 141 144.999c-1.33301 30.667 -6.66602 116 -15.999 256c-8 111.333 -12 215.666 -12 312.999
c0 1.33301 2.5 70.666 7.5 207.999s7.5 215.333 7.5 234c0 50 -26.667 89.667 -80 119c-18 10 -84.667 21.333 -200 34c-93.333 11.333 -140 31.666 -140 60.999c0 38 18.333 57 55 57c-15.333 0 64.667 -3.33301 240 -10c178 -6.66699 366.333 -10 565 -10
c278.667 0 488.167 3.5 628.5 10.5s266.166 10.5 377.499 10.5c47.333 0 77 -30.667 89 -92c3.33301 -18 5 -66 5 -144c0 -59.333 -11 -137.333 -33 -234c-9.33301 -40.667 -29.333 -62.667 -60 -66c-14 -1.33301 -27.167 3.5 -39.5 14.5s-18.833 26.167 -19.5 45.5
c-0.666992 25.333 -4.66699 46.333 -12 63c-38 87.333 -111 152.333 -219 195c-84 34 -176.333 51 -277 51c-12 0 -22.667 -5.16699 -32 -15.5s-14 -20.5 -14 -30.5c0 -39.333 1 -83 3 -131c4 -96 6 -168 6 -216c0 -42.667 23 -64 69 -64c5.33301 0 29.833 2.66699 73.5 8
s68.167 8 73.5 8c64.667 0 123 -8.66699 175 -26c38.667 -12.667 58.667 -56.667 60 -132c1.33301 -48 -12.334 -131 -41.001 -249c-12 -50.667 -31 -76 -57 -76c-27.333 0 -41.666 11.667 -42.999 35c-0.666992 6.66699 -0.333984 17.334 0.999023 32.001
c0.666992 17.333 1 29.333 1 36c0 48.667 -24.333 100.334 -73 155.001c-55.333 62 -119 93 -191 93c-10 0 -23 -9 -39 -27c-0.666992 -76.667 -5.83398 -193.834 -15.501 -351.501s-14.5 -233.5 -14.5 -227.5c0 -32 14.333 -48 43 -48c103.333 0 233.333 53 390 159
c106 72 182.333 137 229 195c13.333 16.667 23.833 40.334 31.5 71.001s24.167 46 49.5 46c18 0 32.333 -10 43 -30c8 -14.667 12 -28.334 12 -41.001z" />
    <glyph glyph-name="f" unicode="f" horiz-adv-x="2463" 
d="M2229 1314c1.33301 -17.333 -2.33398 -90.001 -11 -218.001c-6 -66 -29.667 -100.667 -71 -104c-38 -3.33301 -57.333 19 -58 67c-2 126.667 -86 207 -252 241c-85.333 17.333 -135.333 27.333 -150 30c-68 12.667 -123.667 19.334 -167 20.001
c-25.333 0.666992 -38.333 -10.666 -39 -33.999c-2.66699 -162.667 5.33301 -294 24 -394c3.33301 -18 42.666 -27.667 117.999 -29c82 0.666992 170.333 1.33398 265 2.00098c41.333 -0.666992 66.333 -14 75 -40c2 -8 3 -38.667 3 -92
c-0.666992 -124.667 -9.33398 -217.334 -26.001 -278.001c-14 -52 -37.667 -77.667 -71 -77c-28 0.666992 -43.667 17.667 -47 51c0 29.333 -3.33301 66 -10 110c-32.667 71.333 -65.334 119.666 -98.001 144.999c-40 30.667 -109 54.667 -207 72
c-8.66699 -225.333 -18.667 -417.666 -30 -576.999c-2 -25.333 10 -46 36 -62c22 -13.333 47 -20.333 75 -21c114.667 -2 195.334 -6.33301 242.001 -13c58 -8.66699 86.667 -36.334 86 -83.001c-0.666992 -33.333 -39.334 -49.333 -116.001 -48
c-146.667 3.33301 -355 7.66602 -625 12.999c-42 0.666992 -268.667 -5.33301 -680 -18c-10 0 -43.667 -1.66699 -101 -5c-53.333 -3.33301 -83 -5 -89 -5c-22 0.666992 -40.333 6.66699 -55 18c-11.333 10 -17 19.333 -17 28c0.666992 28.667 9.33398 49 26.001 61
c14.667 10 41.334 17.333 80.001 22c52 5.33301 125.667 14.333 221 27c60 9.33301 90.333 35.666 91 78.999c-8 165.333 -14.333 362.333 -19 591c10.667 204.667 16 341 16 409c0 78.667 -4 124.667 -12 138c-15.333 25.333 -51 42.333 -107 51l-154 14
c-57.333 5.33301 -92.333 10 -105 14c-30 8.66699 -45 25.334 -45 50.001c0 18 8.66699 32.667 26 44c13.333 8.66699 25.333 13 36 13l345 -14c228 -8 404.667 -12 530 -12c38.667 0 72.334 0.333008 101.001 1l821 23c64.667 -1.33301 107 -22.666 127 -63.999
c13.333 -27.333 19.333 -76 18 -146z" />
    <glyph glyph-name="g" unicode="g" horiz-adv-x="2426" 
d="M2210 879c0 -22.667 -10.333 -40.333 -31 -53c-31.333 -20 -51 -34.667 -59 -44c-20.667 -26.667 -31 -68 -31 -124c0 -62 11.667 -153.667 35 -275s35 -213 35 -275c0 -69.333 -22 -104 -66 -104c-26.667 0 -46.334 10.333 -59.001 31c-6 10 -12.667 31.667 -20 65
c-8.66699 36 -37.334 53 -86.001 51l-261 -108c-159.333 -54 -309 -81 -449 -81c-336 0 -586.333 58.667 -751 176c-190 135.333 -285 359 -285 671c0 230 99 413.333 297 550c174.667 120 380.667 180 618 180c246.667 0 459.334 -37.333 638.001 -112l42 82
c20 28.667 46.667 43 80 43c47.333 0 71 -19.333 71 -58c0 -22 -31.667 -114.5 -95 -277.5s-95 -264.833 -95 -305.5c0 -24.667 11.667 -37 35 -37c42 0 102.333 13.5 181 40.5s137.667 40.5 177.001 40.5c52.667 0 79 -25.333 79 -76zM1599 899.001
c0 90 -31.666 190 -94.999 300c-70.667 123.333 -147.334 185 -230.001 185c-47.333 0 -88 -68.667 -122 -206c-26 -108 -39 -198.333 -39 -271c0 -14.667 1.66699 -38.167 5 -70.5s5 -55.5 5 -69.5c2.66699 -0.666992 7 -2.33398 13 -5.00098s11 -4 15 -4
c56.667 0 140 13.333 250 40c132 32.667 198 66.334 198 101.001zM1434 295.001c0 32 -14.999 93.666 -44.999 184.999c-31.333 96.667 -56.833 151.834 -76.5 165.501s-51.5 20.5 -95.5 20.5h-90c-4.66699 -18 -7 -30.667 -7 -38c0 -86 16 -182 48 -288
c41.333 -137.333 93.666 -206 156.999 -206c72.667 0 109 53.667 109 161z" />
    <glyph glyph-name="h" unicode="h" horiz-adv-x="3156" 
d="M1566 27c0 -28 -20.3379 -41.667 -61.0049 -41c-76 0.666992 -188.333 3 -337 7s-261 6.33301 -337 7c-58.667 0.666992 -156.167 -2.16602 -292.5 -8.49902s-233.833 -9.16602 -292.5 -8.49902c-34 0 -51 11 -51 33c0 38.667 25 62 75 70l196 32
c76.667 22 115.334 58 116.001 108c0.666992 63.333 -3.16602 157.833 -11.499 283.5s-12.166 220.167 -11.499 283.5c0.666992 54.667 4.5 136.167 11.5 244.5s10.833 189.833 11.5 244.5c0 33.333 -5.66699 55.333 -17 66c-8 7.33301 -31 16 -69 26l-181 27
c-36 5.33301 -58 10 -66 14c-18.667 9.33301 -28 27.666 -28 54.999c0 38 26.333 56.667 79 56c50 -0.666992 119.333 -3.16699 208 -7.5s158.334 -6.83301 209.001 -7.5c84.667 -0.666992 210 1.16602 376 5.49902s291 6.16602 375 5.49902
c17.333 0 32.166 -8.33301 44.499 -25s18.5 -34 18.5 -52c0 -23.333 -23.333 -44 -70 -62c-49.333 -19.333 -77 -40.666 -83 -63.999c-7.33301 -29.333 -11.333 -87.333 -12 -174c-0.666992 -94.667 -0.333984 -150.667 0.999023 -168c4 -47.333 9 -78.333 15 -93
c12 -28 35.333 -42 70 -42h184c54 -0.666992 81 14.666 81 45.999c0 25.333 -1 63.333 -3 114s-3 88.667 -3 114c0 18 1.5 45 4.5 81s4.5 63 4.5 81c0.666992 44.667 -14 75.334 -44 92.001l-84 26c-30 10 -44.667 28.667 -44 56c0.666992 30 9.33398 49.667 26.001 59
c12.667 7.33301 38.334 11 77.001 11c28 0 109 -1.66699 243 -5c138.667 -4 218.667 -6 240.001 -6c81.333 -0.666992 194.166 0.333008 338.5 3c144.333 2.66699 256.833 3.66699 337.5 3c62 -0.666992 93 -18 93 -52c-0.666992 -45.333 -33 -74 -97 -86l-178 -22
c-64 -14.667 -96.333 -47.667 -97 -99c-0.666992 -50.667 2.83301 -128.167 10.5 -232.5s11.167 -181.833 10.5 -232.5c-0.666992 -58 -3.33398 -149.333 -8 -274c-4.66699 -116 -7 -207 -7 -273c0 -39.333 17.167 -68.166 51.5 -86.499s104.166 -34.5 209.5 -48.5
c72.667 -10 108.667 -34.333 108 -73c0 -23.333 -13.333 -38 -40 -44c-9.33301 -2 -33.666 -2.66699 -73 -2c-68 0.666992 -166.5 2 -295.5 4s-227.5 3.33301 -295.5 4c-54.667 0.666992 -136 -2 -244 -8s-189.333 -8.66699 -244 -8c-82.667 0.666992 -124 16.667 -124 48
c0 28 22.167 48.167 66.5 60.5s66.5 31.5 66.5 57.5c0 31.333 -1.33301 70.666 -4 117.999c-2.66699 55.333 -4.33398 95 -5.00098 119c2.66699 49.333 4.66699 117 6 203c-1.33301 52.667 -22.333 80 -63 82h-172c-55.333 0 -84.666 -18 -87.999 -54
c-2.66699 -26 -4.66699 -76.333 -6 -151c-2 -47.333 -4.33301 -118.333 -7 -213c-0.666992 -59.333 15 -102.333 47 -129c10.667 -10 40 -24.333 88 -43c31.333 -12.667 47 -31 47 -55z" />
    <glyph glyph-name="i" unicode="i" horiz-adv-x="2071" 
d="M1851 43c-1.33301 -40 -27.668 -59.6699 -79.001 -59.0029l-662 16c-98 2 -232.333 0.333008 -403 -5c-206.667 -6.66699 -340.667 -10.334 -402 -11.001c-12 0 -23.333 2.33301 -34 7c-16.667 8 -25 20.667 -25 38c0.666992 26 12.334 43.333 35.001 52
c7.33301 2.66699 34.333 7.33398 81 14.001c34.667 2 85.667 6.66699 153 14c88 12.667 132.333 42.334 133 89.001c1.33301 69.333 -1.33398 167.333 -8.00098 294c-7.33301 136.667 -11 236.334 -11 299.001c0 66.667 4.66699 220.667 14 462
c2 56.667 -10.333 96.334 -37 119.001c-24 20.667 -65 31.667 -123 33c-37.333 1.33301 -81 2.66602 -131 3.99902c-40.667 0.666992 -67.5 6.33398 -80.5 17.001s-18.833 29.667 -17.5 57c1.33301 28.667 32 42.334 92 41.001l357 -10c230 -6 348.667 -9 356 -9
c342.667 12 568 17 676 15c55.333 -0.666992 82.666 -16.334 81.999 -47.001c-0.666992 -28 -18 -46 -52 -54c-6.66699 -2 -44 -6 -112 -12c-74 -6.66699 -123.667 -16.334 -149 -29.001c-29.333 -15.333 -44.333 -41.666 -45 -78.999c0 -8 4.33301 -66.667 13 -176
c9.33301 -112.667 14 -209 14 -289c0 -69.333 -3.66699 -166 -11 -290c-7.33301 -136 -11.666 -233 -12.999 -291c-0.666992 -48 6.83301 -80.667 22.5 -98s46.167 -26.333 91.5 -27c6 0 31 -3.66699 75 -11s69 -11 75 -11c84.667 -1.33301 126.334 -22.333 125.001 -63z
" />
    <glyph glyph-name="j" unicode="j" horiz-adv-x="2343" 
d="M2065 1483c0 -45.333 -36.998 -79 -110.998 -101c-24.667 -7.33301 -79.667 -16.666 -165 -27.999c-30.667 -4 -52 -10.333 -64 -19c-16.667 -12.667 -25 -35 -25 -67c0 -37.333 3.33301 -83.333 10 -138c10 -77.333 15.667 -123 17 -137
c16 -183.333 24 -380.333 24 -591c0 -270 -88.667 -472 -266 -606c-154.667 -116.667 -365 -175 -631 -175c-136.667 0 -266.334 46.667 -389.001 140c-134 102 -201 221.667 -201 359c0 63.333 29.5 123.666 88.5 180.999s118.833 86 179.5 86c68 0 129 -16.667 183 -50
c61.333 -37.333 92 -86 92 -146c0 -34.667 -7.66699 -52 -23 -52s-36 5.66699 -62 17s-42 17 -48 17c-26.667 0 -49.167 -13.167 -67.5 -39.5s-27.5 -54.5 -27.5 -84.5c0 -63.333 22.333 -122.333 67 -177c46.667 -57.333 99.334 -86 158.001 -86c52.667 0 91.667 29 117 87
c19.333 44 29 97.667 29 161c0 11.333 -7.33301 113.666 -22 306.999c-16 214.667 -25 401.334 -27 560.001c-0.666992 36 -0.666992 83.333 0 142c0.666992 74 1 121.333 1 142c0 76 -0.333008 116.333 -1 121c-5.33301 36.667 -48.333 55 -129 55
c-26.667 0 -66.334 2 -119.001 6s-92.334 6 -119.001 6c-80 0 -120 29.333 -120 88c0 21.333 10 39 30 53c17.333 12 36 18 56 18c38 0 95.167 -3.83301 171.5 -11.5s132.5 -11.5 168.5 -11.5l478 -3c155.333 -1.33301 315.333 4.66699 480 18c82.667 6.66699 147 10 193 10
c49.333 0 74 -17 74 -51z" />
    <glyph glyph-name="k" unicode="k" horiz-adv-x="3040" 
d="M2855 79c0 -18 -6.33496 -35 -19.002 -51c-14.667 -18.667 -33 -28 -55 -28h-982c-49.333 -0 -101 39.333 -155 118c-70.667 103.333 -164.667 214 -282 332c-21.333 -41.333 -32 -110.333 -32 -207c0 -57.333 12.667 -94 38 -110c16.667 -10 64.334 -20.333 143.001 -31
c57.333 -7.33301 86 -28.333 86 -63c0 -36.667 -19.667 -55 -59 -55c-7.33301 0 -114.333 2.33301 -321 7c-210 4.66699 -316.667 7 -320 7c-114.667 1.33301 -218.667 -0.333984 -312 -5.00098c-105.333 -6 -206 -9 -302 -9c-49.333 0 -74 14.333 -74 43
c0 35.333 22.333 56.333 67 63c74.667 10.667 126.667 19.667 156 27c50.667 12.667 82 23.334 94 32.001c16.667 12.667 25 36.667 25 72c0 12.667 -6.16699 62.667 -18.5 150s-18.5 189.666 -18.5 306.999l1 635c-7.33301 45.333 -40 68 -98 68c-2 0 -59 5.33301 -171 16
c-53.333 5.33301 -80 34 -80 86c0 31.333 30.667 47 92 47c6 0 72.833 -3 200.5 -9s194.5 -9 200.5 -9l458 -3c6 0 78.667 5 218 15s212 15 218 15c10 0 21.833 -4 35.5 -12s20.167 -16.667 19.5 -26c-1.33301 -26 -6.66602 -44.333 -15.999 -55
c-14.667 -17.333 -47 -32.333 -97 -45l-126 -24c-43.333 -12 -65 -34.333 -65 -67l13 -115c8.66699 -76.667 13 -159 13 -247v-270c0 -21.333 10.667 -32 32 -32c20 0 101.333 63 244 189c130 114.667 226.833 205.334 290.5 272.001s101.167 106.667 112.5 120
c46.667 57.333 69.334 104.333 68 141c-1.33301 34 -24.666 51.333 -70 52c-31.333 0 -62.333 0.333008 -93 1c-30.667 4.66699 -46 19.667 -46 45c0 37.333 54.333 56 163 56c20 0 40.833 -0.666992 62.5 -2s31.834 -2 30.5 -2c180 3.33301 318 10.333 414 21
c88 10 133.667 15 137 15c42.667 0 64 -19.667 64 -59c0 -24.667 -33.667 -45 -101 -61l-93 -18c-52.667 -14.667 -107 -41 -163 -79c-51.333 -34.667 -125.333 -103 -222 -205c-88.667 -94 -133 -144.667 -133 -152l172 -244l208 -291c85.333 -114 149.666 -188 193 -222
c54.667 -42.667 120 -71.667 196 -87c39.333 -8 59 -27 59 -57z" />
    <glyph glyph-name="l" unicode="l" horiz-adv-x="2423" 
d="M2254 532c0 -13.333 -9.33398 -80.333 -28.001 -201c-20.667 -135.333 -38.667 -235 -54 -299c-2.66699 -10.667 -11.667 -19.667 -27 -27s-28.333 -11 -39 -11c-81.333 0 -203.166 0.5 -365.499 1.5s-284.166 1.5 -365.499 1.5c-271.333 0 -497 -1.66699 -677 -5
c-38 -0.666992 -100.667 -3.33398 -188 -8.00098c-78.667 -4.66699 -140.667 -7 -186 -7c-18 0 -37.333 4.33301 -58 13c-26 10.667 -39 24.334 -39 41.001c0 34 12 56 36 66c0.666992 0 22.334 3.33301 65.001 10c32.667 0.666992 89.667 5.33398 171 14.001
c89.333 14.667 133 50 131 106c-4.66699 80 -10.667 217.667 -18 413c-2 74 0 185.667 6 335c6 166.667 9 278.667 9 336c0 23.333 -12 44.333 -36 63c-19.333 15.333 -35.333 23 -48 23c-106.667 0 -179 3 -217 9c-19.333 2.66699 -39 5.66699 -59 9
c-18 8 -27 28.667 -27 62c0 12.667 9 24 27 34c20.667 11.333 47 17 79 17c61.333 0 184.333 -4.66699 369 -14c167.333 -8.66699 278.333 -12 333 -10c250 10 415.333 15 496 15c5.33301 0 47.666 0.833008 126.999 2.5s121.666 2.5 126.999 2.5c45.333 0 68 -17 68 -51
c0 -48 -47.667 -72 -143 -72c-4.66699 0 -35 -3.83301 -91 -11.5s-87 -11.5 -93 -11.5c-60 0 -88.333 -18.667 -85 -56c11.333 -134.667 17 -325 17 -571c0 -85.333 -5 -197.5 -15 -336.5s-15 -210.5 -15 -214.5c0 -28.667 14.333 -44.334 43 -47.001
c9.33301 -0.666992 19 -1 29 -1c72 0 141.333 16.667 208 50c61.333 30.667 146.333 87 255 169l77 57c20 18 38 48 54 90c23.333 61.333 45.666 92 67 92c53.333 0 80 -26 80 -78z" />
    <glyph glyph-name="m" unicode="m" horiz-adv-x="3453" 
d="M3293 29c0 -30 -33 -44.9932 -99 -44.9932c-62.667 0 -157.167 2.66699 -283.5 8s-221.166 8 -284.499 8c-40.667 0 -79 -0.666992 -115 -2c-168 -2.66699 -420.667 -8.66699 -758 -18c-13.333 -0.666992 -27 2.66602 -41 9.99902c-16.667 8 -25 18.333 -25 31
c0 32 15.667 53.333 47 64c10 3.33301 39.333 8 88 14c10 1.33301 61.667 6.66602 155 15.999c18.667 2 37.667 9.33301 57 22c24.667 16 37 35.333 37 58c0 41.333 -14 155.333 -42 342c-10.667 70 -19.667 105 -27 105c-13.333 0 -104.333 -112.333 -273 -337
s-264.334 -337 -287.001 -337c-27.333 0 -137.333 106.833 -330 320.5s-301.334 320.5 -326.001 320.5c-24 0 -36 -15.667 -36 -47c0 -114 29.333 -212 88 -294c62.667 -88 148 -141.667 256 -161c56.667 -10 85 -33 85 -69c0 -34 -30.667 -51 -92 -51
c-44 0 -110.167 2.16699 -198.5 6.5s-154.5 6.5 -198.5 6.5c-40.667 0 -104.834 -5.66699 -192.501 -17s-151.5 -17 -191.5 -17c-58 0 -87 18 -87 54c0 30 28.667 51.667 86 65c52.667 9.33301 116.667 24.666 192 45.999c36.667 20.667 65 148 85 382
c13.333 159.333 20 305.666 20 438.999c0 284.667 -60.333 427 -181 427c-17.333 0 -42.166 1.16699 -74.499 3.5s-57.166 3.5 -74.499 3.5c-14 0 -30.667 6.66699 -50 20s-29 26.666 -29 39.999c0 48 33.333 74 100 78c51.333 3.33301 121.666 3 210.999 -1
c110.667 -5.33301 182 -8 214 -8c29.333 0 73.333 1 132 3s102.667 3 132 3c20.667 0 36.334 -0.333008 47.001 -1c59.333 -4 153 -76 281 -216c82.667 -90.667 188 -220 316 -388c105.333 -138.667 160 -208 164 -208c16.667 0 56 41 118 123l108 151l314 407
c65.333 84.667 129.666 127 193 127c28.667 0 71.667 -0.833008 129 -2.5s100.333 -2.5 129 -2.5c45.333 0 113.166 2.83301 203.5 8.5c90.333 5.66699 158.166 8.5 203.5 8.5c14 0 29 -4.66699 45 -14c18.667 -10.667 28 -22.334 28 -35.001
c0 -45.333 -21.667 -71.333 -65 -78l-204 -10c-80 -7.33301 -118 -42 -114 -104c25.333 -409.333 38 -635 38 -677c0 -38.667 -3.33301 -105.667 -10 -201c-5.33301 -80.667 -6.66602 -147.334 -4 -200.001c2 -39.333 39.667 -68 113 -86c8 -2 76 -12.333 204 -31
c29.333 -4 47.666 -8.66699 55 -14c12.667 -8 19 -24.333 19 -49z" />
    <glyph glyph-name="n" unicode="n" horiz-adv-x="2385" 
d="M2213 1476c0 -40.667 -27.6709 -67.002 -83.0039 -79.002l-154 -21c-55.333 -10.667 -83 -34 -83 -70c0 -24.667 2 -60.167 6 -106.5s6 -81.833 6 -106.5c0 -148 -10.333 -494.333 -31 -1039c-1.33301 -26.667 -10.666 -52.334 -27.999 -77.001
c-18.667 -27.333 -40.667 -41 -66 -41c-49.333 0 -223.833 119.833 -523.5 359.5s-454.167 359.5 -463.5 359.5c-16.667 0 -25 -15.333 -25 -46c0 -83.333 18 -166.666 54 -249.999c40.667 -94 93.334 -159 158.001 -195c1.33301 -0.666992 48.333 -14.667 141 -42
c65.333 -19.333 98 -42.666 98 -69.999c0 -15.333 -8.16699 -29.166 -24.5 -41.499s-32.166 -18.5 -47.499 -18.5c-44.667 0 -111.334 1 -200.001 3s-155.334 3 -200.001 3c-42 0 -105.167 -2.16699 -189.5 -6.5s-147.5 -6.5 -189.5 -6.5c-53.333 0 -80 15 -80 45
c0 38 35.667 64.333 107 79c98 19.333 148.667 30 152 32c25.333 14.667 42.333 50 51 106c19.333 129.333 29 286.333 29 471c0 205.333 -14.333 388 -43 548c-3.33301 18 -16.833 38.167 -40.5 60.5s-44.5 34.166 -62.5 35.499c10.667 -0.666992 -44.333 -1 -165 -1
c-19.333 0 -39.666 4.33301 -60.999 13c-26.667 10.667 -40 24 -40 40c0 62 47.333 93 142 93c70.667 0 176.5 0.5 317.5 1.5s246.833 1.5 317.5 1.5c15.333 0 29.333 -1.33301 42 -4c42.667 -9.33301 161.334 -94.333 356.001 -255c191.333 -158.667 290 -238 296 -238
c17.333 0 26 15.333 26 46c0 50 -20 104.333 -60 163c-36 53.333 -77.333 95.333 -124 126c-20.667 13.333 -49.667 23.666 -87 30.999c-43.333 8 -72.666 15.333 -87.999 22c-26 11.333 -39 30.333 -39 57c0 32 24.667 47.667 74 47c152.667 -1.33301 239 -2 259 -2
c66 0 152 4.33301 258 13l259 22c13.333 0.666992 24.833 -6.16602 34.5 -20.499s14.5 -28.166 14.5 -41.499z" />
    <glyph glyph-name="o" unicode="o" horiz-adv-x="2534" 
d="M2253 738c0 -288 -119.999 -498.667 -359.999 -632c-188.667 -105.333 -439.334 -158 -752.001 -158c-268 0 -488.333 69.333 -661 208c-187.333 150.667 -281 356.667 -281 618c0 265.333 108 464.333 324 597c179.333 110 410 165 692 165
c292 0 529.333 -58.333 712 -175c217.333 -139.333 326 -347 326 -623zM1248 1383c-64.667 0 -114.333 -82.001 -149 -246.001c-24 -113.333 -36 -222.666 -36 -327.999c0 -141.333 10.333 -278.333 31 -411c32 -205.333 81.333 -308 148 -308c128 0 192 206.333 192 619
c0 449.333 -62 674 -186 674z" />
    <glyph glyph-name="p" unicode="p" horiz-adv-x="2270" 
d="M1398 385c0 -26.667 -0.834961 -62.332 -2.50195 -106.999s-2.5 -80.334 -2.5 -107.001c0 -26 32 -44 96 -54l172 -18c49.333 -6.66699 81 -12.667 95 -18c26.667 -10 40 -28 40 -54c0 -31.333 -22.333 -47 -67 -47c-20 0 -159 5.33301 -417 16
c-64.667 2.66699 -153.334 4 -266.001 4c-47.333 0 -118.5 -0.5 -213.5 -1.5s-166.167 -1.5 -213.5 -1.5c-40 0 -101.5 -4.33301 -184.5 -13s-144.5 -13 -184.5 -13c-41.333 0 -62 19.667 -62 59c0 26.667 40.667 48.667 122 66c52.667 8 105.334 16.5 158.001 25.5
s80 14.167 82 15.5c16 9.33301 24 34.333 24 75c0 36.667 -1.66699 91.667 -5 165s-5 128.333 -5 165c0 80.667 1.16699 201.167 3.5 361.5s3.5 280.833 3.5 361.5c0 80 -43.333 120 -130 120c-12.667 0 -32.5 -0.833008 -59.5 -2.5s-46.833 -2.5 -59.5 -2.5
c-68 0 -102 22.667 -102 68c0 40.667 39 61 117 61c40.667 0 100.834 -1 180.501 -3s139.834 -3 180.501 -3c38.667 0 96.667 0.5 174 1.5s135.333 1.5 174 1.5c27.333 0 187 -4 479 -12c142 -4 262.667 -49.333 362 -136c104 -92 156 -207.667 156 -347
c0 -148 -60.333 -262.333 -181 -343c-104 -68.667 -232.667 -103 -386 -103c-26.667 0 -54 2 -82 6c2.66699 -47.333 4 -109.333 4 -186zM1730 991.002c0 89.333 -25.3311 172.003 -75.998 248.003c-56.667 85.333 -127.334 127.333 -212.001 126
c-36 -0.666992 -57.833 -4 -65.5 -10s-11.5 -22 -11.5 -48c0 -29.333 3.33301 -73 10 -131s10 -101.667 10 -131c0 -26.667 2 -67.334 6 -122.001s6 -95.334 6 -122.001v-56c-0.666992 -24.667 -1 -40.334 -1 -47.001c28 -8 57.333 -12 88 -12
c81.333 0 143.666 30.667 186.999 92c39.333 54.667 59 125.667 59 213z" />
    <glyph glyph-name="q" unicode="q" horiz-adv-x="1974" 
d="M1884 56c-6 -118.667 -50.668 -211.669 -134.001 -279.002c-73.333 -59.333 -158.666 -87.666 -255.999 -84.999c-168 4.66699 -338.667 40.667 -512 108c-104 40.667 -227.333 102 -370 184c-113.333 66 -182 99.333 -206 100
c-42.667 1.33301 -82.667 -6.66699 -120 -24c-48.667 -23.333 -73.667 -58 -75 -104c0 -5.33301 4.5 -21.166 13.5 -47.499s13.5 -42.166 13.5 -47.499c-0.666992 -28 -2.33398 -46.667 -5.00098 -56c-5.33301 -22.667 -18 -34.334 -38 -35.001
c-32.667 -0.666992 -59 24 -79 74c-15.333 37.333 -22.666 66.666 -21.999 87.999c5.33301 198.667 104.666 295.334 297.999 290.001c20.667 -0.666992 78.334 -16.667 173.001 -48s166.334 -47.666 215.001 -48.999c70.667 -2 145.334 24.667 224.001 80
c75.333 52.667 122.333 108.667 141 168c-47.333 -17.333 -112.666 -25 -195.999 -23c-198 5.33301 -362.667 59.666 -494 162.999c-148 116.667 -219.333 273 -214 469c5.33301 199.333 102.333 350 291 452c142.667 76.667 296.667 113 462 109
c189.333 -4.66699 344.666 -67 465.999 -187c123.333 -122 182.666 -276 177.999 -462c-4.66699 -188.667 -65.334 -358 -182.001 -508c-127.333 -163.333 -304.333 -279.666 -531 -348.999c4 -5.33301 35 -17.333 93 -36c60.667 -20 101.667 -30.333 123 -31
c9.33301 0 42 -3 98 -9c86.667 -2 161.334 5.33301 224.001 22c127.333 33.333 192 100.333 194 201c0.666992 34.667 -18.333 64.5 -57 89.5s-57.667 46.5 -57 64.5c0.666992 26.667 13.667 41.667 39 45c-5.33301 -0.666992 8 -1.33398 40 -2.00098
c89.333 -2.66699 158.666 -43 207.999 -121c39.333 -63.333 57.333 -131.333 54 -204zM1345 935.998c-1.33301 110 -18.999 207.332 -52.999 291.999c-36 90 -80 135.667 -132 137c-49.333 1.33301 -82.333 -69 -99 -211c-4 -36.667 -7.66699 -114 -11 -232
c-1.33301 -44 8.66699 -110 30 -198c28 -119.333 64.333 -179.666 109 -180.999c43.333 -1.33301 81 41.334 113 128.001c29.333 81.333 43.666 169.666 42.999 264.999z" />
    <glyph glyph-name="r" unicode="r" horiz-adv-x="2826" 
d="M2702 28c0.666992 -13.333 -14.0039 -24.999 -44.0039 -34.999c-23.333 -7.33301 -42.666 -11 -58 -11c-48.667 0.666992 -121.667 3.83398 -219 9.50098s-170.333 8.83398 -219 9.50098c-4.66699 0 -34.334 -1.33301 -89.001 -4c-60 -3.33301 -103.333 -5.33301 -130 -6
c-43.333 -0.666992 -73.666 31 -90.999 95l-44 201c-25.333 97.333 -59 175.666 -101 234.999c-57.333 80 -133.333 132.667 -228 158c6.66699 -128 9.33398 -212 8.00098 -252c-1.33301 -39.333 -6.66602 -84.666 -15.999 -135.999l-20 -98
c-6 -34.667 11.667 -52.334 53 -53.001l134 -20c44.667 -6.66699 75.334 -14 92.001 -22c26.667 -13.333 40.334 -35.333 41.001 -66c0 -18.667 -9.66699 -33.667 -29 -45c-16 -8.66699 -32.333 -13 -49 -13c-51.333 5.33301 -298.666 14 -741.999 26
c-72 1.33301 -137.333 2 -196 2c-140 0 -243.667 -3.83301 -311 -11.5l-101 -11.5c-16.667 0 -32.667 5.66699 -48 17s-23 25 -23 41c0.666992 35.333 28.667 57.666 84 66.999c73.333 12 135.333 24 186 36c42 10 70.667 22.333 86 37c20 18 30.333 48 31 90
c1.33301 66.667 -1 143 -7 229l-12 186c-1.33301 31.333 -2 63 -2 95c0 82 5.33301 176.333 16 283c10 104.667 15 164.667 15 180c-0.666992 53.333 -6 89 -16 107c-14 26.667 -44 40 -90 40c-4 0 -29.667 -1 -77 -3c-44.667 -2 -70 -3 -76 -3
c-48 1.33301 -75 3.33301 -81 6c-18 6.66699 -26.667 26 -26 58c0.666992 38 44.667 57 132 57c22 0 48 -1.66699 78 -5c65.333 -1.33301 163.666 0 294.999 4s229 5.33301 293 4c248 -4.66699 389.333 -8.33398 424 -11.001c177.333 -15.333 312.333 -52.333 405 -111
c119.333 -76.667 177.666 -192.667 175 -348c-0.666992 -53.333 -28 -106 -82 -158c-19.333 -19.333 -58 -49.333 -116 -90c226.667 -166 408.667 -356.333 546 -571c16 -24.667 81.667 -57.667 197 -99c32 -11.333 49.333 -41.333 52 -90zM1825 993.001
c2.66699 139.333 -76.668 251.666 -238.001 336.999c-35.333 18.667 -68.666 28 -99.999 28s-47.333 -18.667 -48 -56c11.333 -103.333 21 -250 29 -440c45.333 -14 123.333 -22 234 -24c80 -1.33301 121 50.334 123 155.001z" />
    <glyph glyph-name="s" unicode="s" horiz-adv-x="1972" 
d="M1753 545c-2.66699 -166 -75.6699 -307.669 -219.003 -425.002c-136.667 -111.333 -289 -165.666 -457 -162.999c-104 2 -231 23 -381 63c-28.667 13.333 -66.334 27 -113.001 41c-17.333 0 -29.833 -3.5 -37.5 -10.5s-11.167 -18.833 -10.5 -35.5c2 -64.667 4 -90 6 -76
c-4 -30.667 -29 -45.667 -75 -45c-20.667 0.666992 -39.334 24.334 -56.001 71.001c-115.333 328.667 -172.666 503 -171.999 523c0.666992 38.667 19.334 58 56.001 58c18.667 0 49.667 -27 93 -81l115 -162c110.667 -118.667 281.334 -180 512.001 -184
c60.667 -1.33301 121 3 181 13c88 14.667 132.333 37.667 133 69c0.666992 38 -63.666 75.333 -192.999 112c-90 24.667 -164 40 -222 46c-187.333 18.667 -337.5 83.167 -450.5 193.5s-168.167 245.833 -165.5 406.5c6.66699 395.333 299.334 588 878.001 578
c82 -16 196.667 -32.667 344 -50c39.333 -0.666992 68.666 25 87.999 77c12 34 41 51 87 51c11.333 0 25.333 -4.66699 42 -14s25.334 -20 26.001 -32c0.666992 -13.333 -6 -41 -20 -83c-5.33301 -15.333 -39 -105 -101 -269c-42 -110.667 -63.333 -181 -64 -211
c-0.666992 -19.333 14.666 -52.333 45.999 -99c41.333 -62 70 -110.667 86 -146c30.667 -69.333 45.334 -141.333 44.001 -216zM1409 1087l1.00098 46.9961c1.33301 68.667 -61.667 129.334 -189 182.001c-98.667 40.667 -177.334 61.667 -236.001 63
c-48.667 0.666992 -101.667 -4.66602 -159 -15.999c-78 -15.333 -117.333 -36.666 -118 -63.999c-0.666992 -21.333 22.666 -41 69.999 -59c32.667 -12.667 62.334 -20.667 89.001 -24c51.333 -9.33301 151.333 -35 300 -77c140 -40 211 -60 213 -60
c7.33301 2.66699 17 5.33398 29 8.00098z" />
    <glyph glyph-name="t" unicode="t" horiz-adv-x="2690" 
d="M2527 1020c0 -23.333 -10.168 -43.833 -30.501 -61.5s-41.5 -26.167 -63.5 -25.5c-29.333 0.666992 -51 26.334 -65 77.001c-10 36.667 -22.667 64.334 -38 83.001c-10 12.667 -36.333 37 -79 73c-56.667 48.667 -122.667 89.167 -198 121.5s-141.333 49.166 -198 50.499
c-43.333 1.33301 -65.666 -23.667 -66.999 -75c10 -114 19 -283 27 -507c-1.33301 -70.667 -8.33301 -179.667 -21 -327c-10 -124.667 -14 -198 -12 -220c4.66699 -50 56 -76.333 154 -79c34 -0.666992 105.667 -12 215 -34c57.333 -11.333 86 -40.666 86 -87.999
c0 -30.667 -34.333 -46 -103 -46c-6.66699 0 -46.334 2 -119 6c-75.333 4.66699 -115.333 7 -120 7c-14.667 0.666992 -88.667 4.66699 -222 12c-120 7.33301 -194.333 10.666 -223 9.99902c-114.667 -2.66699 -289.667 -10.667 -525 -24
c-211.333 -12.667 -327.333 -18.667 -348 -18c-42.667 1.33301 -63.667 20.666 -63 57.999c0.666992 33.333 32.334 56.333 95.001 69c55.333 4.66699 133.666 13.667 234.999 27c67.333 12.667 101.333 37 102 73c0.666992 44 -3.66602 127.333 -12.999 250
c-10 129.333 -15 215.333 -15 258c0 94 4.66699 190.333 14 289c10 113.333 15.667 189 17 227c2 84 -20.333 126.667 -67 128c-94.667 2.66699 -202.334 -24 -323.001 -80c-70 -32 -123.333 -70.333 -160 -115c-23.333 -28 -41 -71.667 -53 -131
c-8.66699 -43.333 -34.334 -64.666 -77.001 -63.999c-53.333 0.666992 -78.666 51 -75.999 151l5 209c2.66699 91.333 20.167 149.166 52.5 173.499s111.833 36.5 238.5 36.5c-14 0 112.667 -2.66699 380 -8c226 -4.66699 439.333 -5.33398 640 -2.00098
c123.333 2 309 6.33301 557 13c222.667 5.33301 335 8 337 8c53.333 -0.666992 85.666 -25.667 97 -75c2.66699 -11.333 11.334 -108.666 26 -291.999z" />
    <glyph glyph-name="u" unicode="u" horiz-adv-x="2652" 
d="M2603 1508c2.66699 -42.667 -16.668 -72.002 -58.002 -88.002l-114 -27c-55.333 -16 -93.666 -40.667 -115 -74c-14.667 -24 -27.334 -68.667 -38 -134c-6 -37.333 -9 -119.333 -9 -246c0 -259.333 -63.333 -481 -190 -665
c-143.333 -208.667 -338.666 -313 -585.999 -313c-287.333 0 -519.333 64.333 -696 193c-197.333 143.333 -302.666 354.333 -315.999 633c-1.33301 28 -2 56.667 -2 86c0 42.667 2.66699 106.334 8 191.001s8 148 8 190c0 49.333 -26.333 82.666 -79 99.999
c-20 6.66699 -73.333 14 -160 22c-60 6 -99 13.667 -117 23c-20 11.333 -30 33.333 -30 66c0 37.333 32.667 56 98 56c68.667 0 172.167 -2.33301 310.5 -7s242.166 -7 311.499 -7c23.333 0 106 0.666992 248 2c100.667 0.666992 183.334 0.333984 248.001 -0.999023
c24.667 -0.666992 59.667 0 105 2c48.667 2 83.334 3 104.001 3c58.667 0 88 -15.667 88 -47c0 -28 -16.667 -50.333 -50 -67c-26.667 -12.667 -56 -19.334 -88 -20.001c-96.667 -1.33301 -145 -36.333 -145 -105c0 -42 2.83301 -104.833 8.5 -188.5s8.5 -146.5 8.5 -188.5
c0 -27.333 0.833008 -68.666 2.5 -123.999s2.5 -96.666 2.5 -123.999c0 -96 27 -183 81 -261c60 -86.667 135 -130 225 -130c125.333 0 224.666 63.667 297.999 191c62 106.667 93 228 93 364c0 108 -12 213.667 -36 317c-34.667 147.333 -86 227 -154 239l-110 12
c-48.667 8.66699 -73 27.667 -73 57c0 52 31.333 78 94 78l398 -1c42.667 0 105.167 4.16699 187.5 12.5s144.166 12.5 185.5 12.5c14.667 0 32.334 -10.667 53 -32z" />
    <glyph glyph-name="v" unicode="v" horiz-adv-x="2499" 
d="M2302 1479c-0.666992 -26 -3.00098 -41.334 -7.00098 -46.001c-8.66699 -11.333 -34 -19.666 -76 -24.999c-48.667 -6 -86 -25 -112 -57c-14.667 -18.667 -31 -53.334 -49 -104.001c-34.667 -96.667 -62.334 -169.667 -83.001 -219
c-100 -241.333 -240.667 -487.333 -422 -738c-184 -253.333 -314.667 -379.333 -392 -378c-29.333 0.666992 -106.333 99 -231 295c-92.667 146 -167.667 271.667 -225 377c-172.667 318.667 -284.334 571.667 -335.001 759c-4.66699 18 -43.667 32.667 -117 44
c-69.333 10 -103.666 34.333 -102.999 73c0 15.333 6.33301 29 19 41c10.667 10.667 20.334 16 29.001 16c108 -2 232 -6.66699 372 -14l742 3c42 0.666992 90 0.666992 144 0c40.667 -2.66699 61.667 -16.667 63 -42c2 -42.667 -51 -70.667 -159 -84
c-52.667 -6.66699 -77 -25.667 -73 -57c11.333 -90.667 58 -212.667 140 -366c77.333 -143.333 127.333 -215.333 150 -216c14.667 0 35.334 15.833 62.001 47.5s51 70.5 73 116.5c62 128.667 94 245 96 349c0.666992 50.667 -5.66602 84.667 -18.999 102
c-8.66699 10 -28.334 18.667 -59.001 26c-27.333 6 -45.333 12 -54 18c-14.667 10.667 -22.667 27.667 -24 51c-1.33301 22.667 24.667 38.667 78 48c16.667 2.66699 81.334 4.33398 194.001 5.00098c39.333 0 101.666 3.33301 186.999 10c83.333 6.66699 125.333 10 126 10
c26.667 -0.666992 43 -2.33398 49 -5.00098c11.333 -5.33301 16.666 -18.666 16 -39.999z" />
    <glyph glyph-name="w" unicode="w" horiz-adv-x="3511" 
d="M3335 1493c0 -15.333 -20.667 -36.665 -62 -63.998c-48.667 -33.333 -77 -55.333 -85 -66c-25.333 -35.333 -51.333 -89 -78 -161c-36.667 -98.667 -58.334 -155.334 -65 -170.001c-60.667 -132 -187.334 -335.667 -380.001 -611c-223.333 -320.667 -371 -481 -443 -481
c-26.667 0 -109 106.667 -247 320c-146.667 227.333 -230 348.666 -250 363.999l-309 -376c-176 -211.333 -290 -317 -342 -317c-21.333 0 -104.333 128 -249 384c-100.667 178 -204 399.667 -310 665l-61 191c-29.333 94 -52.666 150.333 -69.999 169s-59 39.667 -125 63
c-51.333 18.667 -77 42.667 -77 72c0 37.333 20 56 60 56c43.333 0 105.333 -3.66699 186 -11c86 -7.33301 148.333 -11.333 187 -12l287 -5c22.667 -0.666992 54 1 94 5c44.667 3.33301 76.334 5.33301 95.001 6c32.667 0.666992 82.667 8.33398 150 23.001
c65.333 14.667 114.666 22 147.999 22c16.667 0 31.667 -5.83301 45 -17.5s20 -25.5 20 -41.5c0 -32 -30.333 -59 -91 -81l-137 -36c14 -50.667 40 -76 78 -76c8 0 59.667 6.33301 155 19c195.333 26 350 50 464 72c106 20.667 250.667 58.334 434 113.001l117 43
c50.667 18.667 90 28 118 28c26 0 39 -23.333 39 -70c0 -36 -22.333 -64.333 -67 -85c-0.666992 -0.666992 -42 -14.667 -124 -42c-44.667 -14.667 -67 -32.334 -67 -53.001c0 -54.667 38 -166.334 114 -335.001c80.667 -177.333 141 -266 181 -266s91.333 72.333 154 217
c58 134 87 227.333 87 280c0 42.667 -8.33301 71 -25 85c-14.667 12 -43.334 18 -86 18c-5.33301 0 -13.166 -1 -23.5 -3c-10.333 -2 -18.166 -3 -23.5 -3c-57.333 0 -86 21 -86 63c0 30 50.333 54.667 151 74l193 29c14 3.33301 60.333 18 139 44
c71.333 23.333 111 35 119 35c45.333 0 68 -25.667 68 -77zM1660 832.001c0 8 -15.668 54.667 -47.001 140c-32 88 -49.333 146.667 -52 176c-25.333 18 -75.666 27 -150.999 27c-54 0 -87.333 -8 -100 -24l117 -247c67.333 -131.333 114 -197 140 -197
c16 0 35.5 16.667 58.5 50s34.5 58.333 34.5 75z" />
    <glyph glyph-name="x" unicode="x" horiz-adv-x="2605" 
d="M2457 50c0 -43.333 -26.3379 -65.0039 -79.0049 -65.0039c-46.667 0 -113 2 -199 6c-94 4 -160.667 6.33301 -200 7c-104 1.33301 -242.333 2 -415 2c-52 0 -129.833 -1.66699 -233.5 -5s-181.5 -5 -233.5 -5c-50 0 -75 18.333 -75 55c0 32.667 21.667 52.334 65 59.001
c56.667 8.66699 94 22.334 112 41.001c1.33301 1.33301 2 2.66602 2 3.99902c0 28.667 -25 78.667 -75 150c-52 74 -91.333 111 -118 111c-31.333 0 -77 -32.333 -137 -97s-90 -112.667 -90 -144c0 -38 45 -59.667 135 -65c32 -2 48 -19.333 48 -52
c0 -42.667 -35 -64 -105 -64c-12 0 -27.333 0.666992 -46 2s-30.667 2 -36 2c-30.667 0 -77 -0.833008 -139 -2.5s-108.333 -2.5 -139 -2.5c-27.333 0 -68.166 -2 -122.499 -6s-95.166 -6 -122.499 -6c-53.333 0 -80 20.667 -80 62c0 21.333 13.333 40 40 56
c16.667 10 44 19.667 82 29c40.667 9.33301 69.334 18.333 86.001 27c42 22 138.333 90 289 204c159.333 120 239 188.667 239 206c0 8.66699 -48.667 92.667 -146 252c-82 134.667 -175 299.334 -279 494.001c-29.333 54.667 -75.333 90 -138 106
c-81.333 20.667 -122 40.334 -122 59.001c0 40 19 60 57 60c40.667 0 94 -1.33301 160 -4c79.333 -3.33301 132.666 -5.33301 159.999 -6c265.333 -5.33301 474 -8 626 -8c28.667 0 72.334 2.5 131.001 7.5s102.334 7.5 131.001 7.5c43.333 0 65 -16 65 -48
c0 -23.333 -22.167 -44.333 -66.5 -63s-66.5 -36 -66.5 -52s22.5 -55.833 67.5 -119.5s74.5 -95.5 88.5 -95.5c25.333 0 60.666 29 105.999 87c44.667 56 67 96.667 67 122c0 32.667 -22.333 51.667 -67 57c-28.667 3.33301 -47.667 7.33301 -57 12
c-18.667 8.66699 -28 25.667 -28 51c0 24 36.667 36 110 36h158c39.333 0 87.333 2.33301 144 7c67.333 5.33301 115.333 8.33301 144 9c16.667 0.666992 49 4 97 10c44.667 5.33301 76.667 8 96 8c16.667 0 31.334 -6.16699 44 -18.5c12.667 -12.333 19 -26.833 19 -43.5
c0 -31.333 -19.333 -53.666 -58 -66.999c-5.33301 -2 -37.666 -8.33301 -97 -19c-45.333 -8.66699 -89.666 -27 -132.999 -55c-45.333 -30 -126.666 -90.667 -243.999 -182c-134 -104.667 -202 -165 -204 -181l153 -249c34.667 -54 84.667 -142.667 150 -266
c62 -117.333 112.667 -205.333 152 -264c10.667 -15.333 70.334 -36 179 -62c98.667 -24 148 -54.333 148 -91z" />
    <glyph glyph-name="y" unicode="y" horiz-adv-x="2705" 
d="M2418 1469c0 -22 -23.665 -42.665 -70.998 -61.998l-99 -40c-28 -18.667 -65.667 -63.667 -113 -135l-223 -325c-88 -130 -157.333 -241.333 -208 -334c-2 -22 -5.66699 -75.333 -11 -160c-3.33301 -55.333 -5 -106 -5 -152c0 -28.667 1.33301 -48.667 4 -60
c8 -32.667 45.333 -56 112 -70l179 -32c62 -17.333 93 -47 93 -89c0 -12 -10.333 -22.333 -31 -31c-16.667 -7.33301 -32 -11 -46 -11c-22 0 -51.667 1.66699 -89 5c-44 4 -73.333 6.33301 -88 7c-262 12 -466 18 -612 18c-118 0 -239.667 -5 -365 -15
c-133.333 -10.667 -206.333 -16 -219 -16c-48 0 -72 22.333 -72 67c0 34 31.667 56.667 95 68l178 28c63.333 16.667 95 48.334 95 95.001c0 25.333 -0.5 64.166 -1.5 116.499s-1.5 91.166 -1.5 116.499c0 54 -0.666992 91.667 -2 113c-0.666992 11.333 -53 118 -157 320
c-98.667 193.333 -160.334 311 -185.001 353c-37.333 64.667 -76.333 103 -117 115c-42 7.33301 -83.667 15 -125 23c-52.667 13.333 -79 40 -79 80c0 12.667 8.83301 25.167 26.5 37.5s32.834 18.5 45.501 18.5c44.667 0 111.834 -2.66699 201.501 -8
s156.834 -8 201.501 -8c48.667 0 121.5 0.5 218.5 1.5s169.833 1.5 218.5 1.5c37.333 0 93.166 2 167.499 6s130.166 6 167.499 6c63.333 0 95 -19.667 95 -59c0 -34 -42.667 -61 -128 -81c-34 -8 -51 -16 -51 -24c0 -2.66699 7.66699 -21.334 23 -56.001
c122 -276.667 195.667 -415 221 -415c46.667 0 94.667 62.333 144 187c44 110 66 194.333 66 253c0 41.333 -31.833 65.333 -95.5 72s-95.5 26.667 -95.5 60c0 40.667 34 61 102 61c25.333 0 63.166 -1.33301 113.499 -4s88.166 -4 113.499 -4
c79.333 0 144.666 1.33301 196 4c89.333 4.66699 133.333 7 132 7c54 0 81 -16.333 81 -49z" />
    <glyph glyph-name="z" unicode="z" horiz-adv-x="2559" 
d="M2380 514c2 -42.667 -35.665 -204.665 -112.998 -485.998c-7.33301 -26 -34.666 -38.667 -82 -38c-4.66699 0 -42.834 1.16699 -114.501 3.5s-110.834 3.5 -117.501 3.5c-156 0 -432 -2 -828 -6c-354.667 -4 -630.667 -5.33301 -828 -4c-54.667 0 -82 17.667 -82 53
c0 20 66.333 109 199 267l385 504l315 401c42.667 55.333 63.667 93 63 113c-0.666992 22.667 -42.667 34.667 -126 36c-76 1.33301 -158.667 -9.33398 -248 -32.001c-96.667 -24 -177 -56.833 -241 -98.5s-98.333 -83.167 -103 -124.5c-6 -49.333 -12.667 -80.333 -20 -93
c-10.667 -19.333 -32.334 -28 -65.001 -26c-50.667 3.33301 -76 159.666 -76 468.999c0 24 15 40.667 45 50c24.667 7.33301 71 12.333 139 15c47.333 2 99 3 155 3c94.667 0 225 -3.66699 391 -11c189.333 -7.33301 315.333 -11.666 378 -12.999
c99.333 -2 239.333 3.33301 420 16c196.667 13.333 336.334 20 419.001 20c38 0 62.667 -7 74 -21c4.66699 -5.33301 8 -19 10 -41c4 -37.333 -57.333 -137.333 -184 -300l-712 -915c-17.333 -22 -26 -42 -26 -60c0 -23.333 52.333 -36 157 -38
c55.333 -0.666992 133.666 16 234.999 50c90 29.333 144.667 52 164 68c72.667 58.667 111.667 90.334 117.001 95.001c48 41.333 82 78 102 110l48 79c20 29.333 40.333 43.666 61 42.999c56.667 -0.666992 86.334 -31.334 89 -92.001z" />
    <glyph glyph-name="braceleft" unicode="{" horiz-adv-x="1405" 
d="M524 843c-30.667 -22.667 -47.9971 -37.9961 -51.9971 -45.9961c-3.33301 -11.333 -7 -22.666 -11 -33.999c-4.66699 -14.667 -10.334 -22 -17.001 -22c-7.33301 0 -14.5 4.66699 -21.5 14s-10.5 16.666 -10.5 21.999c0 3.33301 7.5 15.666 22.5 36.999
s24.667 34.166 29 38.499s14.833 14.166 31.5 29.499c-66 98.667 -99 212 -99 340c0 133.333 37.333 251.333 112 354c-1.33301 -0.666992 -38 -28.334 -110 -83.001c-42.667 -32.667 -85.667 -49 -129 -49c-26.667 0 -65 10.333 -115 31c-57.333 23.333 -86 46.333 -86 69
c0 3.33301 5.33301 6.33301 16 9l60 6c22.667 2.66699 41.334 10 56.001 22c2 2 18.333 23.333 49 64c19.333 25.333 41.666 38 66.999 38s55.166 -10.167 89.499 -30.5s60.166 -30.5 77.499 -30.5c16 0 42.667 6 80 18c43.333 40 89.666 66.333 138.999 79
c33.333 8 86.333 12 159 12c113.333 0 170 -10 170 -30c0 -24 -12 -36 -36 -36c-23.333 0 -58.5 1.16699 -105.5 3.5s-82.167 3.5 -105.5 3.5c-66 0 -125.333 -24.333 -178 -73c4.66699 0 11 -2.33301 19 -7c16.667 -10 65 -17 145 -21
c54.667 -3.33301 93.667 -19.666 117 -48.999c10.667 -14 27.334 -53.333 50.001 -118c10 -29.333 32 -46.333 66 -51c30.667 -4 46 -11.333 46 -22c0 -16.667 -26.333 -30.334 -79 -41.001c-38 -7.33301 -71.333 -11 -100 -11c-94.667 0 -163.667 28 -207 84
c-33.333 42.667 -59 114.667 -77 216c-71.333 -78 -112.333 -178.333 -123 -301l6 10c13.333 -26 35 -63.333 65 -112l37 -36c16.667 -17.333 25 -30.666 25 -39.999c0 -20 -7.33301 -30 -22 -30c-36.667 0 -73.667 40.333 -111 121
c8.66699 -113.333 43.334 -213.333 104.001 -300c70 -100.667 158 -151 264 -151c66.667 0 121.5 18.833 164.5 56.5s64.5 89.167 64.5 154.5c0 45.333 -15.5 82.666 -46.5 111.999s-69.833 44 -116.5 44c-23.333 0 -44.333 -7.16699 -63 -21.5s-28 -32.833 -28 -55.5
c0 -46 11 -76 33 -90c8.66699 -5.33301 29 -9.33301 61 -12c21.333 -2 32 -11.667 32 -29c0 -16.667 -14.333 -25 -43 -25c-40.667 0 -74.5 14 -101.5 42s-40.5 62.333 -40.5 103c0 47.333 16.333 84 49 110c30 23.333 68.667 35 116 35c135.333 0 203 -79 203 -237
c0 -66 -25.833 -123.333 -77.5 -172s-110.834 -73 -177.501 -73c-136.667 0 -248.667 53.667 -336 161zM1115 394.004c0 -158.667 -67.6689 -238.002 -203.002 -238.002c-47.333 0 -86 12 -116 36c-32.667 26 -49 62.667 -49 110c0 40.667 13.5 75 40.5 103
s60.833 42 101.5 42c28.667 0 43 -8.33301 43 -25c0 -17.333 -10.667 -27 -32 -29c-32 -2.66699 -52.333 -6.66699 -61 -12c-22 -14 -33 -44 -33 -90c0 -22.667 9.33301 -41.167 28 -55.5s39.667 -21.5 63 -21.5c46.667 0 85.5 14.667 116.5 44s46.5 66.666 46.5 111.999
c0 64.667 -21.5 116 -64.5 154s-97.833 57 -164.5 57c-106 0 -194 -50.333 -264 -151c-60.667 -86.667 -95.334 -186.667 -104.001 -300c37.333 80.667 74.333 121 111 121c14.667 0 22 -10 22 -30c0 -9.33301 -8.33301 -22.666 -25 -39.999l-37 -36
c-13.333 -17.333 -35 -54.666 -65 -111.999l-6 10c10.667 -122.667 51.667 -223 123 -301c18 101.333 43.667 173.333 77 216c43.333 56 112.333 84 207 84c28.667 0 62 -3.66699 100 -11c52.667 -10.667 79 -24.667 79 -42c0 -10 -15.333 -17 -46 -21
c-34 -4.66699 -56 -21.667 -66 -51c-22.667 -64.667 -39.334 -104 -50.001 -118c-23.333 -29.333 -62.333 -45.666 -117 -48.999c-24.667 -0.666992 -49.667 -1.66699 -75 -3c-32 -2.66699 -55.333 -8.66699 -70 -18c-8 -4.66699 -14.333 -7 -19 -7
c52.667 -48.667 112 -73 178 -73c23.333 0 58.5 1.16699 105.5 3.5s82.167 3.5 105.5 3.5c24 0 36 -12.333 36 -37c0 -19.333 -56.667 -29 -170 -29c-72.667 0 -125.667 4 -159 12c-49.333 12.667 -95.666 39 -138.999 79c-37.333 12 -64 18 -80 18
c-17.333 0 -43.166 -10.167 -77.499 -30.5s-64.166 -30.5 -89.499 -30.5s-47.666 12.667 -66.999 38c-30.667 40.667 -47 61.667 -49 63c-14.667 12.667 -33.334 20.334 -56.001 23.001l-60 6c-10.667 2.66699 -16 5.66699 -16 9c0 22.667 28.667 45.667 86 69
c50 20.667 88.333 31 115 31c43.333 0 86.333 -16.333 129 -49c72 -54.667 108.667 -82.334 110 -83.001c-74.667 102.667 -112 220.667 -112 354c0 190.667 64.333 339 193 445c-37.333 26.667 -60 40 -68 40s-17.333 6.66699 -28 20s-15 21.333 -13 24
c17.333 17.333 28 25.333 32 24c19.333 -4.66699 43.333 -20.667 72 -48c8 -7.33301 23.667 -17.333 47 -30c68 43.333 144.333 65 229 65c66.667 0 125.834 -24.333 177.501 -73s77.5 -106 77.5 -172z" />
    <glyph glyph-name="bar" unicode="|" horiz-adv-x="410" 
d="M244 1632v-2074h-83v2074h83z" />
    <glyph glyph-name="braceright" unicode="}" horiz-adv-x="1405" 
d="M855 843c30.667 -22.667 47.9941 -37.9961 51.9941 -45.9961c3.33301 -11.333 7 -22.666 11 -33.999c4.66699 -14.667 10.334 -22 17.001 -22s13.667 4.66699 21 14s11 16.666 11 21.999c0 3.33301 -7.5 15.666 -22.5 36.999s-24.667 34.166 -29 38.499
s-15.166 14.166 -32.499 29.499c66 98.667 99 212 99 340c0 133.333 -37 251.333 -111 354c1.33301 -0.666992 38 -28.334 110 -83.001c42.667 -32.667 85.667 -49 129 -49c26.667 0 65 10.333 115 31c57.333 23.333 86 46.333 86 69c0 3.33301 -5.33301 6.33301 -16 9
l-60 6c-23.333 2.66699 -42.333 10 -57 22c-1.33301 2 -17.333 23.333 -48 64c-19.333 25.333 -41.666 38 -66.999 38s-55.166 -10.167 -89.499 -30.5s-60.166 -30.5 -77.499 -30.5c-16 0 -43 6 -81 18c-43.333 40 -89.333 66.333 -138 79c-33.333 8 -86.333 12 -159 12
c-113.333 0 -170 -10 -170 -30c0 -24 12 -36 36 -36c23.333 0 58.333 1.16699 105 3.5s81.667 3.5 105 3.5c66.667 0 126.334 -24.333 179.001 -73c-4.66699 0 -11 -2.33301 -19 -7c-16.667 -10 -65 -17 -145 -21c-55.333 -3.33301 -94.333 -19.666 -117 -48.999
c-10.667 -14 -27.334 -53.333 -50.001 -118c-10.667 -29.333 -32.667 -46.333 -66 -51c-30.667 -4 -46 -11.333 -46 -22c0 -16.667 26.333 -30.334 79 -41.001c38 -7.33301 71.333 -11 100 -11c94 0 163 28 207 84c33.333 42.667 59 114.667 77 216
c71.333 -78 112.333 -178.333 123 -301l-6 10c-13.333 -26 -35.333 -63.333 -66 -112l-36 -36c-16.667 -17.333 -25 -30.666 -25 -39.999c0 -20 7.33301 -30 22 -30c36.667 0 73.667 40.333 111 121c-8.66699 -113.333 -43.334 -213.333 -104.001 -300
c-70.667 -100.667 -159 -151 -265 -151c-66.667 0 -120.667 18.667 -162 56c-44 38 -66 89.667 -66 155c0 45.333 15.333 82.666 46 111.999s69.667 44 117 44c23.333 0 44.333 -7.16699 63 -21.5s28 -32.833 28 -55.5c0 -46 -11 -76 -33 -90
c-8.66699 -5.33301 -29 -9.33301 -61 -12c-22 -2 -33 -11.667 -33 -29c0 -16.667 14.667 -25 44 -25c40 0 73.5 14 100.5 42s40.5 62.333 40.5 103c0 47.333 -16.333 84 -49 110c-29.333 23.333 -67.666 35 -114.999 35c-135.333 0 -203 -79 -203 -237
c0 -66 25.833 -123.333 77.5 -172s110.834 -73 177.501 -73c136 0 248 53.667 336 161zM263.994 394.004c0 -158.667 67.6719 -238.003 203.005 -238.003c47.333 0 85.666 12 114.999 36c32.667 26 49 62.667 49 110c0 40.667 -13.5 75 -40.5 103s-60.5 42 -100.5 42
c-29.333 0 -44 -8.33301 -44 -25c0 -17.333 11 -27 33 -29c32 -2.66699 52.333 -6.66699 61 -12c22 -14 33 -44 33 -90c0 -22.667 -9.33301 -41.167 -28 -55.5s-39.667 -21.5 -63 -21.5c-47.333 0 -86.333 14.667 -117 44s-46 66.666 -46 111.999
c0 64.667 22 116.334 66 155.001c41.333 37.333 95.333 56 162 56c106 0 194.333 -50.333 265 -151c60.667 -86.667 95.334 -186.667 104.001 -300c-37.333 80.667 -74.333 121 -111 121c-14.667 0 -22 -10 -22 -30c0 -9.33301 8.33301 -22.666 25 -39.999l36 -36
c13.333 -17.333 35.333 -54.666 66 -111.999l6 10c-10.667 -122.667 -51.667 -223 -123 -301c-18 101.333 -43.667 173.333 -77 216c-44 56 -113 84 -207 84c-28.667 0 -62 -3.66699 -100 -11c-52.667 -10.667 -79 -24.667 -79 -42c0 -10 15.333 -17 46 -21
c33.333 -4.66699 55.333 -21.667 66 -51c22.667 -64.667 39.334 -104 50.001 -118c22.667 -29.333 61.667 -45.666 117 -48.999c24.667 -0.666992 49.667 -1.66699 75 -3c31.333 -2.66699 54.666 -8.66699 69.999 -18c8 -4.66699 14.333 -7 19 -7
c-52.667 -48.667 -112.334 -73 -179.001 -73c-23.333 0 -58.333 1.16699 -105 3.5s-81.667 3.5 -105 3.5c-24 0 -36 -12.333 -36 -37c0 -19.333 56.667 -29 170 -29c72.667 0 125.667 4 159 12c48.667 12.667 94.667 39 138 79c38 12 65 18 81 18
c17.333 0 43.166 -10.167 77.499 -30.5s64.166 -30.5 89.499 -30.5s47.666 12.667 66.999 38c30.667 40.667 46.667 61.667 48 63c14.667 12.667 33.667 20.334 57 23.001l60 6c10.667 2.66699 16 5.66699 16 9c0 22.667 -28.667 45.667 -86 69
c-50 20.667 -88.333 31 -115 31c-43.333 0 -86.333 -16.333 -129 -49c-72 -54.667 -108.667 -82.334 -110 -83.001c74 102.667 111 220.667 111 354c0 190.667 -64 339 -192 445c37.333 26.667 60.333 40 69 40c6.66699 0 15.5 6.66699 26.5 20s15.5 21.333 13.5 24
c-17.333 17.333 -28 25.333 -32 24c-19.333 -4.66699 -43.333 -20.667 -72 -48c-8 -7.33301 -23.667 -17.333 -47 -30c-68 43.333 -144.333 65 -229 65c-66.667 0 -125.834 -24.333 -177.501 -73s-77.5 -106 -77.5 -172z" />
    <glyph glyph-name="asciitilde" unicode="~" horiz-adv-x="1745" 
d="M1185 205c106.667 0 197.835 38.8281 273.502 116.495s113.5 173.834 113.5 288.501c0 113.333 -47.667 170 -143 170c-74 0 -111 -32 -111 -96c0 -26 5 -39 15 -39c4 0 14.5 8.16699 31.5 24.5s36.5 24.5 58.5 24.5c58.667 0 88 -31.333 88 -94
c0 -71.333 -29.667 -124.666 -89 -159.999c-43.333 -26 -92.333 -39 -147 -39c-50 0 -98.333 20.667 -145 62c-30 26.667 -69 72 -117 136c-50 68 -86.667 113.333 -110 136c-50 48.667 -107 89.334 -171 122.001c-60 30.667 -108.333 46 -145 46
c-108.667 0 -204 -39 -286 -117c-85.333 -81.333 -128 -178.666 -128 -291.999c0 -116.667 49.333 -175 148 -175c28 0 52.667 10.333 74 31s32 44 32 70s-5 39 -15 39c-4 0 -12.333 -8.83301 -25 -26.5s-30 -26.5 -52 -26.5c-66.667 0 -100 32.667 -100 98
c0 124 70.333 183.333 211 178c42 -1.33301 96.667 -39.666 164 -114.999c99.333 -110.667 158.666 -174 177.999 -190c139.333 -114.667 271.666 -172 396.999 -172z" />
    <glyph glyph-name="nonbreakingspace" unicode="&#xa0;" horiz-adv-x="1024" 
 />
    <glyph glyph-name="exclamdown" unicode="&#xa1;" horiz-adv-x="1118" 
d="M762 1330c0 -58 -21 -107.667 -63 -149s-92 -62 -150 -62s-108 20.667 -150 62s-63 91 -63 149s21 107.5 63 148.5s92 61.5 150 61.5s108 -20.5 150 -61.5s63 -90.5 63 -148.5zM558 1007c-53.333 0 -92.667 -20.6641 -118 -61.9971
c-9.33301 -14.667 -26.333 -59.334 -51 -134.001c-95.333 -290.667 -143 -468.334 -143 -533.001c0 -222 96.333 -333 289 -333c115.333 0 198 24.333 248 73s75 130.667 75 246c0 125.333 -45.667 307.666 -137 546.999c-26.667 70 -44.667 112.333 -54 127
c-28 46 -64.333 69 -109 69z" />
    <glyph glyph-name="cent" unicode="&#xa2;" 
d="M973 76c0 -32.667 -26 -48.998 -78 -48.998c-51.333 0 -76 18.333 -74 55l3 197c-360.667 11.333 -541 179.666 -541 504.999c0 131.333 54 237 162 317c98 72.667 224.333 114 379 124c-0.666992 6 -1 40.667 -1 104c0 57.333 26.667 85.333 80 84
c32.667 -0.666992 52.167 -4.66699 58.5 -12s9.5 -27.333 9.5 -60c0 -44.667 -2.33301 -84.667 -7 -120c38 -4.66699 80 -12 126 -22c64.667 -14 98.334 -21 101.001 -21c24.667 0 40.667 11.667 48 35s21.333 35 42 35c28.667 0 43 -26.667 43 -80
c0 -39.333 -9.66699 -101 -29 -185c-22 -99.333 -44.667 -149 -68 -149c-24.667 0 -37 8 -37 24c0 4 1.16699 10 3.5 18s3.5 14 3.5 18c0 49.333 -16.333 98 -49 146c-37.333 55.333 -82.333 83 -135 83c-34.667 0 -62 -33.667 -82 -101
c-14.667 -48.667 -22 -94.667 -22 -138c0 -320 39.667 -480 119 -480c49.333 0 91.666 21 126.999 63c18.667 22 42.667 63 72 123c13.333 28 31.333 42 54 42c24 0 36 -14.333 36 -43c0 -32.667 -9.66699 -67.334 -29 -104.001c-65.333 -125.333 -173.333 -193 -324 -203
c6 -95.333 9 -164 9 -206z" />
    <glyph glyph-name="sterling" unicode="&#xa3;" horiz-adv-x="2423" 
d="M597 848c-4.66699 62 -6.99805 114.331 -6.99805 156.998c0 224 98.333 378.333 295 463c126.667 54 309 81 547 81c121.333 0 251 -17.667 389 -53c188 -48.667 282 -114.667 282 -198c0 -23.333 -9 -62.666 -27 -117.999c-20.667 -62 -39 -93 -55 -93
c-18 0 -39.667 25.667 -65 77c-32.667 66.667 -64 114.667 -94 144c-53.333 51.333 -124 77 -212 77c-92 0 -166.667 -22.333 -224 -67c-62.667 -49.333 -94 -118.666 -94 -207.999c0 -48 9.5 -93.167 28.5 -135.5l59.5 -126.5h265c36 0 58 -2.33301 66 -7
c13.333 -8 20 -28.333 20 -61c0 -25.333 -6.33301 -50.333 -19 -75c-15.333 -30.667 -35 -46 -59 -46h-235c3.33301 -28 5 -52.333 5 -73c0 -52.667 -12.667 -117.334 -38 -194.001c-21.333 -64.667 -42.666 -114 -63.999 -148c36 -9.33301 102 -35.666 198 -78.999l162 -79
c61.333 -26.667 118.333 -40 171 -40c71.333 0 124.666 25 159.999 75c16.667 24 35.334 70.667 56 140c15.333 50.667 34 76 56 76c55.333 0 83 -69 83 -207c0 -166 -63.333 -298.333 -190 -397c-116.667 -89.333 -260.334 -134 -431.001 -134
c-144 0 -268 15.833 -372 47.5s-215.333 87.834 -334 168.501c-118 -63.333 -240.667 -95 -368 -95c-91.333 0 -169 22.333 -233 67c-77.333 54 -116 131 -116 231c0 96.667 44 178.334 132 245.001c80 60.667 168.333 91 265 91c28 0 56.333 -2.33301 85 -7
c36.667 -6.66699 59.667 -10.334 69 -11.001c6 26.667 8.33301 49.667 7 69c-5.33301 76 -37.333 160.667 -96 254c-96.667 -1.33301 -179.334 -1.33301 -248.001 0c-32.667 0 -49 16.333 -49 49c0 35.333 8.33301 66.666 25 93.999c19.333 30.667 44 46 74 46h130z
M665.002 -36.002l-65 30c-31.333 13.333 -65.666 20 -102.999 20c-71.333 0 -107 -23 -107 -69c0 -32 11.667 -57.667 35 -77c21.333 -16.667 46.666 -25 75.999 -25c74 0 128.667 40.333 164 121z" />
    <glyph glyph-name="currency" unicode="&#xa4;" horiz-adv-x="1024" 
d="M794 1019l142.999 142.001l58 -57l-144 -141c68.667 -88 103 -181.667 103 -281c0 -102.667 -34.333 -197.334 -103 -284.001l144 -145l-58 -55l-143 143c-89.333 -68.667 -179.333 -103 -270 -103c-51.333 0 -103.666 8.66699 -156.999 26
c-61.333 19.333 -107.333 45 -138 77l-146 -143l-56 55l144 145c-68 78 -102 172 -102 282c0 104.667 34 199 102 283l-144 141l56 57l146 -142c78.667 68 173.667 102 285 102c108 0 201.333 -34 280 -102zM511.999 1040c-100.667 0 -186.167 -35.168 -256.5 -105.501
s-105.5 -156.166 -105.5 -257.499c0 -99.333 35.333 -184 106 -254s155.667 -105 255 -105s184.666 35.333 255.999 106s107 155.667 107 255c0 63.333 -16.833 124 -50.5 182s-78.167 102 -133.5 132c-57.333 31.333 -116.666 47 -177.999 47z" />
    <glyph glyph-name="yen" unicode="&#xa5;" horiz-adv-x="2705" 
d="M2054 666c0 -40.667 -2.3291 -66.3311 -6.99609 -76.998c-11.333 -27.333 -25.333 -45.333 -42 -54c-20 -10.667 -53.333 -16 -100 -16h-203c-2.66699 -26.667 -5.66699 -62 -9 -106c-3.33301 -56 -5 -106.667 -5 -152c0 -28.667 1.33301 -48.667 4 -60
c8 -32.667 45.333 -56 112 -70l179 -32c62 -17.333 93 -47 93 -89c0 -12 -10.333 -22.333 -31 -31c-16.667 -7.33301 -32 -11 -46 -11c-22 0 -51.667 1.66699 -89 5c-44 4 -73.333 6.33301 -88 7c-262 12 -466 18 -612 18c-118 0 -239.667 -5 -365 -15
c-133.333 -10.667 -206.333 -16 -219 -16c-48 0 -72 22.333 -72 67c0 34 31.667 56.667 95 68l178 28c63.333 16.667 95 48.334 95 95.001c0 25.333 -0.5 64.166 -1.5 116.499s-1.5 91.166 -1.5 116.499v61h-181c-12 0 -27 -1 -45 -3s-33 -3 -45 -3
c-47.333 0 -71 15.333 -71 46c0 6 5.66699 30.667 17 74c10 38 47.667 57 113 57h155c-136.667 275.333 -232.334 460 -287.001 554c-37.333 64.667 -76.333 103 -117 115c-42 7.33301 -83.667 15 -125 23c-52.667 13.333 -79 40 -79 80c0 12.667 8.83301 25.167 26.5 37.5
s32.834 18.5 45.501 18.5c44.667 0 111.834 -2.66699 201.501 -8s156.834 -8 201.501 -8c48.667 0 121.5 0.5 218.5 1.5s169.833 1.5 218.5 1.5c37.333 0 93.166 2 167.499 6s130.166 6 167.499 6c63.333 0 95 -19.667 95 -59c0 -34 -42.667 -61 -128 -81
c-34 -8 -51 -16 -51 -24c0 -2.66699 7.66699 -21.334 23 -56.001c122 -276.667 195.667 -415 221 -415c46.667 0 94.667 62.333 144 187c44 110 66 194.333 66 253c0 41.333 -31.833 65.333 -95.5 72s-95.5 26.667 -95.5 60c0 40.667 34 61 102 61
c25.333 0 63.166 -1.33301 113.499 -4s88.166 -4 113.499 -4c79.333 0 144.666 1.33301 195.999 4c89.333 4.66699 133.333 7 132 7c54 0 81 -16.333 81 -49c0 -22 -23.667 -42.667 -71 -62l-99 -40c-28 -18.667 -65.667 -63.667 -113 -135l-363 -542h107
c16 0 39.167 1.5 69.5 4.5s53.166 4.5 68.499 4.5c24.667 0 37 -11 37 -33z" />
    <glyph glyph-name="brokenbar" unicode="&#xa6;" horiz-adv-x="451" 
d="M159 822v810h130v-810h-130zM159 -442v811h130v-811h-130z" />
    <glyph glyph-name="section" unicode="&#xa7;" horiz-adv-x="1024" 
d="M306 807c-101.333 90 -151.998 180.328 -151.998 270.995c0 92.667 39 168.667 117 228c71.333 54 154.666 81 249.999 81c80.667 0 154 -19.667 220 -59c77.333 -46 116 -107 116 -183c0 -35.333 -10.5 -64.5 -31.5 -87.5s-48.833 -34.5 -83.5 -34.5
c-30.667 0 -56.834 9.83301 -78.501 29.5s-32.5 44.834 -32.5 75.501c0 10.667 2 26.834 6 48.501s6 37.834 6 48.501c0 63.333 -41.333 95 -124 95c-44 0 -83.667 -13.667 -119 -41c-38.667 -29.333 -58 -65.333 -58 -108c0 -42 13.667 -81 41 -117
c28.667 -38 91.667 -87.333 189 -148c240 -149.333 360 -298.333 360 -447c0 -114.667 -71.667 -221.334 -215 -320.001c59.333 -57.333 99.333 -106.166 120 -146.499s31 -85.166 31 -134.499c0 -120 -57 -206.667 -171 -260c-56.667 -26.667 -122 -40 -196 -40
c-84 0 -156.667 18.667 -218 56c-73.333 44 -110 105.667 -110 185c0 34 11.167 62.833 33.5 86.5s50.5 35.5 84.5 35.5c29.333 0 55.5 -9.83301 78.5 -29.5s34.5 -44.167 34.5 -73.5c0 -13.333 -4.16699 -32.833 -12.5 -58.5s-12.5 -45.167 -12.5 -58.5
c0 -48.667 41 -73 123 -73c49.333 0 91 11.333 125 34c40 26.667 60 63.334 60 110.001c0 44.667 -11 81.667 -33 111c-29.333 38.667 -92.666 87.667 -189.999 147c-120.667 74 -216.334 153 -287.001 237c-56.667 67.333 -85 133 -85 197c0 114 71.333 228.333 214 343z
M360.002 762.995c-63.333 -54.667 -95.001 -112.334 -95.001 -173.001c0 -32.667 9.66699 -65.667 29 -99c22.667 -39.333 55.334 -75 98.001 -107l274 -204c64.667 60 97 118 97 174c0 69.333 -44.333 139 -133 209c-28.667 22.667 -118.667 89.334 -270 200.001z" />
    <glyph glyph-name="dieresis" unicode="&#xa8;" 
d="M231 1808c0 47.333 16.833 87.833 50.5 121.5s74.5 50.5 122.5 50.5s88.833 -16.833 122.5 -50.5s50.5 -74.167 50.5 -121.5s-16.833 -87.833 -50.5 -121.5s-74.5 -50.5 -122.5 -50.5s-88.833 16.833 -122.5 50.5s-50.5 74.167 -50.5 121.5zM1111 1808
c0 47.333 16.833 87.833 50.5 121.5s74.5 50.5 122.5 50.5s89 -16.833 123 -50.5s51 -74.167 51 -121.5s-17 -87.833 -51 -121.5s-75 -50.5 -123 -50.5s-88.833 16.833 -122.5 50.5s-50.5 74.167 -50.5 121.5z" />
    <glyph glyph-name="copyright" unicode="&#xa9;" horiz-adv-x="1530" 
d="M768 1387c126 0 244.833 -31.668 356.5 -95.001s197.834 -149.333 258.501 -258c63.333 -113.333 95 -232 95 -356c0 -126.667 -32 -245.667 -96 -357s-151 -197.333 -261 -258c-113.333 -62.667 -231 -94 -353 -94c-126 0 -244.833 32 -356.5 96
s-197.834 150.667 -258.501 260c-62.667 112.667 -94 230.334 -94 353.001c0 126.667 32.5 246.5 97.5 359.5s153.333 199.5 265 259.5s227.167 90 346.5 90zM768 1298c-110 0 -213.668 -27.834 -311.001 -83.501s-172.333 -130.834 -225 -225.501
c-56 -100 -84 -203.667 -84 -311c0 -110.667 28 -214.667 84 -312s132 -172.666 228 -225.999c98.667 -54.667 201.334 -82 308.001 -82c111.333 0 215.5 27.833 312.5 83.5s172.5 132.334 226.5 230.001s81 199.834 81 306.501c0 111.333 -28.167 216.166 -84.5 314.499
s-132.833 173.5 -229.5 225.5c-98.667 53.333 -200.667 80 -306 80zM1103 1106v-264.001h-38c-12.667 64.667 -40.667 116.834 -84 156.501s-97.333 59.5 -162 59.5c-92.667 0 -161 -39.667 -205 -119c-35.333 -63.333 -53 -145 -53 -245c0 -249.333 84.333 -374 253 -374
c98.667 0 185.667 46 261 138v-70c-80.667 -84.667 -186.667 -127 -318 -127c-122.667 0 -223 37 -301 111c-80 75.333 -120 174 -120 296c0 127.333 41.333 232.333 124 315s188 124 316 124c58 0 123.667 -13.333 197 -40c22 -8 37.333 -12 46 -12c26.667 0 42 17 46 51
h38z" />
    <glyph glyph-name="ordfeminine" unicode="&#xaa;" horiz-adv-x="1746" 
d="M1620 638c0 -32 -18.3359 -48 -55.0029 -48c-43.333 0 -108.666 2.5 -195.999 7.5s-152.666 7.5 -195.999 7.5c-46.667 0 -116.5 -1.66699 -209.5 -5s-162.833 -5 -209.5 -5c-45.333 0 -68 10 -68 30c0 19.333 27.5 33 82.5 41s82.833 24.667 83.5 50
c0 40.667 -26.667 66.667 -80 78c-26 6 -73 8.66699 -141 8l-132 -2c-41.333 0 -62 -23.333 -62 -70c0 -12 2 -29.167 6 -51.5s6 -39.166 6 -50.499c0 -19.333 -18 -29 -54 -29c-21.333 0 -68.666 19.667 -141.999 59c-75.333 40 -113 67.667 -113 83c0 26 12.667 39 38 39
c16.667 0 32.667 -4 48 -12c7.33301 -4 18.666 -11.667 33.999 -23c10.667 -8.66699 18.334 -13 23.001 -13c28 0 54.333 28 79 84c47.333 108.667 125 239.667 233 393c28.667 41.333 81.667 104 159 188c90.667 98.667 147 148 169 148c27.333 0 80.333 -49.667 159 -149
c64 -81.333 109.667 -146 137 -194c36.667 -65.333 78.667 -155.666 126 -270.999l44 -131c22 -62.667 42.667 -100.334 62 -113.001c6 -4 38.333 -8.66699 97 -14c48 -4.66699 72 -16.334 72 -35.001zM741.997 964c-55.333 76 -91.667 114 -109 114
c-16.667 0 -41.834 -26.167 -75.501 -78.5s-50.5 -87.5 -50.5 -105.5c0 -10.667 10.333 -16.334 31 -17.001c47.333 -0.666992 95 -1 143 -1c54.667 -0.666992 85.334 -1 92.001 -1c8.66699 0.666992 12.667 4.33398 12 11.001c-2 15.333 -16.333 41.333 -43 78z" />
    <glyph glyph-name="guillemotleft" unicode="&#xab;" horiz-adv-x="1690" 
d="M871 1124c0 -15.333 -25.332 -42 -75.999 -80s-171.667 -124 -363 -258l371 -346c22 -17.333 36 -36.666 42 -57.999c3.33301 -12 5 -35.667 5 -71c0 -75.333 0.333008 -109.666 1 -102.999c-4 -38 -20 -56.667 -48 -56c-16 0.666992 -83 54.667 -201 162
c-210 192.667 -317 290.667 -321 294c-8.66699 8 -38.667 30.667 -90 68c-27.333 20 -40.333 35.667 -39 47c2 15.333 27.667 39.666 77 72.999c93.333 64 144.666 99.667 153.999 107c284 217.333 439 326 465 326c14.667 0 23 -9.33301 25 -28
c-1.33301 13.333 -2 -12.334 -2 -77.001zM1464 1124c0 -16 -25.167 -42.833 -75.5 -80.5s-171.166 -123.5 -362.499 -257.5l371 -346c22 -17.333 36 -36.666 42 -57.999c3.33301 -12 5 -35.667 5 -71c0 -75.333 0.333008 -109.666 1 -102.999c-4 -38 -20 -56.667 -48 -56
c-16 0.666992 -83 54.667 -201 162c-210 192.667 -317 290.667 -321 294c-8.66699 8 -38.667 30.667 -90 68c-27.333 20 -40.333 35.667 -39 47c2 15.333 27.667 39.666 77 72.999c93.333 64 144.666 99.667 153.999 107c284 217.333 439 326 465 326
c14.667 0 22.667 -9.33301 24 -28c-1.33301 21.333 -2 -4.33398 -2 -77.001z" />
    <glyph glyph-name="logicalnot" unicode="&#xac;" horiz-adv-x="1690" 
d="M1142 1055c16 0 39.168 1.33398 69.501 4.00098s53.166 4 68.499 4c33.333 0 50 -11.667 50 -35c0 -13.333 -4.66699 -29.333 -14 -48c-12.667 -26.667 -19.667 -42 -21 -46c-12 -36 -18 -118.667 -18 -248c0 -15.333 1.33301 -38.333 4 -69s4 -53.667 4 -69
c0 -33.333 -11.667 -50 -35 -50c-14 0 -30 4.33301 -48 13l-46 23c-39.333 16 -63 31.333 -71 46c-6 11.333 -9 39.666 -9 84.999v189h-516c-15.333 0 -38.5 -1.16699 -69.5 -3.5s-54.167 -3.5 -69.5 -3.5c-40.667 0 -61 12.333 -61 37c0 8.66699 12 39.667 36 93
s69.667 80 137 80z" />
    <glyph glyph-name="sfthyphen" unicode="&#xad;" horiz-adv-x="1008" 
d="M232 566c-17.333 0 -32.333 37.668 -45 113.001c-10 58.667 -15 105.667 -15 141c0 26.667 30.333 51 91 73c310 112.667 485.333 169 526 169c20.667 0 36.667 -34.667 48 -104c8 -48 12 -93.667 12 -137c0 -28 -2.33301 -47 -7 -57
c-6 -12.667 -101.333 -48.834 -286 -108.501s-292.667 -89.5 -324 -89.5z" />
    <glyph glyph-name="registered" unicode="&#xae;" horiz-adv-x="1530" 
d="M768 1387c126 0 244.833 -31.668 356.5 -95.001s197.834 -149.333 258.501 -258c63.333 -113.333 95 -232 95 -356c0 -126.667 -32 -245.667 -96 -357s-151 -197.333 -261 -258c-113.333 -62.667 -231 -94 -353 -94c-126 0 -244.833 32 -356.5 96
s-197.834 150.667 -258.501 260c-62.667 112.667 -94 230.334 -94 353.001c0 126.667 32.5 246.5 97.5 359.5s153.333 199.5 265 259.5s227.167 90 346.5 90zM768 1298c-110 0 -213.668 -27.834 -311.001 -83.501s-172.333 -130.834 -225 -225.501
c-56 -100 -84 -203.667 -84 -311c0 -110.667 28 -214.667 84 -312s132 -172.666 228 -225.999c98.667 -54.667 201.334 -82 308.001 -82c111.333 0 215.5 27.833 312.5 83.5s172.5 132.334 226.5 230.001s81 199.834 81 306.501c0 111.333 -28.167 216.166 -84.5 314.499
s-132.833 173.5 -229.5 225.5c-98.667 53.333 -200.667 80 -306 80zM388.999 1090l362.001 0.000976562c122 0 206.667 -14.667 254 -44c67.333 -42 101 -100.333 101 -175c0 -104.667 -59.667 -173.667 -179 -207l137 -250c19.333 -35.333 40 -62.333 62 -81
c10 -8.66699 24.333 -14.667 43 -18v-34h-242l-205 368h-46v-198c0 -53.333 6.66699 -88.333 20 -105c15.333 -18.667 48.666 -29 99.999 -31v-34h-423v34c41.333 0 68 7 80 21c16.667 19.333 25 57.666 25 114.999v472c0 48 -3.66699 79.333 -11 94
c-10.667 21.333 -36.667 34.333 -78 39v34zM676 699.999c22.667 -3.33301 41.667 -5 57 -5c48.667 0 87.667 18.333 117 55c27.333 33.333 41 75 41 125c0 114 -59 171 -177 171h-38v-346z" />
    <glyph glyph-name="macron" unicode="&#xaf;" 
d="M1196 1835c28 0 42.001 -9 42.001 -27c0 -26.667 -18.333 -61.667 -55 -105s-68 -65 -94 -65l-528 -1c-70.667 0 -107.334 10 -110.001 30c-2.66699 27.333 17.333 59.333 60 96c40 34 61.667 52 65 54c18.667 10.667 46.667 16 84 16h473c7.33301 0 18 0.333008 32 1
s24.333 1 31 1z" />
    <glyph glyph-name="macron" unicode="&#x2ca;" 
d="M1196 1835c28 0 42.001 -9 42.001 -27c0 -26.667 -18.333 -61.667 -55 -105s-68 -65 -94 -65l-528 -1c-70.667 0 -107.334 10 -110.001 30c-2.66699 27.333 17.333 59.333 60 96c40 34 61.667 52 65 54c18.667 10.667 46.667 16 84 16h473c7.33301 0 18 0.333008 32 1
s24.333 1 31 1z" />
    <glyph glyph-name="degree" unicode="&#xb0;" horiz-adv-x="2048" 
d="M1333 1253c0 -79.333 -30.167 -146.833 -90.5 -202.5s-132.833 -83.5 -217.5 -83.5c-85.333 0 -158.166 27.833 -218.499 83.5s-90.5 123.167 -90.5 202.5s30.167 147 90.5 203s133.166 84 218.499 84c84.667 0 157.167 -28 217.5 -84s90.5 -123.667 90.5 -203z
M1211 1256c0 54 -17.668 98.167 -53.001 132.5s-78.666 51.5 -129.999 51.5c-52.667 0 -97.667 -17 -135 -51c-39.333 -35.333 -59 -79.666 -59 -132.999c0 -54 18 -99 54 -135s80 -54 132 -54c51.333 0 96 18.167 134 54.5s57 81.166 57 134.499z" />
    <glyph glyph-name="plusminus" unicode="&#xb1;" horiz-adv-x="1690" 
d="M942 491c0 -16 1.33105 -39.167 3.99805 -69.5s4 -53.166 4 -68.499c0 -33.333 -11.667 -50 -35 -50c-13.333 0 -29.333 4.66699 -48 14l-46 22c-38.667 15.333 -62 30.333 -70 45c-6.66699 11.333 -10 40 -10 86v189h-181c-12 0 -29.667 -1 -53 -3s-41 -3 -53 -3
c-35.333 0 -54.666 0.333008 -57.999 1c-24 4 -36 15.667 -36 35c0 5.33301 12 36.333 36 93c22.667 53.333 68.334 80 137.001 80l208 -1v158c0 12 -1 29.5 -3 52.5s-3 40.5 -3 52.5c0 35.333 0.333008 54.666 1 57.999c4 24 15.667 36 35 36
c6.66699 0 37.334 -11.5 92.001 -34.5s81.667 -69.167 81 -138.5l-1 -185h199c16 0 39.167 1.33301 69.5 4s53.166 4 68.499 4c33.333 0 50 -11.667 50 -35c0 -13.333 -4.33301 -29.333 -13 -48l-22 -46c-15.333 -38.667 -30.333 -62 -45 -70
c-11.333 -6.66699 -40 -10 -86 -10h-221c0 -8.66699 -0.333008 -36.667 -1 -84v-84zM1162 0c46 0 74.668 3.33301 86.001 10c14.667 8 29.667 31.333 45 70l22 46c8.66699 18.667 13 34.667 13 48c0 23.333 -16.667 35 -50 35c-15.333 0 -38.166 -1.33301 -68.499 -4
s-53.5 -4 -69.5 -4l-609 2c-68.667 0 -114.334 -26.667 -137.001 -80c-24 -56.667 -36 -87.667 -36 -93c0 -19.333 12 -31 36 -35c3.33301 -0.666992 22.666 -1 57.999 -1c12 0 29.667 1 53 3s41 3 53 3h604z" />
    <glyph glyph-name="twosuperior" unicode="&#xb2;" horiz-adv-x="1396" 
d="M739 1551c286 0 429 -95.334 429 -286.001c0 -89.333 -34.667 -166 -104 -230c-46 -42 -122 -88.333 -228 -139h301c28 0 54.667 12.333 80 37c13.333 20.667 34.333 42 63 64c10 0.666992 17.667 -2.83301 23 -10.5s7.33301 -18.167 6 -31.5
c-0.666992 -10.667 -17 -53.667 -49 -129c-12 -26.667 -39 -66 -81 -118c-46 -54.667 -77.333 -82 -94 -82h-752c-36 0 -54 12 -54 36c0 16.667 24.333 35.334 73 56.001c10 4.66699 59.667 38.667 149 102c62 43.333 114.667 104 158 182c45.333 81.333 68 158.333 68 231
c0 48.667 -16 86 -48 112c-26.667 22 -58.667 33 -96 33c-51.333 0 -90.666 -17 -117.999 -51c-30 -37.333 -56 -56 -78 -56c-31.333 0 -45 14 -41 42c11.333 83.333 60.666 146 147.999 188c69.333 33.333 151 50 245 50z" />
    <glyph glyph-name="threesuperior" unicode="&#xb3;" horiz-adv-x="1396" 
d="M656 590c-42.667 0 -98.6709 6.99707 -168.004 20.9971c-75.333 15.333 -129 32 -161 50c-22 12.667 -33 24.334 -33 35.001c0 14 1.33301 22.5 4 25.5s12.334 4.5 29.001 4.5c13.333 0 41.333 -9.33301 84 -28c26.667 -11.333 65.334 -17 116.001 -17
c46.667 0 87.167 20.5 121.5 61.5s50.833 89.167 49.5 144.5c-2 68.667 -35.333 112.334 -100 131.001c-38.667 10.667 -66.667 16 -84 16c-24 0 -36 14.667 -36 44c0 4 18 13.333 54 28c44 18 77.333 37.667 100 59c36.667 32.667 55.334 73.334 56.001 122.001
c0.666992 37.333 -14.666 65.333 -45.999 84c-28.667 17.333 -68.667 25.666 -120 24.999c-24 -0.666992 -50 -10.5 -78 -29.5s-48.667 -28.5 -62 -28.5c-20.667 0 -31 10.333 -31 31c0 32.667 44.667 71.334 134 116.001c82 41.333 166.333 62 253 62
c103.333 0 187.333 -17 252 -51c69.333 -36 104 -86.333 104 -151c0 -82 -44.667 -153 -134 -213c61.333 -0.666992 116.333 -20.334 165 -59.001c51.333 -40.667 77 -89 77 -145c0 -119.333 -62 -208.666 -186 -267.999c-97.333 -46.667 -217.333 -70 -360 -70z" />
    <glyph glyph-name="acute" unicode="&#xb4;" 
d="M610 1657c0 29.333 31.334 107 94.001 233c65.333 131.333 109.666 197 132.999 197c161.333 0 242 -17.667 242 -53c0 -45.333 -58 -122 -174 -230s-196 -162 -240 -162c-4 0 -9.5 -0.333008 -16.5 -1s-12.5 -1 -16.5 -1c-14.667 0 -22 5.66699 -22 17z" />
    <glyph glyph-name="mu" unicode="&#xb5;" horiz-adv-x="1180" 
d="M196 916l163.999 0.000976562v-533c0 -96 6 -162 18 -198c20 -60 61.333 -90 124 -90c78.667 0 157.334 44.667 236.001 134v687h165v-654c0 -68 2.66699 -111.667 8 -131c9.33301 -34 29.333 -51 60 -51c41.333 0 68.333 41.333 81 124h42
c-11.333 -154.667 -77.333 -232 -198 -232c-94 0 -146.667 63.333 -158 190c-108 -126.667 -212.667 -190 -314 -190c-36 0 -66.667 7 -92 21c-18 10 -39 31.333 -63 64c-0.666992 -20.667 -1 -36 -1 -46c0 -52.667 11.333 -132.334 34 -239.001
c8.66699 -40.667 13 -75.334 13 -104.001c0 -29.333 -8.33301 -54.333 -25 -75c-18 -23.333 -41 -35 -69 -35c-58 0 -87 36.333 -87 109c0 31.333 9.66699 86.333 29 165c12.667 51.333 20 86 22 104c8 72.667 12 132.334 12 179.001c0 -2.66699 0 4.33301 0 21
c-0.666992 16.667 -1 34.667 -1 54v726z" />
    <glyph glyph-name="mu" unicode="&#x3bc;" horiz-adv-x="1180" 
d="M196 916l163.999 0.000976562v-533c0 -96 6 -162 18 -198c20 -60 61.333 -90 124 -90c78.667 0 157.334 44.667 236.001 134v687h165v-654c0 -68 2.66699 -111.667 8 -131c9.33301 -34 29.333 -51 60 -51c41.333 0 68.333 41.333 81 124h42
c-11.333 -154.667 -77.333 -232 -198 -232c-94 0 -146.667 63.333 -158 190c-108 -126.667 -212.667 -190 -314 -190c-36 0 -66.667 7 -92 21c-18 10 -39 31.333 -63 64c-0.666992 -20.667 -1 -36 -1 -46c0 -52.667 11.333 -132.334 34 -239.001
c8.66699 -40.667 13 -75.334 13 -104.001c0 -29.333 -8.33301 -54.333 -25 -75c-18 -23.333 -41 -35 -69 -35c-58 0 -87 36.333 -87 109c0 31.333 9.66699 86.333 29 165c12.667 51.333 20 86 22 104c8 72.667 12 132.334 12 179.001c0 -2.66699 0 4.33301 0 21
c-0.666992 16.667 -1 34.667 -1 54v726z" />
    <glyph glyph-name="paragraph" unicode="&#xb6;" horiz-adv-x="1735" 
d="M1327 1397v-327.999c3.33301 49.333 26.333 93.666 69 132.999c14.667 13.333 52.667 40.333 114 81c40.667 26.667 61 49.667 61 69c0 30 -54.667 45 -164 45h-80zM1327 -501.999c-283.333 0 -484.002 -6.66504 -602.002 -19.998c-69.333 -8 -130 -18.333 -182 -31
c-21.333 -8 -53.333 -17 -96 -27c-6.66699 -0.666992 -16.667 -1 -30 -1c-26.667 0 -40 6.66699 -40 20c0 23.333 24 48 72 74c36 19.333 70.667 33 104 41c116.667 28.667 246.334 46.667 389.001 54v389c-195.333 0 -340.333 14.667 -435 44
c-119.333 37.333 -206.666 107.333 -261.999 210c-59.333 110 -91 272.667 -95 488c-4.66699 238 41.666 421.333 138.999 550c71.333 95.333 169 158.666 293 189.999c28 7.33301 99 16 213 26l276 -4v-1893h127v1893h260c164 -5.33301 246 -55 246 -149
c0 -52.667 -40.667 -100.834 -122 -144.501s-122.666 -86.5 -123.999 -128.5c-1.33301 -38 13 -66 43 -84c12 -7.33301 39.667 -17 83 -29c30.667 -8.66699 46 -20 46 -34c0 -34 -34 -51 -102 -51c-131.333 0 -198.333 51.667 -201 155v-1538z" />
    <glyph glyph-name="periodcentered" unicode="&#xb7;" horiz-adv-x="1325" 
d="M874 765c-39.333 0 -59 19.667 -59 59s19.667 59 59 59c38.667 0 58 -19.667 58 -59s-19.333 -59 -58 -59zM460 759c-39.333 0 -59 19.667 -59 59s19.667 59 59 59c38.667 0 58 -19.667 58 -59s-19.333 -59 -58 -59zM861 352c-38.667 0 -58 20 -58 60
c0 39.333 19.333 59 58 59c39.333 0 59 -19.667 59 -59c0 -40 -19.667 -60 -59 -60zM964 465c-42 0 -113.666 35.3301 -214.999 105.997c-8.66699 -23.333 -23 -40.666 -43 -51.999c71.333 -98.667 107 -168 107 -208c0 -156 -52.333 -234 -157 -234
c-48.667 0 -88 21 -118 63c-26 37.333 -39 80.666 -39 129.999c0 56.667 39.333 140.667 118 252c-18.667 12.667 -32 29.667 -40 51c-102.667 -72 -175 -108 -217 -108c-76 0 -131 9.66699 -165 29c-39.333 22.667 -59 61.334 -59 116.001c0 44 16.833 82 50.5 114
s77.167 48 130.5 48c57.333 0 144 -39.333 260 -118c8.66699 24.667 23.667 43 45 55c-79.333 112 -119 196.333 -119 253c0 40.667 16.5 79.334 49.5 116.001s67.833 55 104.5 55c48 0 87.333 -23.333 118 -70c28 -41.333 42 -88.666 42 -141.999
c0 -41.333 -36.667 -112.333 -110 -213c19.333 -11.333 33.333 -28.333 42 -51c113.333 76.667 199 115 257 115c53.333 0 97.166 -14.5 131.499 -43.5s51.5 -65.167 51.5 -108.5c0 -54 -24.333 -94.333 -73 -121c-40 -22.667 -90.667 -34 -152 -34zM464.001 356.997
c-38.667 0 -58 19.667 -58 59s19.333 59 58 59s58 -19.667 58 -59s-19.333 -59 -58 -59zM660.001 1053c-52 0 -78 -36.334 -78 -109.001c0 -46.667 27.667 -110 83 -190c13.333 18.667 29.333 48.334 48 89.001c20.667 45.333 31 76.333 31 93c0 78 -28 117 -84 117z
M793.001 613.996c18.667 -12.667 49.333 -28 92 -46c46 -19.333 77.667 -29 95 -29c82 0 123 25.667 123 77c0 49.333 -36.333 74 -109 74c-57.333 0 -124.333 -25.333 -201 -76zM333 689.996c-43.333 0 -71.665 -3.66602 -84.998 -10.999c-20 -10 -30 -33 -30 -69
c0 -30.667 13.667 -50.334 41 -59.001c15.333 -5.33301 48.666 -8 99.999 -8c17.333 0 46.333 9 87 27c36.667 16 64.667 30.667 84 44c-76.667 50.667 -142.334 76 -197.001 76zM661.001 477.997c-52.667 -76 -79 -140.333 -79 -193c0 -84.667 24.667 -127 74 -127
c35.333 0 58.666 14.667 69.999 44c6.66699 18 10 51 10 99c0 16.667 -9.66699 46.667 -29 90c-17.333 39.333 -32.666 68.333 -45.999 87z" />
    <glyph glyph-name="periodcentered" unicode="&#x2219;" horiz-adv-x="1325" 
d="M874 765c-39.333 0 -59 19.667 -59 59s19.667 59 59 59c38.667 0 58 -19.667 58 -59s-19.333 -59 -58 -59zM460 759c-39.333 0 -59 19.667 -59 59s19.667 59 59 59c38.667 0 58 -19.667 58 -59s-19.333 -59 -58 -59zM861 352c-38.667 0 -58 20 -58 60
c0 39.333 19.333 59 58 59c39.333 0 59 -19.667 59 -59c0 -40 -19.667 -60 -59 -60zM964 465c-42 0 -113.666 35.3301 -214.999 105.997c-8.66699 -23.333 -23 -40.666 -43 -51.999c71.333 -98.667 107 -168 107 -208c0 -156 -52.333 -234 -157 -234
c-48.667 0 -88 21 -118 63c-26 37.333 -39 80.666 -39 129.999c0 56.667 39.333 140.667 118 252c-18.667 12.667 -32 29.667 -40 51c-102.667 -72 -175 -108 -217 -108c-76 0 -131 9.66699 -165 29c-39.333 22.667 -59 61.334 -59 116.001c0 44 16.833 82 50.5 114
s77.167 48 130.5 48c57.333 0 144 -39.333 260 -118c8.66699 24.667 23.667 43 45 55c-79.333 112 -119 196.333 -119 253c0 40.667 16.5 79.334 49.5 116.001s67.833 55 104.5 55c48 0 87.333 -23.333 118 -70c28 -41.333 42 -88.666 42 -141.999
c0 -41.333 -36.667 -112.333 -110 -213c19.333 -11.333 33.333 -28.333 42 -51c113.333 76.667 199 115 257 115c53.333 0 97.166 -14.5 131.499 -43.5s51.5 -65.167 51.5 -108.5c0 -54 -24.333 -94.333 -73 -121c-40 -22.667 -90.667 -34 -152 -34zM464.001 356.997
c-38.667 0 -58 19.667 -58 59s19.333 59 58 59s58 -19.667 58 -59s-19.333 -59 -58 -59zM660.001 1053c-52 0 -78 -36.334 -78 -109.001c0 -46.667 27.667 -110 83 -190c13.333 18.667 29.333 48.334 48 89.001c20.667 45.333 31 76.333 31 93c0 78 -28 117 -84 117z
M793.001 613.996c18.667 -12.667 49.333 -28 92 -46c46 -19.333 77.667 -29 95 -29c82 0 123 25.667 123 77c0 49.333 -36.333 74 -109 74c-57.333 0 -124.333 -25.333 -201 -76zM333 689.996c-43.333 0 -71.665 -3.66602 -84.998 -10.999c-20 -10 -30 -33 -30 -69
c0 -30.667 13.667 -50.334 41 -59.001c15.333 -5.33301 48.666 -8 99.999 -8c17.333 0 46.333 9 87 27c36.667 16 64.667 30.667 84 44c-76.667 50.667 -142.334 76 -197.001 76zM661.001 477.997c-52.667 -76 -79 -140.333 -79 -193c0 -84.667 24.667 -127 74 -127
c35.333 0 58.666 14.667 69.999 44c6.66699 18 10 51 10 99c0 16.667 -9.66699 46.667 -29 90c-17.333 39.333 -32.666 68.333 -45.999 87z" />
    <glyph glyph-name="cedilla" unicode="&#xb8;" 
d="M1051 -420c0 -62.667 -23 -125.999 -69 -189.999c-49.333 -70 -104 -105 -164 -105c-42.667 0 -64 24 -64 72c0 17.333 16.667 35.666 50 54.999s50 48.666 50 87.999c0 20 -8.33301 30 -25 30c-8 0 -17.5 -0.833008 -28.5 -2.5s-20.5 -2.5 -28.5 -2.5
c-39.333 0 -72 16.667 -98 50c-24 30.667 -36 66.334 -36 107.001c0 51.333 20.667 96 62 134c39.333 36 82.333 54 129 54c148 0 222 -96.667 222 -290z" />
    <glyph glyph-name="onesuperior" unicode="&#xb9;" horiz-adv-x="1396" 
d="M1197 640c-0.666992 -24 -17.334 -35.9961 -50.001 -35.9961c-99.333 2.66699 -235.666 6 -408.999 10c-62.667 1.33301 -141.334 0.333008 -236.001 -3c-115.333 -4 -194 -6.33301 -236 -7c-8 0 -15.667 1.66699 -23 5c-11.333 4.66699 -16.666 12 -15.999 22
c0 16 7.33301 26.333 22 31c4.66699 1.33301 22 4 52 8l100 9c56.667 8 85.334 25.667 86.001 53c0.666992 40.667 -1.66602 94.667 -6.99902 162c-5.33301 71.333 -8 126.333 -8 165c0 24 2.66699 103 8 237c1.33301 32 -0.833984 52.167 -6.50098 60.5
s-22.167 12.166 -49.5 11.499c-3.33301 0 -15.5 -1.33301 -36.5 -4s-33.833 -4 -38.5 -4c-45.333 0 -68 10 -68 30c0 9.33301 7 18.666 21 27.999c12 7.33301 20.333 11 25 11s68.334 10.333 191.001 31c134.667 22.667 216 36 244 40
c34.667 5.33301 93.334 15.333 176.001 30c56 10 91 14.667 105 14c31.333 -1.33301 47 -10 47 -26c0 -26 -23.667 -42 -71 -48c-49.333 -6 -74.333 -25 -75 -57c7.33301 -71.333 13.666 -185.333 18.999 -342c-5.33301 -68 -11 -170 -17 -306
c-0.666992 -28 4.16602 -47.333 14.499 -58s30.166 -16.334 59.499 -17.001c28 -4.66699 60 -9.33398 96 -14.001c54.667 -0.666992 81.667 -12.667 81 -36z" />
    <glyph glyph-name="ordmasculine" unicode="&#xba;" horiz-adv-x="1854" 
d="M1572 1066c0 -172.667 -78 -299.001 -234 -379.001c-123.333 -63.333 -286.333 -95 -489 -95c-174 0 -317.333 41.667 -430 125c-121.333 90.667 -182 214.334 -182 371.001c0 158.667 70.333 278 211 358c116 66 265.667 99 449 99c190 0 344.333 -35 463 -105
c141.333 -83.333 212 -208 212 -374zM918 1453c-42 0 -73.999 -49 -95.999 -147c-16 -68 -24 -133.667 -24 -197c0 -86 6.66699 -168.667 20 -248c21.333 -122.667 53.666 -184 96.999 -184c82.667 0 124 124 124 372c0 269.333 -40.333 404 -121 404z" />
    <glyph glyph-name="guillemotright" unicode="&#xbb;" horiz-adv-x="1690" 
d="M745 256c0 15.333 25.332 42 75.999 80s171.667 124 363 258l-371 346c-22 17.333 -36 36.666 -42 57.999c-3.33301 12 -5 35.667 -5 71c0 76 -0.333008 110.667 -1 104c4 38 20 56.667 48 56c16 -0.666992 83 -55 201 -163l321 -294c8.66699 -8 38.667 -30.667 90 -68
c27.333 -20 40.333 -35.667 39 -47c-2 -15.333 -27.667 -39.666 -77 -72.999c-93.333 -64 -144.666 -99.667 -153.999 -107c-282.667 -216.667 -437.667 -325 -465 -325c-14.667 0 -23 9 -25 27c1.33301 -12.667 2 13 2 77zM151.999 256c0 16 25.167 42.833 75.5 80.5
s171.166 123.5 362.499 257.5l-371 346c-22 17.333 -36 36.666 -42 57.999c-3.33301 12 -5 35.667 -5 71c0 76 -0.333008 110.667 -1 104c4 38 20 56.667 48 56c16 -0.666992 83 -55 201 -163l321 -294c8.66699 -8 38.667 -30.667 90 -68c27.333 -20 40.333 -35.667 39 -47
c-2 -15.333 -27.667 -39.666 -77 -72.999c-93.333 -64 -144.666 -99.667 -153.999 -107c-282.667 -216.667 -437.667 -325 -465 -325c-14.667 0 -22.667 9 -24 27c1.33301 -20.667 2 5 2 77z" />
    <glyph glyph-name="onequarter" unicode="&#xbc;" horiz-adv-x="1396" 
d="M1197 640c-0.666992 -24 -17.334 -35.9961 -50.001 -35.9961c-99.333 2.66699 -235.666 6 -408.999 10c-62.667 1.33301 -141.334 0.333008 -236.001 -3c-115.333 -4 -194 -6.33301 -236 -7c-8 0 -15.667 1.66699 -23 5c-11.333 4.66699 -16.666 12 -15.999 22
c0 16 7.33301 26.333 22 31c4.66699 1.33301 22 4 52 8l100 9c56.667 8 85.334 25.667 86.001 53c0.666992 40.667 -1.66602 94.667 -6.99902 162c-5.33301 71.333 -8 126.333 -8 165c0 24 2.66699 103 8 237c1.33301 32 -0.833984 52.167 -6.50098 60.5
s-22.167 12.166 -49.5 11.499c-3.33301 0 -15.5 -1.33301 -36.5 -4s-33.833 -4 -38.5 -4c-45.333 0 -68 10 -68 30c0 9.33301 7 18.666 21 27.999c12 7.33301 20.333 11 25 11s68.334 10.333 191.001 31c134.667 22.667 216 36 244 40
c34.667 5.33301 93.334 15.333 176.001 30c56 10 91 14.667 105 14c31.333 -1.33301 47 -10 47 -26c0 -26 -23.667 -42 -71 -48c-49.333 -6 -74.333 -25 -75 -57c7.33301 -71.333 13.666 -185.333 18.999 -342c-5.33301 -68 -11 -170 -17 -306
c-0.666992 -28 4.16602 -47.333 14.499 -58s30.166 -16.334 59.499 -17.001c28 -4.66699 60 -9.33398 96 -14.001c54.667 -0.666992 81.667 -12.667 81 -36zM1228 390.004c46 0 74.667 1.66797 86 5.00098c14.667 5.33301 29.667 19.666 45 42.999
c23.333 35.333 35 54 35 56c0 14 -16.667 21 -50 21c-15.333 0 -38.166 -0.833008 -68.499 -2.5s-53.5 -2.5 -69.5 -2.5l-1019 1c-68.667 0 -114.334 -16 -137.001 -48c-24 -34 -36 -52.333 -36 -55c0 -14.667 31.333 -22 94 -22c12 0 29.667 0.666992 53 2s41 2 53 2h1014z
M237 -282.995l-0.000976562 -96.998c1.33301 -17.333 12 -26.333 32 -27h341c11.333 -0.666992 17.333 -10 18 -28c2 -54 5 -106.333 9 -157c2.66699 -35.333 16 -53 40 -53c24.667 0 81.667 7.66699 171 23c96 16.667 148.333 29.667 157 39c5.33301 6 12.333 59 21 159
c0.666992 11.333 5 17 13 17c3.33301 0 12.833 -0.333008 28.5 -1s28.167 -1 37.5 -1c17.333 0 44.333 42.667 81 128c34.667 81.333 52 134.666 52 159.999c0 16.667 -7.66699 25 -23 25c-8.66699 0 -22 -7.66699 -40 -23
c-47.333 -42.667 -89.666 -64.334 -126.999 -65.001c-6 0 -10.5 1.16699 -13.5 3.5s-4.5 5.83301 -4.5 10.5c0 10 0.333008 26.5 1 49.5s1 34.833 1 35.5c0 40.667 -2.83301 96 -8.5 166s-8.5 125 -8.5 165c0 10.667 -5 23.667 -15 39c-11.333 18 -22.666 27 -33.999 27
c-19.333 0 -34 -5.33301 -44 -16c-20.667 -21.333 -32.334 -32.666 -35.001 -33.999l-322 -225c-148 -104.667 -248.667 -181.334 -302 -230.001c-8 -6.66699 -16.667 -19.667 -26 -39v-51zM647.999 4.00684c6 -2.66699 9.00098 -7.66797 9.00098 -15.001
c0 4.66699 -5 -34.666 -15 -117.999c-1.33301 -10.667 -8.33301 -16 -21 -16h-122c-23.333 0 -34 6.33301 -32 19c1.33301 8 29.166 31.667 83.499 71s86.833 59 97.5 59z" />
    <glyph glyph-name="onehalf" unicode="&#xbd;" horiz-adv-x="1396" 
d="M1197 640c-0.666992 -24 -17.334 -35.9961 -50.001 -35.9961c-99.333 2.66699 -235.666 6 -408.999 10c-62.667 1.33301 -141.334 0.333008 -236.001 -3c-115.333 -4 -194 -6.33301 -236 -7c-8 0 -15.667 1.66699 -23 5c-11.333 4.66699 -16.666 12 -15.999 22
c0 16 7.33301 26.333 22 31c4.66699 1.33301 22 4 52 8l100 9c56.667 8 85.334 25.667 86.001 53c0.666992 40.667 -1.66602 94.667 -6.99902 162c-5.33301 71.333 -8 126.333 -8 165c0 24 2.66699 103 8 237c1.33301 32 -0.833984 52.167 -6.50098 60.5
s-22.167 12.166 -49.5 11.499c-3.33301 0 -15.5 -1.33301 -36.5 -4s-33.833 -4 -38.5 -4c-45.333 0 -68 10 -68 30c0 9.33301 7 18.666 21 27.999c12 7.33301 20.333 11 25 11s68.334 10.333 191.001 31c134.667 22.667 216 36 244 40
c34.667 5.33301 93.334 15.333 176.001 30c56 10 91 14.667 105 14c31.333 -1.33301 47 -10 47 -26c0 -26 -23.667 -42 -71 -48c-49.333 -6 -74.333 -25 -75 -57c7.33301 -71.333 13.666 -185.333 18.999 -342c-5.33301 -68 -11 -170 -17 -306
c-0.666992 -28 4.16602 -47.333 14.499 -58s30.166 -16.334 59.499 -17.001c28 -4.66699 60 -9.33398 96 -14.001c54.667 -0.666992 81.667 -12.667 81 -36zM1228 390.004c46 0 74.667 1.66797 86 5.00098c14.667 5.33301 29.667 19.666 45 42.999
c23.333 35.333 35 54 35 56c0 14 -16.667 21 -50 21c-15.333 0 -38.166 -0.833008 -68.499 -2.5s-53.5 -2.5 -69.5 -2.5l-1019 1c-68.667 0 -114.334 -16 -137.001 -48c-24 -34 -36 -52.333 -36 -55c0 -14.667 31.333 -22 94 -22c12 0 29.667 0.666992 53 2s41 2 53 2h1014z
M672 326.005c286 0 429 -95.334 429 -286.001c0 -89.333 -34.667 -166 -104 -230c-46 -42 -122 -88.333 -228 -139h301c28 0 54.667 12.333 80 37c13.333 20.667 34.333 42 63 64c10 0.666992 17.667 -2.83301 23 -10.5s7.33301 -18.167 6 -31.5
c-0.666992 -10.667 -17 -53.667 -49 -129c-12 -26.667 -39 -66 -81 -118c-46 -54.667 -77.333 -82 -94 -82h-752c-36 0 -54 12 -54 36c0 16.667 24.333 35.334 73 56.001c10 4.66699 59.667 38.667 149 102c62 43.333 114.667 104 158 182c45.333 81.333 68 158.333 68 231
c0 48.667 -16 86 -48 112c-26.667 22 -58.667 33 -96 33c-51.333 0 -90.666 -17 -117.999 -51c-30 -37.333 -56 -56 -78 -56c-31.333 0 -45 14 -41 42c11.333 83.333 60.666 146 147.999 188c69.333 33.333 151 50 245 50z" />
    <glyph glyph-name="threequarters" unicode="&#xbe;" horiz-adv-x="1396" 
d="M1228 390c46 0 74.667 1.66797 86 5.00098c14.667 5.33301 29.667 19.666 45 42.999c23.333 35.333 35 54 35 56c0 14 -16.667 21 -50 21c-15.333 0 -38.166 -0.833008 -68.499 -2.5s-53.5 -2.5 -69.5 -2.5l-1019 1c-68.667 0 -114.334 -16 -137.001 -48
c-24 -34 -36 -52.333 -36 -55c0 -14.667 31.333 -22 94 -22c12 0 29.667 0.666992 53 2s41 2 53 2h1014zM217 -282.999l-0.000976562 -97c1.33301 -17.333 12 -26.333 32 -27h341c11.333 -0.666992 17.333 -10 18 -28c2 -54 5 -106.333 9 -157
c2.66699 -35.333 16 -53 40 -53c24.667 0 81.667 7.66699 171 23c96 16.667 148.333 29.667 157 39c5.33301 6 12.333 59 21 159c0.666992 11.333 5 17 13 17c3.33301 0 12.833 -0.333008 28.5 -1s28.167 -1 37.5 -1c17.333 0 44.333 42.667 81 128
c34.667 81.333 52 134.666 52 159.999c0 16.667 -7.66699 25 -23 25c-8.66699 0 -22 -7.66699 -40 -23c-47.333 -42.667 -89.666 -64.334 -126.999 -65.001c-12 -0.666992 -18 4 -18 14c0 8.66699 0.333008 25.334 1 50.001c0.666992 22.667 1 34.334 1 35.001
c0 40.667 -2.83301 96 -8.5 166s-8.5 125 -8.5 165c0 10.667 -5 23.667 -15 39c-11.333 18 -22.666 27 -33.999 27c-19.333 0 -34 -5.33301 -44 -16c-20.667 -21.333 -32.334 -32.666 -35.001 -33.999l-322 -225c-148 -104.667 -248.667 -181.334 -302 -230.001
c-8 -6.66699 -16.667 -19.667 -26 -39v-51zM627.999 4.00098c6 -2.66699 9.00098 -7.66797 9.00098 -15.001c0 4.66699 -5 -34.666 -15 -117.999c-1.33301 -10.667 -8.33301 -16 -21 -16h-122c-23.333 0 -34 6.33301 -32 19c1.33301 8 29.166 31.667 83.499 71
s86.833 59 97.5 59zM656 590c-42.667 0 -98.6709 6.99707 -168.004 20.9971c-75.333 15.333 -129 32 -161 50c-22 12.667 -33 24.334 -33 35.001c0 14 1.33301 22.5 4 25.5s12.334 4.5 29.001 4.5c13.333 0 41.333 -9.33301 84 -28c26.667 -11.333 65.334 -17 116.001 -17
c46.667 0 87.167 20.5 121.5 61.5s50.833 89.167 49.5 144.5c-2 68.667 -35.333 112.334 -100 131.001c-38.667 10.667 -66.667 16 -84 16c-24 0 -36 14.667 -36 44c0 4 18 13.333 54 28c44 18 77.333 37.667 100 59c36.667 32.667 55.334 73.334 56.001 122.001
c0.666992 37.333 -14.666 65.333 -45.999 84c-28.667 17.333 -68.667 25.666 -120 24.999c-24 -0.666992 -50 -10.5 -78 -29.5s-48.667 -28.5 -62 -28.5c-20.667 0 -31 10.333 -31 31c0 32.667 44.667 71.334 134 116.001c82 41.333 166.333 62 253 62
c103.333 0 187.333 -17 252 -51c69.333 -36 104 -86.333 104 -151c0 -82 -44.667 -153 -134 -213c61.333 -0.666992 116.333 -20.334 165 -59.001c51.333 -40.667 77 -89 77 -145c0 -119.333 -62 -208.666 -186 -267.999c-97.333 -46.667 -217.333 -70 -360 -70z" />
    <glyph glyph-name="questiondown" unicode="&#xbf;" horiz-adv-x="1118" 
d="M850 1336c0 -58 -21 -107.5 -63 -148.5s-92 -61.5 -150 -61.5s-107.833 20.5 -149.5 61.5s-62.5 90.5 -62.5 148.5s20.833 107.5 62.5 148.5s91.5 61.5 149.5 61.5s108 -20.5 150 -61.5s63 -90.5 63 -148.5zM976 224c0 -79.333 -41.002 -146.998 -123.002 -202.998
c-73.333 -50.667 -151.666 -76 -234.999 -76c-277.333 0 -416 104.667 -416 314c0 122 29.333 222 88 300c21.333 28.667 56.333 64 105 106c52.667 45.333 88.667 79.666 108 102.999c22 26.667 40 75.667 54 147c10 48 36.333 72 79 72c42 0 78.333 -18 109 -54
c28.667 -34.667 43 -73.334 43 -116.001c0 -52 -16.5 -128.167 -49.5 -228.5s-49.5 -180.5 -49.5 -240.5c0 -40 10.667 -67 32 -81c16.667 -11.333 45 -17 85 -17c10.667 0 27.334 7.83301 50.001 23.5s45.667 23.5 69 23.5c34 0 51 -24.333 51 -73z" />
    <glyph glyph-name="Agrave" unicode="&#xc0;" horiz-adv-x="2665" 
d="M2498 55c0 -53.333 -28.333 -79.999 -85 -79.999c-67.333 0 -168 4.16699 -302 12.5s-234.667 12.5 -302 12.5c-71.333 0 -178.666 -2.83301 -321.999 -8.5s-250.666 -8.5 -321.999 -8.5c-70 0 -105 16.667 -105 50c0 28 22 47.333 66 58l122 24
c44 12.667 66.333 36.334 67 71.001c0.666992 66.667 -40.333 109.667 -123 129c-38.667 9.33301 -111 13.666 -217 12.999l-202 -2c-63.333 -0.666992 -95 -40 -95 -118c0 -18.667 2.83301 -47 8.5 -85s8.5 -66.333 8.5 -85c0 -32 -27.333 -48 -82 -48
c-32.667 0 -105.334 32.667 -218.001 98c-116 67.333 -174 113.666 -174 138.999c0 43.333 19.333 65 58 65c25.333 0 49.666 -6.66699 72.999 -20c12 -6.66699 29.333 -19.667 52 -39c17.333 -14 29.333 -21 36 -21c44 0 84.667 46.667 122 140
c73.333 181.333 192.666 399.666 357.999 654.999c44.667 68.667 126.334 173 245.001 313c140 164.667 226.667 247 260 247c42 0 123.333 -83 244 -249c98.667 -135.333 169 -243 211 -323c56.667 -109.333 121.667 -259.666 195 -450.999l67 -219
c33.333 -104 65 -166.667 95 -188c9.33301 -6.66699 59 -14.667 149 -24c74.667 -8 112 -27.333 112 -58zM1147 598.001c-85.333 127.333 -141.333 191 -168 191c-25.333 0 -64.333 -44.333 -117 -133c-51.333 -86 -77 -144 -77 -174c0 -20 40.333 -31 121 -33
c48.667 1.33301 97.667 2.33301 147 3l49 -4c31.333 -2 56 -2 74 0c24.667 3.33301 36.667 10.333 36 21c-2 24.667 -23.667 67.667 -65 129zM1557 1661c0 33.333 -20.334 110.334 -61.001 231.001c-44 130 -77.333 195 -100 195c-161.333 0 -242 -17.667 -242 -53
c0 -46.667 47.333 -122.834 142 -228.501s163.334 -158.5 206.001 -158.5c4 0 9.5 -0.5 16.5 -1.5s12.5 -1.5 16.5 -1.5c14.667 0 22 5.66699 22 17z" />
    <glyph glyph-name="Aacute" unicode="&#xc1;" horiz-adv-x="2665" 
d="M2498 55c0 -53.333 -28.333 -79.999 -85 -79.999c-67.333 0 -168 4.16699 -302 12.5s-234.667 12.5 -302 12.5c-71.333 0 -178.666 -2.83301 -321.999 -8.5s-250.666 -8.5 -321.999 -8.5c-70 0 -105 16.667 -105 50c0 28 22 47.333 66 58l122 24
c44 12.667 66.333 36.334 67 71.001c0.666992 66.667 -40.333 109.667 -123 129c-38.667 9.33301 -111 13.666 -217 12.999l-202 -2c-63.333 -0.666992 -95 -40 -95 -118c0 -18.667 2.83301 -47 8.5 -85s8.5 -66.333 8.5 -85c0 -32 -27.333 -48 -82 -48
c-32.667 0 -105.334 32.667 -218.001 98c-116 67.333 -174 113.666 -174 138.999c0 43.333 19.333 65 58 65c25.333 0 49.666 -6.66699 72.999 -20c12 -6.66699 29.333 -19.667 52 -39c17.333 -14 29.333 -21 36 -21c44 0 84.667 46.667 122 140
c73.333 181.333 192.666 399.666 357.999 654.999c44.667 68.667 126.334 173 245.001 313c140 164.667 226.667 247 260 247c42 0 123.333 -83 244 -249c98.667 -135.333 169 -243 211 -323c56.667 -109.333 121.667 -259.666 195 -450.999l67 -219
c33.333 -104 65 -166.667 95 -188c9.33301 -6.66699 59 -14.667 149 -24c74.667 -8 112 -27.333 112 -58zM1147 598.001c-85.333 127.333 -141.333 191 -168 191c-25.333 0 -64.333 -44.333 -117 -133c-51.333 -86 -77 -144 -77 -174c0 -20 40.333 -31 121 -33
c48.667 1.33301 97.667 2.33301 147 3l49 -4c31.333 -2 56 -2 74 0c24.667 3.33301 36.667 10.333 36 21c-2 24.667 -23.667 67.667 -65 129zM1270 1657c0 29.333 31.334 107 94.001 233c65.333 131.333 109.666 197 132.999 197c161.333 0 242 -17.667 242 -53
c0 -45.333 -58 -122 -174 -230s-196 -162 -240 -162c-4 0 -9.5 -0.333008 -16.5 -1s-12.5 -1 -16.5 -1c-14.667 0 -22 5.66699 -22 17z" />
    <glyph glyph-name="Acircumflex" unicode="&#xc2;" horiz-adv-x="2665" 
d="M2498 55c0 -53.333 -28.333 -79.999 -85 -79.999c-67.333 0 -168 4.16699 -302 12.5s-234.667 12.5 -302 12.5c-71.333 0 -178.666 -2.83301 -321.999 -8.5s-250.666 -8.5 -321.999 -8.5c-70 0 -105 16.667 -105 50c0 28 22 47.333 66 58l122 24
c44 12.667 66.333 36.334 67 71.001c0.666992 66.667 -40.333 109.667 -123 129c-38.667 9.33301 -111 13.666 -217 12.999l-202 -2c-63.333 -0.666992 -95 -40 -95 -118c0 -18.667 2.83301 -47 8.5 -85s8.5 -66.333 8.5 -85c0 -32 -27.333 -48 -82 -48
c-32.667 0 -105.334 32.667 -218.001 98c-116 67.333 -174 113.666 -174 138.999c0 43.333 19.333 65 58 65c25.333 0 49.666 -6.66699 72.999 -20c12 -6.66699 29.333 -19.667 52 -39c17.333 -14 29.333 -21 36 -21c44 0 84.667 46.667 122 140
c73.333 181.333 192.666 399.666 357.999 654.999c44.667 68.667 126.334 173 245.001 313c140 164.667 226.667 247 260 247c42 0 123.333 -83 244 -249c98.667 -135.333 169 -243 211 -323c56.667 -109.333 121.667 -259.666 195 -450.999l67 -219
c33.333 -104 65 -166.667 95 -188c9.33301 -6.66699 59 -14.667 149 -24c74.667 -8 112 -27.333 112 -58zM1147 598.001c-85.333 127.333 -141.333 191 -168 191c-25.333 0 -64.333 -44.333 -117 -133c-51.333 -86 -77 -144 -77 -174c0 -20 40.333 -31 121 -33
c48.667 1.33301 97.667 2.33301 147 3l49 -4c31.333 -2 56 -2 74 0c24.667 3.33301 36.667 10.333 36 21c-2 24.667 -23.667 67.667 -65 129zM1442 2084c26 0 71.332 -21 135.999 -63l132 -91c25.333 -16 59 -48 101 -96c47.333 -52.667 71 -90.334 71 -113.001
c0 -11.333 -25.667 -28 -77 -50c-60 -25.333 -91.667 -39.333 -95 -42c-46 28 -98.667 74.333 -158 139c-38.667 42 -83 81 -133 117c-29.333 -19.333 -74.333 -56.666 -135 -111.999l-72 -90c-26.667 -33.333 -47.667 -50 -63 -50c-16 0 -38 8.33301 -66 25
c-30 18 -45 34.333 -45 49c0 22 21 55.333 63 100l91 90c68.667 75.333 105.334 115 110.001 119c50 45.333 96.667 68 140 68z" />
    <glyph glyph-name="Atilde" unicode="&#xc3;" horiz-adv-x="2665" 
d="M2498 55c0 -53.333 -28.333 -79.999 -85 -79.999c-67.333 0 -168 4.16699 -302 12.5s-234.667 12.5 -302 12.5c-71.333 0 -178.666 -2.83301 -321.999 -8.5s-250.666 -8.5 -321.999 -8.5c-70 0 -105 16.667 -105 50c0 28 22 47.333 66 58l122 24
c44 12.667 66.333 36.334 67 71.001c0.666992 66.667 -40.333 109.667 -123 129c-38.667 9.33301 -111 13.666 -217 12.999l-202 -2c-63.333 -0.666992 -95 -40 -95 -118c0 -18.667 2.83301 -47 8.5 -85s8.5 -66.333 8.5 -85c0 -32 -27.333 -48 -82 -48
c-32.667 0 -105.334 32.667 -218.001 98c-116 67.333 -174 113.666 -174 138.999c0 43.333 19.333 65 58 65c25.333 0 49.666 -6.66699 72.999 -20c12 -6.66699 29.333 -19.667 52 -39c17.333 -14 29.333 -21 36 -21c44 0 84.667 46.667 122 140
c73.333 181.333 192.666 399.666 357.999 654.999c44.667 68.667 126.334 173 245.001 313c140 164.667 226.667 247 260 247c42 0 123.333 -83 244 -249c98.667 -135.333 169 -243 211 -323c56.667 -109.333 121.667 -259.666 195 -450.999l67 -219
c33.333 -104 65 -166.667 95 -188c9.33301 -6.66699 59 -14.667 149 -24c74.667 -8 112 -27.333 112 -58zM1147 598.001c-85.333 127.333 -141.333 191 -168 191c-25.333 0 -64.333 -44.333 -117 -133c-51.333 -86 -77 -144 -77 -174c0 -20 40.333 -31 121 -33
c48.667 1.33301 97.667 2.33301 147 3l49 -4c31.333 -2 56 -2 74 0c24.667 3.33301 36.667 10.333 36 21c-2 24.667 -23.667 67.667 -65 129zM1659 1806c-38 0 -99.4971 27.5 -184.497 82.5s-168.833 82.5 -251.5 82.5c-68.667 0 -132.334 -26.667 -191.001 -80
c-60 -55.333 -90 -117 -90 -185c0 -30 17 -45 51 -45c29.333 0 48.666 22.833 57.999 68.5s36.666 68.5 81.999 68.5c24 0 90 -25.667 198 -77s203.333 -77 286 -77c79.333 0 149.5 28 210.5 84s91.5 123 91.5 201c0 29.333 -16 44 -48 44c-33.333 0 -52 -9.66699 -56 -29
c0 -6 -2 -20.333 -6 -43c-16.667 -63.333 -66.667 -95 -150 -95z" />
    <glyph glyph-name="Adieresis" unicode="&#xc4;" horiz-adv-x="2665" 
d="M2498 55c0 -53.333 -28.333 -79.999 -85 -79.999c-67.333 0 -168 4.16699 -302 12.5s-234.667 12.5 -302 12.5c-71.333 0 -178.666 -2.83301 -321.999 -8.5s-250.666 -8.5 -321.999 -8.5c-70 0 -105 16.667 -105 50c0 28 22 47.333 66 58l122 24
c44 12.667 66.333 36.334 67 71.001c0.666992 66.667 -40.333 109.667 -123 129c-38.667 9.33301 -111 13.666 -217 12.999l-202 -2c-63.333 -0.666992 -95 -40 -95 -118c0 -18.667 2.83301 -47 8.5 -85s8.5 -66.333 8.5 -85c0 -32 -27.333 -48 -82 -48
c-32.667 0 -105.334 32.667 -218.001 98c-116 67.333 -174 113.666 -174 138.999c0 43.333 19.333 65 58 65c25.333 0 49.666 -6.66699 72.999 -20c12 -6.66699 29.333 -19.667 52 -39c17.333 -14 29.333 -21 36 -21c44 0 84.667 46.667 122 140
c73.333 181.333 192.666 399.666 357.999 654.999c44.667 68.667 126.334 173 245.001 313c140 164.667 226.667 247 260 247c42 0 123.333 -83 244 -249c98.667 -135.333 169 -243 211 -323c56.667 -109.333 121.667 -259.666 195 -450.999l67 -219
c33.333 -104 65 -166.667 95 -188c9.33301 -6.66699 59 -14.667 149 -24c74.667 -8 112 -27.333 112 -58zM1147 598.001c-85.333 127.333 -141.333 191 -168 191c-25.333 0 -64.333 -44.333 -117 -133c-51.333 -86 -77 -144 -77 -174c0 -20 40.333 -31 121 -33
c48.667 1.33301 97.667 2.33301 147 3l49 -4c31.333 -2 56 -2 74 0c24.667 3.33301 36.667 10.333 36 21c-2 24.667 -23.667 67.667 -65 129zM836 1808c0 47.333 16.833 87.833 50.5 121.5s74.5 50.5 122.5 50.5s88.833 -16.833 122.5 -50.5s50.5 -74.167 50.5 -121.5
s-16.833 -87.833 -50.5 -121.5s-74.5 -50.5 -122.5 -50.5s-88.833 16.833 -122.5 50.5s-50.5 74.167 -50.5 121.5zM1716 1808c0 47.333 16.833 87.833 50.5 121.5s74.5 50.5 122.5 50.5s89 -16.833 123 -50.5s51 -74.167 51 -121.5s-17 -87.833 -51 -121.5
s-75 -50.5 -123 -50.5s-88.833 16.833 -122.5 50.5s-50.5 74.167 -50.5 121.5z" />
    <glyph glyph-name="Aring" unicode="&#xc5;" horiz-adv-x="2665" 
d="M2498 55c0 -53.333 -28.333 -79.999 -85 -79.999c-67.333 0 -168 4.16699 -302 12.5s-234.667 12.5 -302 12.5c-71.333 0 -178.666 -2.83301 -321.999 -8.5s-250.666 -8.5 -321.999 -8.5c-70 0 -105 16.667 -105 50c0 28 22 47.333 66 58l122 24
c44 12.667 66.333 36.334 67 71.001c0.666992 66.667 -40.333 109.667 -123 129c-38.667 9.33301 -111 13.666 -217 12.999l-202 -2c-63.333 -0.666992 -95 -40 -95 -118c0 -18.667 2.83301 -47 8.5 -85s8.5 -66.333 8.5 -85c0 -32 -27.333 -48 -82 -48
c-32.667 0 -105.334 32.667 -218.001 98c-116 67.333 -174 113.666 -174 138.999c0 43.333 19.333 65 58 65c25.333 0 49.666 -6.66699 72.999 -20c12 -6.66699 29.333 -19.667 52 -39c17.333 -14 29.333 -21 36 -21c44 0 84.667 46.667 122 140
c73.333 181.333 192.666 399.666 357.999 654.999c44.667 68.667 126.334 173 245.001 313c140 164.667 226.667 247 260 247c42 0 123.333 -83 244 -249c98.667 -135.333 169 -243 211 -323c56.667 -109.333 121.667 -259.666 195 -450.999l67 -219
c33.333 -104 65 -166.667 95 -188c9.33301 -6.66699 59 -14.667 149 -24c74.667 -8 112 -27.333 112 -58zM1147 598.001c-85.333 127.333 -141.333 191 -168 191c-25.333 0 -64.333 -44.333 -117 -133c-51.333 -86 -77 -144 -77 -174c0 -20 40.333 -31 121 -33
c48.667 1.33301 97.667 2.33301 147 3l49 -4c31.333 -2 56 -2 74 0c24.667 3.33301 36.667 10.333 36 21c-2 24.667 -23.667 67.667 -65 129zM1862 1850c0 -60.667 -40.667 -112.5 -122 -155.5s-179 -64.5 -293 -64.5c-114.667 0 -212.5 21.5 -293.5 64.5
s-121.5 94.833 -121.5 155.5s40.5 112.667 121.5 156s178.833 65 293.5 65c114 0 211.667 -21.667 293 -65s122 -95.333 122 -156zM1571 1858c0 42.667 -12.167 79 -36.5 109s-53.166 45 -86.499 45c-34 0 -63 -15 -87 -45s-36 -66.333 -36 -109s12 -79.167 36 -109.5
s53 -45.5 87 -45.5c33.333 0 62.166 15.167 86.499 45.5s36.5 66.833 36.5 109.5z" />
    <glyph glyph-name="AE" unicode="&#xc6;" horiz-adv-x="3117" 
d="M1809 0c-71.333 0 -178.668 -2.83301 -322.001 -8.5s-250.666 -8.5 -321.999 -8.5c-70 0 -105 16.667 -105 50c0 28 22 47.333 66 58l123 24c44 12.667 66 36.334 66 71.001c0 94.667 -91.667 142 -275 142c-58.667 0 -147.667 -0.666992 -267 -2
c-63.333 -0.666992 -95 -40 -95 -118c0 -18.667 2.83301 -47 8.5 -85s8.5 -66.333 8.5 -85c0 -32 -27.333 -48 -82 -48c-32.667 0 -105.334 32.667 -218.001 98c-116 67.333 -174 113.666 -174 138.999c0 43.333 19.333 65 58 65c33.333 0 67.5 -13.333 102.5 -40
s54.5 -40 58.5 -40c42.667 0 83.334 46.667 122.001 140c82.667 202 193 406.333 331 613c142.667 215.333 289.667 395 441 539h-34l35 1c43.333 41.333 73.333 62 90 62c20 0 50.667 -21 92 -63h15c124.667 0 240.667 4 348 12c82.667 6 152 12.333 208 19
c51.333 6 129 9 233 9c66.667 0 100 -49.667 100 -149c0 -102 -11.667 -201 -35 -297c-10.667 -43.333 -30.334 -65 -59 -65c-30 0 -48.667 14.667 -56 44l-16 79c-30.667 73.333 -94.334 120.666 -191 141.999c-44.667 9.33301 -128.667 14 -252 14
c-38.667 0 -84.334 -0.666992 -137.001 -2c116.667 -160.667 207.334 -308 272.001 -442c14.667 -2 34.667 -3 60 -3c43.333 0 105.333 5 186 15s139.667 15 177 15c30 0 45 -24 45 -72c0 -62.667 -6 -131.667 -18 -207c-18 -111.333 -43.667 -167 -77 -167
c-22 0 -35.333 8.33301 -40 25c-2 6 -3 22.667 -3 50c0 54.667 -33 105.334 -99 152.001c-60 42 -116.333 63 -169 63h-4l70 -195l68 -224c36.667 -110.667 70.334 -173 101 -187c29.333 4 66.333 23.333 111 58l102 82c75.333 52.667 141.333 119.334 198 200.001l30 72
c12.667 30 29.334 45 50 45c15.333 0 28.5 -8 39.5 -24s16.5 -32 16.5 -48c0 -148.667 -25.333 -312.334 -76 -491.001c-8.66699 -31.333 -60.334 -47 -155 -47h-170c-64.667 0 -161.5 3.33301 -290.5 10s-225.833 10 -290.5 10zM978.998 789
c-25.333 0 -64.332 -44.332 -116.999 -132.999c-51.333 -86 -77 -144 -77 -174c0 -16 12.333 -25.667 37 -29h56c32 0 79.667 -0.5 143 -1.5s111 -1.5 143 -1.5c32.667 0 49 4 49 12c0 29.333 -32.333 91.166 -97 185.499s-110.334 141.5 -137.001 141.5z" />
    <glyph glyph-name="Ccedilla" unicode="&#xc7;" horiz-adv-x="2020" 
d="M1740 473c0 -54 -13.6641 -111.334 -40.9971 -172.001c-102 -227.333 -299.333 -342.666 -592 -345.999c-563.333 -6.66699 -845 274.333 -845 843c0 234.667 88.333 418.667 265 552c160 120.667 361 181 603 181c80 0 175.333 -14 286 -42
c89.333 -22.667 137.333 -34 144 -34c35.333 0 58.333 19.333 69 58s30.667 58 60 58c40.667 0 61 -44.333 61 -133c0 -65.333 -13.667 -168 -41 -308c-32.667 -166 -65.334 -249 -98.001 -249c-35.333 0 -53 13.667 -53 41c0 6.66699 1.83301 16.667 5.5 30
s5.5 23.333 5.5 30c0 82 -23.333 163 -70 243c-54 92 -118.667 138 -194 138c-50 0 -89 -55.667 -117 -167c-20.667 -81.333 -31 -158.333 -31 -231c0 -534 56.667 -801 170 -801c65.333 0 123.666 33 174.999 99c23.333 29.333 58.333 90.333 105 183
c33.333 66 60.666 99 81.999 99c34 0 51 -24 51 -72zM1262 -420.001c0 -62.667 -23 -125.999 -69 -189.999c-49.333 -70 -104 -105 -164 -105c-42.667 0 -64 24 -64 72c0 17.333 16.667 35.666 50 54.999s50 48.666 50 87.999c0 20 -8.33301 30 -25 30
c-8 0 -17.5 -0.833008 -28.5 -2.5s-20.5 -2.5 -28.5 -2.5c-39.333 0 -72 16.667 -98 50c-24 30.667 -36 66.334 -36 107.001c0 51.333 20.667 96 62 134c39.333 36 82.333 54 129 54c148 0 222 -96.667 222 -290z" />
    <glyph glyph-name="Egrave" unicode="&#xc8;" horiz-adv-x="2423" 
d="M2159 531c0 -79.333 -7.66406 -161.664 -22.9971 -246.997l-52 -244c-7.33301 -36.667 -63 -55 -167 -55c-56.667 0 -165.834 2 -327.501 6s-270.834 6 -327.501 6c-338.667 0 -613 -5 -823 -15l-224 -10c-15.333 0 -29.666 7.33301 -42.999 22
c-12 12.667 -17.667 25 -17 37c0.666992 27.333 15 45.333 43 54c13.333 4.66699 39.333 7.66699 78 9c26.667 0 71.667 1 135 3c97.333 3.33301 144.333 51.666 141 144.999c-1.33301 30.667 -6.66602 116 -15.999 256c-8 111.333 -12 215.666 -12 312.999
c0 1.33301 2.5 70.666 7.5 207.999s7.5 215.333 7.5 234c0 50 -26.667 89.667 -80 119c-18 10 -84.667 21.333 -200 34c-93.333 11.333 -140 31.666 -140 60.999c0 38 18.333 57 55 57c-15.333 0 64.667 -3.33301 240 -10c178 -6.66699 366.333 -10 565 -10
c278.667 0 488.167 3.5 628.5 10.5s266.166 10.5 377.499 10.5c47.333 0 77 -30.667 89 -92c3.33301 -18 5 -66 5 -144c0 -59.333 -11 -137.333 -33 -234c-9.33301 -40.667 -29.333 -62.667 -60 -66c-14 -1.33301 -27.167 3.5 -39.5 14.5s-18.833 26.167 -19.5 45.5
c-0.666992 25.333 -4.66699 46.333 -12 63c-38 87.333 -111 152.333 -219 195c-84 34 -176.333 51 -277 51c-12 0 -22.667 -5.16699 -32 -15.5s-14 -20.5 -14 -30.5c0 -39.333 1 -83 3 -131c4 -96 6 -168 6 -216c0 -42.667 23 -64 69 -64c5.33301 0 29.833 2.66699 73.5 8
s68.167 8 73.5 8c64.667 0 123 -8.66699 175 -26c38.667 -12.667 58.667 -56.667 60 -132c1.33301 -48 -12.334 -131 -41.001 -249c-12 -50.667 -31 -76 -57 -76c-27.333 0 -41.666 11.667 -42.999 35c-0.666992 6.66699 -0.333984 17.334 0.999023 32.001
c0.666992 17.333 1 29.333 1 36c0 48.667 -24.333 100.334 -73 155.001c-55.333 62 -119 93 -191 93c-10 0 -23 -9 -39 -27c-0.666992 -76.667 -5.83398 -193.834 -15.501 -351.501s-14.5 -233.5 -14.5 -227.5c0 -32 14.333 -48 43 -48c103.333 0 233.333 53 390 159
c106 72 182.333 137 229 195c13.333 16.667 23.833 40.334 31.5 71.001s24.167 46 49.5 46c18 0 32.333 -10 43 -30c8 -14.667 12 -28.334 12 -41.001zM1381 1661c0 33.333 -20.334 110.334 -61.001 231.001c-44 130 -77.333 195 -100 195c-161.333 0 -242 -17.667 -242 -53
c0 -46.667 47.333 -122.834 142 -228.501s163.334 -158.5 206.001 -158.5c4 0 9.5 -0.5 16.5 -1.5s12.5 -1.5 16.5 -1.5c14.667 0 22 5.66699 22 17z" />
    <glyph glyph-name="Eacute" unicode="&#xc9;" horiz-adv-x="2423" 
d="M2159 531c0 -79.333 -7.66406 -161.664 -22.9971 -246.997l-52 -244c-7.33301 -36.667 -63 -55 -167 -55c-56.667 0 -165.834 2 -327.501 6s-270.834 6 -327.501 6c-338.667 0 -613 -5 -823 -15l-224 -10c-15.333 0 -29.666 7.33301 -42.999 22
c-12 12.667 -17.667 25 -17 37c0.666992 27.333 15 45.333 43 54c13.333 4.66699 39.333 7.66699 78 9c26.667 0 71.667 1 135 3c97.333 3.33301 144.333 51.666 141 144.999c-1.33301 30.667 -6.66602 116 -15.999 256c-8 111.333 -12 215.666 -12 312.999
c0 1.33301 2.5 70.666 7.5 207.999s7.5 215.333 7.5 234c0 50 -26.667 89.667 -80 119c-18 10 -84.667 21.333 -200 34c-93.333 11.333 -140 31.666 -140 60.999c0 38 18.333 57 55 57c-15.333 0 64.667 -3.33301 240 -10c178 -6.66699 366.333 -10 565 -10
c278.667 0 488.167 3.5 628.5 10.5s266.166 10.5 377.499 10.5c47.333 0 77 -30.667 89 -92c3.33301 -18 5 -66 5 -144c0 -59.333 -11 -137.333 -33 -234c-9.33301 -40.667 -29.333 -62.667 -60 -66c-14 -1.33301 -27.167 3.5 -39.5 14.5s-18.833 26.167 -19.5 45.5
c-0.666992 25.333 -4.66699 46.333 -12 63c-38 87.333 -111 152.333 -219 195c-84 34 -176.333 51 -277 51c-12 0 -22.667 -5.16699 -32 -15.5s-14 -20.5 -14 -30.5c0 -39.333 1 -83 3 -131c4 -96 6 -168 6 -216c0 -42.667 23 -64 69 -64c5.33301 0 29.833 2.66699 73.5 8
s68.167 8 73.5 8c64.667 0 123 -8.66699 175 -26c38.667 -12.667 58.667 -56.667 60 -132c1.33301 -48 -12.334 -131 -41.001 -249c-12 -50.667 -31 -76 -57 -76c-27.333 0 -41.666 11.667 -42.999 35c-0.666992 6.66699 -0.333984 17.334 0.999023 32.001
c0.666992 17.333 1 29.333 1 36c0 48.667 -24.333 100.334 -73 155.001c-55.333 62 -119 93 -191 93c-10 0 -23 -9 -39 -27c-0.666992 -76.667 -5.83398 -193.834 -15.501 -351.501s-14.5 -233.5 -14.5 -227.5c0 -32 14.333 -48 43 -48c103.333 0 233.333 53 390 159
c106 72 182.333 137 229 195c13.333 16.667 23.833 40.334 31.5 71.001s24.167 46 49.5 46c18 0 32.333 -10 43 -30c8 -14.667 12 -28.334 12 -41.001zM1087 1657c0 29.333 31.334 107 94.001 233c65.333 131.333 109.666 197 132.999 197c161.333 0 242 -17.667 242 -53
c0 -45.333 -58 -122 -174 -230s-196 -162 -240 -162c-4 0 -9.5 -0.333008 -16.5 -1s-12.5 -1 -16.5 -1c-14.667 0 -22 5.66699 -22 17z" />
    <glyph glyph-name="Ecircumflex" unicode="&#xca;" horiz-adv-x="2423" 
d="M2159 531c0 -79.333 -7.66406 -161.664 -22.9971 -246.997l-52 -244c-7.33301 -36.667 -63 -55 -167 -55c-56.667 0 -165.834 2 -327.501 6s-270.834 6 -327.501 6c-338.667 0 -613 -5 -823 -15l-224 -10c-15.333 0 -29.666 7.33301 -42.999 22
c-12 12.667 -17.667 25 -17 37c0.666992 27.333 15 45.333 43 54c13.333 4.66699 39.333 7.66699 78 9c26.667 0 71.667 1 135 3c97.333 3.33301 144.333 51.666 141 144.999c-1.33301 30.667 -6.66602 116 -15.999 256c-8 111.333 -12 215.666 -12 312.999
c0 1.33301 2.5 70.666 7.5 207.999s7.5 215.333 7.5 234c0 50 -26.667 89.667 -80 119c-18 10 -84.667 21.333 -200 34c-93.333 11.333 -140 31.666 -140 60.999c0 38 18.333 57 55 57c-15.333 0 64.667 -3.33301 240 -10c178 -6.66699 366.333 -10 565 -10
c278.667 0 488.167 3.5 628.5 10.5s266.166 10.5 377.499 10.5c47.333 0 77 -30.667 89 -92c3.33301 -18 5 -66 5 -144c0 -59.333 -11 -137.333 -33 -234c-9.33301 -40.667 -29.333 -62.667 -60 -66c-14 -1.33301 -27.167 3.5 -39.5 14.5s-18.833 26.167 -19.5 45.5
c-0.666992 25.333 -4.66699 46.333 -12 63c-38 87.333 -111 152.333 -219 195c-84 34 -176.333 51 -277 51c-12 0 -22.667 -5.16699 -32 -15.5s-14 -20.5 -14 -30.5c0 -39.333 1 -83 3 -131c4 -96 6 -168 6 -216c0 -42.667 23 -64 69 -64c5.33301 0 29.833 2.66699 73.5 8
s68.167 8 73.5 8c64.667 0 123 -8.66699 175 -26c38.667 -12.667 58.667 -56.667 60 -132c1.33301 -48 -12.334 -131 -41.001 -249c-12 -50.667 -31 -76 -57 -76c-27.333 0 -41.666 11.667 -42.999 35c-0.666992 6.66699 -0.333984 17.334 0.999023 32.001
c0.666992 17.333 1 29.333 1 36c0 48.667 -24.333 100.334 -73 155.001c-55.333 62 -119 93 -191 93c-10 0 -23 -9 -39 -27c-0.666992 -76.667 -5.83398 -193.834 -15.501 -351.501s-14.5 -233.5 -14.5 -227.5c0 -32 14.333 -48 43 -48c103.333 0 233.333 53 390 159
c106 72 182.333 137 229 195c13.333 16.667 23.833 40.334 31.5 71.001s24.167 46 49.5 46c18 0 32.333 -10 43 -30c8 -14.667 12 -28.334 12 -41.001zM1303 2085c26 0 71.332 -21 135.999 -63l132 -91c25.333 -16 59 -48 101 -96c47.333 -52.667 71 -90.334 71 -113.001
c0 -11.333 -25.667 -28 -77 -50c-60 -25.333 -91.667 -39.333 -95 -42c-46 28 -98.667 74.333 -158 139c-38.667 42 -83 81 -133 117c-29.333 -19.333 -74.333 -56.666 -135 -111.999l-72 -90c-26.667 -33.333 -47.667 -50 -63 -50c-16 0 -38 8.33301 -66 25
c-30 18 -45 34.333 -45 49c0 22 21 55.333 63 100l91 90c68.667 75.333 105.334 115 110.001 119c50 45.333 96.667 68 140 68z" />
    <glyph glyph-name="Edieresis" unicode="&#xcb;" horiz-adv-x="2423" 
d="M2159 531c0 -79.333 -7.66406 -161.664 -22.9971 -246.997l-52 -244c-7.33301 -36.667 -63 -55 -167 -55c-56.667 0 -165.834 2 -327.501 6s-270.834 6 -327.501 6c-338.667 0 -613 -5 -823 -15l-224 -10c-15.333 0 -29.666 7.33301 -42.999 22
c-12 12.667 -17.667 25 -17 37c0.666992 27.333 15 45.333 43 54c13.333 4.66699 39.333 7.66699 78 9c26.667 0 71.667 1 135 3c97.333 3.33301 144.333 51.666 141 144.999c-1.33301 30.667 -6.66602 116 -15.999 256c-8 111.333 -12 215.666 -12 312.999
c0 1.33301 2.5 70.666 7.5 207.999s7.5 215.333 7.5 234c0 50 -26.667 89.667 -80 119c-18 10 -84.667 21.333 -200 34c-93.333 11.333 -140 31.666 -140 60.999c0 38 18.333 57 55 57c-15.333 0 64.667 -3.33301 240 -10c178 -6.66699 366.333 -10 565 -10
c278.667 0 488.167 3.5 628.5 10.5s266.166 10.5 377.499 10.5c47.333 0 77 -30.667 89 -92c3.33301 -18 5 -66 5 -144c0 -59.333 -11 -137.333 -33 -234c-9.33301 -40.667 -29.333 -62.667 -60 -66c-14 -1.33301 -27.167 3.5 -39.5 14.5s-18.833 26.167 -19.5 45.5
c-0.666992 25.333 -4.66699 46.333 -12 63c-38 87.333 -111 152.333 -219 195c-84 34 -176.333 51 -277 51c-12 0 -22.667 -5.16699 -32 -15.5s-14 -20.5 -14 -30.5c0 -39.333 1 -83 3 -131c4 -96 6 -168 6 -216c0 -42.667 23 -64 69 -64c5.33301 0 29.833 2.66699 73.5 8
s68.167 8 73.5 8c64.667 0 123 -8.66699 175 -26c38.667 -12.667 58.667 -56.667 60 -132c1.33301 -48 -12.334 -131 -41.001 -249c-12 -50.667 -31 -76 -57 -76c-27.333 0 -41.666 11.667 -42.999 35c-0.666992 6.66699 -0.333984 17.334 0.999023 32.001
c0.666992 17.333 1 29.333 1 36c0 48.667 -24.333 100.334 -73 155.001c-55.333 62 -119 93 -191 93c-10 0 -23 -9 -39 -27c-0.666992 -76.667 -5.83398 -193.834 -15.501 -351.501s-14.5 -233.5 -14.5 -227.5c0 -32 14.333 -48 43 -48c103.333 0 233.333 53 390 159
c106 72 182.333 137 229 195c13.333 16.667 23.833 40.334 31.5 71.001s24.167 46 49.5 46c18 0 32.333 -10 43 -30c8 -14.667 12 -28.334 12 -41.001zM612.003 1808c0 47.333 16.833 87.833 50.5 121.5s74.5 50.5 122.5 50.5s88.833 -16.833 122.5 -50.5
s50.5 -74.167 50.5 -121.5s-16.833 -87.833 -50.5 -121.5s-74.5 -50.5 -122.5 -50.5s-88.833 16.833 -122.5 50.5s-50.5 74.167 -50.5 121.5zM1492 1808c0 47.333 16.833 87.833 50.5 121.5s74.5 50.5 122.5 50.5s89 -16.833 123 -50.5s51 -74.167 51 -121.5
s-17 -87.833 -51 -121.5s-75 -50.5 -123 -50.5s-88.833 16.833 -122.5 50.5s-50.5 74.167 -50.5 121.5z" />
    <glyph glyph-name="Igrave" unicode="&#xcc;" horiz-adv-x="2071" 
d="M1851 43c-1.33301 -40 -27.668 -59.6699 -79.001 -59.0029l-662 16c-98 2 -232.333 0.333008 -403 -5c-206.667 -6.66699 -340.667 -10.334 -402 -11.001c-12 0 -23.333 2.33301 -34 7c-16.667 8 -25 20.667 -25 38c0.666992 26 12.334 43.333 35.001 52
c7.33301 2.66699 34.333 7.33398 81 14.001c34.667 2 85.667 6.66699 153 14c88 12.667 132.333 42.334 133 89.001c1.33301 69.333 -1.33398 167.333 -8.00098 294c-7.33301 136.667 -11 236.334 -11 299.001c0 66.667 4.66699 220.667 14 462
c2 56.667 -10.333 96.334 -37 119.001c-24 20.667 -65 31.667 -123 33c-37.333 1.33301 -81 2.66602 -131 3.99902c-40.667 0.666992 -67.5 6.33398 -80.5 17.001s-18.833 29.667 -17.5 57c1.33301 28.667 32 42.334 92 41.001l357 -10c230 -6 348.667 -9 356 -9
c342.667 12 568 17 676 15c55.333 -0.666992 82.666 -16.334 81.999 -47.001c-0.666992 -28 -18 -46 -52 -54c-6.66699 -2 -44 -6 -112 -12c-74 -6.66699 -123.667 -16.334 -149 -29.001c-29.333 -15.333 -44.333 -41.666 -45 -78.999c0 -8 4.33301 -66.667 13 -176
c9.33301 -112.667 14 -209 14 -289c0 -69.333 -3.66699 -166 -11 -290c-7.33301 -136 -11.666 -233 -12.999 -291c-0.666992 -48 6.83301 -80.667 22.5 -98s46.167 -26.333 91.5 -27c6 0 31 -3.66699 75 -11s69 -11 75 -11c84.667 -1.33301 126.334 -22.333 125.001 -63z
M1204 1661c0 33.333 -20.334 110.334 -61.001 231.001c-44 130 -77.333 195 -100 195c-161.333 0 -242 -17.667 -242 -53c0 -46.667 47.333 -122.834 142 -228.501s163.334 -158.5 206.001 -158.5c4 0 9.5 -0.5 16.5 -1.5s12.5 -1.5 16.5 -1.5c14.667 0 22 5.66699 22 17z
" />
    <glyph glyph-name="Iacute" unicode="&#xcd;" horiz-adv-x="2071" 
d="M1851 43c-1.33301 -40 -27.668 -59.6699 -79.001 -59.0029l-662 16c-98 2 -232.333 0.333008 -403 -5c-206.667 -6.66699 -340.667 -10.334 -402 -11.001c-12 0 -23.333 2.33301 -34 7c-16.667 8 -25 20.667 -25 38c0.666992 26 12.334 43.333 35.001 52
c7.33301 2.66699 34.333 7.33398 81 14.001c34.667 2 85.667 6.66699 153 14c88 12.667 132.333 42.334 133 89.001c1.33301 69.333 -1.33398 167.333 -8.00098 294c-7.33301 136.667 -11 236.334 -11 299.001c0 66.667 4.66699 220.667 14 462
c2 56.667 -10.333 96.334 -37 119.001c-24 20.667 -65 31.667 -123 33c-37.333 1.33301 -81 2.66602 -131 3.99902c-40.667 0.666992 -67.5 6.33398 -80.5 17.001s-18.833 29.667 -17.5 57c1.33301 28.667 32 42.334 92 41.001l357 -10c230 -6 348.667 -9 356 -9
c342.667 12 568 17 676 15c55.333 -0.666992 82.666 -16.334 81.999 -47.001c-0.666992 -28 -18 -46 -52 -54c-6.66699 -2 -44 -6 -112 -12c-74 -6.66699 -123.667 -16.334 -149 -29.001c-29.333 -15.333 -44.333 -41.666 -45 -78.999c0 -8 4.33301 -66.667 13 -176
c9.33301 -112.667 14 -209 14 -289c0 -69.333 -3.66699 -166 -11 -290c-7.33301 -136 -11.666 -233 -12.999 -291c-0.666992 -48 6.83301 -80.667 22.5 -98s46.167 -26.333 91.5 -27c6 0 31 -3.66699 75 -11s69 -11 75 -11c84.667 -1.33301 126.334 -22.333 125.001 -63z
M898.998 1657c0 29.333 31.334 107 94.001 233c65.333 131.333 109.666 197 132.999 197c161.333 0 242 -17.667 242 -53c0 -45.333 -58 -122 -174 -230s-196 -162 -240 -162c-4 0 -9.5 -0.333008 -16.5 -1s-12.5 -1 -16.5 -1c-14.667 0 -22 5.66699 -22 17z" />
    <glyph glyph-name="Icircumflex" unicode="&#xce;" horiz-adv-x="2071" 
d="M1851 43c-1.33301 -40 -27.668 -59.6699 -79.001 -59.0029l-662 16c-98 2 -232.333 0.333008 -403 -5c-206.667 -6.66699 -340.667 -10.334 -402 -11.001c-12 0 -23.333 2.33301 -34 7c-16.667 8 -25 20.667 -25 38c0.666992 26 12.334 43.333 35.001 52
c7.33301 2.66699 34.333 7.33398 81 14.001c34.667 2 85.667 6.66699 153 14c88 12.667 132.333 42.334 133 89.001c1.33301 69.333 -1.33398 167.333 -8.00098 294c-7.33301 136.667 -11 236.334 -11 299.001c0 66.667 4.66699 220.667 14 462
c2 56.667 -10.333 96.334 -37 119.001c-24 20.667 -65 31.667 -123 33c-37.333 1.33301 -81 2.66602 -131 3.99902c-40.667 0.666992 -67.5 6.33398 -80.5 17.001s-18.833 29.667 -17.5 57c1.33301 28.667 32 42.334 92 41.001l357 -10c230 -6 348.667 -9 356 -9
c342.667 12 568 17 676 15c55.333 -0.666992 82.666 -16.334 81.999 -47.001c-0.666992 -28 -18 -46 -52 -54c-6.66699 -2 -44 -6 -112 -12c-74 -6.66699 -123.667 -16.334 -149 -29.001c-29.333 -15.333 -44.333 -41.666 -45 -78.999c0 -8 4.33301 -66.667 13 -176
c9.33301 -112.667 14 -209 14 -289c0 -69.333 -3.66699 -166 -11 -290c-7.33301 -136 -11.666 -233 -12.999 -291c-0.666992 -48 6.83301 -80.667 22.5 -98s46.167 -26.333 91.5 -27c6 0 31 -3.66699 75 -11s69 -11 75 -11c84.667 -1.33301 126.334 -22.333 125.001 -63z
M1069 2085c26 0 71.332 -21 135.999 -63l132 -91c25.333 -16 59 -48 101 -96c47.333 -52.667 71 -90.334 71 -113.001c0 -11.333 -25.667 -28 -77 -50c-60 -25.333 -91.667 -39.333 -95 -42c-46 28 -98.667 74.333 -158 139c-38.667 42 -83 81 -133 117
c-29.333 -19.333 -74.333 -56.666 -135 -111.999l-72 -90c-26.667 -33.333 -47.667 -50 -63 -50c-16 0 -38 8.33301 -66 25c-30 18 -45 34.333 -45 49c0 22 21 55.333 63 100l91 90c68.667 75.333 105.334 115 110.001 119c50 45.333 96.667 68 140 68z" />
    <glyph glyph-name="Idieresis" unicode="&#xcf;" horiz-adv-x="2071" 
d="M1851 43c-1.33301 -40 -27.668 -59.6699 -79.001 -59.0029l-662 16c-98 2 -232.333 0.333008 -403 -5c-206.667 -6.66699 -340.667 -10.334 -402 -11.001c-12 0 -23.333 2.33301 -34 7c-16.667 8 -25 20.667 -25 38c0.666992 26 12.334 43.333 35.001 52
c7.33301 2.66699 34.333 7.33398 81 14.001c34.667 2 85.667 6.66699 153 14c88 12.667 132.333 42.334 133 89.001c1.33301 69.333 -1.33398 167.333 -8.00098 294c-7.33301 136.667 -11 236.334 -11 299.001c0 66.667 4.66699 220.667 14 462
c2 56.667 -10.333 96.334 -37 119.001c-24 20.667 -65 31.667 -123 33c-37.333 1.33301 -81 2.66602 -131 3.99902c-40.667 0.666992 -67.5 6.33398 -80.5 17.001s-18.833 29.667 -17.5 57c1.33301 28.667 32 42.334 92 41.001l357 -10c230 -6 348.667 -9 356 -9
c342.667 12 568 17 676 15c55.333 -0.666992 82.666 -16.334 81.999 -47.001c-0.666992 -28 -18 -46 -52 -54c-6.66699 -2 -44 -6 -112 -12c-74 -6.66699 -123.667 -16.334 -149 -29.001c-29.333 -15.333 -44.333 -41.666 -45 -78.999c0 -8 4.33301 -66.667 13 -176
c9.33301 -112.667 14 -209 14 -289c0 -69.333 -3.66699 -166 -11 -290c-7.33301 -136 -11.666 -233 -12.999 -291c-0.666992 -48 6.83301 -80.667 22.5 -98s46.167 -26.333 91.5 -27c6 0 31 -3.66699 75 -11s69 -11 75 -11c84.667 -1.33301 126.334 -22.333 125.001 -63z
M438.998 1808c0 47.333 16.833 87.833 50.5 121.5s74.5 50.5 122.5 50.5s88.833 -16.833 122.5 -50.5s50.5 -74.167 50.5 -121.5s-16.833 -87.833 -50.5 -121.5s-74.5 -50.5 -122.5 -50.5s-88.833 16.833 -122.5 50.5s-50.5 74.167 -50.5 121.5zM1319 1808
c0 47.333 16.833 87.833 50.5 121.5s74.5 50.5 122.5 50.5s89 -16.833 123 -50.5s51 -74.167 51 -121.5s-17 -87.833 -51 -121.5s-75 -50.5 -123 -50.5s-88.833 16.833 -122.5 50.5s-50.5 74.167 -50.5 121.5z" />
    <glyph glyph-name="Eth" unicode="&#xd0;" horiz-adv-x="2343" 
d="M1417 852h115.001c34.667 0 49.667 -30 45 -90c-2.66699 -33.333 -5.33398 -53 -8.00098 -59c-5.33301 -14.667 -19 -23 -41 -25c-30 -2 -67.667 -3 -113 -3c-4.66699 -174.667 -6.33398 -301.334 -5.00098 -380.001c2 -95.333 21 -143.333 57 -144
c94.667 -1.33301 174.667 67.334 240 206.001c57.333 122 86 252.333 86 391c0 152.667 -25 285 -75 397c-61.333 139.333 -150 210 -266 212c-32 0.666992 -48.667 -40.333 -50 -123c-1.33301 -75.333 0.333984 -146.333 5.00098 -213c6 -88 9.33301 -144.333 10 -169z
M377.001 762c0 32.667 1.6709 53.002 5.00391 61.002c6.66699 16.667 24 25 52 25c21.333 0 72 0.333008 152 1c0 9.33301 0.333008 22.666 1 39.999c10 164 13 286 9 366c-2.66699 50.667 -23.334 77.334 -62.001 80.001c-37.333 2 -79.333 0.666992 -126 -4
c-52 -5.33301 -85 -8 -99 -8c-10 0 -22 4.33301 -36 13s-21 18 -21 28c0.666992 38.667 24 66.667 70 84c35.333 13.333 96.666 26.333 183.999 39c68.667 9.33301 113.667 14.333 135 15l512 13c256 6.66699 464.333 -39 625 -137
c214 -129.333 318.333 -339.666 313 -630.999c-4 -246.667 -96.667 -439.334 -278 -578.001c-162.667 -124 -359.667 -182.333 -591 -175c-346.667 11.333 -615.667 12.666 -807 3.99902c-36 -1.33301 -70 2 -102 10c-44.667 11.333 -66.334 30.333 -65.001 57
c1.33301 20.667 12.666 37.667 33.999 51c16.667 10.667 31 16 43 16c6 0 41 -2.33301 105 -7s99 -7 105 -7c14 0 29.333 4.33301 46 13c20.667 11.333 31 24.666 31 39.999c0 12.667 -3 76.667 -9 192c-7.33301 136 -12.333 241.333 -15 316l-131 -1
c-53.333 0 -80 28 -80 84z" />
    <glyph glyph-name="Ntilde" unicode="&#xd1;" horiz-adv-x="2385" 
d="M2213 1476c0 -40.667 -27.6709 -67.002 -83.0039 -79.002l-154 -21c-55.333 -10.667 -83 -34 -83 -70c0 -24.667 2 -60.167 6 -106.5s6 -81.833 6 -106.5c0 -148 -10.333 -494.333 -31 -1039c-1.33301 -26.667 -10.666 -52.334 -27.999 -77.001
c-18.667 -27.333 -40.667 -41 -66 -41c-49.333 0 -223.833 119.833 -523.5 359.5s-454.167 359.5 -463.5 359.5c-16.667 0 -25 -15.333 -25 -46c0 -83.333 18 -166.666 54 -249.999c40.667 -94 93.334 -159 158.001 -195c1.33301 -0.666992 48.333 -14.667 141 -42
c65.333 -19.333 98 -42.666 98 -69.999c0 -15.333 -8.16699 -29.166 -24.5 -41.499s-32.166 -18.5 -47.499 -18.5c-44.667 0 -111.334 1 -200.001 3s-155.334 3 -200.001 3c-42 0 -105.167 -2.16699 -189.5 -6.5s-147.5 -6.5 -189.5 -6.5c-53.333 0 -80 15 -80 45
c0 38 35.667 64.333 107 79c98 19.333 148.667 30 152 32c25.333 14.667 42.333 50 51 106c19.333 129.333 29 286.333 29 471c0 205.333 -14.333 388 -43 548c-3.33301 18 -16.833 38.167 -40.5 60.5s-44.5 34.166 -62.5 35.499c10.667 -0.666992 -44.333 -1 -165 -1
c-19.333 0 -39.666 4.33301 -60.999 13c-26.667 10.667 -40 24 -40 40c0 62 47.333 93 142 93c70.667 0 176.5 0.5 317.5 1.5s246.833 1.5 317.5 1.5c15.333 0 29.333 -1.33301 42 -4c42.667 -9.33301 161.334 -94.333 356.001 -255c191.333 -158.667 290 -238 296 -238
c17.333 0 26 15.333 26 46c0 50 -20 104.333 -60 163c-36 53.333 -77.333 95.333 -124 126c-20.667 13.333 -49.667 23.666 -87 30.999c-43.333 8 -72.666 15.333 -87.999 22c-26 11.333 -39 30.333 -39 57c0 32 24.667 47.667 74 47c152.667 -1.33301 239 -2 259 -2
c66 0 152 4.33301 258 13l259 22c13.333 0.666992 24.833 -6.16602 34.5 -20.499s14.5 -28.166 14.5 -41.499zM1432 1804c-38 0 -99.4971 27.5 -184.497 82.5s-168.833 82.5 -251.5 82.5c-68.667 0 -132.334 -26.667 -191.001 -80c-60 -55.333 -90 -117 -90 -185
c0 -30 17 -45 51 -45c29.333 0 48.666 22.833 57.999 68.5s36.666 68.5 81.999 68.5c24 0 90 -25.667 198 -77s203.333 -77 286 -77c79.333 0 149.5 28 210.5 84s91.5 123 91.5 201c0 29.333 -16 44 -48 44c-33.333 0 -52 -9.66699 -56 -29c0 -6 -2 -20.333 -6 -43
c-16.667 -63.333 -66.667 -95 -150 -95z" />
    <glyph glyph-name="Ograve" unicode="&#xd2;" horiz-adv-x="2534" 
d="M2253 738c0 -288 -119.999 -498.667 -359.999 -632c-188.667 -105.333 -439.334 -158 -752.001 -158c-268 0 -488.333 69.333 -661 208c-187.333 150.667 -281 356.667 -281 618c0 265.333 108 464.333 324 597c179.333 110 410 165 692 165
c292 0 529.333 -58.333 712 -175c217.333 -139.333 326 -347 326 -623zM1248 1383c-64.667 0 -114.333 -82.001 -149 -246.001c-24 -113.333 -36 -222.666 -36 -327.999c0 -141.333 10.333 -278.333 31 -411c32 -205.333 81.333 -308 148 -308c128 0 192 206.333 192 619
c0 449.333 -62 674 -186 674zM1344 1661c0 33.333 -20.334 110.334 -61.001 231.001c-44 130 -77.333 195 -100 195c-161.333 0 -242 -17.667 -242 -53c0 -46.667 47.333 -122.834 142 -228.501s163.334 -158.5 206.001 -158.5c4 0 9.5 -0.5 16.5 -1.5s12.5 -1.5 16.5 -1.5
c14.667 0 22 5.66699 22 17z" />
    <glyph glyph-name="Oacute" unicode="&#xd3;" horiz-adv-x="2534" 
d="M2253 738c0 -288 -119.999 -498.667 -359.999 -632c-188.667 -105.333 -439.334 -158 -752.001 -158c-268 0 -488.333 69.333 -661 208c-187.333 150.667 -281 356.667 -281 618c0 265.333 108 464.333 324 597c179.333 110 410 165 692 165
c292 0 529.333 -58.333 712 -175c217.333 -139.333 326 -347 326 -623zM1248 1383c-64.667 0 -114.333 -82.001 -149 -246.001c-24 -113.333 -36 -222.666 -36 -327.999c0 -141.333 10.333 -278.333 31 -411c32 -205.333 81.333 -308 148 -308c128 0 192 206.333 192 619
c0 449.333 -62 674 -186 674zM1079 1657c0 29.333 31.334 107 94.001 233c65.333 131.333 109.666 197 132.999 197c161.333 0 242 -17.667 242 -53c0 -45.333 -58 -122 -174 -230s-196 -162 -240 -162c-4 0 -9.5 -0.333008 -16.5 -1s-12.5 -1 -16.5 -1
c-14.667 0 -22 5.66699 -22 17z" />
    <glyph glyph-name="Ocircumflex" unicode="&#xd4;" horiz-adv-x="2534" 
d="M2253 738c0 -288 -119.999 -498.667 -359.999 -632c-188.667 -105.333 -439.334 -158 -752.001 -158c-268 0 -488.333 69.333 -661 208c-187.333 150.667 -281 356.667 -281 618c0 265.333 108 464.333 324 597c179.333 110 410 165 692 165
c292 0 529.333 -58.333 712 -175c217.333 -139.333 326 -347 326 -623zM1248 1383c-64.667 0 -114.333 -82.001 -149 -246.001c-24 -113.333 -36 -222.666 -36 -327.999c0 -141.333 10.333 -278.333 31 -411c32 -205.333 81.333 -308 148 -308c128 0 192 206.333 192 619
c0 449.333 -62 674 -186 674zM1236 2085c26 0 71.332 -21 135.999 -63l132 -91c25.333 -16 59 -48 101 -96c47.333 -52.667 71 -90.334 71 -113.001c0 -11.333 -25.667 -28 -77 -50c-60 -25.333 -91.667 -39.333 -95 -42c-46 28 -98.667 74.333 -158 139
c-38.667 42 -83 81 -133 117c-29.333 -19.333 -74.333 -56.666 -135 -111.999l-72 -90c-26.667 -33.333 -47.667 -50 -63 -50c-16 0 -38 8.33301 -66 25c-30 18 -45 34.333 -45 49c0 22 21 55.333 63 100l91 90c68.667 75.333 105.334 115 110.001 119
c50 45.333 96.667 68 140 68z" />
    <glyph glyph-name="Otilde" unicode="&#xd5;" horiz-adv-x="2534" 
d="M2253 738c0 -288 -119.999 -498.667 -359.999 -632c-188.667 -105.333 -439.334 -158 -752.001 -158c-268 0 -488.333 69.333 -661 208c-187.333 150.667 -281 356.667 -281 618c0 265.333 108 464.333 324 597c179.333 110 410 165 692 165
c292 0 529.333 -58.333 712 -175c217.333 -139.333 326 -347 326 -623zM1248 1383c-64.667 0 -114.333 -82.001 -149 -246.001c-24 -113.333 -36 -222.666 -36 -327.999c0 -141.333 10.333 -278.333 31 -411c32 -205.333 81.333 -308 148 -308c128 0 192 206.333 192 619
c0 449.333 -62 674 -186 674zM1467 1806c-38 0 -99.4971 27.5 -184.497 82.5s-168.833 82.5 -251.5 82.5c-68.667 0 -132.334 -26.667 -191.001 -80c-60 -55.333 -90 -117 -90 -185c0 -30 17 -45 51 -45c29.333 0 48.666 22.833 57.999 68.5s36.666 68.5 81.999 68.5
c24 0 90 -25.667 198 -77s203.333 -77 286 -77c79.333 0 149.5 28 210.5 84s91.5 123 91.5 201c0 29.333 -16 44 -48 44c-33.333 0 -52 -9.66699 -56 -29c0 -6 -2 -20.333 -6 -43c-16.667 -63.333 -66.667 -95 -150 -95z" />
    <glyph glyph-name="Odieresis" unicode="&#xd6;" horiz-adv-x="2534" 
d="M631 1808c0 47.333 16.833 87.833 50.5 121.5s74.5 50.5 122.5 50.5s88.833 -16.833 122.5 -50.5s50.5 -74.167 50.5 -121.5s-16.833 -87.833 -50.5 -121.5s-74.5 -50.5 -122.5 -50.5s-88.833 16.833 -122.5 50.5s-50.5 74.167 -50.5 121.5zM1511 1808
c0 47.333 16.833 87.833 50.5 121.5s74.5 50.5 122.5 50.5s89 -16.833 123 -50.5s51 -74.167 51 -121.5s-17 -87.833 -51 -121.5s-75 -50.5 -123 -50.5s-88.833 16.833 -122.5 50.5s-50.5 74.167 -50.5 121.5zM2253 738c0 -288 -119.999 -498.667 -359.999 -632
c-188.667 -105.333 -439.334 -158 -752.001 -158c-268 0 -488.333 69.333 -661 208c-187.333 150.667 -281 356.667 -281 618c0 265.333 108 464.333 324 597c179.333 110 410 165 692 165c292 0 529.333 -58.333 712 -175c217.333 -139.333 326 -347 326 -623zM1248 1383
c-64.667 0 -114.333 -82.001 -149 -246.001c-24 -113.333 -36 -222.666 -36 -327.999c0 -141.333 10.333 -278.333 31 -411c32 -205.333 81.333 -308 148 -308c128 0 192 206.333 192 619c0 449.333 -62 674 -186 674z" />
    <glyph glyph-name="multiply" unicode="&#xd7;" horiz-adv-x="1690" 
d="M893 735l350 -382l-60 -53l-344 376l-350 -376l-59 54l356 382l-351 396l60 53l345 -389l355 376l59 -54z" />
    <glyph glyph-name="Oslash" unicode="&#xd8;" horiz-adv-x="2534" 
d="M1248 1383c-64.667 0 -114.333 -82.001 -149 -246.001c-24 -113.333 -36 -222.666 -36 -327.999c0 -141.333 10.333 -278.333 31 -411c32 -205.333 81.333 -308 148 -308c128 0 192 206.333 192 619c0 449.333 -62 674 -186 674zM2259 1501
c-2.66699 -18.667 -25.333 -47.998 -67.999 -87.998c-16.667 -15.333 -71.334 -58.333 -164 -129c150.667 -136 226 -318 226 -546c0 -288 -120 -498.667 -360 -632c-189.333 -105.333 -440 -158 -752 -158c-208.667 0 -391.334 44 -548.001 132
c-56 -50 -91.333 -80 -106 -90c-45.333 -30 -82 -45 -110 -45c-13.333 0 -33.5 0.666992 -60.5 2s-44.5 2 -52.5 2c-41.333 0 -60.333 10.333 -57 31c2.66699 19.333 25 48.666 67 87.999c14 13.333 67.667 55.666 161 126.999c-157.333 147.333 -236 340.333 -236 579
c0 265.333 108 464.333 324 597c179.333 110 410 165 692 165c258 0 475 -46.667 651 -140l127 91c45.333 30 82 45 110 45h99c41.333 0 60.333 -10.333 57 -31z" />
    <glyph glyph-name="Ugrave" unicode="&#xd9;" horiz-adv-x="2652" 
d="M2660 1508c2.66699 -42.667 -16.668 -72.002 -58.002 -88.002l-114 -27c-55.333 -16 -93.666 -40.667 -115 -74c-14.667 -24 -27.334 -68.667 -38 -134c-6 -37.333 -9 -119.333 -9 -246c0 -259.333 -63.333 -481 -190 -665
c-143.333 -208.667 -338.666 -313 -585.999 -313c-287.333 0 -519.333 64.333 -696 193c-197.333 143.333 -302.666 354.333 -315.999 633c-1.33301 28 -2 56.667 -2 86c0 42.667 2.66699 106.334 8 191.001s8 148 8 190c0 49.333 -26.333 82.666 -79 99.999
c-20 6.66699 -73.333 14 -160 22c-60 6 -99 13.667 -117 23c-20 11.333 -30 33.333 -30 66c0 37.333 32.667 56 98 56c68.667 0 172.167 -2.33301 310.5 -7s242.166 -7 311.499 -7c23.333 0 106 0.666992 248 2c100.667 0.666992 183.334 0.333984 248.001 -0.999023
c24.667 -0.666992 59.667 0 105 2c48.667 2 83.334 3 104.001 3c58.667 0 88 -15.667 88 -47c0 -28 -16.667 -50.333 -50 -67c-26.667 -12.667 -56 -19.334 -88 -20.001c-96.667 -1.33301 -145 -36.333 -145 -105c0 -42 2.83301 -104.833 8.5 -188.5s8.5 -146.5 8.5 -188.5
c0 -27.333 0.833008 -68.666 2.5 -123.999s2.5 -96.666 2.5 -123.999c0 -96 27 -183 81 -261c60 -86.667 135 -130 225 -130c125.333 0 224.666 63.667 297.999 191c62 106.667 93 228 93 364c0 108 -12 213.667 -36 317c-34.667 147.333 -86 227 -154 239l-110 12
c-48.667 8.66699 -73 27.667 -73 57c0 52 31.333 78 94 78l398 -1c42.667 0 105.167 4.16699 187.5 12.5s144.166 12.5 185.5 12.5c14.667 0 32.334 -10.667 53 -32zM1781 1661c0 33.333 -20.334 110.334 -61.001 231.001c-44 130 -77.333 195 -100 195
c-161.333 0 -242 -17.667 -242 -53c0 -46.667 47.333 -122.834 142 -228.501s163.334 -158.5 206.001 -158.5c4 0 9.5 -0.5 16.5 -1.5s12.5 -1.5 16.5 -1.5c14.667 0 22 5.66699 22 17z" />
    <glyph glyph-name="Uacute" unicode="&#xda;" horiz-adv-x="2652" 
d="M2660 1508c2.66699 -42.667 -16.668 -72.002 -58.002 -88.002l-114 -27c-55.333 -16 -93.666 -40.667 -115 -74c-14.667 -24 -27.334 -68.667 -38 -134c-6 -37.333 -9 -119.333 -9 -246c0 -259.333 -63.333 -481 -190 -665
c-143.333 -208.667 -338.666 -313 -585.999 -313c-287.333 0 -519.333 64.333 -696 193c-197.333 143.333 -302.666 354.333 -315.999 633c-1.33301 28 -2 56.667 -2 86c0 42.667 2.66699 106.334 8 191.001s8 148 8 190c0 49.333 -26.333 82.666 -79 99.999
c-20 6.66699 -73.333 14 -160 22c-60 6 -99 13.667 -117 23c-20 11.333 -30 33.333 -30 66c0 37.333 32.667 56 98 56c68.667 0 172.167 -2.33301 310.5 -7s242.166 -7 311.499 -7c23.333 0 106 0.666992 248 2c100.667 0.666992 183.334 0.333984 248.001 -0.999023
c24.667 -0.666992 59.667 0 105 2c48.667 2 83.334 3 104.001 3c58.667 0 88 -15.667 88 -47c0 -28 -16.667 -50.333 -50 -67c-26.667 -12.667 -56 -19.334 -88 -20.001c-96.667 -1.33301 -145 -36.333 -145 -105c0 -42 2.83301 -104.833 8.5 -188.5s8.5 -146.5 8.5 -188.5
c0 -27.333 0.833008 -68.666 2.5 -123.999s2.5 -96.666 2.5 -123.999c0 -96 27 -183 81 -261c60 -86.667 135 -130 225 -130c125.333 0 224.666 63.667 297.999 191c62 106.667 93 228 93 364c0 108 -12 213.667 -36 317c-34.667 147.333 -86 227 -154 239l-110 12
c-48.667 8.66699 -73 27.667 -73 57c0 52 31.333 78 94 78l398 -1c42.667 0 105.167 4.16699 187.5 12.5s144.166 12.5 185.5 12.5c14.667 0 32.334 -10.667 53 -32zM1506 1657c0 29.333 31.334 107 94.001 233c65.333 131.333 109.666 197 132.999 197
c161.333 0 242 -17.667 242 -53c0 -45.333 -58 -122 -174 -230s-196 -162 -240 -162c-4 0 -9.5 -0.333008 -16.5 -1s-12.5 -1 -16.5 -1c-14.667 0 -22 5.66699 -22 17z" />
    <glyph glyph-name="Ucircumflex" unicode="&#xdb;" horiz-adv-x="2652" 
d="M2660 1508c2.66699 -42.667 -16.668 -72.002 -58.002 -88.002l-114 -27c-55.333 -16 -93.666 -40.667 -115 -74c-14.667 -24 -27.334 -68.667 -38 -134c-6 -37.333 -9 -119.333 -9 -246c0 -259.333 -63.333 -481 -190 -665
c-143.333 -208.667 -338.666 -313 -585.999 -313c-287.333 0 -519.333 64.333 -696 193c-197.333 143.333 -302.666 354.333 -315.999 633c-1.33301 28 -2 56.667 -2 86c0 42.667 2.66699 106.334 8 191.001s8 148 8 190c0 49.333 -26.333 82.666 -79 99.999
c-20 6.66699 -73.333 14 -160 22c-60 6 -99 13.667 -117 23c-20 11.333 -30 33.333 -30 66c0 37.333 32.667 56 98 56c68.667 0 172.167 -2.33301 310.5 -7s242.166 -7 311.499 -7c23.333 0 106 0.666992 248 2c100.667 0.666992 183.334 0.333984 248.001 -0.999023
c24.667 -0.666992 59.667 0 105 2c48.667 2 83.334 3 104.001 3c58.667 0 88 -15.667 88 -47c0 -28 -16.667 -50.333 -50 -67c-26.667 -12.667 -56 -19.334 -88 -20.001c-96.667 -1.33301 -145 -36.333 -145 -105c0 -42 2.83301 -104.833 8.5 -188.5s8.5 -146.5 8.5 -188.5
c0 -27.333 0.833008 -68.666 2.5 -123.999s2.5 -96.666 2.5 -123.999c0 -96 27 -183 81 -261c60 -86.667 135 -130 225 -130c125.333 0 224.666 63.667 297.999 191c62 106.667 93 228 93 364c0 108 -12 213.667 -36 317c-34.667 147.333 -86 227 -154 239l-110 12
c-48.667 8.66699 -73 27.667 -73 57c0 52 31.333 78 94 78l398 -1c42.667 0 105.167 4.16699 187.5 12.5s144.166 12.5 185.5 12.5c14.667 0 32.334 -10.667 53 -32zM1669 2085c26 0 71.332 -21 135.999 -63l132 -91c25.333 -16 59 -48 101 -96
c47.333 -52.667 71 -90.334 71 -113.001c0 -11.333 -25.667 -28 -77 -50c-60 -25.333 -91.667 -39.333 -95 -42c-46 28 -98.667 74.333 -158 139c-38.667 42 -83 81 -133 117c-29.333 -19.333 -74.333 -56.666 -135 -111.999l-72 -90c-26.667 -33.333 -47.667 -50 -63 -50
c-16 0 -38 8.33301 -66 25c-30 18 -45 34.333 -45 49c0 22 21 55.333 63 100l91 90c68.667 75.333 105.334 115 110.001 119c50 45.333 96.667 68 140 68z" />
    </font>
</defs>
</svg>
