<?xml version="1.0" encoding="utf-8"?>
<!-- Generator: Adobe Illustrator 22.0.1, SVG Export Plug-In . SVG Version: 6.00 Build 0)  -->
<svg version="1.1" id="Слой_1" xmlns="http://www.w3.org/2000/svg" xmlns:xlink="http://www.w3.org/1999/xlink" x="0px" y="0px"
	 viewBox="0 0 375 1377.4" style="enable-background:new 0 0 375 1377.4;" xml:space="preserve">
<style type="text/css">
	.st0{clip-path:url(#SVGID_2_);}
	.st1{filter:url(#Adobe_OpacityMaskFilter);}
	.st2{filter:url(#Adobe_OpacityMaskFilter_1_);}
	.st3{mask:url(#SVGID_3_);fill:url(#SVGID_4_);}
	.st4{fill:url(#SVGID_5_);}
	.st5{fill:#262D34;}
	.st6{filter:url(#Adobe_OpacityMaskFilter_2_);}
	.st7{filter:url(#Adobe_OpacityMaskFilter_3_);}
	.st8{mask:url(#SVGID_6_);fill:url(#SVGID_7_);}
	.st9{fill:url(#SVGID_8_);}
	.st10{fill:#D14A48;}
	.st11{filter:url(#Adobe_OpacityMaskFilter_4_);}
	.st12{filter:url(#Adobe_OpacityMaskFilter_5_);}
	.st13{mask:url(#SVGID_9_);fill:url(#SVGID_10_);}
	.st14{fill:url(#SVGID_11_);}
	.st15{filter:url(#Adobe_OpacityMaskFilter_6_);}
	.st16{filter:url(#Adobe_OpacityMaskFilter_7_);}
	.st17{mask:url(#SVGID_12_);fill:url(#SVGID_13_);}
	.st18{fill:url(#SVGID_14_);}
	.st19{filter:url(#Adobe_OpacityMaskFilter_8_);}
	.st20{filter:url(#Adobe_OpacityMaskFilter_9_);}
	.st21{mask:url(#SVGID_15_);fill:url(#SVGID_16_);}
	.st22{fill:url(#SVGID_17_);}
	.st23{fill:#4A6A90;}
	.st24{fill:#52AB62;}
	.st25{fill:#E59E44;}
	.st26{fill:#D14A43;}
	.st27{fill:#5661A6;}
	.st28{font-family:'StrokeRUSBYLYAJKA-Medium';}
	.st29{font-size:29.233px;}
	.st30{fill:#F5EC46;}
	.st31{fill:#000105;}
	.st32{fill:#CB4C47;stroke:#000105;stroke-miterlimit:10;}
	.st33{font-family:'NEON';}
	.st34{font-size:75.4px;}
	.st35{fill:#1A1715;}
	.st36{font-size:69.7343px;}
	.st37{fill:#201600;}
	.st38{font-family:'GoudyStout';}
	.st39{font-size:15.1036px;}
	.st40{fill:none;}
	.st41{font-family:'PalatinoLinotype-Roman';}
	.st42{font-size:15.992px;}
	.st43{font-size:14.3709px;}
	.st44{font-size:15.2163px;}
	.st45{font-size:14.487px;}
	.st46{font-size:15.3392px;}
	.st47{font-size:13.7898px;}
	.st48{font-size:14.601px;}
	.st49{fill:#F3EB48;}
	.st50{fill:#5D6AAC;}
	.st51{fill:#64B061;}
	.st52{fill:#D14A44;stroke:#201600;stroke-miterlimit:10;}
	.st53{fill:#FFFFFF;}
	.st54{font-size:9px;}
	.st55{fill:#86594D;}
	.st56{fill:#D35454;}
	.st57{fill:#F4CB56;}
	.st58{fill:#53AC6E;}
	.st59{fill:#6ABEE9;}
	.st60{fill:#242D38;}
	.st61{fill:#334555;}
	.st62{fill:#466177;}
	.st63{fill:#E4DFDA;}
	.st64{fill:#73473D;}
	.st65{fill:#CECAC3;}
	.st66{fill:#DAD6D2;}
	.st67{fill-rule:evenodd;clip-rule:evenodd;fill:#FFFFFF;}
	.st68{font-family:'PeaceSans';}
	.st69{font-size:6.457px;}
	.st70{font-size:9.0048px;}
	.st71{fill:#575FA4;}
	.st72{font-size:54.2518px;}
	.st73{fill:#E1D34A;}
	.st74{fill:#D14A43;stroke:#201600;stroke-miterlimit:10;}
	.st75{fill:#000300;}
</style>
<g>
	<defs>
		<rect id="SVGID_1_" x="0" y="215.2" width="375" height="1162.8"/>
	</defs>
	<use xlink:href="#SVGID_1_"  style="overflow:visible;fill:#FFFFFF;"/>
	<clipPath id="SVGID_2_">
		<use xlink:href="#SVGID_1_"  style="overflow:visible;"/>
	</clipPath>
	<g class="st0">
		<defs>
			<filter id="Adobe_OpacityMaskFilter" filterUnits="userSpaceOnUse" x="-91.5" y="235.6" width="541.1" height="149.2">
				<feFlood  style="flood-color:white;flood-opacity:1" result="back"/>
				<feBlend  in="SourceGraphic" in2="back" mode="normal"/>
			</filter>
		</defs>
		<mask maskUnits="userSpaceOnUse" x="-91.5" y="235.6" width="541.1" height="149.2" id="SVGID_3_">
			<g class="st1">
				<defs>
					<filter id="Adobe_OpacityMaskFilter_1_" filterUnits="userSpaceOnUse" x="-91.5" y="235.6" width="541.1" height="149.2">
						<feFlood  style="flood-color:white;flood-opacity:1" result="back"/>
						<feBlend  in="SourceGraphic" in2="back" mode="normal"/>
					</filter>
				</defs>
				<mask maskUnits="userSpaceOnUse" x="-91.5" y="235.6" width="541.1" height="149.2" id="SVGID_3_">
					<g class="st2">
					</g>
				</mask>
				
					<linearGradient id="SVGID_4_" gradientUnits="userSpaceOnUse" x1="687.5508" y1="-591.4983" x2="721.2953" y2="-625.2429" gradientTransform="matrix(0.8356 0.5493 0.5493 -0.8356 -80.3017 -589.9456)">
					<stop  offset="0" style="stop-color:#FFFFFF"/>
					<stop  offset="0.1758" style="stop-color:#D7D7D7"/>
					<stop  offset="0.5719" style="stop-color:#737373"/>
					<stop  offset="1" style="stop-color:#000000"/>
				</linearGradient>
				<polygon class="st3" points="-91.5,384.8 -64.6,341.2 396,235.6 449.6,273.5 				"/>
			</g>
		</mask>
		
			<linearGradient id="SVGID_5_" gradientUnits="userSpaceOnUse" x1="687.5508" y1="-591.4983" x2="721.2953" y2="-625.2429" gradientTransform="matrix(0.8356 0.5493 0.5493 -0.8356 -80.3017 -589.9456)">
			<stop  offset="0" style="stop-color:#595959"/>
			<stop  offset="0.2621" style="stop-color:#818181"/>
			<stop  offset="0.8467" style="stop-color:#E4E4E4"/>
			<stop  offset="1" style="stop-color:#FFFFFF"/>
		</linearGradient>
		<polygon class="st4" points="-91.5,384.8 -64.6,341.2 396,235.6 449.6,273.5 		"/>
		<path class="st5" d="M-10.1,330.6c0,0,262.7,1.8,392.9-117H-10.1L-10.1,330.6z"/>
		<defs>
			<filter id="Adobe_OpacityMaskFilter_2_" filterUnits="userSpaceOnUse" x="-49.2" y="183.3" width="523.2" height="208.7">
				<feFlood  style="flood-color:white;flood-opacity:1" result="back"/>
				<feBlend  in="SourceGraphic" in2="back" mode="normal"/>
			</filter>
		</defs>
		<mask maskUnits="userSpaceOnUse" x="-49.2" y="183.3" width="523.2" height="208.7" id="SVGID_6_">
			<g class="st6">
				<defs>
					<filter id="Adobe_OpacityMaskFilter_3_" filterUnits="userSpaceOnUse" x="-49.2" y="183.3" width="523.2" height="208.7">
						<feFlood  style="flood-color:white;flood-opacity:1" result="back"/>
						<feBlend  in="SourceGraphic" in2="back" mode="normal"/>
					</filter>
				</defs>
				<mask maskUnits="userSpaceOnUse" x="-49.2" y="183.3" width="523.2" height="208.7" id="SVGID_6_">
					<g class="st7">
					</g>
				</mask>
				
					<linearGradient id="SVGID_7_" gradientUnits="userSpaceOnUse" x1="674.9182" y1="-521.486" x2="713.1129" y2="-559.6807" gradientTransform="matrix(0.4611 0.8873 0.8873 -0.4611 377.6945 -583.1897)">
					<stop  offset="0" style="stop-color:#FFFFFF"/>
					<stop  offset="0.1758" style="stop-color:#D7D7D7"/>
					<stop  offset="0.5719" style="stop-color:#737373"/>
					<stop  offset="1" style="stop-color:#000000"/>
				</linearGradient>
				<polygon class="st8" points="-49.2,207.3 -5.8,183.3 444.6,330.9 474,392 				"/>
			</g>
		</mask>
		
			<linearGradient id="SVGID_8_" gradientUnits="userSpaceOnUse" x1="674.9182" y1="-521.486" x2="713.1129" y2="-559.6807" gradientTransform="matrix(0.4611 0.8873 0.8873 -0.4611 377.6945 -583.1897)">
			<stop  offset="0" style="stop-color:#595959"/>
			<stop  offset="0.2621" style="stop-color:#818181"/>
			<stop  offset="0.8467" style="stop-color:#E4E4E4"/>
			<stop  offset="1" style="stop-color:#FFFFFF"/>
		</linearGradient>
		<polygon class="st9" points="-49.2,207.3 -5.8,183.3 444.6,330.9 474,392 		"/>
		<path class="st10" d="M-0.9,209.3c0,0,126.8,44.3,198.9,71.7c72.1,27.4,141.8,35.4,194,34.8V209.3H-0.9z"/>
	</g>
	<g class="st0">
		<defs>
			<filter id="Adobe_OpacityMaskFilter_4_" filterUnits="userSpaceOnUse" x="1.2" y="1203" width="464.9" height="150.4">
				<feFlood  style="flood-color:white;flood-opacity:1" result="back"/>
				<feBlend  in="SourceGraphic" in2="back" mode="normal"/>
			</filter>
		</defs>
		<mask maskUnits="userSpaceOnUse" x="1.2" y="1203" width="464.9" height="150.4" id="SVGID_9_">
			<g class="st11">
				<defs>
					<filter id="Adobe_OpacityMaskFilter_5_" filterUnits="userSpaceOnUse" x="1.2" y="1203" width="464.9" height="150.4">
						<feFlood  style="flood-color:white;flood-opacity:1" result="back"/>
						<feBlend  in="SourceGraphic" in2="back" mode="normal"/>
					</filter>
				</defs>
				<mask maskUnits="userSpaceOnUse" x="1.2" y="1203" width="464.9" height="150.4" id="SVGID_9_">
					<g class="st12">
					</g>
				</mask>
				
					<linearGradient id="SVGID_10_" gradientUnits="userSpaceOnUse" x1="1004.9354" y1="-102.0949" x2="1033.9385" y2="-131.0979" gradientTransform="matrix(-0.879 -0.4767 -0.4767 0.879 1078.3512 1867.8835)">
					<stop  offset="0" style="stop-color:#FFFFFF"/>
					<stop  offset="0.1758" style="stop-color:#D7D7D7"/>
					<stop  offset="0.5719" style="stop-color:#737373"/>
					<stop  offset="1" style="stop-color:#000000"/>
				</linearGradient>
				<polygon class="st13" points="466.1,1203 445.7,1238.8 50.7,1353.4 1.2,1327.6 				"/>
			</g>
		</mask>
		
			<linearGradient id="SVGID_11_" gradientUnits="userSpaceOnUse" x1="1004.9354" y1="-102.0949" x2="1033.9385" y2="-131.0979" gradientTransform="matrix(-0.879 -0.4767 -0.4767 0.879 1078.3512 1867.8835)">
			<stop  offset="0" style="stop-color:#595959"/>
			<stop  offset="0.2621" style="stop-color:#818181"/>
			<stop  offset="0.8467" style="stop-color:#E4E4E4"/>
			<stop  offset="1" style="stop-color:#FFFFFF"/>
		</linearGradient>
		<polygon class="st14" points="466.1,1203 445.7,1238.8 50.7,1353.4 1.2,1327.6 		"/>
		<path class="st10" d="M-0.5,1348.9c0,0,61.4-2.8,142.2-32.4c80.8-29.7,212-60.7,261.7-58.7V1373h-404L-0.5,1348.9z"/>
		<defs>
			<filter id="Adobe_OpacityMaskFilter_6_" filterUnits="userSpaceOnUse" x="-92" y="1232.2" width="463.4" height="149.7">
				<feFlood  style="flood-color:white;flood-opacity:1" result="back"/>
				<feBlend  in="SourceGraphic" in2="back" mode="normal"/>
			</filter>
		</defs>
		<mask maskUnits="userSpaceOnUse" x="-92" y="1232.2" width="463.4" height="149.7" id="SVGID_12_">
			<g class="st15">
				<defs>
					<filter id="Adobe_OpacityMaskFilter_7_" filterUnits="userSpaceOnUse" x="-92" y="1232.2" width="463.4" height="149.7">
						<feFlood  style="flood-color:white;flood-opacity:1" result="back"/>
						<feBlend  in="SourceGraphic" in2="back" mode="normal"/>
					</filter>
				</defs>
				<mask maskUnits="userSpaceOnUse" x="-92" y="1232.2" width="463.4" height="149.7" id="SVGID_12_">
					<g class="st16">
					</g>
				</mask>
				
					<linearGradient id="SVGID_13_" gradientUnits="userSpaceOnUse" x1="743.1468" y1="-284.2054" x2="769.7063" y2="-310.7649" gradientTransform="matrix(-0.49 -0.8717 -0.8717 0.49 245.7936 2120.8564)">
					<stop  offset="0" style="stop-color:#FFFFFF"/>
					<stop  offset="0.1758" style="stop-color:#D7D7D7"/>
					<stop  offset="0.5719" style="stop-color:#737373"/>
					<stop  offset="1" style="stop-color:#000000"/>
				</linearGradient>
				<polygon class="st17" points="371.4,1362 334,1381.9 -64.6,1279.1 -92,1232.2 				"/>
			</g>
		</mask>
		
			<linearGradient id="SVGID_14_" gradientUnits="userSpaceOnUse" x1="743.1468" y1="-284.2054" x2="769.7063" y2="-310.7649" gradientTransform="matrix(-0.49 -0.8717 -0.8717 0.49 245.7936 2120.8564)">
			<stop  offset="0" style="stop-color:#595959"/>
			<stop  offset="0.2621" style="stop-color:#818181"/>
			<stop  offset="0.8467" style="stop-color:#E4E4E4"/>
			<stop  offset="1" style="stop-color:#FFFFFF"/>
		</linearGradient>
		<polygon class="st18" points="371.4,1362 334,1381.9 -64.6,1279.1 -92,1232.2 		"/>
		<path class="st10" d="M-1.5,1281.1c0,0,134.8,72.5,404,85.3v16.5h-404V1281.1z"/>
		<defs>
			<filter id="Adobe_OpacityMaskFilter_8_" filterUnits="userSpaceOnUse" x="95.3" y="1295.1" width="409.3" height="102.9">
				<feFlood  style="flood-color:white;flood-opacity:1" result="back"/>
				<feBlend  in="SourceGraphic" in2="back" mode="normal"/>
			</filter>
		</defs>
		<mask maskUnits="userSpaceOnUse" x="95.3" y="1295.1" width="409.3" height="102.9" id="SVGID_15_">
			<g class="st19">
				<defs>
					<filter id="Adobe_OpacityMaskFilter_9_" filterUnits="userSpaceOnUse" x="95.3" y="1295.1" width="409.3" height="102.9">
						<feFlood  style="flood-color:white;flood-opacity:1" result="back"/>
						<feBlend  in="SourceGraphic" in2="back" mode="normal"/>
					</filter>
				</defs>
				<mask maskUnits="userSpaceOnUse" x="95.3" y="1295.1" width="409.3" height="102.9" id="SVGID_15_">
					<g class="st20">
					</g>
				</mask>
				
					<linearGradient id="SVGID_16_" gradientUnits="userSpaceOnUse" x1="807.9614" y1="-95.8933" x2="832.0129" y2="-119.9449" gradientTransform="matrix(-0.8391 -0.5439 -0.5439 0.8391 931.9658 1882.8712)">
					<stop  offset="0" style="stop-color:#FFFFFF"/>
					<stop  offset="0.1758" style="stop-color:#D7D7D7"/>
					<stop  offset="0.5719" style="stop-color:#737373"/>
					<stop  offset="1" style="stop-color:#000000"/>
				</linearGradient>
				<polygon class="st21" points="504.6,1295.1 484.5,1324.6 136.1,1398 95.3,1372.6 				"/>
			</g>
		</mask>
		
			<linearGradient id="SVGID_17_" gradientUnits="userSpaceOnUse" x1="807.9614" y1="-95.8933" x2="832.0129" y2="-119.9449" gradientTransform="matrix(-0.8391 -0.5439 -0.5439 0.8391 931.9658 1882.8712)">
			<stop  offset="0" style="stop-color:#595959"/>
			<stop  offset="0.2621" style="stop-color:#818181"/>
			<stop  offset="0.8467" style="stop-color:#E4E4E4"/>
			<stop  offset="1" style="stop-color:#FFFFFF"/>
		</linearGradient>
		<polygon class="st22" points="504.6,1295.1 484.5,1324.6 136.1,1398 95.3,1372.6 		"/>
		<path class="st5" d="M200.5,1382.9c0,0,124.8-41.9,202-42.4v42.4H200.5z"/>
	</g>
</g>
<g>
	<path class="st23" d="M326.7,432.5v-38.8c0-17.4-22-31.7-48.9-31.7H80.1c-26.9,0-48.9,14.3-48.9,31.7V522c0,17.4,22,31.7,48.9,31.7
		h197.7c26.9,0,48.9-14.3,48.9-31.7v-38.8V432.5z"/>
	<path class="st10" d="M329,1080.8V1042c0-17.4-22-31.7-48.9-31.7H82.5c-26.9,0-48.9,14.3-48.9,31.7v128.3c0,17.4,22,31.7,48.9,31.7
		h197.7c26.9,0,48.9-14.3,48.9-31.7v-38.8V1080.8z"/>
	<path class="st24" d="M333.5,914.8l-0.4,38.8c-0.2,17.4-22.3,31.6-49.2,31.5l-197.7-0.8c-26.9-0.1-48.7-14.5-48.6-31.9l1.2-128.3
		c0.2-17.4,22.3-31.6,49.2-31.5l197.7,0.8c26.9,0.1,48.7,14.5,48.6,31.9l-0.4,38.8L333.5,914.8z"/>
	<path class="st25" d="M324.8,698.3l-0.1,37.8c-0.1,17-21.6,30.9-47.8,30.8l-192.7-0.3c-26.2,0-47.6-14-47.5-31l0.5-125
		c0.1-17,21.6-30.9,47.8-30.8l192.7,0.3c26.2,0,47.6,14,47.5,31l-0.1,37.8L324.8,698.3z"/>
</g>
<circle class="st26" cx="279.2" cy="103.2" r="75.2"/>
<text transform="matrix(1 0 0 1 235.2158 72.585)"><tspan x="0" y="0" class="st27 st28 st29">T</tspan><tspan x="17" y="0" class="st30 st28 st29">o</tspan><tspan x="32.7" y="0" class="st31 st28 st29">k</tspan><tspan x="48.2" y="0" class="st24 st28 st29">y</tspan><tspan x="63.4" y="0" class="st32 st28 st29">o</tspan></text>
<text transform="matrix(1.1949 0 0 1 221.9453 136.916)" class="st31 st33 st34">S</text>
<polygon class="st35" points="284.2,95.1 297.4,95.1 278.9,114.9 299,137 285.2,137 268.5,118.6 268.5,112.4 "/>
<text transform="matrix(1 0 0 1 301.8066 137.3677)" class="st31 st33 st36">8</text>
<g>
	<rect x="0.1" y="70" class="st5" width="29.2" height="143"/>
	<rect x="-0.4" y="212" class="st5" width="375.4" height="6.9"/>
	<path class="st5" d="M29,70c0,0-11,133,346,142l-345.7,1L29,70z"/>
</g>
<path class="st5" d="M98,38.6c-0.3-0.8-0.8-2.3-1.1-3c-0.3-0.7-1.1-2.6-2.3-3.2c-1.1-0.6-5-1.5-6.1-1.3c-1.2,0.2-5.6-1-7.1-0.6
	c-1.6,0.5-4.9,0.7-5.5,0.7c-0.6,0-2.2-0.8-3-0.9c-0.7-0.1-4.7-0.6-4.9-0.9c-0.3-0.3-1.6-1.1-2-1.2c-0.4,0-6.1-2-6.4-2.5
	c-0.3-0.5-0.6-0.9-0.9-1c-0.3-0.1-1-5.4-7.2-4.9c-0.8,0.1-2.5,1.4-3.3,2.3c-0.8,1-1.9,2.4-1.5,4.1c-0.1,1.3-0.5,1.6-0.5,1.6
	s-2.2,0.4-3.3,0.9c-1.1,0.5-3.7,2-4.1,2c-0.4,0-1.3,0.6-1.3,0.6s-4.3,1-5.2,1.1c-0.9,0.1-6.9,3.5-7.9,3.6c-1,0.1-2.6,0-3-0.1
	c-0.3-0.1-1.7-0.4-2.4,0.3c-0.9,0.6-0.8,1.7-0.8,1.7c-0.3,0.3,0,1.4,0,1.4c-0.3,0.4,0.3,1.1,0.9,1.2c0.6,0.2,1.2,0.6,2.1,0.3
	c-0.1,0.3-0.7,1.4-0.3,1.7c0.4,0.4,0.8-0.4,1.3-1.1c0.5-0.8,1.7-2.1,2.2-2.4c0.5-0.3,5.9-1.4,7.6-1.8c1.6-0.4,5.9-1.4,6.8-2.2
	c0.9-0.8,0.1,0.5,0.4,0.9c-1.4,1.6-4,5.9-5.3,6.9c-1.3,1-1.8,1.5-1.4,2.6c0.3,1.1,0.7,2.3,0.6,2.6c-0.1,0.3-0.4,1.1-0.1,1.4
	c0.4,0.3-0.4,2.1-0.8,1.9c-0.3-0.1-0.5-1.5-1.2-1.7c-0.7-0.3-2.1,0.3-1.5,1.2c0.6,0.8-0.9,1.5-0.9,1.5s-1.2,0.2-1.1,0.8
	c0.1,0.6-2.8-0.1-3.4-0.3c-0.6-0.2-1.9,1.4-1.2,2.3c0.7,0.9,5.3,3.2,6.5,2.8c1.2-0.4,2.5-0.1,3-0.1c0.5,0,1.9,0.7,2.3-0.1
	c0.4-0.7,0.5-3.6,0.9-4.2c0.3-0.6,0.8-1.7,1.2-1.8c0.4,0,1.6-0.4,2.2-1c0.6-0.5,0.7-1.9,0.9-2.5c0.1-0.6,0.3-1.8,0.5-2
	c0.2-0.2,1.7-1.9,2.1-2.5c0.3-0.6,1-2,1.3-1.6c0.4,0.3,4,4.8,4.7,5.9c0.7,1,2,3.1,1.6,3.3c-0.4,0.2-1,0.8-0.7,1.7
	c0.3,0.9,0.9,1.3,0.9,1.3s-0.6,1.4-1.1,1.3c-0.5-0.1-0.9,0.1-1.5,0.2c-0.6,0.1-1.1,0.3-0.7,1c0.4,0.7-1,1.7-1.9,2.1
	c-0.9,0.4-5.2,2-2,4.2c3.1,2.2,4.7,1.1,6,0.5c1.2-0.6,1.6-0.7,1.8-1.1c0.3-0.4,0.3-1.4,0.7-1.8c0.5-0.4,1.2-0.9,1.4-1.7
	c0.2-0.8,0.1-1.3,0.2-1.7c0-0.4,0.5-0.9,0.8-1c0.3-0.1,0.9,1.2,1.6,0.6c0.7-0.6,0.9-1.7,1.1-2.2c0.2-0.5,0.9-1.3,1.3-1.1
	c0.4,0.2,3.6,2.1,5.6,1.1c2-1,3.1-2.9,3.6-4.4c0.5-1.6,1.3-1.7,1.4-2.8c0.1-1,0.7-2.3,0.3-3.6c-0.4-1.3-1.1-6.6-0.8-7.3
	c0.3-0.7,2.6-0.8,4-0.3c1.4,0.6,2.6,0.1,2.6,0.1l0-1.4c0,0,2.9,0.4,4,0.2c1.2-0.2,2.5,0.2,4.3-0.3c1.9-0.5,5.2-1.8,5.9-1.7
	c0.6,0.2,0.9,1.5,2.3,2.1c1.4,0.6,2.5,0.6,2.7,1c0.2,0.4,0.8-0.2,1.2-0.2c0.7,0.6,1.9,2,2,2.6C97.2,39.7,98.2,39.4,98,38.6z
	 M52.7,40.3c-0.5-0.1-4.8-4.9-5.1-5.4c0,0,3.1,1.4,3.8,2.4C52,38.1,53.3,40.4,52.7,40.3z M52,73c-0.6-0.3-3-1.5-5-2.3
	c-2-0.8-9-4.9-11.6-6.5c-2.5-1.6-11.6-7-13-8.5c-1.4-1.4-3.6-2.4-4.6-2.3c-0.9,0.1-1.6,1.8-0.7,3c0.9,1.2,2.2,1.9,3.9,2.9
	c0.3,0.2,0.9,0.5,1.7,1c0,0.7,0.1,1.9,0,1.9c-0.1,0-1.1-0.2-1.6-0.4c-0.1-0.4-0.4-0.7-0.8-0.9c-1.2-0.6-1.8,0.2-2,0.8
	c-0.2,0.6,0,1.4,0.7,1.7c0.7,0.3,1.6,0.2,2-0.7c0-0.1,0-0.1,0.1-0.2c0.8,0.2,3.7,0.6,3.7,0.6s0.1,0.4,0.6,0.6
	c0.7,0.2,1.3-0.5,1.1-1.2c5,3.1,11.8,7.3,13.3,8.4l0.1,1.5c0,0-0.8,0.2-0.9,0c-0.1-0.1-0.5-0.8-1.2-0.9c-0.7-0.1-1.7,0.1-1.9,1.4
	C36,74.5,37.3,75,38,74.8c0.7-0.1,1.2-0.8,1.3-1.1c0.1-0.3,0.8-0.2,1.4-0.2c0.6,0,1,0.1,1,0.1s0.3,0.5,1,0.6c0.6,0.1,1.2-0.5,1.2-1
	c1,0.4,2.1,0.8,3,1.1c2.1,0.7,5.4-0.2,5.8-0.6C52.9,73.3,52.6,73.3,52,73z M25,62.6c0,0-1.2-0.1-1.2-0.2c0-0.2,0-1.2,0-1.5
	c0.6,0.4,1.2,0.7,2,1.2C25.3,62.1,25,62.4,25,62.6z M41.8,72.5c0,0-0.6,0-0.7-0.1c0-0.1,0-0.3,0-0.6c0.3,0.2,0.6,0.4,1,0.6
	C41.8,72.4,41.8,72.5,41.8,72.5z"/>
<text transform="matrix(1 0 0 1 127.709 387.3779)" class="st37 st38 st39">Street</text>
<rect x="79" y="412.4" class="st40" width="223" height="162.6"/>
<text transform="matrix(1 0 0 1 79.001 423.9941)"><tspan x="0" y="0" class="st37 st41 st42">This is a competition of </tspan><tspan x="0" y="19.2" class="st37 st41 st42">street-like ’course featuring </tspan><tspan x="0" y="38.4" class="st37 st41 st42">stairs, handrails, curbs, </tspan><tspan x="0" y="57.6" class="st37 st41 st42">benches, walls and slopes. </tspan><tspan x="0" y="76.8" class="st37 st41 st42">Each competitor performs </tspan><tspan x="0" y="96" class="st37 st41 st42">skills separately, or ‘tricks’. </tspan><tspan x="0" y="115.1" class="st37 st41 st42">It is a mark on the mark.</tspan></text>
<text transform="matrix(1 0 0 1 64.8037 633.3223)"><tspan x="0" y="0" class="st37 st38 st43">OUTLOOK </tspan><tspan x="0" y="17.2" class="st37 st38 st43">FOR THE TOKYO </tspan><tspan x="0" y="34.5" class="st37 st38 st43">2020 GAMES</tspan></text>
<text transform="matrix(1 0 0 1 84.9863 706.3047)"><tspan x="0" y="0" class="st37 st41 st44">A unique experience in a</tspan><tspan x="0" y="18.3" class="st37 st41 st44"> dynamic urban venue</tspan></text>
<text transform="matrix(1 0 0 1 79.8569 829.5166)" class="st37 st38 st45">Goudy Stout</text>
<text transform="matrix(1 0 0 1 77.6533 865.4932)"><tspan x="0" y="0" class="st37 st41 st46">Competition competitions, </tspan><tspan x="0" y="18.4" class="st37 st41 st46">a series of complicated curves - </tspan><tspan x="0" y="36.8" class="st37 st41 st46">some resembling bowls. </tspan><tspan x="0" y="55.2" class="st37 st41 st46">From the bottom of the </tspan><tspan x="0" y="73.6" class="st37 st41 st46">inclination of the line </tspan><tspan x="0" y="92" class="st37 st41 st46">He wonders of mid-air tricks.</tspan></text>
<text transform="matrix(1 0 0 1 80.6797 1051.2754)"><tspan x="0" y="0" class="st37 st38 st47">Skateboard </tspan><tspan x="0" y="16.5" class="st37 st38 st47">player</tspan></text>
<rect x="77.8" y="1090.9" class="st40" width="192.2" height="135.5"/>
<text transform="matrix(1 0 0 1 77.7539 1101.4463)"><tspan x="0" y="0" class="st37 st41 st48">In skateboarding, it’s free to </tspan><tspan x="0" y="17.5" class="st37 st41 st48">select. It depends on the </tspan><tspan x="0" y="35" class="st37 st41 st48">speed attained. The level of </tspan><tspan x="0" y="52.6" class="st37 st41 st48">difficulty and originality.</tspan></text>
<g>
	<path class="st49" d="M312.5,304.4c-0.8-0.3-1.5-0.7-1.7-0.9c-0.2-0.2-0.1-0.5-0.6-0.6c-0.5-0.1-1.1-0.2-1.3-0.9
		c-0.2-0.7,0-2.9,0.3-4.3c0.3-1.4,1.1-5,1-5.4c-0.1-0.4,0.3-0.8,0.3-1.1c0,0,0.4,0.4,0.4,0c0-0.4,0-3-0.1-3.5
		c-0.1-0.5-0.1-1.8-0.2-2.8c-0.1-1,0-3.1,0.2-3.9c0.2-0.8,0-1.7,0-1.7s0.3,0.1,0.5,0c0,0-0.1-0.4,0.1-1c0.1-0.6,0-1,0.1-2.2
		c0,0,0-0.1,0-0.1c0.2,0.1,0.9,1.7,2.4,1.9c0.4,0,0.4-0.3,0.4-0.3c0.4,0,0.5-0.4,0.5-0.4c0.1-0.1,0.4-0.5,0.4-0.6
		c0.3-0.2,0.2-0.5-0.1-0.7c-0.6-0.4-0.2-0.5-0.6-0.8c-0.2-0.2-1.2,0-1.4-0.2c-0.2-0.1-0.5-0.4-0.6-0.6c-0.1-0.1-0.4-0.6-0.9-1.2
		c0.1-1.8,0.2-3.9,0.3-4.6c0.2-1.2,0.4-3,0.5-3.5c0.1-0.5,0.2-1.9-0.2-3c-0.4-1-1-1.5-1.2-1.8c0.1-0.1,0.2-0.3,0.3-0.5
		c0.1-0.2,0.5-0.2,0.9-0.2c0.4,0,0.9,0.3,1.3,0.3c0.3,0,0.5-0.8,0.7-0.9c0.1-0.1,0.2-0.2,0.2-0.2c-0.1-0.1,0.1-0.1,0.2-0.1
		c0.1,0,0.2-0.4,0.2-0.4c0.1,0,0.7,0.1,0.7-0.2c0-0.3-0.2-1.3,0.1-1.7c0.3-0.4,0.4-1.1,0.5-1.3c0.1-0.2,0.9-0.6,0.5-1.6
		c-0.4-1-1.1-1.1-2.5-1.9c-1.3-0.9-2.8-0.6-3.6,0.1c-0.8,0.2-1.4,1.1-1.6,2c-0.3,0.6,0,2,0,2.5c0,0.4,0.2,0.9,0.2,1.3
		c0,0.2-0.3,0.8-0.5,1.2c-0.1,0-0.2-0.1-0.2-0.1s-0.5-0.2-0.4,0.2c0.1,0.4,0,0.4-0.5,0.6c-0.4,0.3-1.9,0.9-2.2,2.2
		c-0.3,1.3-0.6,2.4-1.1,2.5c-0.4,0.1-1.2,0.6-1.3,1c-0.2,0.4-1.2,0.9-2,2.2c-0.7,1.4-0.9,2-1.2,3.1c-0.3,1.1-1,2.7-1.2,4.1
		c-0.2,1.4,0.4,3.1,1.4,3.4c1,0.3,1.7,1.5,2.8,1.7c-0.1,0.5-0.5,1.9-0.2,2.6c0.3,0.7,0.4,2.2,0.3,2.6c-0.1,0.4-1.7,4.3-1.7,4.6
		c0.1,0.3,1,0.5,1,0.5s-1.2,1.2-1.3,3.3c0,2.1-0.6,7.6-0.8,7.8c-0.1,0.3-0.5,0.2-0.7,0.6c-0.2,0.4-0.5,1-0.3,1.4
		c0.2,0.5,0.7,1,1.4,1c0.8,0,1.8-0.1,2.2-0.1c0.4,0,1.5-0.2,0.7-1.2c-0.9-0.9-1.1-1.3-1.2-1.6c-0.1-0.3-0.1-0.6-0.1-0.6
		s1.5-5.7,1.9-6.6c0.4-0.9,1.1-2.7,1.1-3.1c0-0.3,0.6-0.1,0.8-0.5c0.2-0.4,0.9-2.8,0.9-2.8s0.2,2.5,0.1,2.8c0,0.3,0.4,0.6,0.4,0.6
		s0.1,0.5-0.2,1.2c-0.3,0.7-0.6,3.7-0.4,4.7c0.2,0.9-0.2,4-0.3,4.6c-0.1,0.6-0.5,0.9-0.5,0.9s-0.4,0.3-0.5,0.9
		c-0.1,0.6-0.4,1.4,0.9,1.5c1.3,0.2,3.3,0.4,4.1,0.6c0.8,0.2,2.5,0.3,2.8-0.1C313.2,305,313.3,304.7,312.5,304.4z"/>
	<path class="st49" d="M314.9,307.1c1.5,0.1,3.2-0.2,2.6-0.8c-0.7-0.7-7-1-11.9-1.7c-1.2-0.2-5.1-0.4-6.1-0.9
		c-1-0.5-2.2-0.5-2.2-0.3c-0.1,0.3,0.1,1.1,2.1,1.6c0.2,0,0.4,0.1,0.7,0.1l0,0.5l0.3,0.1c-0.4,0-0.8,0.3-0.9,0.9
		c-0.1,0.8,0.4,1.1,1.1,1.2c0.4,0.1,0.7-0.2,0.9-0.4c0.1,0,0.2,0.1,0.4,0.1c0.6,0.1,1-0.5,1-0.8c0-0.2-0.1-0.6-0.4-0.8l0.2-0.1
		l0-0.3c3,0.4,7.3,1,9.7,1.3l0,0.4l0.5,0.1c-0.4,0-0.8,0.3-0.9,0.9c-0.1,0.8,0.4,1.1,1.1,1.2c0.4,0.1,0.7-0.2,0.9-0.4
		c0.1,0,0.2,0.1,0.4,0.1c0.6,0.1,1-0.5,1-0.8c0-0.3-0.1-0.7-0.5-0.9l0.1,0L314.9,307.1z"/>
</g>
<path class="st50" d="M65.4,318.5c-0.1-0.3,0.3-0.3,0.3-0.3l1.1,0.2l-0.8-0.6c-0.6-0.4-0.3-1.3-0.3-1.3c0.2-0.3,0.3-1,0.3-1
	c-0.2-1,1.6-3.4,1.6-3.4c0.5-0.5,0.9-2.1,0.9-2.1c0.5-0.8,0.9-7.6,0.9-7.6c-0.4-0.3-0.6-0.7-0.6-0.7c-0.7,1.1-7.7,1.9-7.7,1.9
	c-5.8,0.2-6.6-4.4-6.6-4.4c-2.7-0.2-3-2.4-3-2.4c0.3-0.5-0.3-1.2-0.3-1.2c-1.6-5.1,1.9-8.8,1.9-8.8c1.4-0.7,1.9-2.1,1.9-2.1
	c0.3-2.9,4.4-7.3,4.4-7.3c0.7-0.5,0.3-1.2,0.3-1.2c-0.1,0.2-2,0.1-2,0.1c-0.7-0.5-1.6,0.3-1.6,0.3c-0.3,0.5-6.1,1.2-6.1,1.2
	c-0.4-0.3-2.4,0.1-2.4,0.1c-0.8,0.2-1.5-0.2-1.5-0.2c-0.9-0.6-6.6,0.4-6.6,0.4c-1.7,0.9-4.1-0.8-4.1-0.8c-1.1-0.9-1.2,1.3-1.2,1.3
	c0,0.8-0.5,0.1-0.5,0.1c-0.4-0.3,0-1.7,0-1.7l-0.8,1.2c-0.5,0.4-0.8-0.6-0.8-0.6l0.3-1c-0.2,0-0.5-0.4-0.5-0.4
	c-0.1-0.4,1.7-1.8,1.7-1.8l2-0.4c0.3-0.5,3.3,1.3,3.3,1.3c0.3,0.2,0.8,0.3,1,0.4c0.2,0.1,5.9-1.8,5.9-1.8l2.8-1.1
	c1.6-2,3.5-1.1,3.5-1.1l2.9,0.4c0.2-0.3,1.8,0.3,1.8,0.3c-0.1-0.4,0.3-1.8,0.3-1.8c0.4-1.7,2-1.1,2-1.1c0.6,0.4,3.7,0.6,3.7,0.6
	c0.7,0.2,1.3-0.3,1.3-0.3c1.2-0.9,4.1,0.7,4.1,0.7c0.4-0.1,2.8,2.2,2.8,2.2c0.1-1.3,2.1-0.4,2.1-0.4c0.3-0.8,2.4-2.3,2.4-2.3
	c3.8-2.4,6.3,0.4,6.3,0.4c2.5,2.3,3.3,5.9,3.3,5.9c0.6,1.6-0.1,2.7-0.1,2.7l-1.3,1.9c-0.4,0.8-1,0.5-1,0.5l-1.3-0.5
	c-0.4-0.3-0.5,0.1-0.5,0.1c0,0.2-0.9,1.6-0.9,1.6c-0.3,0.7-1,0.2-1,0.2c-0.2-0.3-0.6-0.3-0.6-0.3l-0.9,0.4c-0.1,0.3-0.6,0.3-0.6,0.3
	c0.1,0.3-0.7,0.1-0.7,0.1c-0.1,0.1-1,0.2-1,0.2c-0.9,0.2-1.2-0.5-1.2-0.5l-0.2,0.3C74,284,74,286,74,286c0.9,0.6-0.1,3.8-0.1,3.8
	c2.8-1.8,4.7,0.7,4.7,0.7c0.9,0.6,0.2,0.7,0.2,0.7c1.1,0.5,1.4,1.6,1.4,1.6c1.5-0.3,1.8,0.1,1.8,0.1c3.3-1.3,6.3,3.8,6.3,3.8
	c0.8,0.7-0.3,1.6-0.3,1.6l0.1,0.6c0.6,0.4,0.3,1.4,0.3,1.4c0.4-0.2,0.4,0.7,0.4,0.7c1.9,1.6,3.2,3.6,3.2,3.6
	c2.3,2.6,4.5,4.2,4.5,4.2c0.2-0.4,1.3-0.3,1.3-0.3c1-0.4,1.6,1.4,1.6,1.4c0.4-0.1,0.7,0.9,0.7,0.9c0.3,0.2,0.2,1,0.2,1
	c0.4,0.8,1,1.6,1,1.6c1,0.4,0.7,2.4,0.7,2.4c2.1-0.7,7-2.7,7-2.7c1-0.2,0.8,0.5,0.8,0.5c-0.2,0.3-3.4,1.8-3.4,1.8
	c-1.4,0.8-4.7,1.4-4.7,1.4l-0.1,0.5c0,0.2-0.6,0.9-0.6,0.9c0.7,0.2,1.1,0.9,1.1,0.9c0.6,1,0,1.9,0,1.9c-0.7,1.1-2,0.4-2,0.4
	c-0.6,0-1.3-0.5-1.3-0.5c-1.1-1-0.4-2.2-0.4-2.2c-0.3-0.2-0.3-0.6-0.3-0.6c-0.2-0.1-0.7-0.8-0.7-0.8l-10.7,0.9l0.1,0.3
	c0.1,0.7-0.4,0.8-0.4,0.8c-0.6,0.5-1-0.3-1-0.3c-0.3,1.1-1,0.2-1,0.2c-0.2,0.6-1,0.2-1,0.2c-0.9,0.2-1.4-0.5-1.4-0.5l-3.3,0.3
	c0.3,0.4-1,1.8-1,1.8c1.1,1,0.6,1.8,0.6,1.8c-0.7,1.9-2.2,1.1-2.2,1.1c-1.4,0.3-2-0.9-2-0.9c-1-1.1,0.4-2.3,0.4-2.3l-0.3-0.4
	c-0.4-0.5-0.1-0.7-0.1-0.7l-0.5,0.1c-1.1,0.2-2.8,0.1-2.8,0.1l-4.8-1.2C65.4,318.9,65.4,318.5,65.4,318.5z M72,311.4
	c0.3,0.2,0.7,1.1,0.7,1.1l-0.2,0.7c0.7,0.6-0.5,2.6-0.5,2.6c0.2,0.1,0.2,2,0.2,2c0.2,1.2-0.2,1.6-0.2,1.6c0.4-0.2,8.5-1.4,8.5-1.4
	c0.3-0.1,0.3-0.3,0.3-0.3c-0.2-0.3-0.1-1.4-0.1-1.4c-0.1-0.3-0.5-1.1-0.5-1.1c-0.2-0.3-1.9-2.4-1.9-2.4c-0.7-0.5-2.6-3.1-2.6-3.1
	c-0.9,0.5-2.8-1.3-2.8-1.3c0.1-0.2-0.3-0.6-0.3-0.6C72.2,309.2,72,311.4,72,311.4z M80.9,301.7c-0.6,0.8-3.8,0.5-3.8,0.5
	c-1-0.2-0.8,0.8-0.8,0.8c0.7,0.2,2.5,3.7,2.5,3.7l-0.2,0.4c0.1,0.4,3.5,5.1,3.5,5.1c0.4-0.1,1.7,1.9,1.7,1.9c0.4,0.3,3.9,3,3.9,3
	l6.9-0.5l-0.4-2c-0.1-0.5,0-2,0-2l-0.7-0.9c-0.1-0.5-5.4-3.9-5.4-3.9c-1.1-0.4-2.9-1.8-2.9-1.8c-0.4-0.3-2.1-2.6-2.1-2.6
	C83,302.6,80.9,301.7,80.9,301.7z"/>
<path class="st51" d="M100,1311.9l-5.2,0c0,0-1.7-0.3-2.8-0.8l-0.5-0.2c0,0,0.3,0.3-0.3,0.7l-0.4,0.3c0,0,1.2,1.6-0.1,2.5
	c0,0-0.9,1-2.3,0.4c0,0-1.8,0.5-2-1.7c0,0-0.3-0.9,1.1-1.7c0,0-1-1.7-0.6-2.1l-3.3-1.1c0,0-0.6,0.6-1.6,0.2c0,0-0.9,0.2-1-0.5
	c0,0-0.9,0.7-1-0.5c0,0-0.6,0.7-1.1,0.1c0,0-0.5-0.2-0.2-0.9l0.1-0.3l-10.9-3.6c0,0-0.7,0.5-0.9,0.6c0,0-0.1,0.4-0.4,0.5
	c0,0,0.4,1.4-1,2.1c0,0-0.8,0.3-1.5,0.2c0,0-1.5,0.4-2-0.9c0,0-0.4-1,0.5-2c0,0,0.5-0.6,1.3-0.7c0,0-0.5-0.8-0.4-1.1l0-0.5
	c0,0-3.2-1.4-4.5-2.6c0,0-2.9-2.2-3.1-2.7c0,0,0-0.8,1-0.4c0,0,4.6,3.2,6.6,4.5c0,0,0.2-2.2,1.3-2.3c0,0,0.9-0.6,1.4-1.4
	c0,0,0-0.8,0.5-1c0,0,0.5-1,0.9-0.8c0,0,1-1.7,2-1c0,0,1.2,0.1,1.3,0.6c0,0,2.7-1.1,5.7-3.3c0,0,1.9-1.8,4.2-3c0,0,0.3-1,0.6-0.7
	c0,0-0.1-1.1,0.7-1.4l0.3-0.6c0,0-0.8-1.2,0.1-1.8c0,0,4.4-4.6,7.5-2.4c0,0,0.4-0.4,1.9,0.3c0,0,0.6-1.1,1.9-1.3
	c0,0-0.7-0.3,0.3-0.7c0,0,2.6-2.1,5,0.5c0,0-0.3-3.6,0.8-4c0,0,0.5-2.1,0.9-2.5l-0.1-0.3c0,0-0.5,0.6-1.4,0.2c0,0-0.9-0.3-1-0.4
	c0,0-0.8,0-0.7-0.3c0,0-0.6-0.2-0.6-0.5l-0.8-0.6c0,0-0.4-0.1-0.7,0.1c0,0-0.8,0.4-1-0.4c0,0-0.6-1.6-0.5-1.9c0,0,0-0.4-0.5-0.2
	l-1.5,0.2c0,0-0.7,0.2-1-0.7l-0.8-2.3c0,0-0.4-1.4,0.6-2.9c0,0,1.7-3.5,4.8-5.3c0,0,3.3-2.3,6.7,1.1c0,0,1.8,2,1.9,3
	c0,0,2.3-0.4,2.1,1c0,0,3.1-1.8,3.5-1.6c0,0,3.4-1,4.4,0.3c0,0,0.5,0.6,1.3,0.6c0,0,3.3,0.5,4,0.2c0,0,1.8-0.2,1.8,1.7
	c0,0,0.1,1.5-0.1,2c0,0,1.8-0.2,1.9,0.1l3.1,0.3c0,0,2.2-0.5,3.3,2l2.6,1.9c0,0,5.5,3.4,5.7,3.4c0.2-0.1,0.7,0,1.1-0.1
	c0,0,3.5-1.1,3.7-0.5l2,0.9c0,0,1.5,1.8,1.3,2.3c0,0-0.4,0.4-0.7,0.2l0.1,1.1c0,0-0.6,0.9-1,0.4l-0.5-1.4c0,0,0,1.6-0.4,1.8
	c0,0-0.7,0.6-0.5-0.2c0,0,0.4-2.3-0.9-1.7c0,0-2.8,1.2-4.4-0.1c0,0-5.7-2.5-6.8-2.1c0,0-0.8,0.3-1.6-0.1c0,0-2-0.9-2.5-0.7
	c0,0-5.8-2.2-6-2.8c0,0-0.8-1.1-1.6-0.8c0,0-1.9-0.4-2-0.6c0,0-0.6,0.6,0,1.3c0,0,3.2,5.5,2.8,8.6c0,0,0.2,1.6,1.4,2.7
	c0,0,2.6,4.7-0.2,9.6c0,0-0.8,0.7-0.6,1.2c0,0-0.9,2.2-3.7,1.7c0,0-2,4.5-8,2.9c0,0-7-2.6-7.5-3.9c0,0-0.3,0.4-0.8,0.6
	c0,0-1.3,7.1-1,8.1c0,0,0,1.8,0.4,2.4c0,0,1.2,3,0.8,3.9c0,0,0,0.8,0.1,1.1c0,0,0.2,1-0.6,1.3l-1,0.4l1.2,0.1c0,0,0.4,0.1,0.2,0.4
	C100.7,1311.6,100.6,1312,100,1311.9z M95.9,1298.8c0,0-0.6,0.4-0.5,0.6c0,0-2.5,1.4-3.3,0.7c0,0-2.6,2.2-3.5,2.5c0,0-2.2,1.8-2.5,2
	c0,0-0.7,0.7-0.8,1c0,0-0.2,1.3-0.5,1.5c0,0,0,0.2,0.3,0.4c0,0,8.2,3.2,8.5,3.5c0,0-0.4-0.6,0.2-1.8c0,0,0.5-1.9,0.7-2
	c0,0-0.8-2.3,0.2-2.8l0-0.8c0,0,0.6-0.9,1-1C95.6,1302.6,96,1300.3,95.9,1298.8z M86.1,1291.5c0,0-2.3,2-2.8,2.1c0,0-2.2,1-3.5,1.2
	c0,0-6.4,2.3-6.6,2.7l-1,0.7c0,0-0.2,1.5-0.4,2l-0.9,2l7,2.3c0,0,4.3-2,4.8-2.1c0,0,1.9-1.7,2.3-1.5c0,0,4.7-4.1,4.9-4.4l-0.2-0.4
	c0,0,2.8-3.2,3.6-3.2c0,0,0.5-1-0.6-1.1c0,0-3.4-0.5-3.8-1.5C88.8,1290.4,86.4,1290.7,86.1,1291.5z"/>
<path class="st52" d="M307,1210.1c0,0,0.6-0.5,0.9,0.2c0,0,0.9,0.1,1,0.5c0,0,0.8-0.6,1.4,0c0,0,1.8,0.2,2,0.4c0,0,1,0,2.1-0.2
	c0,0,0.8-0.2,1.6-0.4c0,0,1.9-1,4.9-1.4c0,0,0.5-0.1,1-0.4c0,0,0.2-0.3,1.1-0.3c0,0,0.6-0.2,1-0.4c0,0,0.8-0.4,1.3-0.7
	c0,0,0.4-0.6,0.7-0.5c0,0,0.4-0.7,1-0.4c0,0,0.7,0.1,0.8,0.2c0,0,0.6-0.1,0.8,0.4c0,0,0.6,0,0.8,0.4c0,0,0.4,0.4,0.4,1
	c0,0,0.2,1-0.2,1.1c0,0-0.1,0.4-0.4,0.4c0,0-0.4,0.1-0.4-0.6c0,0,0.1-1.1-0.7-0.7c0,0-0.1,0.4-0.8,0.5c0,0-1.2,1.2-2.1,0.9
	c0,0-6,3.5-6.8,3.7c0,0-0.7,0.2-1.4,0.7c0,0-1.2,0.1-1.6,0c0,0-2.6,0.2-2.8,0.2c0,0-0.5,2.4-1.7,1.7c0,0-1.5,0.1-1.6,0
	c0,0-0.4,0.2-0.6,0c0,0-2.2,2.8-3,4.2c0,0-0.5,3-0.5,3.6c0,0-0.1,3.3-0.3,3.5c0,0,0.4,0.8,1,0.8c0,0,2,0.2,3.4-0.3
	c0,0,1.5,0.3,1.5,0.5l1.8,0.4c0,0,1.3-0.1,1.3,0.9v0.3l0.7,0.7c0,0,0,0.5,0.2,0.9c0,0,0.5,0.7,0.3,0.8c0,0,3.3,3.1,3.7,4.7
	c0,0,1.6,2.1,1.2,4.2c0,0,2.5-1,4.1,0.7c0,0,2.4,1.2,1.3,4c0,0,1,0.6-0.8,1.9L307,1266c0,0-2.3,2.2-4.7,1.1c0,0-0.1,0.8-0.2,0.8
	c0,0,0,0.6,0.1,0.7c0,0,0,0.8,0.4,1.3c0,0,0.1,0.7-0.4,0.7c0,0-1.5,0.9-2.7,0.6c0,0-0.4-0.1-0.5-0.2c0,0-0.5-0.4-0.7-0.4
	c0,0-0.7-0.3-0.8-1c0,0-0.2-1.2,0-1.6c0,0,0.1-1.1,0-1.2c0,0-0.2-0.5-0.2-0.7c0,0,0.1-0.2-0.3,0c0,0-1.2,0.9-2.1,0.2
	c0,0-0.2-0.3-0.1-0.7c0,0,0.5-2.5,0.8-2.9c0,0-0.5-1.5-0.5-1.7c0,0,0-1.3,0.5-1.6c0,0,0.3-0.4-0.1-0.8c0,0-0.9-1.4-0.9-2.3
	c0,0-0.2-2.4,0-3.4c0,0,0.2-0.8,0-1c0,0-0.6-1.4-0.3-2.2c0,0,0.3-0.9,0.7-1.1c0,0-0.7-0.4-1-1c0,0-0.7-0.9-0.8-1.4
	c0,0,0-1.2,0.2-1.5c0,0,0.3-3.7-0.4-4.4c0,0-0.4-0.5-0.4-0.7c0,0-1-0.4-1-1.3c0,0,0.4-1.2-0.2-1.4c0,0-0.4-0.3-0.4-0.5
	c0,0-0.3-0.2-0.2-0.3c0,0-0.3,0.2-0.6-0.8c0,0-2.2-3.9-2.6-5.3c0,0-0.6-2.9-0.6-3.9c0,0-0.3-3.9,0.3-5c0,0-0.6-1.9-0.8-4
	c0,0-1.6-0.8-1.9-1.1c0,0-0.6-0.7-1.9-0.2c0,0-0.8-0.8-1-1.5c0,0-0.5-0.2-1.8,0c0,0-2.9,0.2-3.8-0.2c0,0-2.8-0.3-4.1-0.8
	c0,0-0.8-0.4-2.7-0.4l-2.8-0.1c0,0-2,0-2.4-1.1c0,0-0.4-0.6-0.6-0.6c0,0-1-0.5-1.1-0.9c0,0-0.3,0-0.4-0.4c0,0-0.6,0-0.4-0.4
	c0,0,0.5-1,0.8-1c0,0,0.4-0.1,0.4-0.4c0,0,0.3-0.2,0.5,0c0,0,0.6-0.4,0.7,0l0.2,0.2c0,0,0.3-0.4,0.6,0.2c0,0,1.2,1.2,1.7,1.7
	c0,0,0.7,0.8,1.2,0.9c0,0,1.9,0,3.1-0.2c0,0,0.9-0.3,2.3-0.1c0,0,2.9-0.4,4.2-0.1c0,0,1-0.2,1.8,0.3c0,0,1.1,0.3,1.4,0.3v-0.3
	c0,0,3.2-0.5,3.8-0.5c0,0,1-0.2,1.2,0c0,0,0.8-0.3,1-0.2c0,0,2.8-0.6,3-0.3c0,0,1-1.2,1.6-0.7c0,0,0.3,0.5,0.6,0.5
	c0,0,0.8,0.1,0.8-0.2c0,0-0.1-1.4,0.2-1.4c0,0,0.7-1.7,1-1.7c0,0-0.1-1.7,1.2-3.1c0,0,0.7-1.1,1.9-0.8c0,0,1.2-0.2,2.1,0.1
	c0,0,0.7,0.2,0.7,0.5c0,0,0.5,0.5,0.8,0.6c0,0,0.8,0.5,0.8,0.8c0,0,0.4,0.7,0.4,0.9c0,0,0.7,0.7,0.7,0.9c0,0,1,0.5,0.7,1.8
	c0,0,0.2,1.1,0,1.3c0,0,1.6-0.1,1.6,0.3c0,0,0.2,0.1,0.4,0c0,0,1.1,0,1.6,0.5 M264,1210c-0.1-0.1-0.5-0.5-0.5-0.5
	c0.1,0.1-0.4,0.2-0.4,0.2c0.4,0.1,0.9,0.6,0.9,0.6c0.4,0.2,0.8,0.4,0.8,0.4C264.6,1210.5,264,1210,264,1210z M304.5,1256.5l8.6-8.9
	c0-0.3,0.9-1.4,0.9-1.4c-0.5-0.5,0-1.6,0-1.6l-0.9-1.2c-0.7-0.7-0.8-2-0.8-2c-1.2-1.2-1.2-1.8-1.2-1.8c0-0.4-0.2-0.8-0.2-0.8
	c-0.4-0.4-0.5-1.2-0.5-1.2c0-0.7-0.6-0.6-0.6-0.6c-0.5,0.9-1.5,1.1-1.5,1.1c-0.9,0.2-6.5,1.9-6.5,1.9c0.3,0-0.3,4-0.3,4
	c0.6,0-0.2,3-0.2,3c-0.3,0.7,0,1,0,1c0.3,0,0.3,3.2,0.3,3.2c0.3,0.3-0.2,3.6-0.2,3.6c0.2,0.2-0.3,2.4-0.3,2.4
	c0.4,0.4,0.4,2.6,0.4,2.6C302.3,1258.5,304.5,1256.5,304.5,1256.5z"/>
<g>
	<path class="st53" d="M16.8,1347.1c-0.6-0.2-1.1-0.3-1.4-0.3c-0.5,0-1,0.2-1.3,0.6c-0.4,0.4-0.5,0.9-0.5,1.5c0,0.1,0,0.2,0,0.3H16
		v2.1h-2.4v8.8h-2.7v-8.8H9.1v-2.1h1.7c0.1-1.3,0.5-2.4,1.3-3.3c0.8-0.8,1.8-1.2,3.1-1.2c0.7,0,1.4,0.1,2.4,0.4L16.8,1347.1z"/>
</g>
<text transform="matrix(1 0 0 1 21.9146 1356.9375)" class="st37 st38 st54">sK8Facebook.com </text>
<g>
	<g id="Instagram_1_">
		<g id="Instagram">
			<path id="Head" class="st55" d="M315.5,1360.2h-6.2c-0.6,0-1,0.5-1,1v2.1h8.3v-2.1C316.6,1360.6,316.1,1360.2,315.5,1360.2z"/>
			<path id="Red_x5F_Stripes" class="st56" d="M308.8,1360.3v3h0.5v-3.1C309.1,1360.2,308.9,1360.2,308.8,1360.3z"/>
			<rect id="Yellow_x5F_Stripes" x="309.3" y="1360.2" class="st57" width="0.5" height="3.1"/>
			<rect id="Green_x5F_Stripes" x="309.8" y="1360.2" class="st58" width="0.5" height="3.1"/>
			<rect id="Blue_x5F_Stripes" x="310.3" y="1360.2" class="st59" width="0.5" height="3.1"/>
			<circle id="Lens_1_" class="st60" cx="315" cy="1361.7" r="0.8"/>
			<circle id="Lens_x5F_Outer" class="st61" cx="315" cy="1361.7" r="0.4"/>
			<circle id="Lens_x5F_Inside" class="st62" cx="315" cy="1361.7" r="0.1"/>
			<path id="Body" class="st63" d="M308.3,1363.3v4.1c0,0.6,0.5,1,1,1h6.2c0.6,0,1-0.5,1-1v-4.1H308.3z"/>
			<g id="Shadow">
				<polygon class="st64" points="314.7,1363.3 314.1,1362.7 314.1,1363.3 				"/>
				<path class="st65" d="M313.4,1363.3l-2.7,2.7l2.5,2.5h2.3c0.6,0,1-0.5,1-1v-2.3l-1.9-1.9H313.4z"/>
			</g>
			<circle id="Lens" class="st66" cx="312.4" cy="1364.3" r="2.3"/>
			<circle id="Inside_x5F_Lens" class="st60" cx="312.4" cy="1364.3" r="1.8"/>
			<circle id="_x32_nd_Inner_Circle" class="st61" cx="312.4" cy="1364.3" r="1"/>
			<circle id="Middle_Circle" class="st60" cx="312.4" cy="1364.3" r="0.5"/>
			<circle id="Reflection" class="st62" cx="313" cy="1363.7" r="0.4"/>
		</g>
	</g>
</g>
<text transform="matrix(1 0 0 1 322.0576 1365.6563)" class="st53 st38 st54">@sk8</text>
<g>
	<g>
		<path class="st67" d="M203.7,1307c0.1,0,0.3,0,0.4,0c0.1,0,0.2,0,0.3,0c0.2,0,0.4,0.1,0.6,0.2c0.4,0.1,0.7,0.3,1,0.6
			c0,0,0.1,0,0.1,0c0.5-0.1,1.1-0.3,1.6-0.5c0.1,0,0.1-0.1,0.1-0.1c0,0,0.1,0,0.1,0c0,0,0,0.1,0,0.1c0,0.1-0.1,0.2-0.2,0.4
			c-0.2,0.3-0.4,0.5-0.6,0.7c-0.1,0.1-0.3,0.2-0.4,0.3c0.1,0,0.2,0,0.4-0.1c0.4-0.1,0.8-0.2,1.1-0.3c0,0,0.1,0,0.1,0
			c0,0,0,0.1,0,0.1c-0.2,0.3-0.5,0.6-0.9,0.9c-0.1,0.1-0.3,0.3-0.5,0.4c0,0-0.1,0.1-0.1,0.1c0,0.1,0,0.3,0,0.4c0,0.4,0,0.7-0.1,1
			c-0.1,0.5-0.2,0.9-0.3,1.3c-0.3,0.9-0.8,1.7-1.4,2.4c-0.2,0.2-0.4,0.4-0.6,0.6c-0.4,0.4-0.9,0.8-1.4,1.1c-0.6,0.4-1.2,0.6-1.9,0.8
			c-0.4,0.1-0.9,0.2-1.3,0.3c-0.3,0-0.6,0.1-0.8,0.1c-0.1,0-0.2,0-0.3,0c-0.2,0-0.3,0-0.5,0c0,0,0,0,0,0c-0.2,0-0.3,0-0.5,0
			c-0.2,0-0.3,0-0.5,0c-0.5-0.1-1-0.2-1.5-0.3c-0.6-0.2-1.2-0.4-1.7-0.8c0,0-0.1,0-0.1-0.1c0,0,0.1,0,0.1,0c0.3,0,0.5,0,0.8,0
			c0.6,0,1.1-0.1,1.7-0.3c0.6-0.2,1.2-0.5,1.7-0.8c0,0,0,0,0,0c-0.1,0-0.3,0-0.4,0c-0.3-0.1-0.6-0.2-0.9-0.3
			c-0.3-0.1-0.5-0.3-0.7-0.5c-0.3-0.3-0.5-0.6-0.6-1c0-0.1,0-0.1,0.1-0.1c0.2,0,0.4,0,0.5,0c0.2,0,0.4,0,0.5-0.1c0,0,0,0,0,0
			c-0.4-0.1-0.9-0.3-1.2-0.6c-0.3-0.2-0.6-0.5-0.7-0.9c-0.1-0.3-0.2-0.6-0.3-0.8c0-0.1,0-0.2,0-0.4c0-0.1,0-0.1,0.1-0.1
			c0.3,0.2,0.7,0.3,1.1,0.3c0,0,0,0,0,0c0,0,0,0,0,0c-0.1-0.1-0.3-0.2-0.4-0.3c-0.2-0.2-0.3-0.4-0.4-0.6c-0.2-0.3-0.3-0.7-0.4-1.1
			c0-0.2,0-0.3,0-0.5c0-0.4,0.1-0.7,0.3-1c0.1-0.1,0.1-0.1,0.2,0c0.2,0.2,0.3,0.3,0.5,0.5c0.3,0.3,0.7,0.6,1.1,0.8
			c0.4,0.2,0.7,0.4,1.1,0.6c0.6,0.3,1.3,0.5,2,0.6c0.3,0.1,0.6,0.1,0.9,0.1c0.1,0,0.2,0,0.3,0c0,0,0,0,0,0c0-0.1,0-0.2,0-0.3
			c0-0.2,0-0.4,0-0.5c0-0.2,0.1-0.5,0.2-0.7c0.1-0.3,0.3-0.6,0.5-0.8c0.3-0.3,0.6-0.5,0.9-0.6c0.2-0.1,0.5-0.2,0.7-0.2
			C203.5,1307,203.6,1307,203.7,1307C203.7,1307,203.7,1307,203.7,1307z"/>
	</g>
</g>
<text transform="matrix(1 0 0 1 214.4365 1315.5)" class="st37 st38 st54">SK8twitter.com</text>
<text transform="matrix(0.7943 0 0 1 204 246.4883)"><tspan x="0" y="0" class="st53 st68 st69">Park (Men/Women)</tspan><tspan x="0" y="7.7" class="st53 st68 st69">Street (Men/Women)</tspan><tspan x="0" y="15.5" class="st53 st68 st69">ESSENCE OF THE SPORT</tspan><tspan x="0" y="23.2" class="st53 st68 st69">Supreme skills and youthful cool</tspan><tspan x="0" y="31" class="st53 st68 st69">Skateboard player</tspan></text>
<text transform="matrix(0.6919 0 0 1 103.7246 234.8564)" class="st37 st38 st70">Event Programme</text>
<text transform="matrix(0.9333 0 0 1 15.0591 206.626)"><tspan x="0" y="0" class="st71 st28 st72">2</tspan><tspan x="28.2" y="0" class="st73 st28 st72">0</tspan><tspan x="54.1" y="0" class="st53 st28 st72">2</tspan><tspan x="82.3" y="0" class="st74 st28 st72">0</tspan></text>
<g>
	<path class="st37" d="M80.7,386.8c-0.1,0.1-0.7,0-0.7-0.2c0-0.1,0.2-0.2,0.5-0.3c0.3-0.1,1.3-0.4,1.6-0.5c0.3-0.1,1.1-0.8,1.4-1
		c0.3-0.2,0.2-0.6,0.6-0.8c0.3-0.2,1.6-3,1.9-3.7c0.3-0.7,1.3-1.7,1.4-1.8c0.1-0.1,0.6-0.6,1.1-1.1c-0.1-0.1-0.1-0.3-0.1-0.3
		c0.1-0.3,1.1-1.4,1.8-2.3c0.7-0.9,3-2,3.2-2.1l-0.3-0.5c0,0-0.7-0.4-1-0.8c-0.4-0.3-0.7-1.6-0.6-2.5c-0.3-0.9-0.1-3.1,2-3.6
		c2-0.8,3.4,0.8,3.9,1.4c0.5,0.6,0.5,0.6,0.7,2c0.3,1.4-0.5,2.2-0.5,2.2s-0.2,0.9-0.1,1.1c0.1,0.3,1.5,0.1,2.7,0.3
		c1.2,0.2,4.4,2.1,4.7,2.3c0.1,0,0.1,0.3,0,0.6c0.8,0.4,1.6,0.9,1.8,1c0.6,0.3,1.6,0.7,2.3,1.5c0.7,0.9,2.4,3.1,2.8,3.2
		c0.4,0.2,0.8,0.3,0.8,0.3s1,0.3,1.6,0.8c0.6,0.5,1.1,0.9,1.3,1.1c0.2,0.1,0.3,0.6,0.1,0.6c-0.3,0-0.7-0.3-0.9-0.5
		c-0.2-0.2-0.5-0.4-0.4-0.2c0.1,0.1,0.7,0.7,0.9,0.8c0.2,0.1,0.7,0.6,0.7,0.8c0,0.2,0,0.3-0.2,0.2c-0.3-0.1-0.4-0.2-0.5-0.3
		c-0.1-0.1-0.4-0.3-0.7-0.5c-0.1-0.1-0.3-0.2-0.3-0.2c-0.1-0.1,0.1,0.3,0.4,0.5c0.3,0.2,0.9,0.6,1,0.7c0.1,0.1,0.2,0.4-0.1,0.5
		c-0.2,0-0.4-0.2-0.7-0.3c-0.3-0.2-0.6-0.4-0.7-0.5s-0.5-0.4-0.4-0.3c0,0.2,0.4,0.7,0.5,0.8c0.1,0.1,0.4,0.5,0.4,0.7
		c-0.1,0.2-0.4,0.2-0.5,0c-0.1-0.2-0.5-0.7-0.6-0.8c-0.1-0.1-0.5-0.4-0.6-0.5c-0.1-0.1-0.6-0.4-0.6-0.5c0-0.1,0,0.3,0.1,0.5
		c0.1,0.1,0.3,0.7,0,1c-0.1,0.1-0.3-0.1-0.3-0.2c0-0.2-0.2-0.8-0.3-1c-0.1-0.2-0.7-1.5-0.8-1.8c-0.1-0.3-2.5-2.1-3-2.4
		c-0.5-0.3-1.4-1.3-1.5-1.5c-0.1-0.1-1.5-1-2.4-1.3c-0.1,0.2-0.1,0.3-0.2,0.3c-0.2,0.3-2.2-1.1-1.9-0.4c0.1,0.2,2.2,3.1,2.5,3.4
		c0.2,0.2,0.3,0.6,0.2,0.8c0.4,0.5,0.9,1,1.2,1.3c0.8,0.8,1.3,1.9,1.1,2.4c-0.2,0.6-0.6,2.4-0.5,2.9c0.1,0.5,0,2.4,0.2,2.8
		c0.2,0.4-0.5,1.5-0.5,1.5s0.2,0.7-0.3,1.1c-0.2,0.1-0.6,0.3-1.1,0.4c-0.1,0.4-0.2,0.8-0.2,0.8s0.2,0.4,0.1,0.5
		c-0.1,0.1,0.9,0.4,0.9,0.9c0,0.5,0,1,0.2,1.4c0.2,0.4,0.6,1.2-0.3,1.7c-0.9,0.5-1.7-0.2-2.3-0.2c-0.6,0-0.9-0.5-0.9-0.8
		c0.1-0.3,0.4-0.9,0.3-1.4c-0.1-0.5-0.1-1.3,0.2-1.4c0.3-0.1,0.2-0.4,0.2-0.4s0.1-0.5,0.1-0.6c0-0.1,0-0.3,0-0.5
		c-0.2,0-0.4-0.1-0.5-0.2c-0.6-0.4-0.6-1.1-0.4-1.1c0.2,0,0.4-0.7,0.2-0.8c-0.2-0.1-0.4-1.1-0.2-1.4c0.1-0.3,0.5-2.8,0.6-3.4
		c0.1-0.6,0.2-1.9-0.5-2.2c-0.7-0.4-1.7-0.6-2.7-0.3c-1,0.3-1.4,1.3-1.5,1.6c-0.1,0.3-0.6,1.1-0.9,1.5c-0.4,0.4-0.6,2.5-0.4,3.1
		c0.2,0.6,0.6,2.4,0.6,2.6c0,0.2-0.3,0.9-0.3,1.3c0,0.4-0.1,1.7,0.1,2.1c0.1,0.4,0.1,0.9-0.4,1.1c-0.1,0-0.2,0.1-0.4,0.1
		c0,0.3,0.1,0.6,0.1,0.7c0.1,0.1,0.3,0,0.4,0.2c0.1,0.2,0.4,1.7,0.1,2.1c-0.3,0.4-2,0.9-2.4,1.4c-0.4,0.5-2.1,0.9-2.9,0.7
		c-0.8-0.2-0.6-1.4,0-1.7c0.6-0.4,1-0.7,1.3-1.2c0.3-0.5,0.6-1.2,0.4-1.3c-0.2-0.1,0.4-0.5,0.7-0.3c0.3,0.1,0.3,0.2,0.5,0.2
		c0.1,0,0.1-0.4,0.1-0.7c-0.6-0.1-1.2-0.3-1.3-0.6c-0.3-0.8-0.4-0.3-0.3-0.8c0.1-0.5-0.1-1.6,0.1-2.4c0.2-0.8,0.3-2.1,0.1-2.5
		c-0.1-0.4-1-2.5-0.9-3.5c0.1-1,1-2.4,1.1-2.6c0.1-0.3,0.1-0.8,0.6-1.1c0.3-0.2,1-1.6,1.3-2.4c-0.1,0-0.2,0-0.3,0
		c-0.3-0.2-0.1-0.9-0.2-1.3c-0.1-0.4-1.1-2-1.5-2.4c-0.4-0.4-1.2-0.5-1.2-0.5s-1.4,1.2-2.1,1.2c-0.1,0-0.3,0-0.4-0.1
		c-0.3,0.2-0.6,0.4-0.7,0.5c-0.3,0.1-0.2,0.7-0.7,1.5c-0.5,0.8-3.4,4.3-3.4,4.6c0,0.3,0.1,1,0,1.3c-0.1,0.3-0.5,0.8-0.5,0.9
		s-0.2,0.3-0.4,0.2c-0.2-0.2-0.3-0.4-0.2-0.5c0.1-0.1-0.1-0.2-0.3-0.2c-0.2,0-1.3,0.5-1.4,0.5c-0.2,0-0.4,0.7-0.5,1
		c-0.1,0.3-0.5,0.6-0.6,0.3c-0.3,0.3-0.6,0.2-0.6,0.1c0-0.2,0.6-0.9,0.6-0.9s-0.3,0.1-0.5,0c-0.1-0.2,0.1-0.3,0.5-0.5
		c0.3-0.2,0.8-0.6,0.8-0.7C81.5,386.6,80.8,386.7,80.7,386.8z"/>
	<path class="st37" d="M90.4,408.6c1.5,0.1,3-0.7,3.2-0.5l1.2-0.1c0,0.1,0,0.3,0,0.5c-0.4-0.1-0.9,0-1,0.1c-0.3,0.2-0.6,0.7-0.4,1.2
		c0.2,0.5,0.9,0.5,1.2,0.4c0.2-0.1,0.7-0.5,0.6-1.1c0.2,0.2,0.7,0.4,1.1,0.2c0.5-0.2,0.5-0.7,0.5-1c0-0.2-0.3-0.6-0.8-0.6
		c0-0.2,0.1-0.4,0-0.8c0.2-0.1,9.3-3.9,9.3-3.9l0.7,0.5c-0.1,0.3,0,0.8,0.3,1c0.5,0.3,1.4,0.2,1.6-0.3c0.9-0.1,0.9-0.9,0.7-1.3
		c-0.2-0.3-0.6-0.5-1-0.5l0,0c0,0-0.2-0.3-0.2-0.4c1.4-0.7,4-3.4,3.9-3.7c0,0-0.2-0.2-0.7,0.2c-0.5,0.4-2.8,2.4-3.5,3.1
		c-0.7,0.6-5.5,2.5-6.9,3.1c-1.4,0.6-5.6,2.2-7.1,2.8c-0.7,0.1-2.7,0.2-3.3,0.5C89,408.4,89.4,408.5,90.4,408.6z M106.8,402.9
		l0.4-0.2c-0.1,0.1-0.1,0.2-0.1,0.2S107,402.9,106.8,402.9z M95,407.9l0.1,0c0,0.1-0.1,0.1-0.1,0.2L95,407.9z"/>
</g>
<path class="st75" d="M284.6,685.8c0,0,0.4-0.4,0.7,0.2c0,0,0.7,0.1,0.8,0.4c0,0,0.6-0.5,1.1,0c0,0,1.4,0.2,1.5,0.3
	c0,0,0.8,0,1.6-0.1c0,0,0.6-0.2,1.2-0.3c0,0,1.5-0.8,3.8-1.1c0,0,0.4-0.1,0.8-0.3c0,0,0.2-0.2,0.9-0.2c0,0,0.5-0.2,0.8-0.3
	c0,0,0.6-0.3,1-0.6c0,0,0.3-0.5,0.5-0.4c0,0,0.3-0.5,0.7-0.3c0,0,0.5,0.1,0.6,0.2c0,0,0.4-0.1,0.6,0.3c0,0,0.5,0,0.6,0.3
	c0,0,0.3,0.3,0.3,0.7c0,0,0.1,0.8-0.2,0.8c0,0,0,0.3-0.3,0.3c0,0-0.3,0.1-0.3-0.4c0,0,0-0.8-0.6-0.6c0,0-0.1,0.3-0.6,0.4
	c0,0-1,0.9-1.6,0.7c0,0-4.6,2.7-5.3,2.9c0,0-0.5,0.2-1.1,0.6c0,0-0.9,0.1-1.2,0c0,0-2,0.1-2.2,0.1c0,0-0.4,1.8-1.3,1.3
	c0,0-1.1,0.1-1.2,0c0,0-0.3,0.1-0.4,0c0,0-1.7,2.2-2.3,3.2c0,0-0.4,2.3-0.4,2.8c0,0-0.1,2.6-0.3,2.7c0,0,0.3,0.6,0.8,0.6
	c0,0,1.5,0.2,2.6-0.2c0,0,1.1,0.2,1.1,0.4l1.4,0.3c0,0,1-0.1,1,0.7v0.2l0.5,0.5c0,0,0,0.4,0.1,0.7c0,0,0.4,0.5,0.2,0.6
	c0,0,2.6,2.4,2.8,3.6c0,0,1.2,1.6,0.9,3.3c0,0,1.9-0.7,3.2,0.5c0,0,1.8,1,1,3.1c0,0,0.8,0.5-0.7,1.5L284.7,729c0,0-1.8,1.7-3.7,0.9
	c0,0-0.1,0.6-0.1,0.6c0,0,0,0.4,0.1,0.5c0,0,0,0.6,0.3,1c0,0,0.1,0.5-0.3,0.5c0,0-1.2,0.7-2.1,0.5c0,0-0.3-0.1-0.4-0.1
	c0,0-0.4-0.3-0.6-0.3c0,0-0.5-0.2-0.6-0.8c0,0-0.1-0.9,0-1.2c0,0,0.1-0.8,0-0.9c0,0-0.2-0.4-0.2-0.5c0,0,0.1-0.2-0.2,0
	c0,0-0.9,0.7-1.6,0.2c0,0-0.1-0.2-0.1-0.5c0,0,0.4-2,0.6-2.2c0,0-0.4-1.1-0.4-1.3c0,0,0-1,0.4-1.2c0,0,0.2-0.3-0.1-0.6
	c0,0-0.7-1.1-0.7-1.8c0,0-0.2-1.9,0-2.7c0,0,0.2-0.6,0-0.8c0,0-0.4-1.1-0.3-1.7c0,0,0.2-0.7,0.5-0.8c0,0-0.6-0.3-0.8-0.8
	c0,0-0.6-0.7-0.7-1.1c0,0,0-0.9,0.2-1.1c0,0,0.3-2.9-0.3-3.4c0,0-0.3-0.4-0.3-0.5c0,0-0.8-0.3-0.8-1c0,0,0.3-0.9-0.1-1.1
	c0,0-0.3-0.3-0.3-0.4c0,0-0.2-0.2-0.1-0.3c0,0-0.2,0.2-0.5-0.6c0,0-1.7-3-2-4.1c0,0-0.4-2.2-0.4-3c0,0-0.3-3,0.3-3.9
	c0,0-0.4-1.4-0.6-3.1c0,0-1.2-0.6-1.5-0.8c0,0-0.4-0.6-1.4-0.2c0,0-0.6-0.6-0.8-1.2c0,0-0.4-0.1-1.4,0c0,0-2.2,0.2-2.9-0.2
	c0,0-2.2-0.2-3.1-0.6c0,0-0.6-0.3-2.1-0.3l-2.2-0.1c0,0-1.5,0-1.8-0.8c0,0-0.3-0.5-0.5-0.5c0,0-0.7-0.4-0.9-0.7c0,0-0.2,0-0.3-0.3
	c0,0-0.4,0-0.3-0.3c0,0,0.4-0.7,0.6-0.7c0,0,0.3-0.1,0.3-0.3c0,0,0.2-0.2,0.4,0c0,0,0.4-0.3,0.5,0l0.1,0.1c0,0,0.2-0.3,0.5,0.2
	c0,0,0.9,0.9,1.3,1.3c0,0,0.5,0.6,1,0.7c0,0,1.4,0,2.4-0.1c0,0,0.7-0.2,1.7-0.1c0,0,2.2-0.3,3.2-0.1c0,0,0.7-0.1,1.4,0.2
	c0,0,0.9,0.2,1.1,0.2v-0.2c0,0,2.5-0.4,3-0.4c0,0,0.7-0.2,0.9,0c0,0,0.6-0.3,0.8-0.1c0,0,2.2-0.4,2.3-0.3c0,0,0.8-0.9,1.2-0.5
	c0,0,0.2,0.4,0.4,0.4c0,0,0.6,0.1,0.7-0.2c0,0-0.1-1,0.2-1c0,0,0.6-1.3,0.8-1.3c0,0-0.1-1.3,1-2.4c0,0,0.5-0.9,1.5-0.6
	c0,0,0.9-0.2,1.6,0.1c0,0,0.6,0.1,0.6,0.4c0,0,0.4,0.4,0.6,0.5c0,0,0.6,0.4,0.6,0.6c0,0,0.3,0.5,0.3,0.7c0,0,0.5,0.5,0.5,0.7
	c0,0,0.8,0.4,0.5,1.4c0,0,0.1,0.8,0,1c0,0,1.2-0.1,1.2,0.2c0,0,0.2,0.1,0.3,0c0,0,0.9,0,1.2,0.4 M251.4,685.7
	c-0.1-0.1-0.4-0.4-0.4-0.4c0.1,0.1-0.3,0.1-0.3,0.1c0.3,0.1,0.7,0.5,0.7,0.5c0.3,0.2,0.6,0.3,0.6,0.3
	C251.9,686.2,251.4,685.7,251.4,685.7z M282.7,721.7l6.7-6.9c0-0.3,0.7-1.1,0.7-1.1c-0.4-0.4,0-1.2,0-1.2l-0.7-0.9
	c-0.5-0.5-0.6-1.6-0.6-1.6c-0.9-0.9-1-1.4-1-1.4c0-0.3-0.1-0.6-0.1-0.6c-0.3-0.3-0.4-0.9-0.4-0.9c0-0.5-0.5-0.5-0.5-0.5
	c-0.4,0.7-1.2,0.8-1.2,0.8c-0.7,0.2-5,1.5-5,1.5c0.2,0-0.2,3.1-0.2,3.1c0.5,0-0.1,2.3-0.1,2.3c-0.2,0.5,0,0.8,0,0.8
	c0.3,0,0.2,2.5,0.2,2.5c0.2,0.2-0.1,2.8-0.1,2.8c0.2,0.2-0.2,1.9-0.2,1.9c0.3,0.3,0.3,2,0.3,2C281,723.2,282.7,721.7,282.7,721.7z"
	/>
<path class="st75" d="M283.4,946.1l-4.4,0.7c0,0-1.5,0-2.5-0.3l-0.4-0.1c0,0,0.2,0.2-0.2,0.6l-0.3,0.3c0,0,1.2,1.2,0.2,2.1
	c0,0-0.7,1-1.9,0.6c0,0-1.5,0.6-1.9-1.1c0,0-0.4-0.8,0.7-1.6c0,0-1-1.3-0.8-1.7L269,945c0,0-0.5,0.6-1.3,0.3c0,0-0.8,0.3-0.9-0.3
	c0,0-0.7,0.7-0.9-0.3c0,0-0.4,0.7-0.9,0.2c0,0-0.5-0.1-0.3-0.7l0.1-0.2l-9.6-1.7c0,0-0.5,0.5-0.7,0.6c0,0-0.1,0.3-0.3,0.5
	c0,0,0.5,1.1-0.6,1.9c0,0-0.6,0.4-1.2,0.3c0,0-1.2,0.5-1.8-0.5c0,0-0.5-0.8,0.2-1.7c0,0,0.3-0.6,1-0.7c0,0-0.5-0.7-0.5-0.8l-0.1-0.4
	c0,0-2.9-0.8-4.1-1.7c0,0-2.7-1.5-2.9-1.9c0,0-0.1-0.7,0.8-0.4c0,0,4.2,2.1,6.1,3c0,0-0.1-1.9,0.8-2.1c0,0,0.6-0.6,1-1.3
	c0,0-0.1-0.7,0.3-0.9c0,0,0.3-0.9,0.7-0.8c0,0,0.6-1.6,1.5-1.1c0,0,1.1-0.1,1.2,0.3c0,0,2.1-1.3,4.4-3.4c0,0,1.3-1.7,3.2-3
	c0,0,0.1-0.9,0.5-0.6c0,0-0.2-0.9,0.4-1.3l0.2-0.5c0,0-0.9-0.9-0.1-1.5c0,0,3.1-4.4,6-2.9c0,0,0.3-0.4,1.6,0c0,0,0.4-1,1.4-1.4
	c0,0-0.7-0.2,0.2-0.7c0,0,1.9-2.1,4.3-0.2c0,0-0.6-3,0.2-3.4c0,0,0.2-1.8,0.5-2.2l-0.1-0.3c0,0-0.4,0.5-1.1,0.3c0,0-0.8-0.2-0.9-0.3
	c0,0-0.7,0.1-0.6-0.2c0,0-0.5-0.1-0.6-0.4l-0.8-0.4c0,0-0.3-0.1-0.6,0.2c0,0-0.6,0.4-0.9-0.3c0,0-0.7-1.3-0.6-1.5c0,0,0-0.3-0.4-0.1
	l-1.2,0.4c0,0-0.6,0.3-0.9-0.5l-1-1.8c0,0-0.5-1.1,0.1-2.5c0,0,1-3.1,3.4-5c0,0,2.5-2.3,5.8,0.1c0,0,1.7,1.5,1.9,2.3
	c0,0,1.9-0.6,1.9,0.6c0,0,2.4-1.9,2.7-1.8c0,0,2.7-1.2,3.7-0.3c0,0,0.5,0.5,1.2,0.4c0,0,2.8,0,3.4-0.3c0,0,1.5-0.4,1.7,1.2
	c0,0,0.3,1.3,0.1,1.7c0,0,1.4-0.4,1.6-0.1l2.6-0.1c0,0,1.8-0.7,3,1.3l2.4,1.2c0,0,5,2.2,5.2,2.1c0.2-0.1,0.6-0.1,0.9-0.3
	c0,0,2.8-1.3,3.1-0.9l1.8,0.5c0,0,1.5,1.4,1.4,1.7c0,0-0.3,0.3-0.5,0.3l0.2,0.9c0,0-0.4,0.8-0.8,0.4l-0.6-1.1c0,0,0.2,1.4-0.2,1.6
	c0,0-0.5,0.5-0.5-0.1c0,0,0.1-2-1-1.3c0,0-2.2,1.4-3.7,0.4c0,0-5.1-1.4-5.9-0.9c0,0-0.6,0.3-1.3,0.1c0,0-1.8-0.5-2.2-0.3
	c0,0-5.1-1.2-5.4-1.6c0,0-0.8-0.8-1.4-0.4c0,0-1.6-0.1-1.8-0.3c0,0-0.4,0.5,0.2,1.1c0,0,3.3,4.2,3.4,6.9c0,0,0.4,1.3,1.5,2.1
	c0,0,2.8,3.6,1,8.1c0,0-0.6,0.7-0.3,1.1c0,0-0.5,2-2.9,1.9c0,0-1.2,4.1-6.3,3.4c0,0-6.2-1.3-6.8-2.4c0,0-0.2,0.4-0.6,0.6
	c0,0-0.3,6.1,0.2,6.9c0,0,0.2,1.5,0.6,2c0,0,1.4,2.3,1.1,3.2c0,0,0.1,0.7,0.2,0.9c0,0,0.3,0.8-0.3,1.1l-0.8,0.4l1.1-0.1
	c0,0,0.3,0,0.2,0.3C283.9,945.8,283.9,946.1,283.4,946.1z M278.3,935.5c0,0-0.4,0.4-0.4,0.5c0,0-1.9,1.5-2.7,1c0,0-1.9,2.2-2.6,2.5
	c0,0-1.7,1.8-1.9,2c0,0-0.5,0.6-0.6,0.9c0,0,0,1.1-0.2,1.3c0,0,0,0.2,0.3,0.3c0,0,7.2,1.7,7.6,2c0,0-0.4-0.5-0.1-1.5
	c0,0,0.2-1.7,0.4-1.8c0,0-0.9-1.9-0.2-2.3l-0.1-0.7c0,0,0.4-0.8,0.7-0.9C278.6,938.8,278.6,936.8,278.3,935.5z M269.2,930.7
	c0,0-1.7,1.9-2.1,2.1c0,0-1.7,1.1-2.8,1.4c0,0-5.1,2.7-5.2,3.1l-0.7,0.7c0,0,0,1.3-0.1,1.8l-0.5,1.8l6.2,1.1c0,0,3.4-2.2,3.8-2.4
	c0,0,1.4-1.7,1.7-1.6c0,0,3.4-4,3.6-4.3l-0.2-0.3c0,0,2-3,2.6-3.1c0,0,0.3-0.9-0.6-0.8c0,0-2.9,0-3.4-0.8
	C271.4,929.3,269.4,929.9,269.2,930.7z"/>
<g>
	<path class="st37" d="M259,1117.8c-0.2,0.2-1,0-1-0.2c0-0.2,0.4-0.3,0.8-0.4c0.4-0.1,2-0.6,2.5-0.7c0.4-0.1,1.6-1.2,2-1.5
		c0.4-0.3,0.4-1,0.8-1.2s2.4-4.5,2.9-5.5c0.5-1,1.9-2.6,2-2.8c0.1-0.1,0.9-0.9,1.6-1.6c-0.1-0.2-0.2-0.4-0.1-0.5
		c0.1-0.5,1.7-2.2,2.7-3.5c1-1.3,4.5-3.1,4.7-3.2l-0.4-0.8c0,0-1.1-0.6-1.5-1.2c-0.6-0.4-1.1-2.3-1-3.8c-0.5-1.3-0.1-4.6,3.1-5.5
		c3.1-1.2,5.1,1.2,5.8,2.1c0.7,0.9,0.8,0.9,1.1,3c0.5,2.1-0.7,3.3-0.7,3.3s-0.2,1.3-0.1,1.7c0.2,0.4,2.2,0.1,4,0.4
		c1.8,0.3,6.6,3.2,7.1,3.5c0.1,0.1,0.1,0.4,0,0.9c1.2,0.6,2.4,1.3,2.8,1.5c0.9,0.4,2.4,1,3.5,2.3c1,1.3,3.7,4.6,4.2,4.9
		c0.6,0.3,1.2,0.4,1.2,0.4s1.6,0.4,2.5,1.1c0.9,0.7,1.7,1.4,2,1.6c0.3,0.2,0.5,0.9,0.1,0.9c-0.4,0-1.1-0.5-1.4-0.8
		c-0.3-0.3-0.7-0.5-0.6-0.3c0.1,0.2,1,1,1.4,1.2c0.4,0.2,1.1,0.9,1.1,1.1c0,0.2,0,0.5-0.4,0.4c-0.4-0.1-0.6-0.3-0.8-0.4
		c-0.1-0.1-0.6-0.5-1-0.7c-0.2-0.1-0.4-0.3-0.5-0.3c-0.2-0.1,0.1,0.4,0.6,0.7c0.5,0.3,1.3,1,1.4,1.1c0.2,0.2,0.2,0.6-0.1,0.7
		c-0.4,0-0.7-0.3-1.1-0.5c-0.4-0.2-0.9-0.6-1-0.8c-0.2-0.2-0.7-0.7-0.6-0.4c0.1,0.2,0.6,1,0.8,1.2c0.1,0.2,0.7,0.8,0.6,1
		c-0.1,0.2-0.5,0.2-0.8,0c-0.2-0.2-0.8-1-0.9-1.2c-0.1-0.2-0.7-0.6-0.8-0.8c-0.1-0.2-0.8-0.6-0.9-0.8c0-0.2,0,0.5,0.2,0.7
		c0.1,0.2,0.4,1.1,0,1.5c-0.2,0.2-0.4-0.1-0.5-0.4c-0.1-0.3-0.3-1.2-0.4-1.5c-0.1-0.3-1-2.2-1.2-2.7c-0.2-0.5-3.7-3.2-4.5-3.6
		c-0.8-0.4-2-2-2.3-2.2c-0.2-0.2-2.3-1.4-3.6-2c-0.1,0.2-0.2,0.4-0.2,0.5c-0.2,0.4-3.4-1.7-2.9-0.6c0.1,0.2,3.3,4.7,3.7,5.1
		c0.3,0.4,0.5,0.9,0.4,1.2c0.7,0.7,1.4,1.5,1.9,2c1.2,1.2,1.9,2.8,1.6,3.6c-0.3,0.9-0.9,3.5-0.8,4.3c0.1,0.8,0,3.5,0.3,4.2
		c0.3,0.6-0.8,2.3-0.8,2.3s0.3,1.1-0.4,1.6c-0.3,0.2-0.9,0.4-1.6,0.5c-0.2,0.5-0.4,1.3-0.4,1.3s0.3,0.6,0.1,0.8
		c-0.2,0.2,1.4,0.6,1.3,1.3c0,0.7,0,1.6,0.3,2.1c0.3,0.6,0.9,1.8-0.4,2.6c-1.3,0.8-2.6-0.3-3.5-0.3c-0.9,0-1.4-0.8-1.3-1.2
		c0.1-0.4,0.6-1.4,0.5-2c-0.1-0.7-0.2-2,0.3-2.2c0.4-0.2,0.2-0.6,0.2-0.6s0.1-0.7,0.1-0.9c0-0.1,0-0.4,0-0.7c-0.3,0-0.6-0.1-0.8-0.2
		c-1-0.6-1-1.6-0.6-1.6c0.3,0,0.6-1.1,0.3-1.2c-0.3-0.1-0.5-1.6-0.3-2c0.2-0.4,0.8-4.2,1-5c0.2-0.9,0.3-2.8-0.8-3.3
		c-1.1-0.5-2.6-0.9-4.1-0.4c-1.5,0.4-2,1.9-2.2,2.4c-0.2,0.4-0.9,1.7-1.4,2.3c-0.5,0.5-1,3.8-0.6,4.6c0.3,0.9,1,3.6,1,4
		c0,0.3-0.4,1.3-0.4,1.9s-0.1,2.6,0.1,3.1c0.2,0.5,0.1,1.3-0.6,1.7c-0.1,0.1-0.3,0.1-0.6,0.2c0,0.5,0.1,0.9,0.2,1
		c0.2,0.2,0.5,0,0.6,0.3c0.1,0.3,0.6,2.5,0.1,3.2c-0.5,0.6-3,1.3-3.6,2.1c-0.6,0.8-3.1,1.4-4.4,1.1s-0.9-2,0-2.6
		c0.8-0.6,1.6-1,2-1.8c0.4-0.8,0.9-1.8,0.6-2c-0.3-0.2,0.6-0.7,1-0.5c0.4,0.2,0.5,0.4,0.7,0.3c0.1,0,0.2-0.5,0.2-1.1
		c-0.9-0.2-1.7-0.5-1.9-1c-0.4-1.2-0.6-0.4-0.4-1.2c0.2-0.7-0.2-2.4,0.1-3.5c0.3-1.2,0.4-3.1,0.2-3.8c-0.2-0.6-1.5-3.8-1.3-5.3
		c0.2-1.5,1.5-3.5,1.6-4c0.1-0.4,0.2-1.2,0.9-1.6c0.5-0.3,1.5-2.4,2-3.6c-0.2,0-0.4,0-0.4,0c-0.4-0.2-0.1-1.3-0.2-1.9
		c-0.2-0.6-1.7-3-2.3-3.6c-0.6-0.6-1.8-0.7-1.8-0.7s-2.1,1.8-3.1,1.8c-0.2,0-0.4,0-0.6-0.1c-0.5,0.3-1,0.7-1.1,0.7
		c-0.4,0.1-0.2,1.1-1,2.3c-0.8,1.2-5.1,6.4-5.1,7c0,0.5,0.2,1.5,0,1.9c-0.2,0.4-0.8,1.2-0.8,1.4c0,0.2-0.2,0.5-0.6,0.3
		c-0.3-0.2-0.4-0.6-0.3-0.8c0.1-0.2-0.2-0.3-0.5-0.2c-0.3,0-1.9,0.7-2.1,0.7c-0.2,0-0.6,1.1-0.8,1.5c-0.2,0.4-0.8,0.9-1,0.4
		c-0.5,0.4-0.9,0.4-1,0.1c0-0.2,0.9-1.3,0.9-1.3s-0.5,0.2-0.7,0c-0.2-0.2,0.2-0.5,0.7-0.8c0.5-0.3,1.2-0.9,1.2-1.1
		C260.3,1117.4,259.2,1117.6,259,1117.8z"/>
	<path class="st37" d="M273.5,1150.4c2.3,0.2,4.5-1,4.7-0.7l1.8-0.2c0,0.2,0,0.5,0,0.8c-0.6-0.2-1.4,0-1.6,0.1
		c-0.4,0.3-0.8,1.1-0.6,1.8c0.3,0.7,1.4,0.7,1.8,0.6c0.3-0.1,1.1-0.8,1-1.7c0.4,0.4,1,0.7,1.6,0.4c0.8-0.4,0.8-1,0.7-1.5
		c-0.1-0.4-0.4-0.9-1.2-0.9c0.1-0.3,0.1-0.7,0.1-1.1c0.3-0.2,13.9-5.9,13.9-5.9l1.1,0.8c-0.1,0.5,0,1.2,0.5,1.6
		c0.8,0.5,2.1,0.3,2.4-0.4c1.4-0.2,1.4-1.4,1.1-2c-0.3-0.5-0.9-0.8-1.5-0.7l0,0c0,0-0.2-0.5-0.2-0.6c2.1-1,6-5.1,5.8-5.5
		c0,0-0.3-0.3-1,0.3c-0.7,0.6-4.3,3.6-5.3,4.6c-1,1-8.3,3.8-10.4,4.7c-2.1,0.9-8.4,3.3-10.6,4.2c-1,0.2-4,0.3-5,0.8
		C271.5,1150.2,272.1,1150.3,273.5,1150.4z M298.3,1141.9l0.6-0.4c-0.1,0.2-0.2,0.3-0.2,0.3S298.5,1141.9,298.3,1141.9z
		 M280.5,1149.5l0.2,0c-0.1,0.1-0.1,0.2-0.2,0.3L280.5,1149.5z"/>
</g>
</svg>
