<?xml version="1.0" encoding="utf-8"?>
<!-- Generator: Adobe Illustrator 22.0.1, SVG Export Plug-In . SVG Version: 6.00 Build 0)  -->
<svg version="1.1" id="Слой_1" xmlns="http://www.w3.org/2000/svg" xmlns:xlink="http://www.w3.org/1999/xlink" x="0px" y="0px"
	 viewBox="0 0 1195.4 2355.7" style="enable-background:new 0 0 1195.4 2355.7;" xml:space="preserve">
<style type="text/css">
	.st0{fill:#D14A43;}
	.st1{fill:#5661A6;}
	.st2{font-family:'StrokeRUSBYLYAJKA-Medium';}
	.st3{font-size:111.6214px;}
	.st4{fill:#F5EC46;}
	.st5{fill:#000105;}
	.st6{fill:#52AB62;}
	.st7{fill:#CB4C47;stroke:#000105;stroke-miterlimit:10;}
	.st8{fill:#262D34;}
	.st9{fill:#1A1715;}
	.st10{font-family:'NEON';}
	.st11{font-size:315.1052px;}
	.st12{font-size:304.1983px;}
	.st13{fill:#54A261;}
	.st14{fill:#575FA4;}
	.st15{font-size:58.9871px;}
	.st16{fill:#E1D34A;}
	.st17{fill:#FFFFFF;}
	.st18{fill:#D14A43;stroke:#201600;stroke-miterlimit:10;}
	.st19{clip-path:url(#SVGID_2_);}
	.st20{filter:url(#Adobe_OpacityMaskFilter);}
	.st21{filter:url(#Adobe_OpacityMaskFilter_1_);}
	.st22{mask:url(#SVGID_3_);fill:url(#SVGID_4_);}
	.st23{fill:url(#SVGID_5_);}
	.st24{filter:url(#Adobe_OpacityMaskFilter_2_);}
	.st25{filter:url(#Adobe_OpacityMaskFilter_3_);}
	.st26{mask:url(#SVGID_6_);fill:url(#SVGID_7_);}
	.st27{fill:url(#SVGID_8_);}
	.st28{fill:#D14A48;}
	.st29{filter:url(#Adobe_OpacityMaskFilter_4_);}
	.st30{filter:url(#Adobe_OpacityMaskFilter_5_);}
	.st31{mask:url(#SVGID_9_);fill:url(#SVGID_10_);}
	.st32{fill:url(#SVGID_11_);}
	.st33{filter:url(#Adobe_OpacityMaskFilter_6_);}
	.st34{filter:url(#Adobe_OpacityMaskFilter_7_);}
	.st35{mask:url(#SVGID_12_);fill:url(#SVGID_13_);}
	.st36{fill:url(#SVGID_14_);}
	.st37{filter:url(#Adobe_OpacityMaskFilter_8_);}
	.st38{filter:url(#Adobe_OpacityMaskFilter_9_);}
	.st39{mask:url(#SVGID_15_);fill:url(#SVGID_16_);}
	.st40{fill:url(#SVGID_17_);}
	.st41{fill:#64B061;}
	.st42{fill:#5D6AAC;}
	.st43{fill:#F3EB48;}
	.st44{fill:#201600;}
	.st45{fill:#4A6A90;}
	.st46{fill:#E59E44;}
	.st47{font-family:'PeaceSans';}
	.st48{font-size:26.8218px;}
	.st49{font-family:'GoudyStout';}
	.st50{fill:#D14A44;stroke:#201600;stroke-miterlimit:10;}
	.st51{font-size:21.2541px;}
	.st52{font-family:'PalatinoLinotype-Roman';}
	.st53{font-size:22.5043px;}
	.st54{fill:none;}
	.st55{font-size:15.0029px;}
	.st56{fill:#86594D;}
	.st57{fill:#D35454;}
	.st58{fill:#F4CB56;}
	.st59{fill:#53AC6E;}
	.st60{fill:#6ABEE9;}
	.st61{fill:#242D38;}
	.st62{fill:#334555;}
	.st63{fill:#466177;}
	.st64{fill:#E4DFDA;}
	.st65{fill:#73473D;}
	.st66{fill:#CECAC3;}
	.st67{fill:#DAD6D2;}
	.st68{fill-rule:evenodd;clip-rule:evenodd;fill:#FFFFFF;}
</style>
<circle class="st0" cx="630.3" cy="288.7" r="288.7"/>
<text transform="matrix(1 0 0 1 491.4093 137.8311)"><tspan x="0" y="0" class="st1 st2 st3">T</tspan><tspan x="65.1" y="0" class="st4 st2 st3">o</tspan><tspan x="124.8" y="0" class="st5 st2 st3">k</tspan><tspan x="184" y="0" class="st6 st2 st3">y</tspan><tspan x="242.1" y="0" class="st7 st2 st3">o</tspan></text>
<path class="st8" d="M264.6,61c-1.3-2.2-3.7-6.4-5.1-8.4c-1.4-2-5-7.2-8.8-8.2c-3.8-1-16.1-1.5-19.5-0.1c-3.4,1.4-17.5,0.2-22,2.6
	c-4.4,2.3-14.4,5.1-16.2,5.4c-1.8,0.3-7.3-1-9.6-0.9c-2.3,0.1-14.5,1.1-15.5,0.3c-1-0.8-5.6-2.5-6.7-2.4c-1.2,0.1-19.9-2.5-21.1-3.9
	c-1.2-1.4-2.4-2.5-3.3-2.6c-0.8-0.2-6.3-15.8-25-10.6c-2.3,0.6-6.8,5.6-8.5,9.1c-1.8,3.4-4.4,8.4-2.2,13.4c0.4,4.1-0.6,5-0.6,5
	S94,62.3,91,64.6c-3,2.3-10.1,8.2-11.3,8.5c-1.2,0.4-3.7,2.8-3.7,2.8s-12.5,5.7-15.3,6.7C58,83.5,41.9,97.5,38.9,98.4
	c-3,0.9-8,1.7-9.2,1.5c-1.1-0.2-5.4-0.1-7,2.4c-2.4,2.4-1.3,5.5-1.3,5.5c-0.8,1,0.7,4.1,0.7,4.1c-0.5,1.3,1.4,3.1,3.4,3.2
	c2,0.1,4.1,1,6.7-0.5c-0.2,1.1-1.4,4.6,0.1,5.5c1.6,0.9,2.3-1.6,3.4-4.3c1.1-2.7,3.9-7.3,5.3-8.5c1.4-1.2,17.2-7.8,21.9-10
	c4.7-2.3,17.2-7.8,19.5-10.8c2.3-3,0.6,1.5,1.9,2.3c-3.3,5.7-8.6,20.5-11.9,24.2c-3.3,3.7-4.4,5.5-2.7,8.7c1.7,3.2,3.7,6.7,3.5,7.5
	c-0.2,0.8-0.7,3.6,0.6,4.4c1.3,0.8-0.1,6.6-1.2,6.4c-1.1-0.2-2.4-4.2-4.6-4.6c-2.2-0.4-6.2,2.3-4,4.4c2.2,2.1-1.8,5.1-1.8,5.1
	s-3.4,1.4-2.9,3.2c0.5,1.8-8.6,1.3-10.5,1.2c-2-0.1-5,5.4-2.3,7.6c2.7,2.2,18,6.4,21.5,4.5c3.5-1.9,7.5-1.8,9-2.1
	c1.5-0.3,6.2,0.8,6.9-1.6c0.7-2.4-0.5-11.3,0.1-13.2c0.6-1.9,1.3-5.8,2.6-6.1c1.2-0.4,4.7-2.3,6.2-4.3c1.5-2,1.1-6.1,1.2-8.1
	c0.1-2-0.1-5.8,0.3-6.5c0.4-0.8,4.1-7,4.8-8.9c0.6-1.9,1.8-6.6,3.1-5.8c1.3,0.8,15.3,12.3,17.9,15c2.6,2.8,7.9,8.3,7,9
	c-1,0.7-2.6,3-1,5.6c1.5,2.6,3.7,3.5,3.7,3.5s-0.9,4.7-2.6,4.7c-1.7,0-2.8,0.9-4.6,1.5c-1.8,0.5-3.2,1.7-1.5,3.5
	c1.7,1.7-1.9,5.7-4.5,7.5c-2.6,1.8-14.6,9.1-3.7,14c10.9,4.9,15.1,0.5,18.4-2.1c3.3-2.5,4.3-3.2,4.8-4.6c0.5-1.3-0.1-4.3,1.1-5.8
	c1.1-1.5,3.2-3.4,3.4-6c0.2-2.5-0.4-4.1-0.5-5.3c-0.1-1.2,0.8-3,1.8-3.4c0.9-0.4,3.4,3.2,5.3,1c1.8-2.2,1.6-5.7,1.9-7.4
	c0.3-1.7,2-4.5,3.4-4.3c1.4,0.3,12.1,4.2,17.8,0.1c5.6-4.1,7.7-10.6,8.3-15.7c0.6-5,2.8-6.1,2.6-9.3c-0.3-3.2,0.8-7.3-1.4-11.2
	c-2.2-3.8-7.4-19.4-6.9-21.6c0.4-2.2,7.3-4.1,12.1-3.2c4.7,0.9,8-1.1,8-1.1l-0.7-4.1c0,0,9-0.4,12.4-1.8c3.4-1.4,7.6-0.9,13-3.6
	c5.4-2.7,14.8-8.8,16.8-8.7c2,0.1,3.6,4.1,8.3,5c4.7,0.9,8,0.3,8.9,1.3c1,1,2.5-1,3.4-1.4c2.3,1.3,7.1,5,7.6,6.8
	C263,64.8,265.9,63.3,264.6,61z M127.9,93.4c-1.7,0-17.6-12.1-18.8-13.5c0,0,10.4,2.5,12.9,4.9C124.4,87.3,129.6,93.4,127.9,93.4z
	 M145.6,193.5c-2.1-0.5-10.1-2.6-16.6-3.9c-6.5-1.3-30.4-9.3-39.1-12.7c-8.7-3.5-39.5-14.4-44.6-17.9c-5.1-3.5-12.5-5.2-15.3-4.2
	c-2.8,0.9-3.9,6.3-0.3,9.4c3.6,3.1,7.8,4.6,13.7,6.5c0.9,0.3,3,1,5.8,2c0.5,2,1.5,5.7,1.2,5.8c-0.3,0.2-3.4-0.1-5.1-0.2
	c-0.6-1.1-1.6-1.8-2.9-2.2c-3.8-1-5.3,1.5-5.5,3.6c-0.3,2,0.8,4.3,3.1,4.8c2.3,0.5,4.9-0.5,5.6-3.2c0.1-0.2,0.1-0.4,0.1-0.6
	c2.5,0,11.5-0.5,11.5-0.5s0.6,1.1,2.3,1.4c2.2,0.3,3.7-2.5,2.7-4.2c17.1,6.3,40.3,14.9,45.7,17.5l1.2,4.6c0,0-2.5,1-2.8,0.6
	c-0.4-0.4-2-2.2-4.1-2c-2.1,0.2-5.3,1.3-4.9,5.6c0.4,4.2,4.6,4.7,6.7,4c2.1-0.8,3-3.2,3.2-4.1c0.2-1,2.2-1,4-1.4
	c1.8-0.4,3.2-0.4,3.2-0.4s1.2,1.5,3.3,1.3c1.8-0.1,3.2-2.2,3-3.9c3.4,0.7,6.8,1.1,9.9,1.5c6.9,0.8,16.5-3.9,17.2-5.3
	C148.5,194,147.7,194,145.6,193.5z M56.9,178.3c0,0-3.7,0.6-3.9,0c-0.2-0.5-0.9-3.6-0.9-4.6c2,0.7,4.2,1.5,6.7,2.4
	C57.6,176.5,57,177.7,56.9,178.3z M114.1,198.2c0,0-2,0.5-2.3,0.2c-0.2-0.2-0.3-1-0.5-1.9c1.1,0.4,2.2,0.8,3.3,1.2
	C114.3,197.9,114.1,198.2,114.1,198.2z"/>
<rect x="-5" y="203.8" class="st8" width="93.3" height="393.2"/>
<rect x="1118.6" y="203.8" class="st8" width="76" height="393.2"/>
<path class="st8" d="M88.3,204.8c0,0,53.8,377.9,542,376.7s488.2-376.7,488.2-376.7v375.4H88.3V204.8z"/>
<rect x="63.8" y="577.3" class="st8" width="1092.7" height="19.7"/>
<g>
	<path class="st8" d="M1111.4,115.4c2.3-0.6,14.9-2.1,17.5,7.3c2.6,9.4-0.6,19-9.6,21.6c-2.1,0.7-3.2-1.5-3.2-1.5s-0.5,5.7,0.1,6.1
		c0.6,0.4,1.9,4.5,1.8,5.2c0,0.8,0.2,3.8,0.2,3.8s-0.2,4.2,0.7,5c0.9,0.8,0.8,7.1,1.9,8.3c1.1,1.2,4.5,5,4.7,9.6
		c0.2,4.6,1.3,16.4,2.3,18.8c1,2.3,2.9,5.9,1.1,7.9c-1.5,2.8-1.9,3.7-3.5,4.4c-1.6,0.7-6.1,1-5.9,0.1c0.2-0.9-1.7,0.1-1.9-1.3
		c0.7-0.4,1.1-0.6,1.1-0.6s0.9-1,1.7-1.2c0.8-0.2,2.5-0.4,3-1.1c0.5-0.7,1.2-1.1,0.9-1.7c-0.3-0.6-0.9-2.7-1.1-2.3
		c-0.2,0.4-0.7,1.3-0.8,1.9c0,0.6-0.7,2.4-1.7,2.4c-1-0.1-1.3-0.6-1-2.1c0.3-1.4,0.3-1.8,0.1-2.9c-0.1-1.1-1.4-2.9-0.1-4.8
		c1.2-1.8,1-2.6,0.4-4.2c-0.6-1.6-4.9-13-5.3-14.8c-0.5-1.8,0.2-3.2-0.4-5.4c-0.6-2.2-4.5-8.8-6.1-12.7c-2-0.4-3.5,0.2-3.6-0.5
		c-0.1-0.7-3.1-7.5-3.4-8.3c-0.2-0.9-1.4-1.2-1.5-2.3c-0.1-1.1-0.6-1.9-0.9-2.2c-0.4-0.3-2.2-1.6-3.2-1.6c-1,0-5.2,0.3-11.7-1.7
		c-6.6-2-14.1-3.2-16.8-3.1c-2.7,0.1-8.6,0.3-9.4,0.9c-0.8,0.5-1.2,1.8-2,1.6c-0.7-0.2-0.1,2.1-1,1.9c-0.9-0.2-1.3-4.1-1.6-5
		c-0.3-1-2.1-0.1-2.2,1.6c-0.1,1.7,2.8,5.1,1.8,5.6c-1,0.5,1.5,3.9,0.9,4.4c-0.6,0.5-0.2,3.4-0.1,6.1c0.1,2.7,0.8,6.9-3,10.5
		c-3.8,3.6-9.9,7.9-19,2.9c-9.1-5-10.6-5.3-9.6-6c1-0.7-0.4-3.3-0.2-4.6c0.3-1.3-0.2-2.9-0.6-2.3c-0.4,0.5-1.2,5.1-1.3,6.4
		c-0.1,1.3-0.4,4.4-1.7,6.8c-1.3,2.4-1.7,4.5-4.9,6.6c-3.2,2.1-5.2,6-8.6,5.3c-3.4-0.7-7.8,0.6-10.6-0.3c-2.8-0.9-5.1-1-6.8-1.9
		c-1.7-0.8-3.4-3.6-5.1-3.7c-1.7-0.1-2.3,0.1-2-0.9c0.2-0.9,0.1-2.7,0.1-2.7s-28-7.3-30.1-6.5c-2.1,0.8-9.3,7.3-9.8,9.4
		c-0.5,2.1-3.4,6.3-5.8,6.2c-2.5-0.1-6-0.9-6.8-5.1c-0.7-4.2,0.3-6.4,0.1-8.9c-0.3-2.5,2-8.8,1.7-10.4c-0.3-1.5,2.9-4,6.1-3.3
		c3.2,0.7,9.2,2,11.7,2.3c2.5,0.3,9,1.6,12.1,0.4c3.1-1.2,14.9-1.3,20.2,0.1c5.3,1.4,6.7,3.4,7.3,2.8c0.6-0.5,1.6-1.6,2.2-1.6
		c0.6,0,2.5,0.3,3.4,0.9c0.9,0.6,3.2,1.5,3.9,1c0.8-0.5,0.5-2.4,1.7-2.8c1.2-0.3,2-1.8,2.8-2.7c0.8-0.9,1.5-2.6,1.5-3.9
		c0.1-1.3,2.4-2.9,1.7-3.7c-0.7-0.8-8.2-3.5-10.1-3c-1.9,0.5-4.9,2-6.1,3.9c-1.2,1.8-0.9,6.4-4.7,7.4c-3.9,0.9-6.4-0.7-6.5-6.2
		c-0.1-5.5,1.3-6.2,2-10.4c0.8-4.1,3-9.9,6.3-11.3c3.3-1.4,9.1,3.9,11.5,5.1c2.4,1.3,6.7,3.2,8,3.6c1.3,0.4,3.4,1.1,3.4,1.1
		s3.8-7.2,3.9-9.3c0.1-2.1,1.3-10.8,6.1-15.1c4.8-4.3,9.1-7.2,13.3-7.7c4.2-0.6,3.9-2.5,5.2-2c1.3,0.4,3.6-0.2,6.1-0.6
		c2.5-0.4,4.2,0.2,4.5,1c2.3-0.5,21.3,0.3,22.6,0.6c1.3,0.3,0.2-3.2-0.3-4.8c-0.5-1.5-2.9-2.2-2.3-3.2c0.6-0.9-1-3.7-1.3-4.6
		c0,0-2,2.9-3.8,3.6c-1.7,0.7-5.1,2.2-5.6,2.2c-0.6,0-2.6-1.1-3.7-1.1c-1.1-0.1-1.1-1.8,0.3-2.3c1.4-0.5,2.3,0.5,3,0.7
		c0.8,0.2,2-1.2,1.4-1.6c-0.5-0.4-3.5-1.3-4.7-1.4c-1.1-0.1-2.3-0.3-2.6-0.9c-0.3-0.6,0.1-1.2,0.6-1.2c0.5,0,2.9,0,3.5,0
		c0.6,0,2-0.5,1.8-0.6c-0.2-0.1-3.7-0.4-4.4-0.4c-0.7,0-2.1-0.1-2.7-0.2c-0.6-0.1-1-1.1-0.6-1.6c0.4-0.5,1.9-1,4.4-0.7
		s3.6,0.2,3.5,0c-0.1-0.2-0.7-0.5-2.1-0.5c-1.5-0.1-1.6-0.3-2.7-0.3c-1-0.1-1.7-0.1-1.9-0.6c-0.2-0.5,0.3-1.1,1.1-1.1
		c0.9,0,1.8-0.1,2-0.1c0.2,0,2.8-0.9,4.7-0.5c1.9,0.4,2.5-0.6,3.1-1c0.6-0.4-0.8-4-1-5.8c-0.2-1.7-0.2-6.6,1.5-8.1
		c1.8-1.5,4.1-1.1,5.2-0.3c1.2,0.8,6.3,4.1,7.7,8.3c1.4,4.2,2.9,7.2,3.5,7.4c0.7,0.2,1.3,0.2,1.7,0.9c0.3,0.8,1.2,2.2,1.8,2.9
		c0.5,0.7,2.5,3.5,3,4.8c0.5,1.3,3.4,3.3,4.1,3.8c0.7,0.5,2.6,1.1,3.4,2.4c0.8,1.3,5.1,3.7,6.5,7.4c1.3,3.7,1.9,6.1,3,6.9
		c1.1,0.8,1.5,1.9,1.5,2.4c0,0.5,1.3,1.6,2.2,1.9c0.8,0.3,1.5-1.3,2.2-1.2c0.7,0,1.1,0.3,1.6,0.5c0.5,0.1,1.1-0.1,1.1-0.1
		S1108.6,116.2,1111.4,115.4z"/>
	<path class="st8" d="M990.3,120.2c-3.8-1.3-9.3,0.8-13.8,3.2c-0.1-0.5-0.2-0.9-0.3-1.1c-0.2-0.6-1.9-1.2-4.6-1.1
		c-2.7,0.1-4.2,2-4.4,2.2c-0.2,0.2-0.1,2.2,0.2,2.9c0.2,0.6,1.6,0.7,3.2,0.6c0,0-0.1,0.1-0.1,0.1c-4,2.7-14,8.3-18.8,11.3
		c-4.6,2.9-17.9,12.1-21.2,14.3c-0.1-0.7-0.4-1.4-0.6-1.6c-0.2-0.5-1.9-0.8-4.3-0.3c-2.4,0.5-3.5,2.3-3.6,2.6
		c-0.1,0.2,0.2,1.9,0.6,2.6c0.3,0.5,1.5,0.4,2.9,0.1l0.1,1.2c-1.7,2.1-3.4,4.7-4.4,7.7c-2,5.7-0.8,12.2,1.4,14.3
		c2.2,2.1,9-3.3,12.7-6.2c3.7-3,14.2-9.3,21.5-13.3c7.3-4.1,18.9-9.5,24.3-12c5.4-2.6,12.5-7.6,15.3-13.1
		C999.3,129,996.2,122.2,990.3,120.2z"/>
</g>
<polygon class="st9" points="635.2,227.8 683.2,227.8 615.9,317 688.9,416.9 638.6,416.9 578,334.1 578,306.1 "/>
<text transform="matrix(1 0 0 1 432.5001 416.9014)" class="st5 st10 st11">S</text>
<text transform="matrix(1 0 0 1 685.7531 416.9009)" class="st5 st10 st12">8</text>
<g>
	<path class="st13" d="M1017.9,560.3c-0.5,0.1-0.5-0.3-0.9-0.2C1016.7,560.9,1018,560.7,1017.9,560.3z"/>
	<path class="st13" d="M1123.8,575c-0.1,0.8,0.3,1,0.6,1.4C1124.7,576.1,1124.4,575.1,1123.8,575z"/>
	<path class="st13" d="M1124.7,571.1c0.4-0.3,1.5,0.1,1.9-0.3C1126.1,570.6,1124.9,570.5,1124.7,571.1z"/>
	<path class="st13" d="M1124.9,573c0.6-0.5,1.5-0.2,2-0.5C1126.3,572.4,1124.9,572.1,1124.9,573z"/>
	<path class="st13" d="M1123.6,562.2c-0.3,0.3,0.2,0.9-0.5,0.5c0.2,1,0.5,0.3,1.1,0.2c0,0.1,0,0.2,0.2,0.2
		C1124.4,562.5,1123.9,562.4,1123.6,562.2z"/>
	<path class="st13" d="M997.4,557.6c0.6-0.1,1.1,0.7,1.6,0.3C998.5,557.8,997.2,557.2,997.4,557.6z"/>
	<path class="st13" d="M1123.9,561.7c-0.5,0.1-1.5-0.2-1.7,0.2C1123,561.8,1123.4,562.1,1123.9,561.7z"/>
	<path class="st13" d="M1168.4,547.4c-2.4,1.6-3.9,4-6.8,5c0.1,0.7-1.5,0.5-0.9,1.1c0.1-0.5,0.9,0.2,0.8-0.2
		C1163.3,552,1167,550.2,1168.4,547.4z"/>
	<path class="st13" d="M1124.9,568.6c-0.5,0.2-0.1,1-0.9,1.1c0-0.2-0.1-0.3-0.2-0.5c-0.7,0.2-1.7,0.8-1.3,1.6c0.4,0,0.6-0.8,1.1-0.3
		c0,0.2,0,0.4,0,0.6c0.4-0.1,0.7-0.2,0.9-0.5c-0.3-0.5-0.7,0-0.9-0.3c0.3,0-0.2-0.4,0.3-0.5c0,0.7,0.5-0.3,0.9-0.2
		c-0.2,0.2-0.2,0.4,0.2,0.5c0.2-0.3,0.2-0.8,0.8-0.8c0,0.2,0.3,0.1,0.3,0.3c-0.5-0.2-0.3,0.3-0.3,0.6c1.8,0.1,3.4,1.2,3,3
		c0.5,0,0.6-0.3,0.9-0.5c-0.1-0.8-0.6-1.3-0.6-2.2c0.2,0,0.3,0,0.5,0c0-0.5-0.6-0.5-0.2-0.9C1128,569.4,1126.3,567.9,1124.9,568.6z"
		/>
	<path class="st13" d="M1124.9,575.4c-0.2,0.6,0.4,0.4,0.3,0.9c0.9,0,1.2,0,1.9,0C1127,575.1,1125.7,575.5,1124.9,575.4z"/>
	<path class="st13" d="M1127.2,575.2c1,0.5,2-0.3,2.2-1.1c-0.3-0.1-0.4-0.3-0.8-0.3C1128.5,574.5,1127.8,574.8,1127.2,575.2z"/>
	<path class="st13" d="M1022.2,572.5c0-0.4-0.2-0.6-0.6-0.6C1021.6,572.3,1021.7,572.6,1022.2,572.5z"/>
	<path class="st13" d="M1015.7,571.1c-0.2,0-0.3,0-0.5,0c0,0.4,0.3,0.5-0.3,0.5c0,0.4-0.1,0.9,0.3,0.9
		C1015.8,572.2,1016,571.8,1015.7,571.1z"/>
	<path class="st13" d="M985.9,552.1c0.4,0.1,0.7,1,1.3,0.5C986.7,552.6,986.2,551.7,985.9,552.1z"/>
	<path class="st13" d="M1015.6,573c-0.1,1.1,0.4,1.7,1.3,1.9c0-0.1,0-0.3,0.2-0.3C1016.5,574.1,1016.3,573.3,1015.6,573z"/>
	<path class="st13" d="M1022,562.6c0-0.1,0.1-0.2,0.3-0.2c0.2-0.6-0.5-0.1-0.5-0.5c0.3-0.1,1.1,0.3,0.9-0.3c-0.1-0.4-0.9,0-0.8-0.5
		c0.4,0.1,1,0.4,0.9-0.3C1021.8,560.5,1021.3,562.1,1022,562.6z"/>
	<path class="st13" d="M1017.3,574.9c1.2,1.5,5.1,0.6,4.6-1.3C1021.1,574.9,1018.8,575.3,1017.3,574.9z"/>
	<path class="st13" d="M1018.4,572.1c0.1,0,0.2,0,0.3,0c0,0.4-0.3,0.5,0.2,0.6c-0.1-0.5,0.5-0.2,0.5-0.6
		C1019.2,571.9,1018.5,571.7,1018.4,572.1z"/>
	<path class="st13" d="M1020.8,560c-0.5,0.2-1.4,0-1.6,0.5C1019.9,560.5,1020.6,560.5,1020.8,560z"/>
	<path class="st13" d="M1065.4,537C1065.4,537,1065.4,537,1065.4,537c0.1,0,0.2,0,0.3,0C1065.6,537,1065.5,537,1065.4,537z"/>
	<path class="st13" d="M1072.9,560.1c1.5,0.3,2.5,0,4.1,0.2C1076.3,559.7,1073.9,560,1072.9,560.1z"/>
	<path class="st13" d="M1095.7,560.1c-0.9-0.2-3.2-0.5-3.8,0.2C1093.6,560.1,1094.8,560.5,1095.7,560.1z"/>
	<path class="st13" d="M1099.6,560.1C1098.4,559.5,1098.5,560.7,1099.6,560.1L1099.6,560.1z"/>
	<path class="st13" d="M1118.8,560.3c0.2,0.2,0.7,0.1,0.9-0.2C1119.5,559.9,1118.8,559.8,1118.8,560.3z"/>
	<path class="st13" d="M1071.7,560.3c0.2,0.2,0.7,0.2,1.1,0.2C1072.9,559.9,1071.7,560.1,1071.7,560.3z"/>
	<path class="st13" d="M1171.4,543.2c0,0,2.7-11-19.6-8.8c0,0-4.7,0.9-13.6,3.5c0,0-3.7,1.5-14.9-0.1c0,0-2.5-0.7-15.6-0.8
		c-0.3,0-0.6,0-0.9,0c-0.2,0-0.4,0-0.6,0c0,0-0.1,0-0.1,0c0,0,0,0,0,0c-1.8,0-3.8,0-6,0c0,0,0,0,0,0c0,0,0,0-0.1,0
		c-1.9,0-35.2,0.1-41.2,0.2c0.1-0.1-15.9-0.3-16.2-0.3c0,0-1.1-0.1-3.2,0c-0.2,0-0.4,0-0.6,0c0,0,0.1,0,0.1,0c-0.5,0-1.1,0-1.7,0
		c-0.3,0.1-0.5,0-0.6,0c-3.9,0.1-9.6,0.5-16.5,1.5c0,0-6.2,1.5-17.4-1.3c0,0-15.1-3.7-20.3,2.7c0,0-6.9,6,0.9,11.9
		c0,0,11.1,9.6,28.3,9.6c0,0,6.8-0.7,6.8-0.1v3.1c0,0-2.4,0.6-3.1,1.3c0,0-1.1,1.1-2.3,4.3c0,0-1.7,4.6,4.1,6.4c0,0,1,0.5,2.4,0.5
		c0.1,0,0.2,0,0.3,0c0.4,0,0.7-0.1,1.1-0.2c0,0,0,0,0.1,0c0,0,0,0,0.1,0c1.1-0.3,2.3-1.1,3.1-2.8c0,0,3-4.4-0.5-7.8
		c0,0,1.4-3.4,2.6-2.4c0.1,0,0.2,0,0.3,0c0.8-0.5,3.5-2.1,4.1-3.2l56.9,0.7c0,0,8.9-0.3,16.6-0.4c-13.5,0.1-27.6,0.4-41.1,0
		c1.2-1.1,5.8,0,7.5-0.6c-2.1-0.4-5.5,0-7.4-0.2c-0.4,0-0.5,0.4-0.5,0.8c-0.3-0.1-0.1-0.6-0.6-0.5c-10.8,0.6-25.9-0.4-36.4-0.2
		c-1,0-1.8-0.2-3.1-0.2c-0.3,0.6-1.1,0-1.7,0.5c0.3-0.3-0.2-0.6-0.5-0.8c-3.2,0.1-7.6,0.7-12.1,0.5c-1.8-0.1-3.5-0.7-5.2-0.8
		c-1.3,0-2.2-0.1-3.3-0.6c3.4,0.3,7.4,1.3,11.5,1.1c2.1-0.1,4.2-0.9,6.1-0.3c1.5-1.1,3.5-0.3,5.5-0.5c3.3-0.2,9-0.7,13.8-0.5
		c16,0.7,30.8,0.6,47.7,0.6c8.6,0,16.1,0.2,22,0c4.3-0.1,8.5-0.3,12.6-0.2c7.1,0.3,12.8,2,20.3,1.6c8.1-0.5,14-4.3,20.7-6.9
		c-2.6,1.7-6.4,3.8-8.6,4.4c0.3,0.2-1.1,0.6-1.6,0.8c-5.3,2.5-11.9,2.9-18.1,2.5c-2.1-0.6-5.6-1-8.8-0.9c0.6,0.4,2.3,0.2,3.3,0.6
		c-3.6-0.2-7.3-0.3-11.1-0.3c0.1,0.2,0.9,1.7,1.7,1.7c0,0,1.4,0.2,1.4,0.8c0,0,0.4,0.8,1.9,0.6c0,0,1.2,1.6,1.2,2.2c0,0-2,2.2-2,2.9
		c0,0-1,5.3,2.3,7.3c0,0,6,4,9.7-3.1c0,0,0.1-0.2,0.1-0.4c0.3-1.5,0.1-3-0.4-4.4c-0.6-1.2-1.9-2.4-4.2-3.2l0.1-3.4
		c0,0,3.4,0.3,7.3,0.4c-1.4-0.1,5-0.1,4.2,0c2.4-0.1,4.7-0.3,6.2-0.9c0,0,3-0.8,7-2.3c1.2-0.2,2.8-1.2,2.6-1.1
		C1161.4,554.8,1169.7,549.9,1171.4,543.2z M985.9,552.1c0.3-0.4,0.8,0.4,1.3,0.5C986.7,553.1,986.3,552.2,985.9,552.1z M1015,571.6
		c0.6,0,0.4-0.1,0.3-0.5c0.2,0,0.3,0,0.5,0c0.2,0.7,0,1.1-0.5,1.4C1014.9,572.5,1015,572,1015,571.6z M1016.8,574.9
		c-0.8-0.2-1.3-0.8-1.3-1.9c0.7,0.3,0.9,1.1,1.4,1.6C1016.8,574.6,1016.9,574.8,1016.8,574.9z M1023,560.9c0.1,0.7-0.6,0.4-0.9,0.3
		c-0.1,0.5,0.7,0.1,0.8,0.5c0.1,0.6-0.6,0.2-0.9,0.3c-0.1,0.4,0.7-0.1,0.5,0.5c-0.2,0-0.3,0-0.3,0.2
		C1021.3,562.1,1021.8,560.5,1023,560.9z M1022.2,572.5c-0.5,0.1-0.6-0.3-0.6-0.6C1022,571.9,1022.2,572.1,1022.2,572.5z
		 M1021.9,573.6c0.5,1.9-3.4,2.8-4.6,1.3C1018.8,575.3,1021.1,574.9,1021.9,573.6z M1020.8,560c-0.2,0.5-0.9,0.5-1.6,0.5
		C1019.4,559.9,1020.3,560.2,1020.8,560z M1019.4,572.1c0,0.4-0.6,0.1-0.5,0.6c-0.5-0.1-0.2-0.2-0.2-0.6c-0.1,0-0.2,0-0.3,0
		C1018.5,571.7,1019.2,571.9,1019.4,572.1z M1017,560.1c0.5-0.1,0.5,0.3,0.9,0.2C1018,560.7,1016.7,560.9,1017,560.1z M997.4,557.6
		c-0.1-0.4,1.2,0.2,1.6,0.3C998.5,558.4,998,557.5,997.4,557.6z M1124.4,562.9c-0.1,0-0.1-0.1-0.2-0.2c-0.6,0.2-0.9,0.8-1.1-0.2
		c0.7,0.4,0.2-0.1,0.5-0.5C1123.9,562.4,1124.4,562.5,1124.4,562.9z M1123.9,561.7c-0.5,0.4-0.9,0.1-1.7,0.2
		C1122.5,561.5,1123.4,561.8,1123.9,561.7z M1124.4,576.5c-0.3-0.4-0.7-0.7-0.6-1.4C1124.4,575.1,1124.7,576.1,1124.4,576.5z
		 M1124.7,571.1c0.2-0.6,1.3-0.5,1.9-0.3C1126.3,571.2,1125.1,570.8,1124.7,571.1z M1126.9,572.5c-0.6,0.2-1.4,0-2,0.5
		C1124.9,572.1,1126.3,572.4,1126.9,572.5z M1125.2,576.3c0.1-0.5-0.5-0.4-0.3-0.9c0.8,0.2,2.1-0.2,2.2,0.9
		C1126.4,576.3,1126.1,576.3,1125.2,576.3z M1127.2,575.2c0.5-0.4,1.2-0.7,1.4-1.4c0.4,0,0.5,0.2,0.8,0.3
		C1129.2,574.9,1128.3,575.7,1127.2,575.2z M1129.4,569.7c-0.4,0.4,0.2,0.5,0.2,0.9c-0.2,0-0.3,0-0.5,0c0.1,0.9,0.5,1.4,0.6,2.2
		c-0.3,0.1-0.5,0.5-0.9,0.5c0.4-1.8-1.2-2.8-3-3c0-0.3-0.2-0.8,0.3-0.6c0-0.2-0.3-0.1-0.3-0.3c-0.5,0-0.6,0.5-0.8,0.8
		c-0.3-0.1-0.3-0.2-0.2-0.5c-0.5-0.2-0.9,0.9-0.9,0.2c-0.5,0,0,0.4-0.3,0.5c0.2,0.3,0.7-0.2,0.9,0.3c-0.2,0.2-0.5,0.4-0.9,0.5
		c0-0.2,0-0.4,0-0.6c-0.5-0.5-0.7,0.3-1.1,0.3c-0.4-0.8,0.6-1.4,1.3-1.6c0.1,0.1,0.2,0.3,0.2,0.5c0.8-0.1,0.5-0.9,0.9-1.1
		C1126.3,567.9,1128,569.4,1129.4,569.7z M1160.7,553.5c-0.3-0.9,0.3-0.4,0.9-1.1c2.9-1,4.4-3.5,6.8-5c-1.4,2.8-5.1,4.6-6.9,6
		C1161.1,554,1160.7,553.8,1160.7,553.5z"/>
</g>
<text transform="matrix(1 0 0 1 1019.6144 534.1533)"><tspan x="0" y="0" class="st14 st2 st15">2</tspan><tspan x="30.6" y="0" class="st16 st2 st15">0</tspan><tspan x="58.9" y="0" class="st17 st2 st15">2</tspan><tspan x="89.5" y="0" class="st18 st2 st15">0</tspan></text>
<rect x="-3.4" y="597.3" class="st17" width="1198.1" height="1765.7"/>
<g>
	<defs>
		<rect id="SVGID_1_" x="-3.4" y="597.3" width="1198.1" height="1765.7"/>
	</defs>
	<use xlink:href="#SVGID_1_"  style="overflow:visible;fill:#FFFFFF;"/>
	<clipPath id="SVGID_2_">
		<use xlink:href="#SVGID_1_"  style="overflow:visible;"/>
	</clipPath>
	<g class="st19">
		<defs>
			<filter id="Adobe_OpacityMaskFilter" filterUnits="userSpaceOnUse" x="-481" y="668" width="2027.1" height="548.3">
				<feFlood  style="flood-color:white;flood-opacity:1" result="back"/>
				<feBlend  in="SourceGraphic" in2="back" mode="normal"/>
			</filter>
		</defs>
		<mask maskUnits="userSpaceOnUse" x="-481" y="668" width="2027.1" height="548.3" id="SVGID_3_">
			<g class="st20">
				<defs>
					<filter id="Adobe_OpacityMaskFilter_1_" filterUnits="userSpaceOnUse" x="-481" y="668" width="2027.1" height="548.3">
						<feFlood  style="flood-color:white;flood-opacity:1" result="back"/>
						<feBlend  in="SourceGraphic" in2="back" mode="normal"/>
					</filter>
				</defs>
				<mask maskUnits="userSpaceOnUse" x="-481" y="668" width="2027.1" height="548.3" id="SVGID_3_">
					<g class="st21">
					</g>
				</mask>
				
					<linearGradient id="SVGID_4_" gradientUnits="userSpaceOnUse" x1="1032.434" y1="-88.2288" x2="1156.9562" y2="-212.7511" gradientTransform="matrix(0.8356 0.5493 0.5493 -0.8356 -316.9163 200.7827)">
					<stop  offset="0" style="stop-color:#FFFFFF"/>
					<stop  offset="0.1758" style="stop-color:#D7D7D7"/>
					<stop  offset="0.5719" style="stop-color:#737373"/>
					<stop  offset="1" style="stop-color:#000000"/>
				</linearGradient>
				<polygon class="st22" points="-481,1216.2 -380.5,1056.2 1345.1,668 1546.1,807.5 				"/>
			</g>
		</mask>
		
			<linearGradient id="SVGID_5_" gradientUnits="userSpaceOnUse" x1="1032.434" y1="-88.2288" x2="1156.9562" y2="-212.7511" gradientTransform="matrix(0.8356 0.5493 0.5493 -0.8356 -316.9163 200.7827)">
			<stop  offset="0" style="stop-color:#595959"/>
			<stop  offset="0.2621" style="stop-color:#818181"/>
			<stop  offset="0.8467" style="stop-color:#E4E4E4"/>
			<stop  offset="1" style="stop-color:#FFFFFF"/>
		</linearGradient>
		<polygon class="st23" points="-481,1216.2 -380.5,1056.2 1345.1,668 1546.1,807.5 		"/>
		<path class="st8" d="M-176,1017.1c0,0,984,6.4,1472-429.9H-176L-176,1017.1z"/>
		<defs>
			<filter id="Adobe_OpacityMaskFilter_2_" filterUnits="userSpaceOnUse" x="-322.5" y="476" width="1959.9" height="766.7">
				<feFlood  style="flood-color:white;flood-opacity:1" result="back"/>
				<feBlend  in="SourceGraphic" in2="back" mode="normal"/>
			</filter>
		</defs>
		<mask maskUnits="userSpaceOnUse" x="-322.5" y="476" width="1959.9" height="766.7" id="SVGID_6_">
			<g class="st24">
				<defs>
					<filter id="Adobe_OpacityMaskFilter_3_" filterUnits="userSpaceOnUse" x="-322.5" y="476" width="1959.9" height="766.7">
						<feFlood  style="flood-color:white;flood-opacity:1" result="back"/>
						<feBlend  in="SourceGraphic" in2="back" mode="normal"/>
					</filter>
				</defs>
				<mask maskUnits="userSpaceOnUse" x="-322.5" y="476" width="1959.9" height="766.7" id="SVGID_6_">
					<g class="st25">
					</g>
				</mask>
				
					<linearGradient id="SVGID_7_" gradientUnits="userSpaceOnUse" x1="1062.438" y1="123.4898" x2="1195.3882" y2="-9.4603" gradientTransform="matrix(0.4611 0.8873 0.8873 -0.4611 107.1283 -137.6142)">
					<stop  offset="0" style="stop-color:#FFFFFF"/>
					<stop  offset="0.1758" style="stop-color:#D7D7D7"/>
					<stop  offset="0.5719" style="stop-color:#737373"/>
					<stop  offset="1" style="stop-color:#000000"/>
				</linearGradient>
				<polygon class="st26" points="-322.5,564.3 -160,476 1527.2,1018.3 1637.4,1242.7 				"/>
			</g>
		</mask>
		
			<linearGradient id="SVGID_8_" gradientUnits="userSpaceOnUse" x1="1062.438" y1="123.4898" x2="1195.3882" y2="-9.4603" gradientTransform="matrix(0.4611 0.8873 0.8873 -0.4611 107.1283 -137.6142)">
			<stop  offset="0" style="stop-color:#595959"/>
			<stop  offset="0.2621" style="stop-color:#818181"/>
			<stop  offset="0.8467" style="stop-color:#E4E4E4"/>
			<stop  offset="1" style="stop-color:#FFFFFF"/>
		</linearGradient>
		<polygon class="st27" points="-322.5,564.3 -160,476 1527.2,1018.3 1637.4,1242.7 		"/>
		<path class="st28" d="M-141.5,571.5c0,0,475.1,162.8,745,263.3c270,100.5,531.4,130.1,727,127.9V571.5H-141.5z"/>
	</g>
	<g class="st19">
		<defs>
			<filter id="Adobe_OpacityMaskFilter_4_" filterUnits="userSpaceOnUse" x="-35.1" y="1753.6" width="1476.8" height="526">
				<feFlood  style="flood-color:white;flood-opacity:1" result="back"/>
				<feBlend  in="SourceGraphic" in2="back" mode="normal"/>
			</filter>
		</defs>
		<mask maskUnits="userSpaceOnUse" x="-35.1" y="1753.6" width="1476.8" height="526" id="SVGID_9_">
			<g class="st29">
				<defs>
					<filter id="Adobe_OpacityMaskFilter_5_" filterUnits="userSpaceOnUse" x="-35.1" y="1753.6" width="1476.8" height="526">
						<feFlood  style="flood-color:white;flood-opacity:1" result="back"/>
						<feBlend  in="SourceGraphic" in2="back" mode="normal"/>
					</filter>
				</defs>
				<mask maskUnits="userSpaceOnUse" x="-35.1" y="1753.6" width="1476.8" height="526" id="SVGID_9_">
					<g class="st30">
					</g>
				</mask>
				
					<linearGradient id="SVGID_10_" gradientUnits="userSpaceOnUse" x1="1218.691" y1="624.2385" x2="1310.7881" y2="532.1414" gradientTransform="matrix(-0.879 -0.4767 -0.4767 0.879 2109.4333 2129.502)">
					<stop  offset="0" style="stop-color:#FFFFFF"/>
					<stop  offset="0.1758" style="stop-color:#D7D7D7"/>
					<stop  offset="0.5719" style="stop-color:#737373"/>
					<stop  offset="1" style="stop-color:#000000"/>
				</linearGradient>
				<polygon class="st31" points="1441.7,1753.6 1376.8,1878.7 122.2,2279.6 -35.1,2189.4 				"/>
			</g>
		</mask>
		
			<linearGradient id="SVGID_11_" gradientUnits="userSpaceOnUse" x1="1218.691" y1="624.2385" x2="1310.7881" y2="532.1414" gradientTransform="matrix(-0.879 -0.4767 -0.4767 0.879 2109.4333 2129.502)">
			<stop  offset="0" style="stop-color:#595959"/>
			<stop  offset="0.2621" style="stop-color:#818181"/>
			<stop  offset="0.8467" style="stop-color:#E4E4E4"/>
			<stop  offset="1" style="stop-color:#FFFFFF"/>
		</linearGradient>
		<polygon class="st32" points="1441.7,1753.6 1376.8,1878.7 122.2,2279.6 -35.1,2189.4 		"/>
		<path class="st28" d="M-43.5,2285.3c0,0,195.1-11.2,451.8-131.5c256.7-120.3,673.3-246.1,831.3-237.7v466.7H-43.5L-43.5,2285.3z"
			/>
		<defs>
			<filter id="Adobe_OpacityMaskFilter_6_" filterUnits="userSpaceOnUse" x="-331.1" y="1855.9" width="1471.8" height="523.7">
				<feFlood  style="flood-color:white;flood-opacity:1" result="back"/>
				<feBlend  in="SourceGraphic" in2="back" mode="normal"/>
			</filter>
		</defs>
		<mask maskUnits="userSpaceOnUse" x="-331.1" y="1855.9" width="1471.8" height="523.7" id="SVGID_12_">
			<g class="st33">
				<defs>
					<filter id="Adobe_OpacityMaskFilter_7_" filterUnits="userSpaceOnUse" x="-331.1" y="1855.9" width="1471.8" height="523.7">
						<feFlood  style="flood-color:white;flood-opacity:1" result="back"/>
						<feBlend  in="SourceGraphic" in2="back" mode="normal"/>
					</filter>
				</defs>
				<mask maskUnits="userSpaceOnUse" x="-331.1" y="1855.9" width="1471.8" height="523.7" id="SVGID_12_">
					<g class="st34">
					</g>
				</mask>
				
					<linearGradient id="SVGID_13_" gradientUnits="userSpaceOnUse" x1="960.8206" y1="565.8768" x2="1058.4198" y2="468.2776" gradientTransform="matrix(-0.49 -0.8717 -0.8717 0.49 1336.4259 2758.9275)">
					<stop  offset="0" style="stop-color:#FFFFFF"/>
					<stop  offset="0.1758" style="stop-color:#D7D7D7"/>
					<stop  offset="0.5719" style="stop-color:#737373"/>
					<stop  offset="1" style="stop-color:#000000"/>
				</linearGradient>
				<polygon class="st35" points="1140.7,2309.8 1022.1,2379.5 -243.9,2019.8 -331.1,1855.9 				"/>
			</g>
		</mask>
		
			<linearGradient id="SVGID_14_" gradientUnits="userSpaceOnUse" x1="960.8206" y1="565.8768" x2="1058.4198" y2="468.2776" gradientTransform="matrix(-0.49 -0.8717 -0.8717 0.49 1336.4259 2758.9275)">
			<stop  offset="0" style="stop-color:#595959"/>
			<stop  offset="0.2621" style="stop-color:#818181"/>
			<stop  offset="0.8467" style="stop-color:#E4E4E4"/>
			<stop  offset="1" style="stop-color:#FFFFFF"/>
		</linearGradient>
		<polygon class="st36" points="1140.7,2309.8 1022.1,2379.5 -243.9,2019.8 -331.1,1855.9 		"/>
		<path class="st28" d="M-43.5,2026.9c0,0,428.1,253.6,1283.1,298.4v57.6H-43.5V2026.9z"/>
		<defs>
			<filter id="Adobe_OpacityMaskFilter_8_" filterUnits="userSpaceOnUse" x="263.9" y="2075.8" width="1300.1" height="360">
				<feFlood  style="flood-color:white;flood-opacity:1" result="back"/>
				<feBlend  in="SourceGraphic" in2="back" mode="normal"/>
			</filter>
		</defs>
		<mask maskUnits="userSpaceOnUse" x="263.9" y="2075.8" width="1300.1" height="360" id="SVGID_15_">
			<g class="st37">
				<defs>
					<filter id="Adobe_OpacityMaskFilter_9_" filterUnits="userSpaceOnUse" x="263.9" y="2075.8" width="1300.1" height="360">
						<feFlood  style="flood-color:white;flood-opacity:1" result="back"/>
						<feBlend  in="SourceGraphic" in2="back" mode="normal"/>
					</filter>
				</defs>
				<mask maskUnits="userSpaceOnUse" x="263.9" y="2075.8" width="1300.1" height="360" id="SVGID_15_">
					<g class="st38">
					</g>
				</mask>
				
					<linearGradient id="SVGID_16_" gradientUnits="userSpaceOnUse" x1="809.4175" y1="675.6585" x2="889.3529" y2="595.7231" gradientTransform="matrix(-0.8391 -0.5439 -0.5439 0.8391 1983.9127 2194.002)">
					<stop  offset="0" style="stop-color:#FFFFFF"/>
					<stop  offset="0.1758" style="stop-color:#D7D7D7"/>
					<stop  offset="0.5719" style="stop-color:#737373"/>
					<stop  offset="1" style="stop-color:#000000"/>
				</linearGradient>
				<polygon class="st39" points="1563.9,2075.8 1500,2178.9 393.5,2435.7 263.9,2347 				"/>
			</g>
		</mask>
		
			<linearGradient id="SVGID_17_" gradientUnits="userSpaceOnUse" x1="809.4175" y1="675.6585" x2="889.3529" y2="595.7231" gradientTransform="matrix(-0.8391 -0.5439 -0.5439 0.8391 1983.9127 2194.002)">
			<stop  offset="0" style="stop-color:#595959"/>
			<stop  offset="0.2621" style="stop-color:#818181"/>
			<stop  offset="0.8467" style="stop-color:#E4E4E4"/>
			<stop  offset="1" style="stop-color:#FFFFFF"/>
		</linearGradient>
		<polygon class="st40" points="1563.9,2075.8 1500,2178.9 393.5,2435.7 263.9,2347 		"/>
		<path class="st8" d="M598,2382.8c0,0,396.3-146.6,641.6-148.2v148.2H598z"/>
	</g>
</g>
<path class="st41" d="M317.2,2150l-15.2,0.1c0,0-5.1-0.9-8.3-2.4l-1.4-0.7c0,0,0.7,0.8-1,2.1l-1.1,0.9c0,0,3.4,4.6-0.4,7.2
	c0,0-2.7,3-6.6,1.1c0,0-5.3,1.4-5.9-4.8c0,0-0.9-2.7,3.2-4.9c0,0-2.9-4.9-1.8-6.1l-9.7-3.2c0,0-1.8,1.8-4.6,0.6c0,0-2.7,0.5-2.8-1.3
	c0,0-2.7,2.1-3-1.4c0,0-1.6,2.2-3.1,0.3c0,0-1.5-0.5-0.5-2.6l0.4-0.8l-31.8-10.5c0,0-1.9,1.5-2.7,1.8c0,0-0.4,1.1-1.3,1.5
	c0,0,1.3,4.1-2.9,6.3c0,0-2.4,0.9-4.3,0.5c0,0-4.4,1.1-5.7-2.7c0,0-1.2-3,1.3-5.7c0,0,1.4-1.9,3.8-1.9c0,0-1.4-2.5-1.1-3.1l0-1.5
	c0,0-9.3-4.2-13.1-7.7c0,0-8.5-6.5-8.9-7.7c0,0-0.1-2.4,2.9-1c0,0,13.3,9.3,19.1,13c0,0,0.5-6.4,3.9-6.8c0,0,2.5-1.8,4.2-4
	c0,0,0.1-2.4,1.3-2.8c0,0,1.6-2.9,2.7-2.4c0,0,3-5,5.8-3c0,0,3.6,0.3,3.7,1.7c0,0,7.8-3.3,16.7-9.5c0,0,5.4-5.2,12.3-8.7
	c0,0,0.9-2.9,1.8-1.9c0,0-0.3-3.3,1.9-4.1l0.8-1.7c0,0-2.4-3.6,0.3-5.1c0,0,12.8-13.3,21.8-7c0,0,1.2-1.1,5.4,0.8
	c0,0,1.8-3.2,5.5-3.9c0,0-2.2-1,1-2.2c0,0,7.5-6,14.7,1.4c0,0-0.7-10.4,2.4-11.6c0,0,1.4-6.1,2.6-7.1l-0.3-1c0,0-1.5,1.7-4,0.5
	c0,0-2.6-1-2.8-1.3c0,0-2.4-0.1-2-0.9c0,0-1.7-0.6-1.7-1.5l-2.3-1.9c0,0-1-0.4-2,0.3c0,0-2.2,1.2-2.8-1.3c0,0-1.7-4.8-1.5-5.4
	c0,0,0-1.2-1.4-0.7l-4.3,0.7c0,0-2.1,0.7-2.8-2.1l-2.4-6.7c0,0-1.2-4,1.7-8.4c0,0,4.9-10.1,14.1-15.3c0,0,9.6-6.7,19.5,3.2
	c0,0,5.1,5.9,5.4,8.6c0,0,6.6-1.1,6.1,2.8c0,0,8.9-5.2,10.1-4.7c0,0,9.8-2.8,12.8,0.9c0,0,1.4,1.8,3.8,1.8c0,0,9.5,1.4,11.5,0.7
	c0,0,5.3-0.5,5.2,4.9c0,0,0.2,4.5-0.3,5.7c0,0,5.1-0.7,5.5,0.4l9,0.8c0,0,6.4-1.4,9.6,5.8l7.6,5.4c0,0,16,10,16.6,9.8
	c0.6-0.2,2.2,0,3.3-0.4c0,0,10.2-3.2,10.8-1.5l5.8,2.7c0,0,4.4,5.3,3.9,6.6c0,0-1.2,1-1.9,0.7l0.2,3.1c0,0-1.6,2.5-2.9,1.1l-1.5-4.1
	c0,0,0.1,4.7-1.3,5.2c0,0-2,1.6-1.5-0.7c0,0,1.3-6.7-2.7-4.9c0,0-8.3,3.5-12.9-0.4c0,0-16.5-7.1-19.7-6c0,0-2.2,0.7-4.6-0.4
	c0,0-5.8-2.6-7.3-2.1c0,0-16.9-6.5-17.5-8.2c0,0-2.3-3.1-4.7-2.2c0,0-5.5-1.1-5.8-1.9c0,0-1.6,1.6,0,3.7c0,0,9.2,16,8.1,25.1
	c0,0,0.5,4.7,4.2,7.8c0,0,7.7,13.7-0.7,28c0,0-2.2,2-1.7,3.6c0,0-2.7,6.5-10.8,5c0,0-5.9,13.2-23.1,8.4c0,0-20.4-7.5-21.9-11.4
	c0,0-0.9,1.2-2.3,1.7c0,0-3.9,20.6-2.8,23.5c0,0,0,5.4,1.1,7.1c0,0,3.6,8.6,2.3,11.4c0,0-0.1,2.4,0.3,3.3c0,0,0.5,2.9-1.7,3.7
	l-2.9,1.1l3.6,0.2c0,0,1.1,0.2,0.6,1.2C319.3,2149.2,318.9,2150.4,317.2,2150z M305.1,2111.8c0,0-1.7,1.1-1.5,1.7c0,0-7.2,4.1-9.5,2
	c0,0-7.5,6.4-10.1,7.4c0,0-6.5,5.2-7.3,5.8c0,0-1.9,1.9-2.4,2.8c0,0-0.5,3.7-1.4,4.3c0,0-0.1,0.7,0.8,1.1c0,0,23.8,9.3,24.7,10.3
	c0,0-1.1-1.7,0.5-5.1c0,0,1.4-5.6,2.1-5.9c0,0-2.2-6.7,0.4-8.1l0-2.3c0,0,1.8-2.5,2.8-2.9C304.4,2122.9,305.5,2116.1,305.1,2111.8z
	 M276.6,2090.8c0,0-6.6,5.7-8.1,6.3c0,0-6.3,2.9-10.1,3.4c0,0-18.5,6.6-19.2,8l-2.8,2.1c0,0-0.6,4.5-1.3,5.9l-2.7,5.8l20.4,6.6
	c0,0,12.5-5.7,13.9-6.2c0,0,5.4-5,6.6-4.4c0,0,13.6-11.8,14.2-12.9l-0.5-1.2c0,0,8.1-9.2,10.4-9.4c0,0,1.4-2.8-1.8-3.1
	c0,0-9.9-1.4-11-4.3C284.6,2087.4,277.7,2088.4,276.6,2090.8z"/>
<path class="st42" d="M199.9,969.2c-0.2-0.9,0.8-0.9,0.8-0.9l3.1,0.5l-2.3-1.5c-1.7-1.1-0.7-3.5-0.7-3.5c0.5-0.7,0.9-2.7,0.9-2.7
	c-0.5-2.6,4.2-9.2,4.2-9.2c1.3-1.2,2.4-5.8,2.4-5.8c1.5-2.2,2.3-20.5,2.3-20.5c-1-0.7-1.6-1.9-1.6-1.9c-2,3-20.8,5.3-20.8,5.3
	c-15.5,0.6-17.9-11.8-17.9-11.8c-7.2-0.4-8.1-6.5-8.1-6.5c0.8-1.2-0.7-3.4-0.7-3.4c-4.2-13.8,5.1-23.8,5.1-23.8
	c3.7-1.9,5.1-5.8,5.1-5.8c0.9-7.9,11.9-19.6,11.9-19.6c1.8-1.5,0.8-3.2,0.8-3.2c-0.4,0.6-5.3,0.4-5.3,0.4c-1.9-1.2-4.4,0.9-4.4,0.9
	c-0.9,1.3-16.5,3.4-16.5,3.4c-1.1-0.7-6.6,0.3-6.6,0.3c-2.2,0.5-4-0.6-4-0.6c-2.4-1.6-17.8,1.1-17.8,1.1c-4.7,2.4-11-2.3-11-2.3
	c-3-2.3-3.3,3.6-3.3,3.6c-0.1,2.1-1.4,0.3-1.4,0.3c-1-0.7-0.1-4.7-0.1-4.7l-2.1,3.1c-1.4,1-2.3-1.5-2.3-1.5l0.8-2.6
	c-0.6,0.1-1.5-1-1.5-1c-0.2-1.2,4.6-4.8,4.6-4.8l5.4-1.1c0.9-1.3,8.8,3.5,8.8,3.5c0.9,0.6,2.3,0.7,2.7,1c0.4,0.3,16-4.9,16-4.9
	l7.5-3c4.2-5.5,9.3-3,9.3-3l7.8,1.1c0.6-0.9,4.7,0.8,4.7,0.8c-0.2-1.2,0.9-4.9,0.9-4.9c1-4.6,5.4-3.1,5.4-3.1c1.6,1,9.9,1.7,9.9,1.7
	c2,0.5,3.5-0.7,3.5-0.7c3.3-2.6,11.1,1.8,11.1,1.8c1.1-0.2,7.6,6,7.6,6c0.3-3.5,5.7-1.2,5.7-1.2c0.8-2.3,6.4-6.2,6.4-6.2
	c10.3-6.4,17.1,1.2,17.1,1.2c6.7,6.3,8.8,15.8,8.8,15.8c1.6,4.3-0.2,7.4-0.2,7.4l-3.4,5.2c-1.1,2.2-2.8,1.2-2.8,1.2l-3.5-1.4
	c-1.1-0.7-1.3,0.3-1.3,0.3c0.1,0.6-2.3,4.3-2.3,4.3c-0.9,2-2.6,0.5-2.6,0.5c-0.7-0.8-1.6-0.7-1.6-0.7l-2.4,1.1
	c-0.2,0.8-1.7,0.9-1.7,0.9c0.2,0.8-1.9,0.4-1.9,0.4c-0.2,0.3-2.6,0.5-2.6,0.5c-2.3,0.5-3.3-1.2-3.3-1.2l-0.5,0.7
	c0.8,1.2,0.8,6.6,0.8,6.6c2.4,1.6-0.3,10.3-0.3,10.3c7.6-4.9,12.7,1.8,12.7,1.8c2.4,1.6,0.4,2,0.4,2c3,1.3,3.8,4.4,3.8,4.4
	c4-0.8,4.7,0.4,4.7,0.4c8.9-3.5,17,10.4,17,10.4c2,1.8-0.8,4.4-0.8,4.4l0.3,1.6c1.7,1.1,0.8,3.9,0.8,3.9c1-0.6,1.2,2,1.2,2
	c5.1,4.4,8.6,9.8,8.6,9.8c6.3,7,12.2,11.4,12.2,11.4c0.4-1.2,3.5-0.7,3.5-0.7c2.8-1.1,4.3,3.7,4.3,3.7c1-0.2,1.8,2.5,1.8,2.5
	c0.9,0.6,0.5,2.6,0.5,2.6c1,2.2,2.7,4.2,2.7,4.2c2.8,1,1.9,6.5,1.9,6.5c5.7-2,18.8-7.2,18.8-7.2c2.7-0.6,2.2,1.5,2.2,1.5
	c-0.6,0.9-9.1,4.7-9.1,4.7c-3.9,2.2-12.6,3.8-12.6,3.8l-0.3,1.3c0.1,0.6-1.6,2.4-1.6,2.4c2,0.5,2.8,2.4,2.8,2.4c1.6,2.8,0,5.1,0,5.1
	c-1.9,2.9-5.4,1.1-5.4,1.1c-1.7-0.1-3.5-1.3-3.5-1.3c-3.1-2.6-1.2-5.9-1.2-5.9c-0.7-0.5-0.8-1.5-0.8-1.5c-0.6-0.4-1.9-2.1-1.9-2.1
	l-29,2.5l0.1,0.7c0.4,2-1,2.1-1,2.1c-1.7,1.2-2.6-0.9-2.6-0.9c-0.9,2.9-2.8,0.6-2.8,0.6c-0.4,1.5-2.6,0.5-2.6,0.5
	c-2.6,0.5-3.7-1.4-3.7-1.4l-8.9,0.7c0.7,1.2-2.7,4.8-2.7,4.8c3.1,2.7,1.7,4.8,1.7,4.8c-1.8,5.1-6,2.9-6,2.9
	c-3.7,0.8-5.4-2.3-5.4-2.3c-2.7-3,1.1-6.2,1.1-6.2l-0.7-1c-1.2-1.4-0.4-2-0.4-2l-1.3,0.3c-3,0.6-7.5,0.3-7.5,0.3l-12.8-3.1
	C199.9,970.2,199.9,969.2,199.9,969.2z M217.8,949.9c0.7,0.5,1.8,3,1.8,3l-0.4,2c2,1.7-1.3,6.9-1.3,6.9c0.6,0.4,0.6,5.4,0.6,5.4
	c0.7,3.2-0.6,4.4-0.6,4.4c1-0.6,23-3.7,23-3.7c0.8-0.2,0.9-0.7,0.9-0.7c-0.6-0.7-0.3-3.9-0.3-3.9c-0.2-0.9-1.4-2.9-1.4-2.9
	c-0.6-0.7-5-6.4-5-6.4c-2-1.3-7-8.3-7-8.3c-2.4,1.3-7.7-3.6-7.7-3.6c0.3-0.4-0.9-1.7-0.9-1.7C218.2,943.9,217.8,949.9,217.8,949.9z
	 M241.7,923.8c-1.5,2.3-10.2,1.4-10.2,1.4c-2.7-0.4-2.1,2.2-2.1,2.2c1.9,0.6,6.9,10,6.9,10l-0.6,1c0.2,1.1,9.4,13.8,9.4,13.8
	c1.1-0.2,4.7,5.1,4.7,5.1c1.1,0.7,10.5,8.1,10.5,8.1l18.6-1.5l-1.1-5.5c-0.3-1.4,0.1-5.3,0.1-5.3l-2-2.3
	c-0.3-1.3-14.6-10.6-14.6-10.6c-3.1-1.2-7.9-4.9-7.9-4.9c-1.1-0.7-5.6-6.9-5.6-6.9C247.3,926,241.7,923.8,241.7,923.8z"/>
<g>
	<path class="st43" d="M993.6,917.1c-2.7-0.9-5.1-2.3-5.7-3.2c-0.6-0.8-0.3-1.7-2-2.1c-1.6-0.4-3.8-0.7-4.4-3.2
		c-0.6-2.5,0-10.1,1-14.8c1-4.7,3.7-17.2,3.3-18.6c-0.4-1.4,0.9-2.9,0.9-3.8c0,0,1.3,1.3,1.5,0c0.2-1.3,0-10.3-0.3-12
		c-0.3-1.7-0.3-6.2-0.6-9.8c-0.3-3.6,0.1-10.6,0.6-13.4c0.5-2.7,0-6,0-6s0.9,0.3,1.9,0.1c0,0-0.2-1.3,0.2-3.3c0.4-2,0.1-3.3,0.2-7.4
		c0-0.1,0-0.3,0-0.4c0.8,0.4,3.2,5.8,8.3,6.6c1.2-0.1,1.3-1,1.3-1c1.4-0.1,1.8-1.3,1.8-1.3c0.4-0.4,1.3-1.6,1.2-2
		c1-0.8,0.8-1.9-0.2-2.6c-1.9-1.3-0.6-1.8-1.9-2.7c-0.8-0.5-4.1-0.1-4.9-0.5c-0.8-0.5-1.6-1.3-2.2-2c-0.2-0.3-1.4-1.9-3-4
		c0.2-6.2,0.6-13.3,0.9-15.7c0.5-4,1.5-10.4,1.7-12.1c0.2-1.7,0.9-6.6-0.7-10.2c-1.5-3.3-3.3-5.2-4.1-6.1c0.3-0.4,0.7-1,1.1-1.7
		c0.4-0.8,1.8-0.6,3.1-0.5c1.3,0.1,3.2,1.1,4.3,1c1.1,0,1.9-2.8,2.3-3.2c0.4-0.3,0.8-0.5,0.6-0.9c-0.2-0.3,0.2-0.4,0.5-0.5
		c0.3-0.1,0.5-1.2,0.8-1.4c0.3-0.1,2.4,0.2,2.3-0.8c-0.1-1-0.8-4.5,0.2-5.8c1-1.3,1.2-3.7,1.6-4.5c0.4-0.8,3.1-2,1.6-5.6
		c-1.4-3.5-3.9-3.7-8.8-6.5c-4.5-3.1-9.7-2-12.3,0.3c-2.9,0.8-4.8,3.7-5.5,6.9c-1.1,2-0.2,7-0.1,8.5c0.1,1.5,0.5,3.1,0.6,4.4
		c0,0.8-0.9,2.8-1.7,4.3c-0.4-0.2-0.6-0.3-0.6-0.3s-1.6-0.6-1.4,0.8c0.2,1.3-0.2,1.3-1.6,2.2c-1.4,0.9-6.6,3.3-7.5,7.6
		c-0.9,4.4-2.2,8.3-3.7,8.7c-1.5,0.4-4,2.1-4.6,3.5c-0.6,1.4-4.3,3-6.8,7.7c-2.5,4.7-3.1,6.9-4,10.7c-0.9,3.8-3.4,9.3-4.2,14
		c-0.8,4.7,1.2,10.6,4.8,11.6c3.6,1,5.9,5,9.7,5.9c-0.4,1.8-1.6,6.7-0.6,9.1c1,2.4,1.5,7.5,1.1,8.9c-0.4,1.4-6,14.9-5.8,15.9
		c0.2,1,3.3,1.7,3.3,1.7s-4.3,4.3-4.4,11.4c-0.2,7.1-2.2,26-2.7,26.9c-0.5,0.9-1.7,0.5-2.3,1.9c-0.6,1.4-1.7,3.3-1.2,4.9
		c0.5,1.6,2.4,3.5,5,3.4c2.6,0,6.2-0.3,7.5-0.3c1.3,0,5.3-0.8,2.4-4c-2.9-3.2-3.9-4.6-4.1-5.6c-0.2-1-0.3-2.1-0.3-2.1
		s5.1-19.7,6.5-22.8c1.3-3.2,3.6-9.4,3.8-10.5c0.1-1.1,2.1-0.3,2.8-1.7c0.7-1.4,3.1-9.7,3.1-9.7s0.6,8.7,0.4,9.8
		c-0.1,1.1,1.2,2,1.2,2s0.3,1.7-0.5,4.2c-0.9,2.5-2.2,12.8-1.5,16c0.7,3.3-0.7,13.9-1.1,15.9c-0.4,2-1.7,3.1-1.7,3.1s-1.4,0.9-1.7,3
		c-0.3,2-1.3,4.7,3.2,5.3c4.6,0.6,11.4,1.5,14.1,2.2c2.7,0.7,8.4,1.1,9.5-0.3C996.1,919.3,996.3,918,993.6,917.1z"/>
	<path class="st43" d="M1001.7,926.3c5.2,0.2,10.9-0.6,9.1-2.6c-2.3-2.5-24.2-3.5-41-6c-4-0.6-17.5-1.3-21-3.1
		c-3.5-1.8-7.4-1.9-7.7-1c-0.3,0.9,0.2,3.9,7.3,5.4c0.6,0.1,1.3,0.3,2.3,0.4l-0.1,1.7l0.9,0.2c-1.5,0.1-2.8,1-3.1,3.1
		c-0.4,2.8,1.4,3.9,3.7,4.2c1.4,0.2,2.5-0.6,3.2-1.5c0.4,0.1,0.8,0.2,1.2,0.3c2.1,0.3,3.4-1.7,3.5-2.9c0-0.8-0.4-1.9-1.3-2.7
		l0.7-0.2l0.1-1c10.5,1.5,25.1,3.4,33.3,4.5l-0.1,1.4l1.7,0.4c-1.5,0.1-2.8,1-3.1,3.2c-0.4,2.8,1.4,3.9,3.7,4.2
		c1.4,0.2,2.6-0.6,3.2-1.5c0.4,0.1,0.8,0.2,1.2,0.3c2.1,0.3,3.4-1.7,3.5-2.9c0.1-0.9-0.5-2.3-1.7-3l0.3-0.1L1001.7,926.3z"/>
</g>
<g>
	<path class="st44" d="M395.9,1375.4c-1.5,1.2-8-0.3-7.7-1.8c0.3-1.5,2.8-2.5,5.8-3.4c3.1-0.9,15.4-4.3,18.7-5.2
		c3.4-0.9,12.3-9.2,15.7-11.4c3.4-2.2,2.8-7.4,6.4-9.5c3.7-2.2,18.1-34.4,21.8-42.4c3.7-8,14.4-19.7,15.7-21.2
		c0.7-0.9,6.7-6.8,12.6-12.3c-0.8-1.6-1.3-2.9-1.1-3.7c0.6-3.7,12.9-16.6,20.9-26.4c8-9.8,34.4-23.3,36.3-24.6l-3.1-6.1
		c0,0-8.6-4.9-11.7-9.2c-4.3-3.1-8.6-17.8-7.4-28.9c-3.7-9.8-0.6-35,23.3-41.8c23.3-9.2,38.7,9.2,44.2,16c5.5,6.8,6.1,6.8,8.6,22.7
		c3.7,16-5.5,25.2-5.5,25.2s-1.8,9.8-0.6,12.9c1.2,3.1,17.2,0.6,30.7,3.1c13.5,2.5,50.4,24.6,54.1,26.4c1.1,0.5,0.7,3.4-0.4,7.2
		c9.1,5,18,9.8,21.1,11.2c7,3.3,18.5,7.5,26.4,17.4c7.9,9.9,28,35,32.2,37.1c4.2,2.1,9.5,3.4,9.5,3.4s12,3.4,18.8,8.6
		c6.8,5.2,13.1,10.9,15.3,12.6c2.2,1.6,4,6.5,0.6,6.7c-3.4,0.2-8.4-3.9-10.7-5.9c-2.3-1.9-5.3-4-4.6-2.6c0.6,1.4,7.7,7.8,10.6,9.3
		c2.8,1.5,8.4,6.7,8.2,8.6c-0.2,1.9,0.2,3.7-2.8,2.8c-3-0.9-4.5-2.1-6-3.2c-1-0.8-4.7-3.5-7.6-5.4c-1.6-1.1-3-2-3.5-2.2
		c-1.4-0.6,0.7,2.9,4.3,5.2c3.6,2.3,9.8,7.3,11,8.6c1.2,1.3,1.8,4.9-1,5.2c-2.7,0.3-5.1-1.9-8.3-3.7c-3.2-1.7-6.7-4.6-7.9-5.9
		c-1.2-1.3-5.2-5-4.8-3.2c0.4,1.8,4.9,7.6,5.8,8.9c0.9,1.3,5.1,5.9,4.3,7.7c-0.8,1.7-4.2,1.9-5.9,0.1c-1.7-1.8-6.1-7.6-7-8.9
		c-0.9-1.3-5.4-4.6-6.4-6.3c-1-1.6-6.4-4.7-6.6-5.9c-0.3-1.2,0.2,3.7,1.2,5.3c1,1.6,3.2,8.6-0.2,11.2c-1.6,1.3-3.3-0.8-3.8-2.8
		c-0.5-2.1-2.1-8.8-2.9-11.1c-0.8-2.3-7.7-17.1-8.9-20.9c-1.2-3.8-28.3-24.4-34.3-27.4c-6-3-15.6-15-17.3-17.1
		c-1.4-1.7-17.7-11-27.7-15.1c-0.8,1.8-1.5,3-1.8,3.6c-1.8,3.1-25.8-12.9-22.1-4.3c0.8,1.8,25.2,35.6,28.3,39.3
		c2.3,2.8,3.6,6.7,2.7,9.2c5.1,5.6,10.5,11.5,14.3,15.2c9,9,14.7,21.3,12.3,27.9c-2.5,6.5-6.6,27-5.7,32.8c0.8,5.7,0,27,2.5,32
		c2.5,4.9-5.7,17.2-5.7,17.2s2.5,8.2-3.3,12.3c-2.1,1.5-6.8,3-12.4,4.1c-1.3,4.1-2.8,9.6-2.8,9.6s2.2,4.3,0.9,5.8
		c-1.2,1.5,10.4,4.6,10.1,10.1c-0.3,5.5,0,12,2.5,16.3c2.5,4.3,7.1,13.8-3.1,20c-10.1,6.2-20-2.1-26.7-2.4
		c-6.8-0.3-10.4-6.2-9.8-9.2c0.6-3.1,4.9-10.4,4-15.7c-0.9-5.2-1.2-15.1,2.1-16.6c3.4-1.5,1.8-4.3,1.8-4.3s0.9-5.2,0.9-6.8
		c0-0.7-0.1-3.1-0.1-5.7c-2.5-0.3-4.6-1-6-1.9c-7.4-4.9-7.4-12.3-4.9-12.3c2.5,0,4.9-8.2,2.5-9c-2.5-0.8-4.1-12.3-2.5-15.6
		c1.6-3.3,5.7-32,7.4-38.5c1.6-6.5,2.5-21.3-5.7-25.4c-8.2-4.1-19.7-6.5-31.1-3.3c-11.5,3.3-15.6,14.7-17.2,18
		c-1.6,3.3-6.6,13.1-10.7,17.2c-4.1,4.1-7.4,28.7-4.9,35.2c2.5,6.5,7.4,27.9,7.4,30.3c0,2.5-3.3,9.8-3.3,14.8
		c0,4.9-0.8,19.7,0.8,23.8c1.6,4.1,0.8,9.8-4.9,13.1c-0.9,0.5-2.6,1-4.6,1.3c0.3,3.6,0.7,7.1,1.4,7.7c1.5,1.2,4-0.3,4.9,2.2
		c0.9,2.5,4.6,19.4,0.9,24.3c-3.7,4.9-23,10.1-27.6,16.3c-4.6,6.1-24,10.7-33.5,8.3c-9.5-2.5-6.8-15.7-0.3-20
		c6.4-4.3,12-7.7,15.4-13.8c3.4-6.1,6.8-14.1,4.3-15.4c-2.5-1.2,4.6-5.2,7.7-4c3.1,1.2,3.7,2.8,5.5,2.1c1-0.3,1.2-4.1,1.2-8.2
		c-7.1-1.2-13.3-3.5-14.7-7.3c-3.3-9-4.9-3.3-3.3-9c1.6-5.7-1.6-18,0.8-27c2.5-9,3.3-23.8,1.6-28.7c-1.6-4.9-11.5-28.7-9.8-40.1
		c1.6-11.5,11.5-27,12.3-30.3c0.8-3.3,1.6-9,6.6-12.3c3.8-2.6,11.7-18.1,14.9-27.9c-1.6,0.1-2.8,0.1-3.2-0.2
		c-3.1-1.8-0.6-9.8-1.8-14.7c-1.2-4.9-12.9-22.7-17.2-27.6c-4.3-4.9-14.1-5.5-14.1-5.5s-16,13.5-24,14.1c-1.4,0.1-2.9-0.3-4.4-1.1
		c-3.8,2.7-7.3,5-8.6,5.4c-3.1,0.9-1.8,8.3-7.7,17.2c-5.8,8.9-39,49.2-39.3,53.1c-0.3,4,1.2,11.4-0.3,14.4
		c-1.5,3.1-5.8,9.2-5.8,10.4s-1.8,4-4.3,2.2c-2.5-1.8-3.4-4.9-2.5-6.1c0.9-1.2-1.5-2.2-3.7-1.8c-2.1,0.3-14.4,5.5-16.3,5.5
		c-1.8,0-4.6,8.3-5.8,11.4c-1.2,3.1-5.8,6.8-7.4,3.1c-3.7,3.4-7.1,2.8-7.4,0.9c-0.3-1.8,7.1-9.8,7.1-9.8s-4,1.5-5.5-0.3
		c-1.5-1.8,1.5-4,5.2-6.1c3.7-2.2,9.2-7.1,8.9-8.3C405.4,1372.9,397.4,1374.2,395.9,1375.4z"/>
	<path class="st44" d="M507,1625.3c17.2,1.5,34.4-7.7,36.3-5.2l13.7-1.6c-0.1,1.6-0.1,3.9,0,5.8c-4.4-1.7-10.6,0.2-11.9,1.1
		c-3.3,2.2-6.4,8.3-4.3,13.8c2.2,5.5,10.8,5.2,13.5,4.3c2.5-0.8,8.3-6.2,7.3-13c2.7,2.7,7.6,5,12.1,2.8c5.8-2.8,5.8-8,5.2-11.7
		c-0.4-2.7-3.4-7.1-9.2-7c0.5-2,0.9-5.1,0.6-8.7c2.5-1.2,106.3-44.9,106.3-44.9l8.3,5.9c-1,3.9-0.3,9.2,3.7,11.9
		c5.8,4,16,2.2,18.1-3.4c10.8-1.2,10.5-10.8,8.3-15.1c-2-3.9-6.8-5.9-11.5-5.4l0.2-0.1c0,0-1.8-3.7-1.8-4.9
		c16-8,46.1-39.3,44.2-42.4c0,0-2.5-2.5-8,2.5c-5.5,4.9-32.6,27.6-40.5,35c-8,7.4-63.3,29.2-79.3,35.9c-16,6.8-64.5,24.9-81.1,32.3
		c-8,1.2-30.7,2.5-38.1,6.1C491.6,1623.2,495.9,1624.3,507,1625.3z M696,1560l4.2-2.8c-0.7,1.3-1.2,2.7-1.2,2.7
		S697.7,1559.9,696,1560z M560,1618.1l1.3-0.1c-0.5,0.6-0.9,1.4-1.2,2.3L560,1618.1z"/>
</g>
<path class="st45" d="M439.4,1230.7l-57.8-33.4v-74.2c0-33.4-27.3-60.7-60.7-60.7H75.3c-33.4,0-60.7,27.3-60.7,60.7v245.6
	c0,33.4,27.3,60.7,60.7,60.7h245.6c33.4,0,60.7-27.3,60.7-60.7v-74.2l57.8-33.4C453.8,1252.7,453.8,1239.1,439.4,1230.7z"/>
<path class="st28" d="M448.7,1675.4l-57.8-33.4v-74.2c0-33.4-27.3-60.7-60.7-60.7H84.6c-33.4,0-60.7,27.3-60.7,60.7v245.6
	c0,33.4,27.3,60.7,60.7,60.7h245.6c33.4,0,60.7-27.3,60.7-60.7v-74.2l57.8-33.4C463.2,1697.3,463.2,1683.7,448.7,1675.4z"/>
<path class="st6" d="M744.5,1230.7l57.8-33.4v-74.2c0-33.4,27.3-60.7,60.7-60.7h245.6c33.4,0,60.7,27.3,60.7,60.7v245.6
	c0,33.4-27.3,60.7-60.7,60.7H863c-33.4,0-60.7-27.3-60.7-60.7v-74.2l-57.8-33.4C730,1252.7,730,1239.1,744.5,1230.7z"/>
<path class="st46" d="M739.2,1675.7l56.4-32.6v-72.4c0-32.5,26.6-59.2,59.2-59.2h239.4c32.5,0,59.2,26.6,59.2,59.2v239.4
	c0,32.5-26.6,59.2-59.2,59.2H854.8c-32.5,0-59.2-26.6-59.2-59.2v-72.4l-56.4-32.6C725.1,1697.2,725.1,1683.9,739.2,1675.7z"/>
<text transform="matrix(0.6919 0 0 1 603.4425 675.4277)"><tspan x="0" y="0" class="st17 st47 st48">Park (Men/Women)</tspan><tspan x="0" y="32.2" class="st17 st47 st48">Street (Men/Women)</tspan><tspan x="0" y="64.4" class="st17 st47 st48">ESSENCE OF THE SPORT</tspan><tspan x="0" y="96.6" class="st17 st47 st48">Supreme skills and youthful cool</tspan><tspan x="0" y="128.7" class="st17 st47 st48">Skateboard player</tspan></text>
<text transform="matrix(0.6919 0 0 1 214.3385 665.4258)" class="st44 st49 st48">Event Programme</text>
<path class="st50" d="M931,1792.8c0,0,1.7-1.3,2.5,0.7c0,0,2.8,0.4,3,1.6c0,0,2.3-1.8,4,0c0,0,5.2,0.7,5.8,1.3c0,0,2.9,0.1,6.1-0.5
	c0,0,2.4-0.6,4.6-1.3c0,0,5.6-3,14.3-4.1c0,0,1.6-0.4,3-1.2c0,0,0.6-0.8,3.3-0.8c0,0,1.7-0.7,3-1.2c0,0,2.3-1.1,3.8-2.1
	c0,0,1.3-1.7,2.1-1.5c0,0,1.2-1.9,2.8-1.2c0,0,2,0.3,2.3,0.6c0,0,1.6-0.2,2.3,1.1c0,0,1.7-0.1,2.2,1.1c0,0,1.1,1.3,1.1,2.8
	c0,0,0.5,2.9-0.6,3.2c0,0-0.2,1.1-1.1,1.1c0,0-1.2,0.3-1.2-1.7c0,0,0.2-3.1-2.2-2.2c0,0-0.3,1.3-2.4,1.5c0,0-3.6,3.6-6,2.7
	c0,0-17.5,10.2-19.9,10.9c0,0-1.9,0.7-4,2.1c0,0-3.4,0.4-4.7,0c0,0-7.5,0.5-8.1,0.5c0,0-1.6,6.9-4.9,4.9c0,0-4.2,0.4-4.7-0.1
	c0,0-1.1,0.6-1.6,0c0,0-6.4,8.1-8.8,12.2c0,0-1.4,8.8-1.4,10.6c0,0-0.4,9.6-1,10.2c0,0,1.3,2.3,3,2.3c0,0,5.8,0.6,9.9-0.9
	c0,0,4.3,0.8,4.3,1.4l5.4,1.2c0,0,3.9-0.3,3.9,2.6v0.8l2,2c0,0-0.1,1.3,0.5,2.7c0,0,1.3,2,0.9,2.4c0,0,9.6,9,10.7,13.6
	c0,0,4.7,6.1,3.4,12.3c0,0,7.3-2.8,12,1.9c0,0,6.9,3.6,3.8,11.5c0,0,3,1.8-2.5,5.6l-50.8,52.1c0,0-6.6,6.4-13.8,3.2
	c0,0-0.2,2.3-0.5,2.3c0,0,0,1.6,0.3,1.9c0,0,0.1,2.3,1.2,3.9c0,0,0.4,1.9-1.1,1.9c0,0-4.4,2.5-7.8,1.7c0,0-1.1-0.2-1.4-0.5
	c0,0-1.4-1.1-2.1-1.1c0,0-2.1-0.9-2.4-3c0,0-0.5-3.4,0-4.6c0,0,0.2-3.1-0.1-3.5c0,0-0.6-1.4-0.6-2c0,0,0.2-0.6-0.9,0
	c0,0-3.5,2.5-6.2,0.7c0,0-0.5-0.8-0.3-2.1c0,0,1.3-7.4,2.3-8.3c0,0-1.4-4.2-1.4-5c0,0-0.1-3.9,1.4-4.6c0,0,0.8-1.2-0.3-2.2
	c0,0-2.8-4.2-2.8-6.8c0,0-0.6-7,0-10c0,0,0.6-2.4,0-3c0,0-1.6-4.2-1-6.5c0,0,0.8-2.6,1.9-3.1c0,0-2.2-1.3-2.9-2.9
	c0,0-2.1-2.7-2.5-4.1c0,0-0.1-3.5,0.6-4.3c0,0,1-10.9-1.1-12.9c0,0-1.2-1.6-1.2-2c0,0-2.9-1.2-2.9-3.7c0,0,1.2-3.5-0.5-4.1
	c0,0-1.1-1-1.1-1.5c0,0-0.8-0.7-0.5-1c0,0-0.9,0.6-1.8-2.3c0,0-6.5-11.4-7.6-15.5c0,0-1.7-8.3-1.7-11.2c0,0-1-11.2,1-14.7
	c0,0-1.7-5.4-2.2-11.5c0,0-4.6-2.2-5.5-3.1c0,0-1.7-2.1-5.4-0.6c0,0-2.3-2.4-3-4.4c0,0-1.5-0.5-5.2,0c0,0-8.4,0.6-11.1-0.7
	c0,0-8.2-0.8-11.9-2.2c0,0-2.3-1.1-7.8-1.1l-8.3-0.4c0,0-5.7,0-6.8-3.2c0,0-1.1-1.8-1.8-1.8c0,0-2.8-1.4-3.3-2.6
	c0,0-0.8,0.1-1.2-1.2c0,0-1.6-0.1-1.3-1.3c0,0,1.6-2.8,2.3-2.8c0,0,1-0.4,1-1c0,0,0.9-0.6,1.5,0c0,0,1.6-1.2,2,0l0.5,0.5
	c0,0,0.8-1.2,1.7,0.7c0,0,3.5,3.5,4.9,4.9c0,0,2,2.2,3.6,2.5c0,0,5.4,0.1,9.1-0.5c0,0,2.8-0.8,6.6-0.3c0,0,8.5-1.3,12.1-0.4
	c0,0,2.8-0.5,5.2,0.8c0,0,3.2,0.8,4,0.8v-0.8c0,0,9.4-1.3,11.1-1.3c0,0,2.8-0.7,3.5,0c0,0,2.4-1,2.9-0.5c0,0,8.1-1.7,8.8-1
	c0,0,2.9-3.5,4.5-1.9c0,0,0.8,1.4,1.7,1.4c0,0,2.2,0.3,2.5-0.7c0,0-0.2-4,0.6-4c0,0,2.1-5.1,3-5.1c0,0-0.4-5,3.6-9
	c0,0,1.9-3.2,5.6-2.2c0,0,3.5-0.6,6,0.3c0,0,2.1,0.5,2.1,1.4c0,0,1.3,1.5,2.4,1.8c0,0,2.2,1.3,2.2,2.2c0,0,1.1,1.9,1.1,2.5
	c0,0,2,2,2,2.8c0,0,3,1.3,2,5.2c0,0,0.6,3.2,0,3.7c0,0,4.7-0.2,4.7,0.9c0,0,0.7,0.4,1.1,0c0,0,3.3,0.1,4.6,1.4 M805.8,1792.3
	c-0.3-0.3-1.3-1.3-1.3-1.3c0.2,0.4-1.1,0.5-1.1,0.5c1.1,0.4,2.8,1.7,2.8,1.7c1,0.7,2.3,1.1,2.3,1.1
	C807.7,1794,805.8,1792.3,805.8,1792.3z M923.8,1927.8l25.1-25.9c0-1,2.5-4,2.5-4c-1.5-1.5,0-4.7,0-4.7l-2.6-3.4
	c-2-2-2.3-5.9-2.3-5.9c-3.5-3.5-3.6-5.3-3.6-5.3c0-1.1-0.5-2.3-0.5-2.3c-1.1-1.1-1.6-3.4-1.6-3.4c0-2-1.8-1.8-1.8-1.8
	c-1.4,2.7-4.3,3.1-4.3,3.1c-2.8,0.6-18.9,5.5-18.9,5.5c0.8,0-0.8,11.6-0.8,11.6c1.8,0-0.5,8.8-0.5,8.8c-0.7,1.9,0,3,0,3
	c1,0,0.7,9.4,0.7,9.4c0.9,0.9-0.5,10.4-0.5,10.4c0.6,0.6-0.9,7.1-0.9,7.1c1.1,1.1,1.2,7.5,1.2,7.5
	C917.4,1933.6,923.8,1927.8,923.8,1927.8z"/>
<text transform="matrix(1 0 0 1 841.4415 1128.7178)" class="st44 st49 st51">Goudy Stout</text>
<text transform="matrix(1 0 0 1 838.2091 1181.5)"><tspan x="0" y="0" class="st44 st52 st53">Competition competitions, </tspan><tspan x="0" y="27" class="st44 st52 st53">a series of complicated curves - </tspan><tspan x="0" y="54" class="st44 st52 st53">some resembling bowls. </tspan><tspan x="0" y="81" class="st44 st52 st53">From the bottom of the </tspan><tspan x="0" y="108" class="st44 st52 st53">inclination of the line </tspan><tspan x="0" y="135" class="st44 st52 st53">He wonders of mid-air tricks.</tspan></text>
<text transform="matrix(1 0 0 1 109.0997 1124.9678)" class="st44 st49 st51">Street</text>
<rect x="40.6" y="1160.2" class="st54" width="313.8" height="228.8"/>
<text transform="matrix(1 0 0 1 40.5558 1176.4951)"><tspan x="0" y="0" class="st44 st52 st53">This is a competition of </tspan><tspan x="0" y="27" class="st44 st52 st53">street-like ’course featuring </tspan><tspan x="0" y="54" class="st44 st52 st53">stairs, handrails, curbs, </tspan><tspan x="0" y="81" class="st44 st52 st53">benches, walls and slopes. </tspan><tspan x="0" y="108" class="st44 st52 st53">Each competitor performs </tspan><tspan x="0" y="135" class="st44 st52 st53">skills separately, or ‘tricks’. </tspan><tspan x="0" y="162" class="st44 st52 st53">It is a mark on the mark.</tspan></text>
<text transform="matrix(1 0 0 1 808.3595 1575.5078)"><tspan x="0" y="0" class="st44 st49 st51">OUTLOOK </tspan><tspan x="0" y="25.5" class="st44 st49 st51">FOR THE TOKYO </tspan><tspan x="0" y="51" class="st44 st49 st51">2020 GAMES</tspan></text>
<text transform="matrix(1 0 0 1 838.2081 1683.4463)"><tspan x="0" y="0" class="st44 st52 st53">A unique experience in a</tspan><tspan x="0" y="27" class="st44 st52 st53"> dynamic urban venue</tspan></text>
<text transform="matrix(1 0 0 1 63.8185 1575.5088)"><tspan x="0" y="0" class="st44 st49 st51">Skateboard </tspan><tspan x="0" y="25.5" class="st44 st49 st51">player</tspan></text>
<rect x="59.3" y="1636.6" class="st54" width="296.3" height="208.8"/>
<text transform="matrix(1 0 0 1 59.3097 1652.8359)"><tspan x="0" y="0" class="st44 st52 st53">In skateboarding, it’s free to </tspan><tspan x="0" y="27" class="st44 st52 st53">select. It depends on the </tspan><tspan x="0" y="54" class="st44 st52 st53">speed attained. The level of </tspan><tspan x="0" y="81" class="st44 st52 st53">difficulty and originality.</tspan></text>
<g>
	<path class="st17" d="M78.1,2266.9c-1.4-0.4-2.4-0.6-3.1-0.6c-1.2,0-2.2,0.5-3,1.4c-0.8,0.9-1.2,2.1-1.2,3.5c0,0.2,0,0.4,0,0.6h5.5
		v4.8h-5.4v20.1h-6.2v-20.1h-3.9v-4.8h3.9c0.1-3.1,1.1-5.5,2.9-7.4c1.8-1.9,4.1-2.8,7-2.8c1.5,0,3.3,0.3,5.4,0.9L78.1,2266.9z"/>
</g>
<text transform="matrix(1 0 0 1 89.7325 2289.1875)" class="st44 st49 st55">sK8Facebook.com </text>
<g>
	<g id="Instagram_1_">
		<g id="Instagram">
			<path id="Head" class="st56" d="M1001.7,2311.2h-20.1c-1.8,0-3.3,1.5-3.3,3.3v6.7h26.8v-6.7
				C1005.1,2312.7,1003.6,2311.2,1001.7,2311.2z"/>
			<path id="Red_x5F_Stripes" class="st57" d="M979.9,2311.7v9.5h1.7v-10C981,2311.2,980.4,2311.4,979.9,2311.7z"/>
			<rect id="Yellow_x5F_Stripes" x="981.6" y="2311.2" class="st58" width="1.7" height="10"/>
			<rect id="Green_x5F_Stripes" x="983.3" y="2311.2" class="st59" width="1.7" height="10"/>
			<rect id="Blue_x5F_Stripes" x="985" y="2311.2" class="st60" width="1.7" height="10"/>
			<circle id="Lens_1_" class="st61" cx="1000" cy="2316.3" r="2.5"/>
			<circle id="Lens_x5F_Outer" class="st62" cx="1000" cy="2316.3" r="1.3"/>
			<circle id="Lens_x5F_Inside" class="st63" cx="1000" cy="2316.3" r="0.4"/>
			<path id="Body" class="st64" d="M978.3,2321.3v13.4c0,1.8,1.5,3.3,3.3,3.3h20.1c1.8,0,3.3-1.5,3.3-3.3v-13.4H978.3z"/>
			<g id="Shadow">
				<polygon class="st65" points="998.9,2321.3 997,2319.3 997,2321.3 				"/>
				<path class="st66" d="M995,2321.3l-8.7,8.7l8,8h7.4c1.8,0,3.3-1.5,3.3-3.3v-7.3l-6.1-6.1H995z"/>
			</g>
			<circle id="Lens" class="st67" cx="991.7" cy="2324.6" r="7.5"/>
			<circle id="Inside_x5F_Lens" class="st61" cx="991.7" cy="2324.6" r="5.9"/>
			<circle id="_x32_nd_Inner_Circle" class="st62" cx="991.7" cy="2324.6" r="3.3"/>
			<circle id="Middle_Circle" class="st61" cx="991.7" cy="2324.6" r="1.7"/>
			<circle id="Reflection" class="st63" cx="993.8" cy="2322.5" r="1.3"/>
		</g>
	</g>
</g>
<text transform="matrix(1 0 0 1 1019.6154 2333.4219)" class="st17 st49 st55">@sk8</text>
<g>
	<g>
		<path class="st68" d="M834.5,2097.5c0.5,0,0.9,0,1.4,0c0.3,0,0.7,0,1,0.1c0.7,0.1,1.4,0.3,2,0.5c1.2,0.5,2.2,1.1,3.1,2
			c0.1,0.1,0.2,0.1,0.4,0.1c1.8-0.4,3.4-0.9,5-1.7c0.2-0.1,0.3-0.2,0.5-0.3c0.1,0,0.2-0.1,0.3,0c0.1,0.1,0,0.2,0,0.2
			c-0.2,0.4-0.3,0.8-0.6,1.2c-0.5,0.9-1.1,1.7-1.9,2.4c-0.4,0.4-0.9,0.7-1.3,1c0.4-0.1,0.7-0.1,1.1-0.2c1.2-0.2,2.4-0.6,3.6-1
			c0.1,0,0.2-0.1,0.3,0c0.1,0.1,0,0.2-0.1,0.3c-0.8,1.1-1.7,2.1-2.8,3c-0.5,0.4-1,0.8-1.5,1.2c-0.1,0.1-0.2,0.2-0.2,0.4
			c0,0.4,0,0.9,0,1.3c0,1.1-0.1,2.3-0.3,3.4c-0.2,1.5-0.6,2.9-1.1,4.3c-1,2.8-2.5,5.3-4.4,7.7c-0.6,0.7-1.2,1.4-1.9,2.1
			c-1.4,1.4-2.9,2.5-4.6,3.5c-1.9,1.1-3.9,2-6,2.7c-1.4,0.4-2.8,0.7-4.2,0.9c-0.9,0.1-1.8,0.2-2.7,0.2c-0.3,0-0.7,0-1.1,0
			c-0.5,0-1.1,0-1.6,0c0,0,0,0-0.1,0c-0.5,0-1.1,0-1.6,0c-0.5,0-1.1-0.1-1.6-0.1c-1.6-0.2-3.3-0.6-4.8-1.1c-1.9-0.6-3.8-1.4-5.5-2.5
			c-0.1-0.1-0.3-0.1-0.2-0.2c0-0.1,0.2-0.1,0.3,0c0.8,0.1,1.7,0.1,2.5,0.1c1.8-0.1,3.7-0.4,5.4-0.9c2-0.6,3.8-1.5,5.5-2.7
			c0,0,0,0,0.1-0.1c-0.4,0-0.9-0.1-1.3-0.1c-1-0.2-2-0.5-2.9-1c-0.9-0.5-1.7-1.1-2.4-1.8c-0.9-0.9-1.6-1.9-2-3.1
			c-0.1-0.2,0-0.3,0.3-0.3c0.6,0.1,1.2,0.2,1.8,0.1c0.6,0,1.2-0.1,1.7-0.2c0.1,0,0.1,0,0.1,0c-1.4-0.3-2.8-1-3.9-1.9
			c-1-0.8-1.8-1.7-2.4-2.8c-0.5-0.9-0.8-1.8-0.9-2.7c0-0.4-0.1-0.7-0.1-1.1c0-0.3,0.1-0.3,0.4-0.2c1.1,0.5,2.2,0.8,3.4,0.9
			c0.1,0,0.1,0,0.2,0c0,0,0,0,0.1,0c-0.5-0.3-0.9-0.7-1.3-1.1c-0.6-0.5-1-1.1-1.4-1.8c-0.7-1.1-1.1-2.3-1.2-3.6c0-0.6,0-1.1,0-1.7
			c0.1-1.2,0.5-2.2,1.1-3.3c0.2-0.4,0.3-0.4,0.6-0.1c0.5,0.6,1,1.1,1.6,1.6c1.1,1,2.2,1.9,3.5,2.7c1.2,0.8,2.4,1.4,3.7,2
			c2,0.9,4.1,1.6,6.3,2c1,0.2,2,0.3,3,0.4c0.3,0,0.6,0,0.9,0.1c0.1,0,0.1-0.1,0.1-0.1c-0.1-0.3-0.1-0.7-0.1-1c0-0.6-0.1-1.1,0-1.7
			c0.1-0.8,0.3-1.6,0.6-2.3c0.4-1,1-1.8,1.8-2.6c0.8-0.9,1.8-1.6,3-2.1c0.7-0.3,1.5-0.6,2.3-0.7c0.3-0.1,0.7-0.1,1-0.1
			C834.4,2097.5,834.5,2097.6,834.5,2097.5z"/>
	</g>
</g>
<text transform="matrix(1 0 0 1 869.048 2124.9893)" class="st44 st49 st55">SK8twitter.com</text>
</svg>
